G04 #@! TF.GenerationSoftware,KiCad,Pcbnew,9.0.2*
G04 #@! TF.CreationDate,2025-06-18T11:41:48+09:00*
G04 #@! TF.ProjectId,Work,576f726b-2e6b-4696-9361-645f70636258,rev?*
G04 #@! TF.SameCoordinates,PX4cc5520PY8e93060*
G04 #@! TF.FileFunction,Soldermask,Top*
G04 #@! TF.FilePolarity,Negative*
%FSLAX46Y46*%
G04 Gerber Fmt 4.6, Leading zero omitted, Abs format (unit mm)*
G04 Created by KiCad (PCBNEW 9.0.2) date 2025-06-18 11:41:48*
%MOMM*%
%LPD*%
G01*
G04 APERTURE LIST*
G04 Aperture macros list*
%AMRoundRect*
0 Rectangle with rounded corners*
0 $1 Rounding radius*
0 $2 $3 $4 $5 $6 $7 $8 $9 X,Y pos of 4 corners*
0 Add a 4 corners polygon primitive as box body*
4,1,4,$2,$3,$4,$5,$6,$7,$8,$9,$2,$3,0*
0 Add four circle primitives for the rounded corners*
1,1,$1+$1,$2,$3*
1,1,$1+$1,$4,$5*
1,1,$1+$1,$6,$7*
1,1,$1+$1,$8,$9*
0 Add four rect primitives between the rounded corners*
20,1,$1+$1,$2,$3,$4,$5,0*
20,1,$1+$1,$4,$5,$6,$7,0*
20,1,$1+$1,$6,$7,$8,$9,0*
20,1,$1+$1,$8,$9,$2,$3,0*%
G04 Aperture macros list end*
%ADD10RoundRect,0.225000X-0.225000X-0.250000X0.225000X-0.250000X0.225000X0.250000X-0.225000X0.250000X0*%
%ADD11RoundRect,0.200000X0.275000X-0.200000X0.275000X0.200000X-0.275000X0.200000X-0.275000X-0.200000X0*%
%ADD12RoundRect,0.200000X-0.250000X-0.200000X0.250000X-0.200000X0.250000X0.200000X-0.250000X0.200000X0*%
%ADD13C,0.001000*%
%ADD14R,1.050000X1.600000*%
%ADD15R,1.600000X1.050000*%
%ADD16RoundRect,0.200000X0.200000X0.275000X-0.200000X0.275000X-0.200000X-0.275000X0.200000X-0.275000X0*%
%ADD17RoundRect,0.225000X-0.250000X0.225000X-0.250000X-0.225000X0.250000X-0.225000X0.250000X0.225000X0*%
%ADD18R,1.425000X0.750000*%
%ADD19RoundRect,0.225000X0.250000X-0.225000X0.250000X0.225000X-0.250000X0.225000X-0.250000X-0.225000X0*%
%ADD20RoundRect,0.200000X-0.275000X0.200000X-0.275000X-0.200000X0.275000X-0.200000X0.275000X0.200000X0*%
%ADD21RoundRect,0.200000X-0.200000X-0.275000X0.200000X-0.275000X0.200000X0.275000X-0.200000X0.275000X0*%
%ADD22RoundRect,0.225000X0.225000X0.250000X-0.225000X0.250000X-0.225000X-0.250000X0.225000X-0.250000X0*%
%ADD23R,0.838200X1.600200*%
%ADD24R,0.400000X1.526000*%
%ADD25R,0.600000X0.800000*%
%ADD26R,0.400000X1.350000*%
%ADD27R,1.600000X1.900000*%
%ADD28R,2.100000X2.000000*%
%ADD29R,1.200000X1.900000*%
%ADD30RoundRect,0.102000X-0.400000X-1.800000X0.400000X-1.800000X0.400000X1.800000X-0.400000X1.800000X0*%
%ADD31RoundRect,0.102000X-0.350000X-1.300000X0.350000X-1.300000X0.350000X1.300000X-0.350000X1.300000X0*%
%ADD32RoundRect,0.102000X-0.400000X-1.300000X0.400000X-1.300000X0.400000X1.300000X-0.400000X1.300000X0*%
%ADD33RoundRect,0.102000X0.303917X-0.715985X0.715985X0.303917X-0.303917X0.715985X-0.715985X-0.303917X0*%
%ADD34C,1.304000*%
%ADD35RoundRect,0.250000X0.350000X-0.850000X0.350000X0.850000X-0.350000X0.850000X-0.350000X-0.850000X0*%
%ADD36RoundRect,0.249997X2.650003X-2.950003X2.650003X2.950003X-2.650003X2.950003X-2.650003X-2.950003X0*%
%ADD37C,1.244600*%
%ADD38RoundRect,0.150000X0.150000X-0.512500X0.150000X0.512500X-0.150000X0.512500X-0.150000X-0.512500X0*%
%ADD39R,1.250000X1.750000*%
%ADD40R,1.500000X0.900000*%
%ADD41R,0.900000X1.500000*%
%ADD42C,5.000000*%
%ADD43R,0.900000X0.900000*%
G04 APERTURE END LIST*
D10*
X14425000Y13400000D03*
X15975000Y13400000D03*
D11*
X36200000Y27275000D03*
X36200000Y28925000D03*
X42000000Y13375000D03*
X42000000Y15025000D03*
D12*
X19700000Y20850000D03*
X19700000Y18950000D03*
X22100000Y19900000D03*
D13*
X50200000Y12200000D03*
X50200000Y10400000D03*
D14*
X47975000Y11300000D03*
X52425000Y11300000D03*
D13*
X32100000Y29700000D03*
X33900000Y29700000D03*
D15*
X33000000Y27475000D03*
X33000000Y31925000D03*
D10*
X13725000Y10400000D03*
X15275000Y10400000D03*
D16*
X24025000Y40800000D03*
X22375000Y40800000D03*
D12*
X19700000Y16850000D03*
X19700000Y14950000D03*
X22100000Y15900000D03*
D13*
X28500000Y29700000D03*
X30300000Y29700000D03*
D15*
X29400000Y27475000D03*
X29400000Y31925000D03*
D11*
X58900000Y9475000D03*
X58900000Y11125000D03*
D17*
X31200000Y19275000D03*
X31200000Y17725000D03*
D18*
X38012000Y36195000D03*
X38012000Y37465000D03*
X38012000Y38735000D03*
X38012000Y40005000D03*
X30388000Y40005000D03*
X30388000Y38735000D03*
X30388000Y37465000D03*
X30388000Y36195000D03*
D10*
X44825000Y5600000D03*
X46375000Y5600000D03*
D19*
X4100000Y24625000D03*
X4100000Y26175000D03*
D10*
X15325000Y22600000D03*
X16875000Y22600000D03*
D19*
X25300000Y6225000D03*
X25300000Y7775000D03*
X45300000Y13425000D03*
X45300000Y14975000D03*
D20*
X65000000Y11125000D03*
X65000000Y9475000D03*
D17*
X46000000Y36225000D03*
X46000000Y34675000D03*
D21*
X19275000Y40800000D03*
X20925000Y40800000D03*
D13*
X42950000Y20800000D03*
X42950000Y22600000D03*
D14*
X45175000Y21700000D03*
X40725000Y21700000D03*
D22*
X29175000Y2000000D03*
X27625000Y2000000D03*
D23*
X8445000Y24589600D03*
X9715000Y24589600D03*
X10985000Y24589600D03*
X12255000Y24589600D03*
X13525000Y24589600D03*
X14795000Y24589600D03*
X16065000Y24589600D03*
X17335000Y24589600D03*
X18605000Y24589600D03*
X19875000Y24589600D03*
X21145000Y24589600D03*
X22415000Y24589600D03*
X23685000Y24589600D03*
X24955000Y24589600D03*
X24955000Y38610400D03*
X23685000Y38610400D03*
X22415000Y38610400D03*
X21145000Y38610400D03*
X19875000Y38610400D03*
X18605000Y38610400D03*
X17335000Y38610400D03*
X16065000Y38610400D03*
X14795000Y38610400D03*
X13525000Y38610400D03*
X12255000Y38610400D03*
X10985000Y38610400D03*
X9715000Y38610400D03*
X8445000Y38610400D03*
D10*
X43625000Y25100000D03*
X45175000Y25100000D03*
D20*
X10700000Y12025000D03*
X10700000Y10375000D03*
D17*
X43700000Y14975000D03*
X43700000Y13425000D03*
D20*
X62000000Y11125000D03*
X62000000Y9475000D03*
D24*
X16558000Y20712000D03*
X15922000Y20712000D03*
X15288000Y20712000D03*
X14652000Y20712000D03*
X14018000Y20712000D03*
X13382000Y20712000D03*
X12748000Y20712000D03*
X12112000Y20712000D03*
X11478000Y20712000D03*
X10842000Y20712000D03*
X10842000Y15288000D03*
X11478000Y15288000D03*
X12112000Y15288000D03*
X12748000Y15288000D03*
X13382000Y15288000D03*
X14018000Y15288000D03*
X14652000Y15288000D03*
X15288000Y15288000D03*
X15922000Y15288000D03*
X16558000Y15288000D03*
D25*
X38600000Y2800000D03*
X40300000Y2800000D03*
D20*
X63500000Y11125000D03*
X63500000Y9475000D03*
D21*
X38675000Y4300000D03*
X40325000Y4300000D03*
D17*
X44400000Y36225000D03*
X44400000Y34675000D03*
X36000000Y5775000D03*
X36000000Y4225000D03*
D16*
X32625000Y24400000D03*
X30975000Y24400000D03*
D26*
X12500000Y7425000D03*
X11850000Y7425000D03*
X11200000Y7425000D03*
X10550000Y7425000D03*
D27*
X7100000Y4750000D03*
D28*
X7900000Y7100000D03*
D26*
X9900000Y7425000D03*
D29*
X10350000Y4750000D03*
X12050000Y4750000D03*
D28*
X14500000Y7100000D03*
D27*
X15300000Y4750000D03*
D20*
X44400000Y32625000D03*
X44400000Y30975000D03*
D30*
X14300000Y28750000D03*
D31*
X17260000Y28250000D03*
X18530000Y28250000D03*
X19800000Y28250000D03*
X21070000Y28250000D03*
X22340000Y28250000D03*
D32*
X25300000Y28250000D03*
X25300000Y34350000D03*
D31*
X22340000Y34350000D03*
X21070000Y34350000D03*
X19800000Y34350000D03*
X18530000Y34350000D03*
X17260000Y34350000D03*
D32*
X14300000Y34350000D03*
D33*
X4412129Y30959066D03*
D34*
X9807377Y31006149D03*
X9787871Y33240934D03*
X4392623Y33193851D03*
D13*
X42950000Y17100000D03*
X42950000Y18900000D03*
D14*
X45175000Y18000000D03*
X40725000Y18000000D03*
D35*
X27592500Y4300000D03*
D36*
X29872500Y10600000D03*
D35*
X32152500Y4300000D03*
D10*
X14425000Y11900000D03*
X15975000Y11900000D03*
D21*
X43525000Y26700000D03*
X45175000Y26700000D03*
D17*
X25200000Y17075000D03*
X25200000Y15525000D03*
X36200000Y31925000D03*
X36200000Y30375000D03*
D16*
X55925000Y11300000D03*
X54275000Y11300000D03*
D19*
X5700000Y24625000D03*
X5700000Y26175000D03*
D20*
X12200000Y12025000D03*
X12200000Y10375000D03*
D22*
X9175000Y10400000D03*
X7625000Y10400000D03*
D20*
X60500000Y11125000D03*
X60500000Y9475000D03*
D22*
X29475000Y24400000D03*
X27925000Y24400000D03*
D17*
X27000000Y20975000D03*
X27000000Y19425000D03*
D37*
X60500002Y5500000D03*
X62000002Y5500000D03*
X63500001Y5500000D03*
X65000001Y5500000D03*
X66500000Y5500000D03*
D25*
X54250000Y12900000D03*
X55950000Y12900000D03*
D38*
X27050000Y15462500D03*
X28000000Y15462500D03*
X28950000Y15462500D03*
X28950000Y17737500D03*
X27050000Y17737500D03*
D39*
X23200000Y6650000D03*
X23200000Y9350000D03*
D17*
X34300000Y5775000D03*
X34300000Y4225000D03*
X28500000Y20975000D03*
X28500000Y19425000D03*
D37*
X50000002Y5487300D03*
X51500002Y5487300D03*
X53000001Y5487300D03*
X54500001Y5487300D03*
X56000000Y5487300D03*
D40*
X49250000Y34510000D03*
X49250000Y33240000D03*
X49250000Y31970000D03*
X49250000Y30700000D03*
X49250000Y29430000D03*
X49250000Y28160000D03*
X49250000Y26890000D03*
X49250000Y25620000D03*
X49250000Y24350000D03*
X49250000Y23080000D03*
X49250000Y21810000D03*
X49250000Y20540000D03*
X49250000Y19270000D03*
X49250000Y18000000D03*
D41*
X52290000Y16750000D03*
X53560000Y16750000D03*
X54830000Y16750000D03*
X56100000Y16750000D03*
X57370000Y16750000D03*
X58640000Y16750000D03*
X59910000Y16750000D03*
X61180000Y16750000D03*
X62450000Y16750000D03*
X63720000Y16750000D03*
D40*
X66750000Y18000000D03*
X66750000Y19270000D03*
X66750000Y20540000D03*
X66750000Y21810000D03*
X66750000Y23080000D03*
X66750000Y24350000D03*
X66750000Y25620000D03*
X66750000Y26890000D03*
X66750000Y28160000D03*
X66750000Y29430000D03*
X66750000Y30700000D03*
X66750000Y31970000D03*
X66750000Y33240000D03*
X66750000Y34510000D03*
D42*
X56500000Y26790000D03*
D43*
X56500000Y25390000D03*
X57900000Y25390000D03*
X57900000Y26790000D03*
X57900000Y28190000D03*
X56500000Y28190000D03*
X55100000Y28190000D03*
X55100000Y26790000D03*
X55100000Y25390000D03*
D10*
X44825000Y7300000D03*
X46375000Y7300000D03*
M02*
