G04 #@! TF.GenerationSoftware,KiCad,Pcbnew,9.0.2*
G04 #@! TF.CreationDate,2025-06-18T11:41:48+09:00*
G04 #@! TF.ProjectId,Work,576f726b-2e6b-4696-9361-645f70636258,rev?*
G04 #@! TF.SameCoordinates,PX4cc5520PY8e93060*
G04 #@! TF.FileFunction,Legend,Bot*
G04 #@! TF.FilePolarity,Positive*
%FSLAX46Y46*%
G04 Gerber Fmt 4.6, Leading zero omitted, Abs format (unit mm)*
G04 Created by KiCad (PCBNEW 9.0.2) date 2025-06-18 11:41:48*
%MOMM*%
%LPD*%
G01*
G04 APERTURE LIST*
%ADD10C,0.120000*%
%ADD11C,0.000000*%
G04 APERTURE END LIST*
D10*
X26014285Y30736145D02*
X26280952Y31117098D01*
X26471428Y30736145D02*
X26471428Y31536145D01*
X26471428Y31536145D02*
X26166666Y31536145D01*
X26166666Y31536145D02*
X26090476Y31498050D01*
X26090476Y31498050D02*
X26052381Y31459955D01*
X26052381Y31459955D02*
X26014285Y31383764D01*
X26014285Y31383764D02*
X26014285Y31269479D01*
X26014285Y31269479D02*
X26052381Y31193288D01*
X26052381Y31193288D02*
X26090476Y31155193D01*
X26090476Y31155193D02*
X26166666Y31117098D01*
X26166666Y31117098D02*
X26471428Y31117098D01*
X25252381Y30736145D02*
X25709524Y30736145D01*
X25480952Y30736145D02*
X25480952Y31536145D01*
X25480952Y31536145D02*
X25557143Y31421860D01*
X25557143Y31421860D02*
X25633333Y31345669D01*
X25633333Y31345669D02*
X25709524Y31307574D01*
X24985714Y31536145D02*
X24452380Y31536145D01*
X24452380Y31536145D02*
X24795238Y30736145D01*
X19414285Y27106145D02*
X19680952Y27487098D01*
X19871428Y27106145D02*
X19871428Y27906145D01*
X19871428Y27906145D02*
X19566666Y27906145D01*
X19566666Y27906145D02*
X19490476Y27868050D01*
X19490476Y27868050D02*
X19452381Y27829955D01*
X19452381Y27829955D02*
X19414285Y27753764D01*
X19414285Y27753764D02*
X19414285Y27639479D01*
X19414285Y27639479D02*
X19452381Y27563288D01*
X19452381Y27563288D02*
X19490476Y27525193D01*
X19490476Y27525193D02*
X19566666Y27487098D01*
X19566666Y27487098D02*
X19871428Y27487098D01*
X18652381Y27106145D02*
X19109524Y27106145D01*
X18880952Y27106145D02*
X18880952Y27906145D01*
X18880952Y27906145D02*
X18957143Y27791860D01*
X18957143Y27791860D02*
X19033333Y27715669D01*
X19033333Y27715669D02*
X19109524Y27677574D01*
X18195238Y27563288D02*
X18271428Y27601383D01*
X18271428Y27601383D02*
X18309523Y27639479D01*
X18309523Y27639479D02*
X18347619Y27715669D01*
X18347619Y27715669D02*
X18347619Y27753764D01*
X18347619Y27753764D02*
X18309523Y27829955D01*
X18309523Y27829955D02*
X18271428Y27868050D01*
X18271428Y27868050D02*
X18195238Y27906145D01*
X18195238Y27906145D02*
X18042857Y27906145D01*
X18042857Y27906145D02*
X17966666Y27868050D01*
X17966666Y27868050D02*
X17928571Y27829955D01*
X17928571Y27829955D02*
X17890476Y27753764D01*
X17890476Y27753764D02*
X17890476Y27715669D01*
X17890476Y27715669D02*
X17928571Y27639479D01*
X17928571Y27639479D02*
X17966666Y27601383D01*
X17966666Y27601383D02*
X18042857Y27563288D01*
X18042857Y27563288D02*
X18195238Y27563288D01*
X18195238Y27563288D02*
X18271428Y27525193D01*
X18271428Y27525193D02*
X18309523Y27487098D01*
X18309523Y27487098D02*
X18347619Y27410907D01*
X18347619Y27410907D02*
X18347619Y27258526D01*
X18347619Y27258526D02*
X18309523Y27182336D01*
X18309523Y27182336D02*
X18271428Y27144240D01*
X18271428Y27144240D02*
X18195238Y27106145D01*
X18195238Y27106145D02*
X18042857Y27106145D01*
X18042857Y27106145D02*
X17966666Y27144240D01*
X17966666Y27144240D02*
X17928571Y27182336D01*
X17928571Y27182336D02*
X17890476Y27258526D01*
X17890476Y27258526D02*
X17890476Y27410907D01*
X17890476Y27410907D02*
X17928571Y27487098D01*
X17928571Y27487098D02*
X17966666Y27525193D01*
X17966666Y27525193D02*
X18042857Y27563288D01*
X17314285Y31112336D02*
X17352381Y31074240D01*
X17352381Y31074240D02*
X17466666Y31036145D01*
X17466666Y31036145D02*
X17542857Y31036145D01*
X17542857Y31036145D02*
X17657143Y31074240D01*
X17657143Y31074240D02*
X17733333Y31150431D01*
X17733333Y31150431D02*
X17771428Y31226621D01*
X17771428Y31226621D02*
X17809524Y31379002D01*
X17809524Y31379002D02*
X17809524Y31493288D01*
X17809524Y31493288D02*
X17771428Y31645669D01*
X17771428Y31645669D02*
X17733333Y31721860D01*
X17733333Y31721860D02*
X17657143Y31798050D01*
X17657143Y31798050D02*
X17542857Y31836145D01*
X17542857Y31836145D02*
X17466666Y31836145D01*
X17466666Y31836145D02*
X17352381Y31798050D01*
X17352381Y31798050D02*
X17314285Y31759955D01*
X17009524Y31759955D02*
X16971428Y31798050D01*
X16971428Y31798050D02*
X16895238Y31836145D01*
X16895238Y31836145D02*
X16704762Y31836145D01*
X16704762Y31836145D02*
X16628571Y31798050D01*
X16628571Y31798050D02*
X16590476Y31759955D01*
X16590476Y31759955D02*
X16552381Y31683764D01*
X16552381Y31683764D02*
X16552381Y31607574D01*
X16552381Y31607574D02*
X16590476Y31493288D01*
X16590476Y31493288D02*
X17047619Y31036145D01*
X17047619Y31036145D02*
X16552381Y31036145D01*
X16095238Y31493288D02*
X16171428Y31531383D01*
X16171428Y31531383D02*
X16209523Y31569479D01*
X16209523Y31569479D02*
X16247619Y31645669D01*
X16247619Y31645669D02*
X16247619Y31683764D01*
X16247619Y31683764D02*
X16209523Y31759955D01*
X16209523Y31759955D02*
X16171428Y31798050D01*
X16171428Y31798050D02*
X16095238Y31836145D01*
X16095238Y31836145D02*
X15942857Y31836145D01*
X15942857Y31836145D02*
X15866666Y31798050D01*
X15866666Y31798050D02*
X15828571Y31759955D01*
X15828571Y31759955D02*
X15790476Y31683764D01*
X15790476Y31683764D02*
X15790476Y31645669D01*
X15790476Y31645669D02*
X15828571Y31569479D01*
X15828571Y31569479D02*
X15866666Y31531383D01*
X15866666Y31531383D02*
X15942857Y31493288D01*
X15942857Y31493288D02*
X16095238Y31493288D01*
X16095238Y31493288D02*
X16171428Y31455193D01*
X16171428Y31455193D02*
X16209523Y31417098D01*
X16209523Y31417098D02*
X16247619Y31340907D01*
X16247619Y31340907D02*
X16247619Y31188526D01*
X16247619Y31188526D02*
X16209523Y31112336D01*
X16209523Y31112336D02*
X16171428Y31074240D01*
X16171428Y31074240D02*
X16095238Y31036145D01*
X16095238Y31036145D02*
X15942857Y31036145D01*
X15942857Y31036145D02*
X15866666Y31074240D01*
X15866666Y31074240D02*
X15828571Y31112336D01*
X15828571Y31112336D02*
X15790476Y31188526D01*
X15790476Y31188526D02*
X15790476Y31340907D01*
X15790476Y31340907D02*
X15828571Y31417098D01*
X15828571Y31417098D02*
X15866666Y31455193D01*
X15866666Y31455193D02*
X15942857Y31493288D01*
X8214285Y29412336D02*
X8252381Y29374240D01*
X8252381Y29374240D02*
X8366666Y29336145D01*
X8366666Y29336145D02*
X8442857Y29336145D01*
X8442857Y29336145D02*
X8557143Y29374240D01*
X8557143Y29374240D02*
X8633333Y29450431D01*
X8633333Y29450431D02*
X8671428Y29526621D01*
X8671428Y29526621D02*
X8709524Y29679002D01*
X8709524Y29679002D02*
X8709524Y29793288D01*
X8709524Y29793288D02*
X8671428Y29945669D01*
X8671428Y29945669D02*
X8633333Y30021860D01*
X8633333Y30021860D02*
X8557143Y30098050D01*
X8557143Y30098050D02*
X8442857Y30136145D01*
X8442857Y30136145D02*
X8366666Y30136145D01*
X8366666Y30136145D02*
X8252381Y30098050D01*
X8252381Y30098050D02*
X8214285Y30059955D01*
X7947619Y30136145D02*
X7452381Y30136145D01*
X7452381Y30136145D02*
X7719047Y29831383D01*
X7719047Y29831383D02*
X7604762Y29831383D01*
X7604762Y29831383D02*
X7528571Y29793288D01*
X7528571Y29793288D02*
X7490476Y29755193D01*
X7490476Y29755193D02*
X7452381Y29679002D01*
X7452381Y29679002D02*
X7452381Y29488526D01*
X7452381Y29488526D02*
X7490476Y29412336D01*
X7490476Y29412336D02*
X7528571Y29374240D01*
X7528571Y29374240D02*
X7604762Y29336145D01*
X7604762Y29336145D02*
X7833333Y29336145D01*
X7833333Y29336145D02*
X7909524Y29374240D01*
X7909524Y29374240D02*
X7947619Y29412336D01*
X6957142Y30136145D02*
X6880952Y30136145D01*
X6880952Y30136145D02*
X6804761Y30098050D01*
X6804761Y30098050D02*
X6766666Y30059955D01*
X6766666Y30059955D02*
X6728571Y29983764D01*
X6728571Y29983764D02*
X6690476Y29831383D01*
X6690476Y29831383D02*
X6690476Y29640907D01*
X6690476Y29640907D02*
X6728571Y29488526D01*
X6728571Y29488526D02*
X6766666Y29412336D01*
X6766666Y29412336D02*
X6804761Y29374240D01*
X6804761Y29374240D02*
X6880952Y29336145D01*
X6880952Y29336145D02*
X6957142Y29336145D01*
X6957142Y29336145D02*
X7033333Y29374240D01*
X7033333Y29374240D02*
X7071428Y29412336D01*
X7071428Y29412336D02*
X7109523Y29488526D01*
X7109523Y29488526D02*
X7147619Y29640907D01*
X7147619Y29640907D02*
X7147619Y29831383D01*
X7147619Y29831383D02*
X7109523Y29983764D01*
X7109523Y29983764D02*
X7071428Y30059955D01*
X7071428Y30059955D02*
X7033333Y30098050D01*
X7033333Y30098050D02*
X6957142Y30136145D01*
X26014285Y32312336D02*
X26052381Y32274240D01*
X26052381Y32274240D02*
X26166666Y32236145D01*
X26166666Y32236145D02*
X26242857Y32236145D01*
X26242857Y32236145D02*
X26357143Y32274240D01*
X26357143Y32274240D02*
X26433333Y32350431D01*
X26433333Y32350431D02*
X26471428Y32426621D01*
X26471428Y32426621D02*
X26509524Y32579002D01*
X26509524Y32579002D02*
X26509524Y32693288D01*
X26509524Y32693288D02*
X26471428Y32845669D01*
X26471428Y32845669D02*
X26433333Y32921860D01*
X26433333Y32921860D02*
X26357143Y32998050D01*
X26357143Y32998050D02*
X26242857Y33036145D01*
X26242857Y33036145D02*
X26166666Y33036145D01*
X26166666Y33036145D02*
X26052381Y32998050D01*
X26052381Y32998050D02*
X26014285Y32959955D01*
X25709524Y32959955D02*
X25671428Y32998050D01*
X25671428Y32998050D02*
X25595238Y33036145D01*
X25595238Y33036145D02*
X25404762Y33036145D01*
X25404762Y33036145D02*
X25328571Y32998050D01*
X25328571Y32998050D02*
X25290476Y32959955D01*
X25290476Y32959955D02*
X25252381Y32883764D01*
X25252381Y32883764D02*
X25252381Y32807574D01*
X25252381Y32807574D02*
X25290476Y32693288D01*
X25290476Y32693288D02*
X25747619Y32236145D01*
X25747619Y32236145D02*
X25252381Y32236145D01*
X24985714Y33036145D02*
X24452380Y33036145D01*
X24452380Y33036145D02*
X24795238Y32236145D01*
X16914285Y33712336D02*
X16952381Y33674240D01*
X16952381Y33674240D02*
X17066666Y33636145D01*
X17066666Y33636145D02*
X17142857Y33636145D01*
X17142857Y33636145D02*
X17257143Y33674240D01*
X17257143Y33674240D02*
X17333333Y33750431D01*
X17333333Y33750431D02*
X17371428Y33826621D01*
X17371428Y33826621D02*
X17409524Y33979002D01*
X17409524Y33979002D02*
X17409524Y34093288D01*
X17409524Y34093288D02*
X17371428Y34245669D01*
X17371428Y34245669D02*
X17333333Y34321860D01*
X17333333Y34321860D02*
X17257143Y34398050D01*
X17257143Y34398050D02*
X17142857Y34436145D01*
X17142857Y34436145D02*
X17066666Y34436145D01*
X17066666Y34436145D02*
X16952381Y34398050D01*
X16952381Y34398050D02*
X16914285Y34359955D01*
X16609524Y34359955D02*
X16571428Y34398050D01*
X16571428Y34398050D02*
X16495238Y34436145D01*
X16495238Y34436145D02*
X16304762Y34436145D01*
X16304762Y34436145D02*
X16228571Y34398050D01*
X16228571Y34398050D02*
X16190476Y34359955D01*
X16190476Y34359955D02*
X16152381Y34283764D01*
X16152381Y34283764D02*
X16152381Y34207574D01*
X16152381Y34207574D02*
X16190476Y34093288D01*
X16190476Y34093288D02*
X16647619Y33636145D01*
X16647619Y33636145D02*
X16152381Y33636145D01*
X15466666Y34436145D02*
X15619047Y34436145D01*
X15619047Y34436145D02*
X15695238Y34398050D01*
X15695238Y34398050D02*
X15733333Y34359955D01*
X15733333Y34359955D02*
X15809523Y34245669D01*
X15809523Y34245669D02*
X15847619Y34093288D01*
X15847619Y34093288D02*
X15847619Y33788526D01*
X15847619Y33788526D02*
X15809523Y33712336D01*
X15809523Y33712336D02*
X15771428Y33674240D01*
X15771428Y33674240D02*
X15695238Y33636145D01*
X15695238Y33636145D02*
X15542857Y33636145D01*
X15542857Y33636145D02*
X15466666Y33674240D01*
X15466666Y33674240D02*
X15428571Y33712336D01*
X15428571Y33712336D02*
X15390476Y33788526D01*
X15390476Y33788526D02*
X15390476Y33979002D01*
X15390476Y33979002D02*
X15428571Y34055193D01*
X15428571Y34055193D02*
X15466666Y34093288D01*
X15466666Y34093288D02*
X15542857Y34131383D01*
X15542857Y34131383D02*
X15695238Y34131383D01*
X15695238Y34131383D02*
X15771428Y34093288D01*
X15771428Y34093288D02*
X15809523Y34055193D01*
X15809523Y34055193D02*
X15847619Y33979002D01*
X8214285Y33412336D02*
X8252381Y33374240D01*
X8252381Y33374240D02*
X8366666Y33336145D01*
X8366666Y33336145D02*
X8442857Y33336145D01*
X8442857Y33336145D02*
X8557143Y33374240D01*
X8557143Y33374240D02*
X8633333Y33450431D01*
X8633333Y33450431D02*
X8671428Y33526621D01*
X8671428Y33526621D02*
X8709524Y33679002D01*
X8709524Y33679002D02*
X8709524Y33793288D01*
X8709524Y33793288D02*
X8671428Y33945669D01*
X8671428Y33945669D02*
X8633333Y34021860D01*
X8633333Y34021860D02*
X8557143Y34098050D01*
X8557143Y34098050D02*
X8442857Y34136145D01*
X8442857Y34136145D02*
X8366666Y34136145D01*
X8366666Y34136145D02*
X8252381Y34098050D01*
X8252381Y34098050D02*
X8214285Y34059955D01*
X7909524Y34059955D02*
X7871428Y34098050D01*
X7871428Y34098050D02*
X7795238Y34136145D01*
X7795238Y34136145D02*
X7604762Y34136145D01*
X7604762Y34136145D02*
X7528571Y34098050D01*
X7528571Y34098050D02*
X7490476Y34059955D01*
X7490476Y34059955D02*
X7452381Y33983764D01*
X7452381Y33983764D02*
X7452381Y33907574D01*
X7452381Y33907574D02*
X7490476Y33793288D01*
X7490476Y33793288D02*
X7947619Y33336145D01*
X7947619Y33336145D02*
X7452381Y33336145D01*
X7071428Y33336145D02*
X6919047Y33336145D01*
X6919047Y33336145D02*
X6842857Y33374240D01*
X6842857Y33374240D02*
X6804761Y33412336D01*
X6804761Y33412336D02*
X6728571Y33526621D01*
X6728571Y33526621D02*
X6690476Y33679002D01*
X6690476Y33679002D02*
X6690476Y33983764D01*
X6690476Y33983764D02*
X6728571Y34059955D01*
X6728571Y34059955D02*
X6766666Y34098050D01*
X6766666Y34098050D02*
X6842857Y34136145D01*
X6842857Y34136145D02*
X6995238Y34136145D01*
X6995238Y34136145D02*
X7071428Y34098050D01*
X7071428Y34098050D02*
X7109523Y34059955D01*
X7109523Y34059955D02*
X7147619Y33983764D01*
X7147619Y33983764D02*
X7147619Y33793288D01*
X7147619Y33793288D02*
X7109523Y33717098D01*
X7109523Y33717098D02*
X7071428Y33679002D01*
X7071428Y33679002D02*
X6995238Y33640907D01*
X6995238Y33640907D02*
X6842857Y33640907D01*
X6842857Y33640907D02*
X6766666Y33679002D01*
X6766666Y33679002D02*
X6728571Y33717098D01*
X6728571Y33717098D02*
X6690476Y33793288D01*
X23137258Y31622500D02*
X22662742Y31622500D01*
X23137258Y30577500D02*
X22662742Y30577500D01*
X18662742Y29422500D02*
X19137258Y29422500D01*
X18662742Y28377500D02*
X19137258Y28377500D01*
X16659420Y33110000D02*
X16940580Y33110000D01*
X16659420Y32090000D02*
X16940580Y32090000D01*
X7559420Y31510000D02*
X7840580Y31510000D01*
X7559420Y30490000D02*
X7840580Y30490000D01*
X23040580Y33110000D02*
X22759420Y33110000D01*
X23040580Y32090000D02*
X22759420Y32090000D01*
D11*
G36*
X64371918Y27373616D02*
G01*
X64372904Y27318649D01*
X64372813Y27257522D01*
X64371349Y27212223D01*
X64368638Y27189830D01*
X64363746Y27181616D01*
X64339186Y27170702D01*
X64308812Y27177380D01*
X64285118Y27200113D01*
X64281637Y27210129D01*
X64275888Y27250499D01*
X64272974Y27310722D01*
X64273338Y27383899D01*
X64277614Y27537685D01*
X64322623Y27537685D01*
X64367632Y27537685D01*
X64371918Y27373616D01*
G37*
G36*
X63975715Y27552549D02*
G01*
X63990705Y27534344D01*
X63997284Y27495263D01*
X63997388Y27458496D01*
X63993580Y27404358D01*
X63986886Y27343584D01*
X63978477Y27285320D01*
X63969521Y27238715D01*
X63961188Y27212914D01*
X63940335Y27201205D01*
X63908588Y27203864D01*
X63881847Y27220440D01*
X63876197Y27230372D01*
X63872512Y27264151D01*
X63880010Y27320007D01*
X63884461Y27346187D01*
X63892130Y27408254D01*
X63895268Y27460967D01*
X63895806Y27482174D01*
X63903916Y27530344D01*
X63923489Y27554370D01*
X63956747Y27557751D01*
X63975715Y27552549D01*
G37*
G36*
X62285030Y22789203D02*
G01*
X62298017Y22781011D01*
X62315533Y22763859D01*
X62328568Y22738623D01*
X62338082Y22700918D01*
X62345034Y22646361D01*
X62350383Y22570567D01*
X62355090Y22469153D01*
X62356377Y22437255D01*
X62358961Y22363738D01*
X62359407Y22312809D01*
X62357089Y22278988D01*
X62351383Y22256792D01*
X62341665Y22240742D01*
X62327310Y22225355D01*
X62288047Y22196792D01*
X62244269Y22192587D01*
X62197616Y22217788D01*
X62196740Y22218497D01*
X62184156Y22229835D01*
X62175072Y22243355D01*
X62168917Y22263692D01*
X62165122Y22295487D01*
X62163117Y22343374D01*
X62162332Y22411993D01*
X62162197Y22505979D01*
X62162197Y22765516D01*
X62203456Y22788635D01*
X62225989Y22799982D01*
X62252815Y22803367D01*
X62285030Y22789203D01*
G37*
G36*
X61521234Y22840910D02*
G01*
X61530583Y22833780D01*
X61540359Y22822089D01*
X61547042Y22803968D01*
X61551219Y22774701D01*
X61553476Y22729575D01*
X61554400Y22663872D01*
X61554578Y22572880D01*
X61554543Y22532339D01*
X61553976Y22451162D01*
X61552272Y22392892D01*
X61548868Y22352478D01*
X61543203Y22324867D01*
X61534714Y22305010D01*
X61522837Y22287853D01*
X61503286Y22268662D01*
X61458866Y22251330D01*
X61412728Y22259942D01*
X61373065Y22294153D01*
X61370475Y22297857D01*
X61361175Y22314781D01*
X61355149Y22336397D01*
X61352130Y22367756D01*
X61351850Y22413907D01*
X61354042Y22479901D01*
X61358440Y22570789D01*
X61360327Y22606885D01*
X61365025Y22687523D01*
X61369663Y22744790D01*
X61375076Y22783534D01*
X61382100Y22808600D01*
X61391570Y22824837D01*
X61404320Y22837091D01*
X61431363Y22854884D01*
X61474705Y22862117D01*
X61521234Y22840910D01*
G37*
G36*
X65505621Y28274804D02*
G01*
X65527007Y28256225D01*
X65539423Y28218434D01*
X65544015Y28158003D01*
X65541928Y28071507D01*
X65530884Y27965805D01*
X65504445Y27866803D01*
X65462638Y27791932D01*
X65404696Y27739883D01*
X65329851Y27709345D01*
X65321213Y27707453D01*
X65243548Y27703483D01*
X65162567Y27717913D01*
X65093342Y27748263D01*
X65067416Y27768381D01*
X65018228Y27830868D01*
X64982885Y27913120D01*
X64964345Y28009154D01*
X64960741Y28080289D01*
X64966236Y28134778D01*
X64982437Y28165602D01*
X65010044Y28175310D01*
X65019239Y28174974D01*
X65054712Y28162335D01*
X65074295Y28128860D01*
X65080356Y28071040D01*
X65082618Y28020444D01*
X65100289Y27935306D01*
X65134963Y27873373D01*
X65186012Y27835550D01*
X65252806Y27822741D01*
X65284679Y27825013D01*
X65337471Y27843752D01*
X65377262Y27883115D01*
X65405169Y27945137D01*
X65422310Y28031855D01*
X65429801Y28145304D01*
X65429803Y28145384D01*
X65431634Y28207153D01*
X65434861Y28245087D01*
X65441502Y28265347D01*
X65453572Y28274091D01*
X65473090Y28277479D01*
X65474123Y28277594D01*
X65505621Y28274804D01*
G37*
G36*
X63537152Y29160970D02*
G01*
X63560044Y29143814D01*
X63573479Y29107305D01*
X63578614Y29048092D01*
X63576603Y28962827D01*
X63563616Y28847049D01*
X63535466Y28747669D01*
X63492600Y28674365D01*
X63434997Y28627087D01*
X63378286Y28606717D01*
X63305566Y28596789D01*
X63233892Y28600177D01*
X63175939Y28617359D01*
X63175358Y28617660D01*
X63106791Y28669471D01*
X63059336Y28742547D01*
X63033037Y28836784D01*
X63027941Y28952080D01*
X63032369Y29052983D01*
X63077378Y29052983D01*
X63085632Y29052933D01*
X63106887Y29050087D01*
X63119181Y29037880D01*
X63126506Y29009482D01*
X63132856Y28958062D01*
X63135524Y28935378D01*
X63150895Y28847043D01*
X63172935Y28784310D01*
X63204051Y28743748D01*
X63246652Y28721928D01*
X63303145Y28715417D01*
X63308900Y28715469D01*
X63359528Y28723795D01*
X63395090Y28749173D01*
X63403108Y28758343D01*
X63422905Y28785800D01*
X63436689Y28817235D01*
X63446100Y28859156D01*
X63452772Y28918066D01*
X63458346Y29000473D01*
X63461026Y29045907D01*
X63465088Y29100592D01*
X63470116Y29134118D01*
X63477781Y29151976D01*
X63489753Y29159658D01*
X63507703Y29162654D01*
X63537152Y29160970D01*
G37*
G36*
X62654900Y26673265D02*
G01*
X62794370Y26660742D01*
X62922627Y26648828D01*
X63026114Y26638624D01*
X63107533Y26629787D01*
X63169586Y26621972D01*
X63214974Y26614838D01*
X63246399Y26608041D01*
X63266563Y26601237D01*
X63278166Y26594084D01*
X63280019Y26592376D01*
X63292179Y26577705D01*
X63299664Y26557353D01*
X63303207Y26525252D01*
X63303539Y26475332D01*
X63301393Y26401526D01*
X63301063Y26392586D01*
X63296982Y26315439D01*
X63291071Y26262448D01*
X63282479Y26228290D01*
X63270353Y26207644D01*
X63269123Y26206323D01*
X63233689Y26186220D01*
X63176322Y26179813D01*
X63150983Y26180438D01*
X63093626Y26183570D01*
X63016194Y26188986D01*
X62922851Y26196295D01*
X62817763Y26205105D01*
X62705095Y26215027D01*
X62589013Y26225667D01*
X62473682Y26236635D01*
X62363267Y26247540D01*
X62261935Y26257991D01*
X62173849Y26267595D01*
X62103176Y26275963D01*
X62054082Y26282702D01*
X62030731Y26287421D01*
X62002740Y26304185D01*
X61982898Y26337005D01*
X61977825Y26387766D01*
X61986320Y26461168D01*
X61991436Y26497435D01*
X61995496Y26552779D01*
X61994085Y26593844D01*
X61993517Y26597886D01*
X61997292Y26641105D01*
X62023886Y26683121D01*
X62060807Y26726045D01*
X62654900Y26673265D01*
G37*
G36*
X65565377Y26554704D02*
G01*
X65694913Y26554200D01*
X65814057Y26553233D01*
X65919540Y26551862D01*
X66008093Y26550145D01*
X66076448Y26548141D01*
X66121335Y26545910D01*
X66139485Y26543509D01*
X66162326Y26519990D01*
X66180783Y26466784D01*
X66180661Y26393913D01*
X66179121Y26376421D01*
X66180082Y26316409D01*
X66189185Y26266389D01*
X66196812Y26206798D01*
X66179758Y26156743D01*
X66140019Y26122450D01*
X66131289Y26120194D01*
X66092263Y26116224D01*
X66025256Y26112844D01*
X65931603Y26110088D01*
X65812637Y26107992D01*
X65669693Y26106591D01*
X65504105Y26105918D01*
X65451110Y26105835D01*
X65309512Y26105719D01*
X65194125Y26105906D01*
X65102097Y26106515D01*
X65030574Y26107668D01*
X64976705Y26109487D01*
X64937637Y26112093D01*
X64910517Y26115608D01*
X64892492Y26120153D01*
X64880711Y26125850D01*
X64872320Y26132819D01*
X64871828Y26133314D01*
X64859859Y26149146D01*
X64852067Y26171550D01*
X64847703Y26206379D01*
X64846021Y26259485D01*
X64846273Y26336721D01*
X64846409Y26348767D01*
X64847874Y26421713D01*
X64850791Y26471058D01*
X64856041Y26502438D01*
X64864503Y26521490D01*
X64877057Y26533849D01*
X64885870Y26538215D01*
X64905275Y26542851D01*
X64936347Y26546582D01*
X64981705Y26549493D01*
X65043968Y26551670D01*
X65125757Y26553200D01*
X65229691Y26554168D01*
X65358391Y26554660D01*
X65514474Y26554762D01*
X65565377Y26554704D01*
G37*
G36*
X61136210Y30689506D02*
G01*
X61136959Y30688265D01*
X61159754Y30624281D01*
X61161092Y30576362D01*
X61161758Y30552485D01*
X61142535Y30486807D01*
X61130812Y30467432D01*
X61079671Y30411638D01*
X61068289Y30403249D01*
X61007173Y30358202D01*
X60919587Y30311283D01*
X60823184Y30275039D01*
X60805360Y30268978D01*
X60772466Y30252648D01*
X60759857Y30238216D01*
X60759421Y30237717D01*
X60757453Y30218592D01*
X60756702Y30211298D01*
X60750044Y30172578D01*
X60746432Y30149841D01*
X60750362Y30130329D01*
X60769612Y30125694D01*
X60795721Y30120506D01*
X60844122Y30096673D01*
X60897099Y30058895D01*
X60946623Y30013152D01*
X60950726Y30008005D01*
X60984668Y29965428D01*
X61015188Y29900386D01*
X61026901Y29817999D01*
X61026235Y29814586D01*
X61011087Y29736937D01*
X60980857Y29683107D01*
X60968724Y29661503D01*
X60951312Y29644714D01*
X60900790Y29596000D01*
X60898866Y29594586D01*
X60862901Y29566377D01*
X60843983Y29542366D01*
X60836546Y29511151D01*
X60835021Y29461332D01*
X60833304Y29426592D01*
X60824888Y29367117D01*
X60811932Y29320722D01*
X60795937Y29280471D01*
X60792824Y29255997D01*
X60806332Y29239411D01*
X60839240Y29220517D01*
X60865262Y29204277D01*
X60898440Y29171685D01*
X60923430Y29126103D01*
X60943002Y29061860D01*
X60959924Y28973284D01*
X60962654Y28957158D01*
X60977901Y28885713D01*
X60995686Y28825088D01*
X61013312Y28784806D01*
X61036040Y28737985D01*
X61042010Y28683090D01*
X61019648Y28637832D01*
X61004185Y28624109D01*
X60961236Y28609918D01*
X60915881Y28621927D01*
X60874779Y28659156D01*
X60854695Y28689038D01*
X60827429Y28745322D01*
X60806346Y28815544D01*
X60788663Y28907734D01*
X60779329Y28960434D01*
X60763257Y29018315D01*
X60741177Y29050292D01*
X60708639Y29058833D01*
X60661193Y29046405D01*
X60594389Y29015476D01*
X60548481Y28993889D01*
X60505725Y28976954D01*
X60479725Y28970467D01*
X60477945Y28970495D01*
X60439331Y28985047D01*
X60410610Y29020089D01*
X60399358Y29066561D01*
X60399760Y29076392D01*
X60408275Y29106320D01*
X60431718Y29137787D01*
X60475159Y29178267D01*
X60547457Y29249376D01*
X60607206Y29332372D01*
X60639478Y29413409D01*
X60641115Y29420747D01*
X60646201Y29452167D01*
X60639978Y29462891D01*
X60621070Y29460317D01*
X60619358Y29460084D01*
X60612961Y29458571D01*
X60572725Y29450445D01*
X60524780Y29442124D01*
X60512626Y29439949D01*
X60469715Y29424360D01*
X60446559Y29396886D01*
X60430595Y29370241D01*
X60379891Y29322542D01*
X60310294Y29284538D01*
X60228588Y29257615D01*
X60141559Y29243162D01*
X60055991Y29242564D01*
X59978669Y29257210D01*
X59916378Y29288487D01*
X59912062Y29291761D01*
X59879700Y29313347D01*
X59858160Y29317440D01*
X59837029Y29306389D01*
X59813619Y29294877D01*
X59759869Y29286470D01*
X59698059Y29291557D01*
X59639824Y29309930D01*
X59615323Y29324630D01*
X59570978Y29359978D01*
X59528823Y29402017D01*
X59493319Y29438749D01*
X59456050Y29464504D01*
X59417472Y29474348D01*
X59357634Y29487017D01*
X59293057Y29522059D01*
X59281734Y29535469D01*
X59667914Y29535469D01*
X59685881Y29511489D01*
X59692256Y29504676D01*
X59719908Y29483310D01*
X59734885Y29488685D01*
X59735974Y29510715D01*
X60011517Y29510715D01*
X60014524Y29464550D01*
X60038293Y29436086D01*
X60041102Y29434648D01*
X60095786Y29422842D01*
X60166805Y29431253D01*
X60182153Y29436048D01*
X60206273Y29448511D01*
X60217432Y29460317D01*
X60208464Y29465564D01*
X60199807Y29467269D01*
X60168665Y29485541D01*
X60132178Y29517421D01*
X60098832Y29554877D01*
X60077115Y29589875D01*
X60058917Y29633157D01*
X60034095Y29580850D01*
X60029391Y29570505D01*
X60014492Y29520668D01*
X60011517Y29510715D01*
X59735974Y29510715D01*
X59736466Y29520668D01*
X59729980Y29548047D01*
X59710752Y29565901D01*
X59679805Y29556254D01*
X59671246Y29549890D01*
X59667914Y29535469D01*
X59281734Y29535469D01*
X59248703Y29574590D01*
X59243813Y29585372D01*
X59230856Y29639091D01*
X59228629Y29664637D01*
X60257403Y29664637D01*
X60267493Y29643323D01*
X60299187Y29630830D01*
X60318225Y29643559D01*
X60319836Y29653987D01*
X60519374Y29653987D01*
X60521210Y29642809D01*
X60534377Y29630597D01*
X60537937Y29631001D01*
X60549380Y29644714D01*
X60548808Y29648923D01*
X60534377Y29668104D01*
X60526647Y29669516D01*
X60519374Y29653987D01*
X60319836Y29653987D01*
X60324336Y29683107D01*
X60324263Y29689505D01*
X60318267Y29724727D01*
X60301460Y29735617D01*
X60301355Y29735617D01*
X60278989Y29723431D01*
X60262787Y29695555D01*
X60257403Y29664637D01*
X59228629Y29664637D01*
X59224682Y29709928D01*
X59224932Y29740254D01*
X59409385Y29740254D01*
X59409712Y29725241D01*
X59414330Y29687941D01*
X59422711Y29668999D01*
X59427131Y29671090D01*
X59434633Y29692906D01*
X59441032Y29729452D01*
X59445175Y29771080D01*
X59445908Y29808141D01*
X59442078Y29830988D01*
X59431648Y29836211D01*
X59421015Y29818495D01*
X59412783Y29784259D01*
X59409385Y29740254D01*
X59224932Y29740254D01*
X59225329Y29788434D01*
X59232836Y29865160D01*
X59240136Y29898349D01*
X60501412Y29898349D01*
X60562147Y29868300D01*
X60588203Y29853708D01*
X60640480Y29818522D01*
X60653552Y29808141D01*
X60689703Y29779432D01*
X60720002Y29753345D01*
X60749137Y29729721D01*
X60762859Y29720614D01*
X60762890Y29720615D01*
X60778659Y29731650D01*
X60802183Y29757789D01*
X60825165Y29788833D01*
X60839309Y29814586D01*
X60835632Y29845939D01*
X60806558Y29888157D01*
X60802266Y29892886D01*
X60771248Y29920180D01*
X60735286Y29934787D01*
X60681879Y29942119D01*
X60667601Y29943127D01*
X60601894Y29940709D01*
X60550355Y29923658D01*
X60501412Y29898349D01*
X59240136Y29898349D01*
X59247242Y29930656D01*
X59251494Y29944484D01*
X59256015Y29965122D01*
X59758718Y29965122D01*
X59777800Y29939229D01*
X59795100Y29925488D01*
X59819058Y29916399D01*
X59822679Y29917184D01*
X59845501Y29933509D01*
X59876689Y29966083D01*
X59878426Y29968200D01*
X60124426Y29968200D01*
X60135627Y29964014D01*
X60170555Y29976132D01*
X60191310Y29987006D01*
X60203062Y30008005D01*
X60185248Y30032821D01*
X60179496Y30036618D01*
X60161920Y30033363D01*
X60140937Y30004652D01*
X60133739Y29991786D01*
X60124426Y29968200D01*
X59878426Y29968200D01*
X59911483Y30008501D01*
X59945121Y30054356D01*
X59972843Y30097240D01*
X59989889Y30130747D01*
X59991498Y30148471D01*
X59975545Y30151097D01*
X59940999Y30140319D01*
X59896911Y30117980D01*
X59850876Y30088026D01*
X59810485Y30054404D01*
X59785248Y30028175D01*
X59780269Y30023000D01*
X59758929Y29990887D01*
X59758718Y29965122D01*
X59256015Y29965122D01*
X59260420Y29985230D01*
X59257008Y30019023D01*
X59253504Y30028175D01*
X59484170Y30028175D01*
X59491672Y30020674D01*
X59499173Y30028175D01*
X59491672Y30035676D01*
X59484170Y30028175D01*
X59253504Y30028175D01*
X59240399Y30062408D01*
X59226749Y30102720D01*
X59212475Y30165743D01*
X59203594Y30230393D01*
X59201308Y30275399D01*
X59203678Y30307192D01*
X59384839Y30307192D01*
X59388866Y30267860D01*
X59392658Y30259630D01*
X59404562Y30254310D01*
X59429019Y30268438D01*
X59445763Y30278720D01*
X59492081Y30290143D01*
X59539234Y30274428D01*
X59590913Y30230715D01*
X59614673Y30206242D01*
X59641025Y30180636D01*
X59653488Y30170703D01*
X59653567Y30170706D01*
X59666723Y30180774D01*
X59668377Y30182438D01*
X60310850Y30182438D01*
X60335963Y30148471D01*
X60342919Y30139063D01*
X60360146Y30118113D01*
X60385462Y30101328D01*
X60418967Y30100112D01*
X60470426Y30112424D01*
X60504565Y30128750D01*
X60542820Y30172523D01*
X60566643Y30218592D01*
X60524255Y30210256D01*
X60502428Y30206470D01*
X60452243Y30199165D01*
X60396359Y30192179D01*
X60310850Y30182438D01*
X59668377Y30182438D01*
X59690266Y30204460D01*
X59721557Y30238216D01*
X59639667Y30403249D01*
X60564383Y30403249D01*
X60571884Y30395747D01*
X60579386Y30403249D01*
X60571884Y30410750D01*
X60564383Y30403249D01*
X59639667Y30403249D01*
X59619548Y30443796D01*
X59607492Y30468055D01*
X59571585Y30539303D01*
X59545647Y30587863D01*
X59527294Y30617137D01*
X59514144Y30630529D01*
X59503816Y30631443D01*
X59493926Y30623283D01*
X59485584Y30613022D01*
X59457499Y30564977D01*
X59430928Y30502068D01*
X59408324Y30432599D01*
X59392143Y30364873D01*
X59384839Y30307192D01*
X59203678Y30307192D01*
X59211310Y30409596D01*
X59244583Y30539942D01*
X59298651Y30661616D01*
X59343068Y30727993D01*
X59702945Y30727993D01*
X59705750Y30712249D01*
X59715644Y30683842D01*
X59722884Y30664587D01*
X59746233Y30609490D01*
X59772097Y30554969D01*
X59808022Y30484282D01*
X59856304Y30544363D01*
X59899646Y30598297D01*
X60247132Y30598297D01*
X60254348Y30574631D01*
X60257255Y30567729D01*
X60282616Y30525999D01*
X60316518Y30486300D01*
X60361843Y30442598D01*
X60414802Y30516142D01*
X60759421Y30516142D01*
X60759528Y30505459D01*
X60763792Y30471858D01*
X60778040Y30458752D01*
X60807385Y30464675D01*
X60856941Y30488159D01*
X60911049Y30519568D01*
X60951508Y30550734D01*
X60970863Y30576362D01*
X60965872Y30593322D01*
X60941824Y30601366D01*
X60895123Y30605118D01*
X60842768Y30601659D01*
X60797905Y30591157D01*
X60775744Y30579550D01*
X60762587Y30557327D01*
X60759421Y30516142D01*
X60414802Y30516142D01*
X60421855Y30525937D01*
X60454354Y30568190D01*
X60492844Y30612485D01*
X60523761Y30642168D01*
X60530121Y30647241D01*
X60552835Y30670467D01*
X60559845Y30696792D01*
X60555395Y30739229D01*
X60552149Y30755620D01*
X60539382Y30792759D01*
X60524483Y30811323D01*
X60496672Y30812808D01*
X60448185Y30794765D01*
X60388747Y30756290D01*
X60322177Y30699495D01*
X60294160Y30672696D01*
X60263398Y30640627D01*
X60248935Y30618062D01*
X60247693Y30604444D01*
X60247132Y30598297D01*
X59899646Y30598297D01*
X59904586Y30604444D01*
X59818153Y30662516D01*
X59775339Y30691291D01*
X59733912Y30718311D01*
X59711056Y30730279D01*
X59702945Y30727993D01*
X59343068Y30727993D01*
X59371040Y30769795D01*
X59459275Y30859659D01*
X59560880Y30926387D01*
X59639831Y30955566D01*
X59744733Y30967033D01*
X59852583Y30950647D01*
X59960357Y30906947D01*
X60065035Y30836473D01*
X60129526Y30783628D01*
X60215196Y30859985D01*
X60287642Y30919216D01*
X60360611Y30963865D01*
X60431111Y30988382D01*
X60505770Y30995865D01*
X60568204Y30989608D01*
X60639211Y30960223D01*
X60692494Y30906637D01*
X60728251Y30828703D01*
X60744652Y30774063D01*
X60808297Y30788672D01*
X60860991Y30796475D01*
X60945592Y30793228D01*
X61024702Y30772793D01*
X61090762Y30737457D01*
X61129304Y30696792D01*
X61136210Y30689506D01*
G37*
G36*
X68204060Y25804117D02*
G01*
X68184847Y25544322D01*
X68140645Y25288215D01*
X68071259Y25039693D01*
X68060175Y25007593D01*
X67967661Y24782968D01*
X67852920Y24566626D01*
X67718591Y24361635D01*
X67567314Y24171067D01*
X67401729Y23997991D01*
X67224477Y23845477D01*
X67038196Y23716594D01*
X66845527Y23614412D01*
X66728925Y23561902D01*
X66734579Y23411873D01*
X66735774Y23352631D01*
X66735826Y23267891D01*
X66734712Y23168528D01*
X66732522Y23062455D01*
X66729347Y22957588D01*
X66725609Y22862301D01*
X66721126Y22775382D01*
X66716145Y22711225D01*
X66710261Y22665925D01*
X66703072Y22635575D01*
X66694177Y22616271D01*
X66669893Y22579209D01*
X64921490Y22579209D01*
X63173086Y22579209D01*
X63183112Y22440431D01*
X63186739Y22385370D01*
X63187976Y22337242D01*
X63184637Y22305408D01*
X63175771Y22282311D01*
X63160424Y22260396D01*
X63159914Y22259757D01*
X63118317Y22226374D01*
X63071885Y22222362D01*
X63022779Y22247917D01*
X62987360Y22276697D01*
X62990246Y22701757D01*
X62990331Y22713818D01*
X62990938Y22774247D01*
X63170717Y22774247D01*
X64844751Y22774247D01*
X65113668Y22774366D01*
X65372673Y22774743D01*
X65607178Y22775372D01*
X65816572Y22776250D01*
X66000243Y22777369D01*
X66157579Y22778726D01*
X66287969Y22780315D01*
X66390800Y22782130D01*
X66465462Y22784166D01*
X66511342Y22786418D01*
X66527828Y22788880D01*
X66529075Y22792723D01*
X66532155Y22822319D01*
X66534455Y22875779D01*
X66536008Y22948540D01*
X66536843Y23036042D01*
X66536993Y23133725D01*
X66536489Y23237027D01*
X66535361Y23341388D01*
X66533641Y23442246D01*
X66531360Y23535040D01*
X66528549Y23615210D01*
X66525240Y23678195D01*
X66521463Y23719433D01*
X66509518Y23806812D01*
X66500012Y23881776D01*
X66494671Y23935360D01*
X66493361Y23971974D01*
X66495950Y23996026D01*
X66502304Y24011928D01*
X66512292Y24024088D01*
X66512924Y24024706D01*
X66545861Y24042237D01*
X66588794Y24049498D01*
X66592345Y24049460D01*
X66632790Y24040732D01*
X66661309Y24014014D01*
X66680465Y23965402D01*
X66692820Y23890990D01*
X66698378Y23849104D01*
X66706409Y23805943D01*
X66713813Y23782327D01*
X66714744Y23781271D01*
X66734842Y23782054D01*
X66774274Y23797237D01*
X66828443Y23824243D01*
X66892750Y23860496D01*
X66962594Y23903419D01*
X67033379Y23950435D01*
X67100504Y23998968D01*
X67145126Y24034607D01*
X67242495Y24121784D01*
X67344354Y24223502D01*
X67443606Y24332165D01*
X67533157Y24440179D01*
X67605911Y24539949D01*
X67651675Y24611122D01*
X67780117Y24845128D01*
X67879586Y25086686D01*
X67950329Y25336614D01*
X67992594Y25595732D01*
X68006626Y25864855D01*
X68006442Y25897044D01*
X67990339Y26161262D01*
X67948434Y26412307D01*
X67881029Y26649290D01*
X67788427Y26871321D01*
X67670932Y27077510D01*
X67528847Y27266968D01*
X67510524Y27287552D01*
X67453195Y27345907D01*
X67382968Y27411583D01*
X67306563Y27478771D01*
X67230698Y27541661D01*
X67162092Y27594443D01*
X67107464Y27631310D01*
X67089053Y27641962D01*
X66964377Y27699420D01*
X66841423Y27731361D01*
X66723733Y27737176D01*
X66614848Y27716252D01*
X66610475Y27714786D01*
X66559222Y27695728D01*
X66532610Y27679534D01*
X66526441Y27662079D01*
X66536521Y27639237D01*
X66537372Y27637853D01*
X66550808Y27592802D01*
X66539833Y27552245D01*
X66509851Y27521758D01*
X66466266Y27506917D01*
X66414483Y27513299D01*
X66404092Y27516734D01*
X66368381Y27522431D01*
X66343425Y27511423D01*
X66332149Y27497999D01*
X66309770Y27461908D01*
X66284266Y27414343D01*
X66260287Y27364596D01*
X66242486Y27321965D01*
X66235511Y27295745D01*
X66241488Y27288665D01*
X66270602Y27278780D01*
X66317106Y27272081D01*
X66367117Y27265536D01*
X66413615Y27249142D01*
X66438292Y27221287D01*
X66445541Y27178777D01*
X66445150Y27164455D01*
X66437192Y27129422D01*
X66415038Y27108269D01*
X66373531Y27097869D01*
X66307513Y27095098D01*
X66205493Y27095098D01*
X66205493Y27043326D01*
X66206211Y27024846D01*
X66212058Y26971333D01*
X66221866Y26915211D01*
X66238239Y26838867D01*
X66324712Y26848651D01*
X66395089Y26851909D01*
X66441928Y26841632D01*
X66467677Y26816141D01*
X66475547Y26773843D01*
X66475340Y26765114D01*
X66463601Y26720804D01*
X66430980Y26692366D01*
X66373490Y26675980D01*
X66318016Y26666921D01*
X66392733Y26586954D01*
X66422271Y26557253D01*
X66523623Y26480512D01*
X66634572Y26432099D01*
X66754356Y26412272D01*
X66882211Y26421288D01*
X66889027Y26422501D01*
X66942121Y26430905D01*
X66975240Y26432417D01*
X66996891Y26426478D01*
X67015581Y26412528D01*
X67032167Y26389892D01*
X67044467Y26346748D01*
X67042284Y26302876D01*
X67024772Y26271277D01*
X67021737Y26268606D01*
X67012336Y26252912D01*
X67013620Y26227471D01*
X67025682Y26183173D01*
X67031578Y26158904D01*
X67040063Y26099016D01*
X67045529Y26026039D01*
X67047806Y25948542D01*
X67047617Y25935743D01*
X67046723Y25875094D01*
X67042111Y25814264D01*
X67033799Y25774620D01*
X67033217Y25773001D01*
X67026788Y25741461D01*
X67020072Y25687727D01*
X67013832Y25618898D01*
X67008831Y25542074D01*
X67006528Y25500550D01*
X66998326Y25385830D01*
X66987796Y25290898D01*
X66973700Y25207990D01*
X66966914Y25179755D01*
X66954799Y25129343D01*
X66929854Y25047194D01*
X66929789Y25046998D01*
X66899576Y24928873D01*
X66890266Y24825403D01*
X66889298Y24814649D01*
X66888170Y24771344D01*
X66882501Y24718439D01*
X66869639Y24675934D01*
X66846785Y24631798D01*
X66817961Y24589710D01*
X66739344Y24509841D01*
X66633184Y24434876D01*
X66500944Y24365444D01*
X66344084Y24302173D01*
X66164065Y24245694D01*
X65962351Y24196634D01*
X65740402Y24155624D01*
X65706117Y24150337D01*
X65519482Y24126298D01*
X65508628Y24124900D01*
X65287692Y24103769D01*
X65048581Y24087058D01*
X64796565Y24074881D01*
X64536915Y24067350D01*
X64274902Y24064580D01*
X64015797Y24066682D01*
X63764871Y24073771D01*
X63527395Y24085960D01*
X63308639Y24103362D01*
X63209836Y24112901D01*
X63200874Y23584407D01*
X63199821Y23522339D01*
X63199398Y23497798D01*
X63196866Y23365017D01*
X63194082Y23239467D01*
X63191157Y23124943D01*
X63188201Y23025240D01*
X63185326Y22944153D01*
X63182643Y22885479D01*
X63180261Y22853013D01*
X63170717Y22774247D01*
X62990938Y22774247D01*
X62991455Y22825710D01*
X62993066Y22929459D01*
X62995054Y23020693D01*
X62997308Y23095039D01*
X62999720Y23148124D01*
X63002178Y23175576D01*
X63011224Y23224336D01*
X62914630Y23224336D01*
X62908094Y23224320D01*
X62853606Y23221954D01*
X62822566Y23214680D01*
X62809168Y23201226D01*
X62808103Y23195645D01*
X62805400Y23163207D01*
X62802379Y23106324D01*
X62799189Y23028838D01*
X62795979Y22934589D01*
X62792899Y22827419D01*
X62790099Y22711169D01*
X62787892Y22612966D01*
X62785071Y22500971D01*
X62782285Y22413350D01*
X62779285Y22346839D01*
X62775821Y22298173D01*
X62771646Y22264087D01*
X62766508Y22241319D01*
X62760160Y22226603D01*
X62752353Y22216676D01*
X62710332Y22192860D01*
X62662123Y22194338D01*
X62617499Y22221426D01*
X62615872Y22223059D01*
X62606828Y22233114D01*
X62599873Y22245169D01*
X62594840Y22262723D01*
X62591562Y22289277D01*
X62589873Y22328330D01*
X62589604Y22383381D01*
X62590590Y22457929D01*
X62592664Y22555475D01*
X62595658Y22679518D01*
X62596106Y22697484D01*
X62599116Y22807042D01*
X62602319Y22906647D01*
X62605552Y22992289D01*
X62608651Y23059959D01*
X62611454Y23105648D01*
X62613798Y23125346D01*
X62612424Y23132715D01*
X62596750Y23139861D01*
X62562245Y23145678D01*
X62505185Y23150752D01*
X62421847Y23155673D01*
X62343777Y23160076D01*
X62241351Y23166669D01*
X62141889Y23173827D01*
X62058898Y23180621D01*
X62003072Y23185354D01*
X61946406Y23189471D01*
X61907100Y23191500D01*
X61891408Y23191050D01*
X61889070Y23176829D01*
X61885431Y23138352D01*
X61881089Y23081751D01*
X61876553Y23013107D01*
X61865877Y22839386D01*
X61907522Y22797740D01*
X61949168Y22756095D01*
X61940237Y22515967D01*
X61935855Y22417290D01*
X61929948Y22340799D01*
X61921249Y22286797D01*
X61908339Y22251456D01*
X61889799Y22230951D01*
X61864210Y22221453D01*
X61830153Y22219138D01*
X61785968Y22227579D01*
X61755385Y22257184D01*
X61752190Y22262650D01*
X61745334Y22281004D01*
X61740549Y22307597D01*
X61737891Y22345138D01*
X61737417Y22396333D01*
X61739183Y22463890D01*
X61743244Y22550516D01*
X61749657Y22658920D01*
X61758477Y22791809D01*
X61769761Y22951891D01*
X61773672Y23009892D01*
X61777900Y23085058D01*
X61780289Y23145579D01*
X61780655Y23186366D01*
X61778814Y23202331D01*
X61767783Y23205692D01*
X61732225Y23214100D01*
X61678687Y23225729D01*
X61613662Y23239131D01*
X61579480Y23246270D01*
X61491799Y23266293D01*
X61404332Y23288224D01*
X61351417Y23302973D01*
X61906497Y23302973D01*
X61913609Y23301300D01*
X61945037Y23297065D01*
X61995532Y23291471D01*
X62058555Y23285279D01*
X62127666Y23279456D01*
X62219931Y23272693D01*
X62318592Y23266257D01*
X62411407Y23260989D01*
X62615608Y23250514D01*
X62619061Y23329356D01*
X62813879Y23329356D01*
X62911872Y23329356D01*
X63009864Y23329356D01*
X63009864Y23584407D01*
X63009864Y23839457D01*
X62928542Y23839457D01*
X62847220Y23839457D01*
X62839084Y23745688D01*
X62836782Y23717156D01*
X62831958Y23649124D01*
X62831421Y23640673D01*
X62826909Y23569651D01*
X62822414Y23490638D01*
X62813879Y23329356D01*
X62619061Y23329356D01*
X62626604Y23501573D01*
X62628927Y23563944D01*
X62630542Y23640673D01*
X62630395Y23703025D01*
X62628517Y23745805D01*
X62624943Y23763819D01*
X62621448Y23765275D01*
X62593691Y23770373D01*
X62543604Y23776768D01*
X62476746Y23783965D01*
X62398675Y23791471D01*
X62314950Y23798790D01*
X62231128Y23805428D01*
X62152769Y23810891D01*
X62085431Y23814685D01*
X62034672Y23816315D01*
X61967159Y23816952D01*
X61966213Y23809422D01*
X61935124Y23561902D01*
X61926737Y23494008D01*
X61917818Y23418794D01*
X61911110Y23358611D01*
X61907155Y23318367D01*
X61906497Y23302973D01*
X61351417Y23302973D01*
X61331738Y23308458D01*
X61306953Y23315749D01*
X61254039Y23329923D01*
X61215761Y23338190D01*
X61199094Y23338945D01*
X61198702Y23338425D01*
X61193744Y23317544D01*
X61187557Y23271736D01*
X61180518Y23205596D01*
X61173005Y23123722D01*
X61165396Y23030710D01*
X61158069Y22931157D01*
X61151402Y22829660D01*
X61145773Y22730816D01*
X61141560Y22639220D01*
X61139628Y22592362D01*
X61135221Y22507598D01*
X61130191Y22446069D01*
X61123943Y22403102D01*
X61115887Y22374025D01*
X61105429Y22354164D01*
X61070996Y22321976D01*
X61024829Y22312672D01*
X60973796Y22332356D01*
X60934856Y22357871D01*
X60944515Y22622320D01*
X60944743Y22628350D01*
X60948485Y22705042D01*
X60954389Y22802164D01*
X60962047Y22914679D01*
X60971049Y23037548D01*
X60980987Y23165736D01*
X60991450Y23294204D01*
X61002029Y23417915D01*
X61005336Y23454542D01*
X61206844Y23454542D01*
X61316948Y23422216D01*
X61321669Y23420837D01*
X61394093Y23400852D01*
X61477431Y23379432D01*
X61554578Y23360984D01*
X61565200Y23358576D01*
X61650575Y23339376D01*
X61711468Y23326720D01*
X61752232Y23320636D01*
X61777214Y23321151D01*
X61790767Y23328295D01*
X61797239Y23342095D01*
X61800982Y23362579D01*
X61807290Y23404288D01*
X61816880Y23475274D01*
X61826380Y23552978D01*
X61835150Y23631322D01*
X61842550Y23704229D01*
X61847941Y23765622D01*
X61850682Y23809422D01*
X61850134Y23829551D01*
X61849133Y23831184D01*
X61827750Y23842806D01*
X61785804Y23855513D01*
X61731181Y23866832D01*
X61690510Y23874327D01*
X61614884Y23890055D01*
X61530260Y23909182D01*
X61448469Y23929102D01*
X61382965Y23945253D01*
X61326857Y23958068D01*
X61287960Y23965786D01*
X61272176Y23967136D01*
X61267383Y23951245D01*
X61259956Y23911355D01*
X61250978Y23853950D01*
X61241335Y23785357D01*
X61231915Y23711905D01*
X61223606Y23639922D01*
X61217295Y23575736D01*
X61206844Y23454542D01*
X61005336Y23454542D01*
X61012315Y23531831D01*
X61021899Y23630916D01*
X61030371Y23710132D01*
X61037322Y23764442D01*
X61045235Y23816952D01*
X60918626Y23882554D01*
X60774540Y23966805D01*
X60596226Y24098701D01*
X60428739Y24253695D01*
X60275196Y24428164D01*
X60138714Y24618485D01*
X60022410Y24821035D01*
X59929403Y25032192D01*
X59921833Y25052887D01*
X59885212Y25165857D01*
X59850009Y25293480D01*
X59819496Y25423158D01*
X59796946Y25542292D01*
X59791504Y25584027D01*
X59784253Y25678191D01*
X59780202Y25790464D01*
X59779919Y25827960D01*
X59971800Y25827960D01*
X59992649Y25584619D01*
X60037985Y25350039D01*
X60056240Y25282452D01*
X60134220Y25058012D01*
X60234935Y24845236D01*
X60356285Y24647272D01*
X60496170Y24467265D01*
X60652490Y24308363D01*
X60823143Y24173713D01*
X60834541Y24165936D01*
X60896035Y24125031D01*
X60956089Y24086543D01*
X61003157Y24057900D01*
X61006490Y24055965D01*
X61038729Y24037301D01*
X61060400Y24028927D01*
X61075068Y24034606D01*
X61086295Y24058106D01*
X61097646Y24103190D01*
X61101900Y24123113D01*
X61308487Y24123113D01*
X61308597Y24104589D01*
X61312625Y24089854D01*
X61324197Y24077440D01*
X61346938Y24065876D01*
X61384472Y24053696D01*
X61440425Y24039429D01*
X61518423Y24021607D01*
X61622091Y23998761D01*
X61678063Y23986579D01*
X61745273Y23972237D01*
X61799603Y23960963D01*
X61832848Y23954482D01*
X61878572Y23946442D01*
X61881263Y23964754D01*
X61989721Y23964754D01*
X61992768Y23947289D01*
X62006332Y23936193D01*
X62036894Y23928828D01*
X62090933Y23922486D01*
X62103770Y23921241D01*
X62163378Y23915788D01*
X62241627Y23908961D01*
X62329828Y23901509D01*
X62419290Y23894181D01*
X62646377Y23875910D01*
X62655457Y23951452D01*
X62657538Y23970622D01*
X62662584Y24036866D01*
X62664666Y24097578D01*
X62665121Y24126298D01*
X62663390Y24146839D01*
X62654911Y24160995D01*
X62635120Y24171075D01*
X62599455Y24179385D01*
X62543355Y24188230D01*
X62462257Y24199919D01*
X62435223Y24204068D01*
X62363407Y24216130D01*
X62281398Y24230907D01*
X62202159Y24246097D01*
X62152551Y24255525D01*
X62128601Y24259539D01*
X64581096Y24259539D01*
X64676904Y24261727D01*
X64729438Y24263346D01*
X64809890Y24266751D01*
X64900474Y24271317D01*
X64994506Y24276641D01*
X65085300Y24282320D01*
X65166171Y24287953D01*
X65230433Y24293139D01*
X65271401Y24297474D01*
X65305274Y24303342D01*
X65328368Y24314751D01*
X65335230Y24326122D01*
X65455346Y24326122D01*
X65467707Y24320815D01*
X65505318Y24320886D01*
X65563984Y24326232D01*
X65639458Y24336226D01*
X65727494Y24350243D01*
X65823846Y24367653D01*
X65924265Y24387832D01*
X66024505Y24410151D01*
X66157003Y24441257D01*
X66170821Y24490506D01*
X66284666Y24490506D01*
X66284911Y24490340D01*
X66301714Y24493971D01*
X66337435Y24507254D01*
X66384485Y24526906D01*
X66435271Y24549645D01*
X66482203Y24572190D01*
X66517689Y24591258D01*
X66570587Y24626924D01*
X66630394Y24679351D01*
X66673596Y24732346D01*
X66694606Y24779949D01*
X66695610Y24787463D01*
X66695688Y24825403D01*
X66691405Y24875066D01*
X66684057Y24928122D01*
X66674939Y24976240D01*
X66665348Y25011089D01*
X66656580Y25024338D01*
X66640634Y25019074D01*
X66602521Y25004652D01*
X66548068Y24983304D01*
X66507631Y24967107D01*
X66483048Y24957260D01*
X66318016Y24890533D01*
X66315321Y24748840D01*
X66315024Y24738473D01*
X66314507Y24720464D01*
X66310467Y24651328D01*
X66304298Y24591152D01*
X66296974Y24550460D01*
X66293853Y24538836D01*
X66286117Y24505511D01*
X66284666Y24490506D01*
X66170821Y24490506D01*
X66181248Y24527667D01*
X66181799Y24529663D01*
X66193796Y24590227D01*
X66202277Y24664901D01*
X66205493Y24738473D01*
X66205373Y24772322D01*
X66203954Y24820076D01*
X66199943Y24845836D01*
X66192112Y24854935D01*
X66179238Y24852704D01*
X66157611Y24845390D01*
X66101192Y24829784D01*
X66049398Y24817209D01*
X66026419Y24811630D01*
X65940383Y24792481D01*
X65850176Y24773891D01*
X65762890Y24757412D01*
X65685616Y24744597D01*
X65518309Y24719550D01*
X65515071Y24687762D01*
X65508252Y24620821D01*
X65502809Y24576124D01*
X65490552Y24497741D01*
X65476770Y24427392D01*
X65466410Y24380773D01*
X65458409Y24343035D01*
X65455346Y24326122D01*
X65335230Y24326122D01*
X65343007Y24339009D01*
X65357198Y24384209D01*
X65365789Y24420026D01*
X65376133Y24473192D01*
X65386446Y24533967D01*
X65395616Y24594933D01*
X65402534Y24648670D01*
X65406090Y24687762D01*
X65405173Y24704790D01*
X65399596Y24705144D01*
X65370157Y24703682D01*
X65321372Y24699991D01*
X65259911Y24694540D01*
X65254529Y24694041D01*
X65181859Y24688205D01*
X65091236Y24682128D01*
X64993686Y24676499D01*
X64900236Y24672010D01*
X64881555Y24671239D01*
X64788216Y24667562D01*
X64720018Y24663858D01*
X64672886Y24658074D01*
X64642743Y24648159D01*
X64640220Y24645801D01*
X64625513Y24632058D01*
X64617120Y24607720D01*
X64613488Y24573092D01*
X64610541Y24526120D01*
X64609927Y24517929D01*
X64604013Y24448038D01*
X64597344Y24381177D01*
X64591250Y24330803D01*
X64581096Y24259539D01*
X62128601Y24259539D01*
X62096376Y24264940D01*
X62056720Y24270035D01*
X62040002Y24269870D01*
X62039985Y24269853D01*
X62034455Y24252456D01*
X62026215Y24213221D01*
X62016560Y24160014D01*
X62006787Y24100699D01*
X61998192Y24043141D01*
X61992071Y23995205D01*
X61989721Y23964754D01*
X61881263Y23964754D01*
X61904148Y24120457D01*
X61913409Y24186852D01*
X61920420Y24244216D01*
X61924152Y24284036D01*
X61923940Y24300258D01*
X61913107Y24304905D01*
X61877956Y24318047D01*
X61823112Y24337865D01*
X61753311Y24362686D01*
X61673288Y24390837D01*
X61587779Y24420646D01*
X61501519Y24450438D01*
X61419246Y24478542D01*
X61415959Y24479217D01*
X61403693Y24472553D01*
X61390333Y24448357D01*
X61374114Y24402699D01*
X61353272Y24331652D01*
X61340759Y24284877D01*
X61324605Y24217701D01*
X61313241Y24161752D01*
X61308568Y24125790D01*
X61308487Y24123113D01*
X61101900Y24123113D01*
X61112684Y24173626D01*
X61117676Y24196119D01*
X61136039Y24272071D01*
X61158180Y24356926D01*
X61180361Y24436178D01*
X61223057Y24582103D01*
X61140673Y24655132D01*
X61096672Y24698303D01*
X61055123Y24746925D01*
X61027836Y24787854D01*
X61006524Y24852591D01*
X60998185Y24942107D01*
X60999144Y24956197D01*
X61188546Y24956197D01*
X61195058Y24900052D01*
X61218801Y24851125D01*
X61262512Y24805039D01*
X61328932Y24757415D01*
X61420797Y24703874D01*
X61427912Y24699990D01*
X61477071Y24674464D01*
X61515929Y24656443D01*
X61536608Y24649616D01*
X61542190Y24654951D01*
X61549387Y24685873D01*
X61554581Y24745079D01*
X61556956Y24808904D01*
X61653471Y24808904D01*
X61657968Y24738849D01*
X61666962Y24674292D01*
X61679381Y24623393D01*
X61694153Y24594313D01*
X61704540Y24587623D01*
X61742376Y24571590D01*
X61800777Y24551223D01*
X61874280Y24528142D01*
X61957424Y24503970D01*
X62044748Y24480327D01*
X62130791Y24458837D01*
X62210091Y24441119D01*
X62257032Y24431573D01*
X62315028Y24420213D01*
X62357406Y24412446D01*
X62377295Y24409569D01*
X62378901Y24409842D01*
X62384376Y24426421D01*
X62379190Y24464521D01*
X62376312Y24479568D01*
X62369349Y24529432D01*
X62362367Y24594453D01*
X62356515Y24664487D01*
X62347703Y24788777D01*
X62450520Y24788777D01*
X62461303Y24662935D01*
X62462130Y24653397D01*
X62472523Y24553225D01*
X62484149Y24479670D01*
X62497842Y24429600D01*
X62499617Y24426421D01*
X62514437Y24399886D01*
X62534770Y24387397D01*
X62550846Y24384698D01*
X62594476Y24378618D01*
X62658053Y24370416D01*
X62735897Y24360819D01*
X62822327Y24350556D01*
X62876379Y24344310D01*
X62970254Y24333688D01*
X63058045Y24324017D01*
X63131850Y24316161D01*
X63183763Y24310985D01*
X63290148Y24301141D01*
X63284267Y24464127D01*
X63283414Y24488695D01*
X63280612Y24568343D01*
X63276505Y24623860D01*
X63268164Y24659861D01*
X63252660Y24680957D01*
X63247425Y24683167D01*
X63375789Y24683167D01*
X63380690Y24580125D01*
X63383439Y24529480D01*
X63388498Y24452284D01*
X63393797Y24384835D01*
X63401243Y24301141D01*
X63402004Y24292587D01*
X63457233Y24284102D01*
X63457835Y24284036D01*
X63466823Y24283050D01*
X63507646Y24280432D01*
X63572429Y24277482D01*
X63657034Y24274347D01*
X63757323Y24271172D01*
X63869158Y24268106D01*
X63988401Y24265293D01*
X63999524Y24265053D01*
X64132045Y24262380D01*
X64237718Y24260733D01*
X64319465Y24260176D01*
X64380210Y24260774D01*
X64422876Y24262591D01*
X64450385Y24265693D01*
X64465661Y24270144D01*
X64471625Y24276009D01*
X64471945Y24276964D01*
X64478934Y24308664D01*
X64487175Y24360648D01*
X64495543Y24423782D01*
X64502914Y24488937D01*
X64508161Y24546981D01*
X64510160Y24588782D01*
X64510160Y24645801D01*
X64146338Y24655466D01*
X64105840Y24656563D01*
X63987039Y24659990D01*
X63867214Y24663717D01*
X63754122Y24667490D01*
X63655516Y24671052D01*
X63579153Y24674149D01*
X63375789Y24683167D01*
X63247425Y24683167D01*
X63227064Y24691763D01*
X63188445Y24696892D01*
X63133875Y24700955D01*
X63088021Y24705122D01*
X63010137Y24713326D01*
X62918044Y24723862D01*
X62819084Y24735820D01*
X62720597Y24748286D01*
X62629926Y24760346D01*
X62554412Y24771088D01*
X62501397Y24779600D01*
X62452128Y24788487D01*
X63380613Y24788487D01*
X63596568Y24779231D01*
X63610961Y24778625D01*
X63698083Y24775244D01*
X63805080Y24771450D01*
X63923529Y24767526D01*
X64045004Y24763750D01*
X64161083Y24760406D01*
X64233896Y24758460D01*
X64328560Y24756285D01*
X64399172Y24755418D01*
X64449391Y24756022D01*
X64482872Y24758261D01*
X64503273Y24762299D01*
X64514251Y24768298D01*
X64519461Y24776422D01*
X64521632Y24793943D01*
X64522103Y24833483D01*
X64520761Y24885501D01*
X64518033Y24941500D01*
X64514345Y24992983D01*
X64510125Y25031454D01*
X64505798Y25048418D01*
X64495673Y25049410D01*
X64459237Y25051684D01*
X64402933Y25054763D01*
X64622682Y25054763D01*
X64627462Y24912202D01*
X64630101Y24833483D01*
X64632242Y24769640D01*
X64754987Y24771865D01*
X64768600Y24772146D01*
X64878629Y24776240D01*
X65008599Y24783664D01*
X65149936Y24793870D01*
X65294064Y24806309D01*
X65410337Y24817209D01*
X65410132Y24902196D01*
X65409381Y24936814D01*
X65406008Y24987106D01*
X65400881Y25020939D01*
X65394712Y25043957D01*
X65507022Y25043957D01*
X65510878Y25022918D01*
X65514114Y24979624D01*
X65515358Y24925944D01*
X65515445Y24890335D01*
X65518554Y24852307D01*
X65530574Y24835038D01*
X65557512Y24832777D01*
X65605375Y24839774D01*
X65625754Y24843103D01*
X65724563Y24860360D01*
X65828967Y24880110D01*
X65930154Y24900582D01*
X66019313Y24920008D01*
X66087630Y24936618D01*
X66202312Y24967107D01*
X66195470Y25029655D01*
X66191728Y25062344D01*
X66184039Y25114441D01*
X66175553Y25143641D01*
X66168538Y25150672D01*
X66285585Y25150672D01*
X66291160Y25108699D01*
X66304163Y25043444D01*
X66310916Y25022397D01*
X66322052Y25009962D01*
X66335561Y25013779D01*
X66371180Y25026985D01*
X66420714Y25046674D01*
X66476673Y25069750D01*
X66531572Y25093116D01*
X66577922Y25113674D01*
X66608236Y25128329D01*
X66633262Y25149665D01*
X66634696Y25179755D01*
X66628756Y25214162D01*
X66625781Y25259349D01*
X66625576Y25306471D01*
X66517870Y25262639D01*
X66516551Y25262103D01*
X66459240Y25240079D01*
X66453728Y25237961D01*
X66392164Y25216533D01*
X66345006Y25202401D01*
X66329228Y25198383D01*
X66303039Y25189366D01*
X66289018Y25175512D01*
X66285585Y25150672D01*
X66168538Y25150672D01*
X66164436Y25154783D01*
X66148857Y25152708D01*
X66126028Y25146751D01*
X66077126Y25137384D01*
X66010895Y25126375D01*
X66010119Y25126246D01*
X65931287Y25114253D01*
X65846908Y25102321D01*
X65763264Y25091366D01*
X65686633Y25082303D01*
X65623295Y25076049D01*
X65564926Y25070337D01*
X65526219Y25063700D01*
X65508483Y25055339D01*
X65507022Y25043957D01*
X65394712Y25043957D01*
X65391834Y25054696D01*
X65007258Y25054730D01*
X64622682Y25054763D01*
X64402933Y25054763D01*
X64400153Y25054915D01*
X64322480Y25058892D01*
X64230271Y25063400D01*
X64127584Y25068229D01*
X64069352Y25071003D01*
X63953020Y25077011D01*
X63839296Y25083438D01*
X63735025Y25089870D01*
X63647049Y25095897D01*
X63582210Y25101105D01*
X63519968Y25106348D01*
X63462429Y25110222D01*
X63422353Y25111785D01*
X63405936Y25110701D01*
X63403532Y25100557D01*
X63399418Y25065629D01*
X63394797Y25012149D01*
X63390288Y24946607D01*
X63380613Y24788487D01*
X62452128Y24788487D01*
X62450520Y24788777D01*
X62347703Y24788777D01*
X62346234Y24809502D01*
X62211651Y24835301D01*
X62161215Y24845611D01*
X62096846Y24860493D01*
X62021833Y24879668D01*
X61934952Y24903441D01*
X62457049Y24903441D01*
X62460619Y24889663D01*
X62461065Y24889645D01*
X62480876Y24887487D01*
X62525261Y24882156D01*
X62589499Y24874231D01*
X62668871Y24864296D01*
X62758656Y24852931D01*
X62846376Y24841971D01*
X62944774Y24830111D01*
X63035318Y24819628D01*
X63110707Y24811363D01*
X63163645Y24806159D01*
X63279917Y24796120D01*
X63280048Y24884150D01*
X63280604Y24917254D01*
X63284003Y24987509D01*
X63289442Y25049277D01*
X63298705Y25126375D01*
X63218047Y25136588D01*
X63180604Y25141559D01*
X63114923Y25150621D01*
X63028067Y25162816D01*
X62924506Y25177508D01*
X62808711Y25194063D01*
X62685154Y25211846D01*
X62558305Y25230223D01*
X62504325Y25238071D01*
X62487816Y25150134D01*
X62485354Y25136814D01*
X62473109Y25063407D01*
X62463903Y24996151D01*
X62458347Y24940883D01*
X62457049Y24903441D01*
X61934952Y24903441D01*
X61931688Y24904334D01*
X61821921Y24935686D01*
X61688044Y24974922D01*
X61680533Y24975994D01*
X61669208Y24967564D01*
X61661561Y24940253D01*
X61655498Y24888500D01*
X61654543Y24876297D01*
X61653471Y24808904D01*
X61556956Y24808904D01*
X61557867Y24833402D01*
X61562079Y25017189D01*
X61404548Y25093733D01*
X61352406Y25118406D01*
X61682068Y25118406D01*
X61682565Y25098956D01*
X61685547Y25096002D01*
X61712837Y25082328D01*
X61763703Y25063510D01*
X61833840Y25040891D01*
X61914265Y25017189D01*
X61918941Y25015811D01*
X62014701Y24989612D01*
X62116812Y24963637D01*
X62118226Y24963292D01*
X62189537Y24946340D01*
X62251637Y24932471D01*
X62297898Y24923107D01*
X62321695Y24919669D01*
X62336369Y24925423D01*
X62348173Y24949753D01*
X62356791Y24998435D01*
X62360874Y25028748D01*
X62371446Y25098127D01*
X62382745Y25163926D01*
X62389142Y25202608D01*
X62393327Y25240079D01*
X62392402Y25257076D01*
X62382312Y25260495D01*
X62346909Y25269404D01*
X62290867Y25282321D01*
X62219130Y25298115D01*
X62136641Y25315653D01*
X62081012Y25327444D01*
X61993930Y25346493D01*
X61915600Y25364314D01*
X61852907Y25379325D01*
X61812737Y25389949D01*
X61738168Y25412094D01*
X61706248Y25262189D01*
X61697243Y25217598D01*
X61687293Y25160239D01*
X61682068Y25118406D01*
X61352406Y25118406D01*
X61344657Y25122073D01*
X61291414Y25145732D01*
X61253606Y25160791D01*
X61236930Y25164832D01*
X61236288Y25164321D01*
X61227732Y25145225D01*
X61215703Y25105439D01*
X61202592Y25052765D01*
X61196527Y25023939D01*
X61188546Y24956197D01*
X60999144Y24956197D01*
X61005244Y25045808D01*
X61027703Y25157672D01*
X61031138Y25170744D01*
X61044155Y25225456D01*
X61048879Y25263476D01*
X61045751Y25294882D01*
X61035210Y25329754D01*
X61028173Y25351818D01*
X61273918Y25351818D01*
X61276815Y25307619D01*
X61289921Y25276630D01*
X61317350Y25252110D01*
X61363217Y25227316D01*
X61431635Y25195505D01*
X61492946Y25168122D01*
X61539299Y25151065D01*
X61567251Y25147415D01*
X61580988Y25156706D01*
X61584701Y25178470D01*
X61584796Y25181508D01*
X61589244Y25215625D01*
X61599004Y25267355D01*
X61612230Y25326766D01*
X61639643Y25441304D01*
X61555852Y25475078D01*
X61512606Y25493484D01*
X61444056Y25524994D01*
X61380399Y25556479D01*
X61288736Y25604107D01*
X61278993Y25445674D01*
X61277116Y25415971D01*
X61273918Y25351818D01*
X61028173Y25351818D01*
X61025147Y25361308D01*
X61002889Y25455640D01*
X60985233Y25566017D01*
X60973573Y25682602D01*
X60969300Y25795557D01*
X60969290Y25799517D01*
X60966236Y25887126D01*
X60958417Y25964180D01*
X60946796Y26021020D01*
X60940393Y26044262D01*
X60924356Y26163227D01*
X60927684Y26221686D01*
X61120687Y26221686D01*
X61125976Y26117407D01*
X61154996Y26022386D01*
X61163609Y26005730D01*
X61209443Y25939983D01*
X61272571Y25871229D01*
X61345314Y25807199D01*
X61419993Y25755622D01*
X61434730Y25747150D01*
X61533801Y25697037D01*
X61648895Y25650017D01*
X61782803Y25605228D01*
X61938319Y25561805D01*
X62118232Y25518887D01*
X62325334Y25475609D01*
X62519520Y25441304D01*
X62769803Y25397089D01*
X63272992Y25328987D01*
X63797519Y25278948D01*
X63849046Y25275727D01*
X63936493Y25271915D01*
X64044885Y25268450D01*
X64170301Y25265360D01*
X64308824Y25262678D01*
X64456536Y25260435D01*
X64609517Y25258661D01*
X64763850Y25257387D01*
X64915616Y25256644D01*
X65060896Y25256464D01*
X65195772Y25256877D01*
X65316325Y25257914D01*
X65418638Y25259606D01*
X65498790Y25261984D01*
X65552865Y25265079D01*
X65729135Y25283091D01*
X65965937Y25317384D01*
X66174482Y25360932D01*
X66354980Y25413863D01*
X66507644Y25476306D01*
X66632686Y25548392D01*
X66730317Y25630249D01*
X66800749Y25722007D01*
X66844194Y25823795D01*
X66860863Y25935743D01*
X66850968Y26057979D01*
X66842292Y26104472D01*
X66829002Y26160053D01*
X66812470Y26194781D01*
X66787650Y26214093D01*
X66749497Y26223423D01*
X66692965Y26228210D01*
X66590589Y26244772D01*
X66469593Y26288627D01*
X66355789Y26355064D01*
X66255562Y26440233D01*
X66175297Y26540284D01*
X66126671Y26616062D01*
X66041261Y26606399D01*
X66033386Y26605534D01*
X65983222Y26602482D01*
X65952030Y26607522D01*
X65930642Y26621944D01*
X65922614Y26631004D01*
X65905408Y26672954D01*
X65913252Y26715512D01*
X65943311Y26751712D01*
X65992750Y26774586D01*
X66021980Y26782266D01*
X66041795Y26789003D01*
X66043583Y26803217D01*
X66039745Y26839063D01*
X66030855Y26888199D01*
X66022489Y26933265D01*
X66014129Y26993055D01*
X66010768Y27038837D01*
X66010455Y27095098D01*
X65945267Y27095098D01*
X65936500Y27095254D01*
X65878436Y27107547D01*
X65842641Y27138720D01*
X65830420Y27187722D01*
X65830605Y27193864D01*
X65846687Y27236992D01*
X65888581Y27265060D01*
X65956071Y27277913D01*
X66028995Y27282635D01*
X66054742Y27365151D01*
X66064250Y27393364D01*
X66091264Y27462366D01*
X66119843Y27524663D01*
X66159197Y27601659D01*
X66091620Y27620579D01*
X66057854Y27631720D01*
X66002073Y27659304D01*
X65964324Y27691133D01*
X65950443Y27722972D01*
X65950619Y27727817D01*
X65965256Y27769402D01*
X65996622Y27802034D01*
X66035105Y27815239D01*
X66036632Y27815217D01*
X66071199Y27810532D01*
X66123018Y27799278D01*
X66181480Y27783736D01*
X66289903Y27752232D01*
X66377710Y27813742D01*
X66380233Y27815503D01*
X66426219Y27845671D01*
X66463971Y27867100D01*
X66485535Y27875251D01*
X66491743Y27875361D01*
X66500674Y27878198D01*
X66503383Y27888871D01*
X66499229Y27912595D01*
X66487574Y27954583D01*
X66467778Y28020050D01*
X66415026Y28172790D01*
X66339885Y28348560D01*
X66255777Y28508935D01*
X66245415Y28526767D01*
X66216543Y28579470D01*
X66201190Y28615769D01*
X66197009Y28642492D01*
X66201655Y28666466D01*
X66208882Y28683387D01*
X66228311Y28705023D01*
X66263134Y28722109D01*
X66320510Y28739015D01*
X66322016Y28739523D01*
X66344399Y28756789D01*
X66379481Y28793391D01*
X66423359Y28844485D01*
X66472131Y28905227D01*
X66521896Y28970773D01*
X66568753Y29036279D01*
X66608798Y29096903D01*
X66621057Y29116838D01*
X66702406Y29271982D01*
X66754823Y29421009D01*
X66778522Y29564712D01*
X66773721Y29703887D01*
X66764084Y29757955D01*
X66722109Y29883856D01*
X66655692Y29992864D01*
X66565722Y30083992D01*
X66453091Y30156253D01*
X66318689Y30208660D01*
X66249144Y30223184D01*
X66134886Y30222762D01*
X66019924Y30192535D01*
X65904604Y30132612D01*
X65789274Y30043101D01*
X65727584Y29982094D01*
X65663236Y29909421D01*
X65599725Y29830007D01*
X65540354Y29748603D01*
X65488426Y29669961D01*
X65447245Y29598829D01*
X65420114Y29539960D01*
X65410337Y29498105D01*
X65410216Y29492234D01*
X65396774Y29440015D01*
X65364872Y29403984D01*
X65319896Y29390549D01*
X65294451Y29393844D01*
X65245553Y29407268D01*
X65192598Y29427507D01*
X65182105Y29432077D01*
X65089267Y29468422D01*
X64978276Y29506372D01*
X64859200Y29542821D01*
X64742106Y29574666D01*
X64637062Y29598803D01*
X64603421Y29605374D01*
X64310191Y29646423D01*
X64014498Y29659501D01*
X63720067Y29644773D01*
X63430622Y29602405D01*
X63149887Y29532562D01*
X63102396Y29519148D01*
X63032682Y29506160D01*
X62984482Y29510016D01*
X62954692Y29532261D01*
X62940209Y29574439D01*
X62937926Y29638098D01*
X62932912Y29682771D01*
X62911103Y29753538D01*
X62874814Y29837373D01*
X62826986Y29929089D01*
X62770560Y30023499D01*
X62708477Y30115413D01*
X62643679Y30199645D01*
X62579107Y30271006D01*
X62576412Y30273672D01*
X62521486Y30322976D01*
X62461639Y30369410D01*
X62409357Y30403249D01*
X62378897Y30419293D01*
X62341827Y30434842D01*
X62303486Y30443574D01*
X62254302Y30447406D01*
X62184702Y30448258D01*
X62151525Y30448099D01*
X62089493Y30445829D01*
X62043228Y30439426D01*
X62002735Y30427066D01*
X61958015Y30406928D01*
X61887649Y30363131D01*
X61808162Y30294100D01*
X61737195Y30212921D01*
X61683521Y30128492D01*
X61646385Y30041644D01*
X61610749Y29898566D01*
X61602492Y29750614D01*
X61622297Y29603662D01*
X61635330Y29557608D01*
X61667987Y29468807D01*
X61711699Y29368829D01*
X61762564Y29265855D01*
X61816683Y29168069D01*
X61870156Y29083653D01*
X61878116Y29072194D01*
X61915691Y29020813D01*
X61943517Y28989787D01*
X61966417Y28974533D01*
X61989212Y28970467D01*
X62032423Y28959121D01*
X62066573Y28925770D01*
X62079681Y28878227D01*
X62072146Y28850161D01*
X62050208Y28806729D01*
X62018910Y28759408D01*
X61930082Y28627958D01*
X61836859Y28461273D01*
X61755632Y28283744D01*
X61731666Y28223880D01*
X61709953Y28167028D01*
X61695209Y28125334D01*
X61689742Y28105057D01*
X61695332Y28092892D01*
X61719496Y28077827D01*
X61740042Y28067780D01*
X61778775Y28042898D01*
X61822717Y28010377D01*
X61896046Y27952413D01*
X62014119Y27988845D01*
X62028562Y27993228D01*
X62086988Y28009533D01*
X62135529Y28020967D01*
X62164877Y28025279D01*
X62201971Y28015566D01*
X62233023Y27983145D01*
X62244714Y27934537D01*
X62244569Y27928654D01*
X62236386Y27897505D01*
X62212359Y27871877D01*
X62167903Y27848283D01*
X62098435Y27823235D01*
X62066328Y27811802D01*
X62032710Y27796486D01*
X62019669Y27785517D01*
X62023326Y27772314D01*
X62036808Y27738168D01*
X62056805Y27693058D01*
X62070700Y27660202D01*
X62091326Y27600050D01*
X62103517Y27549040D01*
X62113094Y27485174D01*
X62216411Y27485174D01*
X62279202Y27481431D01*
X62336299Y27465182D01*
X62369191Y27435061D01*
X62379740Y27389980D01*
X62374596Y27358726D01*
X62349378Y27328055D01*
X62300938Y27310643D01*
X62226844Y27305139D01*
X62128821Y27305139D01*
X62124813Y27271039D01*
X62119390Y27224894D01*
X62115708Y27198917D01*
X62103130Y27136063D01*
X62088152Y27082841D01*
X62066345Y27021033D01*
X62121772Y27005639D01*
X62129039Y27003675D01*
X62171396Y26994101D01*
X62201432Y26990161D01*
X62224490Y26984980D01*
X62262011Y26961182D01*
X62292283Y26927036D01*
X62304726Y26892540D01*
X62300496Y26861813D01*
X62277423Y26829618D01*
X62233010Y26814177D01*
X62165833Y26815118D01*
X62074469Y26832067D01*
X61986740Y26853023D01*
X61896411Y26756461D01*
X61834311Y26697708D01*
X61720323Y26619104D01*
X61594892Y26563196D01*
X61463643Y26532258D01*
X61332197Y26528560D01*
X61294126Y26531018D01*
X61261516Y26528132D01*
X61238851Y26514475D01*
X61214820Y26485938D01*
X61177306Y26427067D01*
X61138130Y26327485D01*
X61120687Y26221686D01*
X60927684Y26221686D01*
X60931534Y26289309D01*
X60960857Y26414076D01*
X61011257Y26529101D01*
X61027178Y26558101D01*
X61042533Y26592165D01*
X61044304Y26612886D01*
X61034230Y26627735D01*
X61020302Y26655403D01*
X61017398Y26702525D01*
X61018725Y26714795D01*
X61031466Y26752910D01*
X61060423Y26775651D01*
X61083593Y26783557D01*
X61111437Y26783749D01*
X61150999Y26774673D01*
X61210289Y26755238D01*
X61243809Y26744619D01*
X61365956Y26724065D01*
X61483905Y26733185D01*
X61596985Y26771862D01*
X61704525Y26839982D01*
X61731046Y26861569D01*
X61750161Y26882624D01*
X61752050Y26901815D01*
X61740575Y26928644D01*
X61738383Y26933203D01*
X61726333Y26985607D01*
X61740762Y27027411D01*
X61779128Y27055083D01*
X61838884Y27065092D01*
X61859817Y27066871D01*
X61876832Y27077454D01*
X61890227Y27103677D01*
X61905170Y27152343D01*
X61909832Y27169094D01*
X61925412Y27231294D01*
X61929852Y27271039D01*
X61921768Y27293289D01*
X61899774Y27303003D01*
X61862484Y27305139D01*
X61821840Y27307442D01*
X61791922Y27318836D01*
X61769608Y27344375D01*
X61756688Y27366231D01*
X61752342Y27391791D01*
X61765989Y27423141D01*
X61779489Y27442603D01*
X61807139Y27460005D01*
X61853173Y27467372D01*
X61880635Y27469606D01*
X61906347Y27475789D01*
X61913729Y27491204D01*
X61910015Y27522921D01*
X61905512Y27542809D01*
X61888463Y27593570D01*
X61865563Y27645744D01*
X61845694Y27683371D01*
X61827252Y27706425D01*
X61804667Y27714247D01*
X61768859Y27713167D01*
X61722266Y27714742D01*
X61683977Y27732992D01*
X61677197Y27741221D01*
X61662297Y27780055D01*
X61661736Y27823285D01*
X61676425Y27856071D01*
X61678659Y27863882D01*
X61663437Y27882860D01*
X61628536Y27905674D01*
X61579775Y27929291D01*
X61522977Y27950677D01*
X61463962Y27966799D01*
X61437146Y27971406D01*
X61333343Y27972104D01*
X61218028Y27950114D01*
X61094743Y27907510D01*
X60967027Y27846365D01*
X60838421Y27768755D01*
X60712465Y27676754D01*
X60592698Y27572436D01*
X60482662Y27457875D01*
X60385897Y27335145D01*
X60319081Y27233361D01*
X60208699Y27026936D01*
X60118322Y26803706D01*
X60048696Y26567933D01*
X60000570Y26323877D01*
X59974689Y26075799D01*
X59971800Y25827960D01*
X59779919Y25827960D01*
X59779274Y25913316D01*
X59781393Y26039220D01*
X59786483Y26160647D01*
X59794465Y26270067D01*
X59805264Y26359953D01*
X59825311Y26474139D01*
X59888546Y26736019D01*
X59972698Y26980828D01*
X60077001Y27207216D01*
X60200685Y27413828D01*
X60342985Y27599312D01*
X60503130Y27762316D01*
X60680355Y27901487D01*
X60802920Y27980443D01*
X60951474Y28060789D01*
X61092127Y28117789D01*
X61228818Y28152974D01*
X61365482Y28167874D01*
X61498950Y28172971D01*
X61547464Y28298457D01*
X61574273Y28364828D01*
X61633269Y28495881D01*
X61696755Y28620372D01*
X61759130Y28726960D01*
X61782428Y28764992D01*
X61802077Y28800722D01*
X61809628Y28819739D01*
X61807554Y28825550D01*
X61791639Y28852178D01*
X61763445Y28893439D01*
X61727071Y28943203D01*
X61706384Y28971948D01*
X61647982Y29063886D01*
X61588136Y29171220D01*
X61531813Y29284197D01*
X61483980Y29393064D01*
X61449604Y29488069D01*
X61429605Y29566885D01*
X61410267Y29708398D01*
X61408956Y29851731D01*
X61426257Y29984442D01*
X61462614Y30110770D01*
X61525004Y30247384D01*
X61605340Y30366678D01*
X61700890Y30467325D01*
X61808923Y30547997D01*
X61926708Y30607368D01*
X62051513Y30644111D01*
X62180606Y30656899D01*
X62311257Y30644405D01*
X62440734Y30605303D01*
X62566304Y30538264D01*
X62659494Y30466466D01*
X62771521Y30353601D01*
X62878953Y30216182D01*
X62979494Y30057206D01*
X63070843Y29879676D01*
X63090447Y29838417D01*
X63120608Y29781555D01*
X63142848Y29750515D01*
X63158262Y29743593D01*
X63178575Y29749721D01*
X63230060Y29761850D01*
X63300233Y29776221D01*
X63382421Y29791641D01*
X63469949Y29806918D01*
X63556144Y29820860D01*
X63634332Y29832276D01*
X63697839Y29839973D01*
X63929083Y29854524D01*
X64225134Y29849038D01*
X64520812Y29817621D01*
X64810184Y29760956D01*
X65087319Y29679729D01*
X65148515Y29659329D01*
X65200807Y29644656D01*
X65231296Y29640644D01*
X65243144Y29646621D01*
X65246709Y29655378D01*
X65268368Y29694516D01*
X65303859Y29749903D01*
X65349384Y29816310D01*
X65401145Y29888507D01*
X65455345Y29961265D01*
X65508186Y30029352D01*
X65555869Y30087541D01*
X65594599Y30130599D01*
X65672837Y30205723D01*
X65787962Y30296444D01*
X65902558Y30361322D01*
X66020455Y30402379D01*
X66145482Y30421640D01*
X66241860Y30421044D01*
X66379764Y30396754D01*
X66514796Y30347026D01*
X66641345Y30274087D01*
X66753797Y30180166D01*
X66826996Y30093599D01*
X66899084Y29969149D01*
X66948473Y29830819D01*
X66974113Y29682910D01*
X66974958Y29529719D01*
X66949959Y29375547D01*
X66918828Y29278578D01*
X66865082Y29156379D01*
X66795368Y29027246D01*
X66713501Y28897633D01*
X66623298Y28773995D01*
X66528574Y28662785D01*
X66447526Y28575699D01*
X66499372Y28472747D01*
X66532336Y28405458D01*
X66577893Y28302716D01*
X66617288Y28198120D01*
X66656025Y28077791D01*
X66696936Y27942764D01*
X66809006Y27933494D01*
X66923001Y27916481D01*
X67047441Y27878941D01*
X67171641Y27820246D01*
X67298512Y27738747D01*
X67430961Y27632793D01*
X67571900Y27500733D01*
X67636283Y27434797D01*
X67738745Y27319035D01*
X67825061Y27203683D01*
X67901797Y27079581D01*
X67975519Y26937567D01*
X68034961Y26802226D01*
X68113735Y26566654D01*
X68168307Y26319180D01*
X68198481Y26063702D01*
X68202755Y25864855D01*
X68204060Y25804117D01*
G37*
D10*
X16259420Y35810000D02*
X16540580Y35810000D01*
X16259420Y34790000D02*
X16540580Y34790000D01*
X7559420Y33010000D02*
X7840580Y33010000D01*
X7559420Y31990000D02*
X7840580Y31990000D01*
D11*
G36*
X10388697Y10141813D02*
G01*
X10414052Y10134998D01*
X10432622Y10116583D01*
X10445378Y10083037D01*
X10453289Y10030831D01*
X10457324Y9956434D01*
X10458454Y9856319D01*
X10458452Y9850672D01*
X10457769Y9761556D01*
X10455563Y9696860D01*
X10451416Y9651964D01*
X10444913Y9622247D01*
X10435638Y9603088D01*
X10418227Y9583576D01*
X10384102Y9571514D01*
X10340237Y9585686D01*
X10333161Y9590178D01*
X10324764Y9600335D01*
X10318914Y9618268D01*
X10315157Y9648284D01*
X10313037Y9694691D01*
X10312099Y9761794D01*
X10311887Y9853903D01*
X10311890Y9864987D01*
X10312442Y9961167D01*
X10314564Y10032192D01*
X10319149Y10081836D01*
X10327087Y10113875D01*
X10339271Y10132086D01*
X10356593Y10140244D01*
X10379942Y10142124D01*
X10388697Y10141813D01*
G37*
G36*
X14230858Y14486399D02*
G01*
X14231249Y14417830D01*
X14230931Y14324390D01*
X14230364Y14253463D01*
X14228493Y14167354D01*
X14224914Y14100067D01*
X14219085Y14045315D01*
X14210463Y13996807D01*
X14198508Y13948255D01*
X14168315Y13854588D01*
X14105045Y13722455D01*
X14023410Y13613064D01*
X13923099Y13526107D01*
X13803801Y13461274D01*
X13665205Y13418257D01*
X13616983Y13409218D01*
X13473536Y13400343D01*
X13337162Y13419894D01*
X13208041Y13467812D01*
X13086350Y13544037D01*
X12972267Y13648512D01*
X12926082Y13701418D01*
X12849604Y13810402D01*
X12792718Y13927666D01*
X12753908Y14057641D01*
X12731662Y14204756D01*
X12727244Y14308290D01*
X12864999Y14308290D01*
X12880576Y14160733D01*
X12917767Y14021705D01*
X12974617Y13894385D01*
X13049169Y13781951D01*
X13139465Y13687581D01*
X13243551Y13614454D01*
X13359469Y13565748D01*
X13383790Y13559299D01*
X13499269Y13545024D01*
X13615510Y13554961D01*
X13727260Y13587156D01*
X13829262Y13639653D01*
X13916263Y13710498D01*
X13983008Y13797736D01*
X13997268Y13823607D01*
X14037080Y13916158D01*
X14064223Y14019783D01*
X14079875Y14140077D01*
X14085216Y14282631D01*
X14085978Y14487825D01*
X13994438Y14487825D01*
X13902897Y14487825D01*
X13897187Y14326601D01*
X13892044Y14242133D01*
X13876798Y14139579D01*
X13850627Y14055947D01*
X13811614Y13985692D01*
X13757845Y13923266D01*
X13735112Y13902368D01*
X13664897Y13855043D01*
X13585896Y13828948D01*
X13489896Y13820946D01*
X13456366Y13822559D01*
X13361862Y13845473D01*
X13276266Y13893371D01*
X13201607Y13963507D01*
X13139915Y14053139D01*
X13093220Y14159524D01*
X13063551Y14279918D01*
X13052938Y14411577D01*
X13052683Y14496552D01*
X12961079Y14492188D01*
X12869475Y14487825D01*
X12865247Y14368675D01*
X12864999Y14308290D01*
X12727244Y14308290D01*
X12724464Y14373443D01*
X12724547Y14426823D01*
X12725565Y14495721D01*
X12728186Y14543515D01*
X12732995Y14575340D01*
X12740573Y14596328D01*
X12751504Y14611613D01*
X12756185Y14616500D01*
X12764238Y14622663D01*
X12775995Y14627730D01*
X12794017Y14631809D01*
X12820865Y14635007D01*
X12859100Y14637431D01*
X12911282Y14639188D01*
X12979974Y14640385D01*
X13067735Y14641130D01*
X13177127Y14641529D01*
X13310710Y14641690D01*
X13471046Y14641720D01*
X13520771Y14641717D01*
X13673430Y14641631D01*
X13800114Y14641353D01*
X13903406Y14640784D01*
X13985890Y14639824D01*
X14050151Y14638375D01*
X14098773Y14636338D01*
X14134341Y14633614D01*
X14159437Y14630103D01*
X14176648Y14625706D01*
X14188557Y14620324D01*
X14197749Y14613859D01*
X14200449Y14611658D01*
X14212022Y14600812D01*
X14220340Y14587304D01*
X14225913Y14566694D01*
X14229249Y14534540D01*
X14230810Y14487825D01*
X14230858Y14486399D01*
G37*
G36*
X11481878Y14270564D02*
G01*
X11475049Y14187302D01*
X11463818Y14112289D01*
X11431584Y13991658D01*
X11374870Y13855391D01*
X11301378Y13730651D01*
X11215343Y13625730D01*
X11142899Y13561707D01*
X11043781Y13494696D01*
X10939485Y13442647D01*
X10839527Y13410996D01*
X10804854Y13405845D01*
X10725838Y13402567D01*
X10636357Y13406635D01*
X10547796Y13417338D01*
X10471539Y13433966D01*
X10361531Y13475867D01*
X10251650Y13544157D01*
X10159443Y13634713D01*
X10083854Y13748605D01*
X10023826Y13886901D01*
X10016666Y13907636D01*
X10004562Y13945418D01*
X9995752Y13980496D01*
X9989705Y14018206D01*
X9985889Y14063886D01*
X9983775Y14122870D01*
X9982832Y14200494D01*
X9982528Y14302096D01*
X9982517Y14312094D01*
X10110346Y14312094D01*
X10114885Y14217029D01*
X10125135Y14116753D01*
X10140011Y14022164D01*
X10158431Y13944162D01*
X10160051Y13938836D01*
X10210497Y13819160D01*
X10281422Y13720326D01*
X10372556Y13642632D01*
X10483629Y13586376D01*
X10512823Y13576270D01*
X10636307Y13550916D01*
X10760723Y13551397D01*
X10880358Y13577243D01*
X10989499Y13627985D01*
X11031613Y13658988D01*
X11091478Y13714403D01*
X11151651Y13780016D01*
X11204362Y13847222D01*
X11241841Y13907418D01*
X11243736Y13911186D01*
X11295130Y14043231D01*
X11326949Y14191876D01*
X11337854Y14350931D01*
X11337854Y14495153D01*
X11244545Y14495153D01*
X11151236Y14495153D01*
X11144276Y14350608D01*
X11143262Y14330833D01*
X11137824Y14261535D01*
X11128768Y14208081D01*
X11113695Y14159572D01*
X11090204Y14105109D01*
X11053736Y14036491D01*
X10983226Y13942952D01*
X10901009Y13875505D01*
X10807831Y13834701D01*
X10704440Y13821090D01*
X10631355Y13826546D01*
X10534995Y13854753D01*
X10455480Y13906628D01*
X10393110Y13981771D01*
X10348187Y14079781D01*
X10321012Y14200258D01*
X10311887Y14342802D01*
X10311887Y14495153D01*
X10217785Y14495153D01*
X10123684Y14495153D01*
X10113306Y14398246D01*
X10112600Y14391049D01*
X10110346Y14312094D01*
X9982517Y14312094D01*
X9982496Y14330599D01*
X9982644Y14424803D01*
X9983491Y14494737D01*
X9985389Y14544416D01*
X9988693Y14577855D01*
X9993754Y14599068D01*
X10000926Y14612071D01*
X10010563Y14620879D01*
X10015760Y14623015D01*
X10047944Y14628003D01*
X10104459Y14632320D01*
X10181727Y14635963D01*
X10276174Y14638933D01*
X10384223Y14641226D01*
X10502300Y14642842D01*
X10626828Y14643780D01*
X10754232Y14644037D01*
X10880937Y14643613D01*
X11003366Y14642506D01*
X11117944Y14640715D01*
X11221095Y14638238D01*
X11309243Y14635074D01*
X11378814Y14631221D01*
X11426231Y14626678D01*
X11447919Y14621445D01*
X11456207Y14610802D01*
X11468722Y14571927D01*
X11477725Y14512757D01*
X11483037Y14439000D01*
X11484481Y14356366D01*
X11484316Y14350931D01*
X11481878Y14270564D01*
G37*
G36*
X15260847Y13360641D02*
G01*
X15235168Y13228523D01*
X15182040Y13105465D01*
X15102020Y12993373D01*
X15041104Y12924170D01*
X15041490Y12731329D01*
X15041799Y12686799D01*
X15044523Y12601950D01*
X15045514Y12591102D01*
X15051065Y12530360D01*
X15062668Y12460940D01*
X15080574Y12382600D01*
X15096939Y12311560D01*
X15115296Y12199607D01*
X15118187Y12116134D01*
X15118520Y12106535D01*
X15106196Y12028085D01*
X15077906Y11959993D01*
X15033235Y11898000D01*
X14987499Y11845910D01*
X15044376Y11693873D01*
X15064027Y11640799D01*
X15174508Y11321365D01*
X15277981Y10986471D01*
X15373122Y10641809D01*
X15458609Y10293071D01*
X15533118Y9945947D01*
X15595325Y9606131D01*
X15643906Y9279313D01*
X15677538Y8971185D01*
X15680745Y8929875D01*
X15686835Y8809836D01*
X15689655Y8678041D01*
X15689379Y8540345D01*
X15687023Y8438784D01*
X15686184Y8402606D01*
X15680242Y8270681D01*
X15671728Y8150426D01*
X15660817Y8047700D01*
X15647682Y7968358D01*
X15616940Y7844573D01*
X15560535Y7677708D01*
X15492048Y7532037D01*
X15412497Y7409310D01*
X15322899Y7311278D01*
X15224272Y7239693D01*
X15213481Y7233558D01*
X15186927Y7215612D01*
X15171729Y7194962D01*
X15163298Y7162770D01*
X15157047Y7110201D01*
X15152630Y7071507D01*
X15136838Y6971137D01*
X15116244Y6877518D01*
X15092273Y6795144D01*
X15066352Y6728509D01*
X15039906Y6682106D01*
X15014361Y6660431D01*
X14985611Y6660560D01*
X14948531Y6675910D01*
X14934012Y6686336D01*
X14922009Y6701021D01*
X14917992Y6721971D01*
X14922156Y6754611D01*
X14934698Y6804368D01*
X14955817Y6876668D01*
X14969513Y6926770D01*
X14986649Y7000320D01*
X14998754Y7064943D01*
X15012379Y7154969D01*
X14968726Y7146238D01*
X14956678Y7144208D01*
X14908575Y7139421D01*
X14855941Y7137507D01*
X14822774Y7136997D01*
X14795747Y7131132D01*
X14780862Y7112885D01*
X14768200Y7075217D01*
X14746181Y7013326D01*
X14711318Y6939727D01*
X14671199Y6873602D01*
X14629399Y6820053D01*
X14589493Y6784182D01*
X14555057Y6771091D01*
X14519751Y6779650D01*
X14487376Y6806617D01*
X14474380Y6843406D01*
X14476850Y6854946D01*
X14493374Y6888202D01*
X14520305Y6926635D01*
X14525853Y6933788D01*
X14553804Y6975725D01*
X14583089Y7026924D01*
X14609374Y7078930D01*
X14628323Y7123288D01*
X14635603Y7151542D01*
X14624521Y7163143D01*
X14593844Y7176810D01*
X14552893Y7189379D01*
X14511048Y7198429D01*
X14477695Y7201539D01*
X14462217Y7196286D01*
X14459922Y7191260D01*
X14444277Y7164274D01*
X14417915Y7122360D01*
X14384999Y7072212D01*
X14381663Y7067262D01*
X14331336Y7001743D01*
X14284433Y6957195D01*
X14243591Y6935639D01*
X14211445Y6939096D01*
X14205248Y6943090D01*
X14200058Y6944718D01*
X14197833Y6938719D01*
X14198876Y6920825D01*
X14203491Y6886768D01*
X14211980Y6832278D01*
X14224646Y6753088D01*
X14228423Y6729204D01*
X14261352Y6494350D01*
X14286208Y6264247D01*
X14302720Y6043496D01*
X14310618Y5836697D01*
X14309628Y5648452D01*
X14299482Y5483361D01*
X14281942Y5344188D01*
X14245490Y5170346D01*
X14194143Y5020424D01*
X14126704Y4893004D01*
X14041976Y4786669D01*
X13938760Y4699999D01*
X13815860Y4631575D01*
X13672076Y4579980D01*
X13506213Y4543795D01*
X13499422Y4542683D01*
X13444183Y4533390D01*
X13399725Y4525505D01*
X13375130Y4520635D01*
X13373661Y4520354D01*
X13347782Y4518920D01*
X13299777Y4518572D01*
X13235951Y4519296D01*
X13162608Y4521080D01*
X13134795Y4522092D01*
X12967214Y4536648D01*
X12824136Y4565385D01*
X12704246Y4608899D01*
X12606224Y4667785D01*
X12528754Y4742639D01*
X12470517Y4834058D01*
X12457832Y4860552D01*
X12446313Y4888954D01*
X12438514Y4918323D01*
X12433739Y4954330D01*
X12431289Y5002641D01*
X12430469Y5068928D01*
X12430580Y5158858D01*
X12430863Y5202360D01*
X12432972Y5296992D01*
X12437799Y5381586D01*
X12446227Y5465813D01*
X12459138Y5559342D01*
X12477416Y5671841D01*
X12486736Y5726942D01*
X12507116Y5849957D01*
X12522978Y5951519D01*
X12534878Y6036933D01*
X12543370Y6111504D01*
X12549009Y6180536D01*
X12552350Y6249333D01*
X12553948Y6323201D01*
X12554357Y6407444D01*
X12554357Y6642600D01*
X12521379Y6633762D01*
X12517754Y6633108D01*
X12487501Y6630909D01*
X12433030Y6628928D01*
X12358312Y6627243D01*
X12267316Y6625930D01*
X12164011Y6625065D01*
X12052366Y6624724D01*
X11616330Y6624524D01*
X11616450Y6488950D01*
X11616991Y6438903D01*
X11620596Y6351977D01*
X11628149Y6261723D01*
X11640306Y6163125D01*
X11657726Y6051167D01*
X11681063Y5920834D01*
X11710976Y5767109D01*
X11717657Y5733626D01*
X11744810Y5595037D01*
X11766212Y5480151D01*
X11782394Y5384935D01*
X11793884Y5305356D01*
X11801214Y5237381D01*
X11804912Y5176979D01*
X11805509Y5120116D01*
X11803535Y5062761D01*
X11787852Y4941469D01*
X11751943Y4835721D01*
X11694412Y4747934D01*
X11613624Y4675635D01*
X11507942Y4616353D01*
X11420589Y4581193D01*
X11323532Y4553110D01*
X11218457Y4534842D01*
X11098495Y4525228D01*
X10956780Y4523104D01*
X10923426Y4523433D01*
X10835316Y4525385D01*
X10765743Y4529406D01*
X10706546Y4536365D01*
X10649566Y4547133D01*
X10586645Y4562580D01*
X10555121Y4571221D01*
X10410346Y4621835D01*
X10289552Y4685188D01*
X10189767Y4763521D01*
X10108021Y4859076D01*
X10041343Y4974095D01*
X10018376Y5023790D01*
X9984174Y5107744D01*
X9956576Y5192388D01*
X9934968Y5281796D01*
X9918736Y5380047D01*
X9907264Y5491215D01*
X9899938Y5619377D01*
X9896144Y5768610D01*
X9895268Y5942989D01*
X9896124Y6070250D01*
X9899852Y6241333D01*
X9907006Y6397529D01*
X9918137Y6547409D01*
X9933799Y6699547D01*
X9954544Y6862515D01*
X9963356Y6926805D01*
X9913412Y6920974D01*
X9895817Y6920458D01*
X9855732Y6932304D01*
X9814802Y6964463D01*
X9770291Y7019457D01*
X9719463Y7099809D01*
X9665067Y7192823D01*
X9590999Y7169137D01*
X9562821Y7158973D01*
X9526939Y7141759D01*
X9510008Y7127409D01*
X9509210Y7117217D01*
X9518012Y7082554D01*
X9537516Y7035132D01*
X9563997Y6982669D01*
X9593728Y6932880D01*
X9622984Y6893479D01*
X9634940Y6879050D01*
X9657884Y6845300D01*
X9666994Y6821879D01*
X9664470Y6809940D01*
X9644999Y6779630D01*
X9615595Y6753130D01*
X9587507Y6741777D01*
X9585429Y6741846D01*
X9551524Y6756504D01*
X9511647Y6793084D01*
X9469529Y6846316D01*
X9428900Y6910927D01*
X9393493Y6981649D01*
X9367039Y7053209D01*
X9350359Y7109700D01*
X9237528Y7116351D01*
X9224575Y7117076D01*
X9173785Y7119090D01*
X9138143Y7119155D01*
X9124697Y7117217D01*
X9125204Y7109373D01*
X9131009Y7072107D01*
X9141832Y7017714D01*
X9155823Y6954352D01*
X9171135Y6890181D01*
X9185921Y6833362D01*
X9198332Y6792055D01*
X9211725Y6751211D01*
X9219043Y6718014D01*
X9216636Y6695180D01*
X9205034Y6673346D01*
X9202821Y6670140D01*
X9168829Y6644203D01*
X9128484Y6642171D01*
X9092210Y6664830D01*
X9073573Y6696274D01*
X9051733Y6751952D01*
X9029923Y6823196D01*
X9009900Y6902952D01*
X8993422Y6984166D01*
X8982246Y7059782D01*
X8978131Y7122747D01*
X8977816Y7138609D01*
X8971932Y7168475D01*
X8953285Y7190802D01*
X8915030Y7215671D01*
X8813183Y7289357D01*
X8717094Y7392362D01*
X8635352Y7519939D01*
X8567843Y7672347D01*
X8514453Y7849846D01*
X8475070Y8052699D01*
X8449577Y8281164D01*
X8443692Y8386484D01*
X8443122Y8489289D01*
X8588138Y8489289D01*
X8596024Y8295556D01*
X8610446Y8151887D01*
X8643224Y7952390D01*
X8688908Y7778858D01*
X8747590Y7631036D01*
X8819357Y7508665D01*
X8904302Y7411488D01*
X8915715Y7400945D01*
X8947117Y7373053D01*
X8964207Y7362691D01*
X8972675Y7367977D01*
X8978215Y7387027D01*
X8991315Y7412571D01*
X9027929Y7437542D01*
X9046180Y7443021D01*
X9072528Y7440922D01*
X9097210Y7417369D01*
X9116614Y7381152D01*
X9116205Y7334325D01*
X9116014Y7333300D01*
X9112471Y7300665D01*
X9123439Y7285441D01*
X9156219Y7277209D01*
X9158567Y7276799D01*
X9209237Y7269917D01*
X9262201Y7265279D01*
X9319094Y7262089D01*
X9319276Y7270510D01*
X9796480Y7270510D01*
X9837603Y7194953D01*
X9859432Y7158991D01*
X9888202Y7117433D01*
X9918765Y7077105D01*
X9946556Y7043763D01*
X9967009Y7023161D01*
X9975560Y7021054D01*
X9975862Y7023147D01*
X9979572Y7046597D01*
X9986514Y7089560D01*
X9995508Y7144719D01*
X10014680Y7261855D01*
X9966435Y7325039D01*
X9946216Y7349870D01*
X9921083Y7375612D01*
X9906497Y7383783D01*
X9899558Y7378999D01*
X9876272Y7357250D01*
X9845642Y7324926D01*
X9796480Y7270510D01*
X9319276Y7270510D01*
X9320828Y7342289D01*
X9322172Y7378218D01*
X9327407Y7409434D01*
X9340156Y7426222D01*
X9364402Y7437262D01*
X9383222Y7442962D01*
X9409571Y7441028D01*
X9434021Y7417729D01*
X9452496Y7384747D01*
X9461800Y7343520D01*
X9463388Y7315243D01*
X9473288Y7296651D01*
X9497708Y7295272D01*
X9542782Y7308452D01*
X9564652Y7316216D01*
X9593568Y7331339D01*
X9606371Y7353109D01*
X9611243Y7391444D01*
X9612430Y7406260D01*
X9618443Y7437910D01*
X9633333Y7451946D01*
X9664287Y7457290D01*
X9665728Y7457420D01*
X9704987Y7455723D01*
X9732354Y7445791D01*
X9745944Y7441130D01*
X9761677Y7455087D01*
X9782435Y7492852D01*
X9813041Y7556076D01*
X9754270Y7692397D01*
X9695889Y7842725D01*
X9630746Y8062986D01*
X9581861Y8303000D01*
X9548592Y8565491D01*
X9545119Y8615636D01*
X9542052Y8693147D01*
X9539970Y8787112D01*
X9538831Y8892954D01*
X9538592Y9006098D01*
X9539210Y9121968D01*
X9540641Y9235986D01*
X9542843Y9343577D01*
X9545773Y9440165D01*
X9549387Y9521174D01*
X9553643Y9582027D01*
X9558497Y9618148D01*
X9561564Y9633842D01*
X9558622Y9653691D01*
X9538587Y9658454D01*
X9517132Y9660271D01*
X9498952Y9668982D01*
X9486939Y9688322D01*
X9480430Y9722001D01*
X9478767Y9773726D01*
X9481287Y9847208D01*
X9487331Y9946153D01*
X9490148Y9985505D01*
X9497608Y10070577D01*
X9505616Y10138972D01*
X9513633Y10186484D01*
X9521117Y10208909D01*
X9537537Y10221214D01*
X9571725Y10230064D01*
X9576407Y10229974D01*
X9609007Y10221093D01*
X9629334Y10195041D01*
X9639047Y10148079D01*
X9639801Y10076466D01*
X9635830Y9969853D01*
X9689509Y9959783D01*
X9697114Y9958330D01*
X9727898Y9949526D01*
X9738079Y9934107D01*
X9734900Y9903016D01*
X9722579Y9821802D01*
X9708443Y9692697D01*
X9696968Y9544752D01*
X9688287Y9383884D01*
X9682536Y9216008D01*
X9679850Y9047041D01*
X9680364Y8882899D01*
X9684211Y8729500D01*
X9691528Y8592758D01*
X9702448Y8478592D01*
X9711686Y8410294D01*
X9755094Y8170041D01*
X9812939Y7953455D01*
X9886015Y7758652D01*
X9975115Y7583745D01*
X10081034Y7426851D01*
X10204564Y7286083D01*
X10227790Y7261855D01*
X10245731Y7243140D01*
X10287663Y7192218D01*
X10308674Y7153043D01*
X10310355Y7122248D01*
X10294299Y7096469D01*
X10293122Y7095336D01*
X10258510Y7080519D01*
X10215400Y7083408D01*
X10177377Y7103219D01*
X10158308Y7117595D01*
X10144286Y7121358D01*
X10140582Y7107904D01*
X10134017Y7069071D01*
X10125443Y7009444D01*
X10115391Y6933462D01*
X10104390Y6845567D01*
X10092973Y6750201D01*
X10081668Y6651804D01*
X10071006Y6554818D01*
X10061518Y6463683D01*
X10053734Y6382842D01*
X10048185Y6316734D01*
X10035229Y6077833D01*
X10033142Y5843480D01*
X10042805Y5629036D01*
X10064032Y5435737D01*
X10096638Y5264817D01*
X10140439Y5117508D01*
X10195249Y4995047D01*
X10260884Y4898665D01*
X10272190Y4886354D01*
X10336777Y4833949D01*
X10423660Y4783883D01*
X10527176Y4739075D01*
X10641662Y4702442D01*
X10715991Y4686698D01*
X10832597Y4672888D01*
X10959254Y4667607D01*
X11086438Y4670849D01*
X11204620Y4682607D01*
X11304277Y4702875D01*
X11309909Y4704470D01*
X11422858Y4743117D01*
X11509712Y4787790D01*
X11573270Y4840276D01*
X11616330Y4902366D01*
X11621575Y4913028D01*
X11635708Y4945939D01*
X11644751Y4978943D01*
X11649742Y5019343D01*
X11651717Y5074437D01*
X11651713Y5151529D01*
X11651683Y5155475D01*
X11650418Y5215656D01*
X11647191Y5272559D01*
X11641256Y5331494D01*
X11631865Y5397776D01*
X11618272Y5476717D01*
X11599730Y5573630D01*
X11575492Y5693826D01*
X11543891Y5852230D01*
X11518547Y5989257D01*
X11499261Y6107603D01*
X11485386Y6212146D01*
X11476276Y6307767D01*
X11471284Y6399344D01*
X11469764Y6491757D01*
X11469780Y6499780D01*
X11470396Y6558181D01*
X11468748Y6598567D01*
X11460416Y6624873D01*
X11440984Y6641035D01*
X11406032Y6650989D01*
X11351143Y6658670D01*
X11271899Y6668015D01*
X11248557Y6670967D01*
X11165958Y6683168D01*
X11107508Y6695859D01*
X11069047Y6710512D01*
X11046418Y6728595D01*
X11035462Y6751578D01*
X11033943Y6781563D01*
X11055062Y6817260D01*
X11055341Y6817538D01*
X11070430Y6830851D01*
X11087073Y6837841D01*
X11112093Y6838777D01*
X11152309Y6833930D01*
X11214545Y6823568D01*
X11216808Y6823178D01*
X11325722Y6806274D01*
X11436194Y6793107D01*
X11552834Y6783445D01*
X11680253Y6777054D01*
X11823061Y6773702D01*
X11985867Y6773156D01*
X12173283Y6775184D01*
X12208073Y6775760D01*
X12344538Y6778457D01*
X12457446Y6781629D01*
X12551490Y6785554D01*
X12631359Y6790513D01*
X12701746Y6796782D01*
X12767340Y6804641D01*
X12832833Y6814369D01*
X12845813Y6816451D01*
X12923256Y6828843D01*
X12993668Y6840057D01*
X13049747Y6848933D01*
X13084188Y6854311D01*
X13114450Y6857221D01*
X13140902Y6849910D01*
X13162177Y6825104D01*
X13165079Y6820567D01*
X13178375Y6787690D01*
X13170806Y6758058D01*
X13161256Y6745038D01*
X13139218Y6729432D01*
X13103419Y6715605D01*
X13050002Y6702461D01*
X12975106Y6688899D01*
X12874873Y6673821D01*
X12704391Y6649633D01*
X12696888Y6332953D01*
X12694947Y6258526D01*
X12691256Y6157731D01*
X12686080Y6071033D01*
X12678572Y5989862D01*
X12667880Y5905650D01*
X12653156Y5809827D01*
X12633552Y5693826D01*
X12632866Y5689864D01*
X12612974Y5571432D01*
X12598298Y5474622D01*
X12588101Y5392562D01*
X12581648Y5318383D01*
X12578203Y5245215D01*
X12577030Y5166186D01*
X12577065Y5090138D01*
X12578364Y5027943D01*
X12581785Y4982964D01*
X12588147Y4948839D01*
X12598273Y4919208D01*
X12612983Y4887709D01*
X12632833Y4854516D01*
X12696368Y4789339D01*
X12786251Y4736926D01*
X12902511Y4697257D01*
X12938424Y4689322D01*
X13032574Y4676042D01*
X13140925Y4668334D01*
X13253452Y4666487D01*
X13360130Y4670786D01*
X13450933Y4681521D01*
X13567231Y4706403D01*
X13714906Y4754455D01*
X13838044Y4817099D01*
X13937477Y4894898D01*
X14014039Y4988414D01*
X14068563Y5098210D01*
X14092593Y5167188D01*
X14115768Y5247832D01*
X14133098Y5330398D01*
X14145292Y5420348D01*
X14153057Y5523141D01*
X14157102Y5644236D01*
X14158134Y5789094D01*
X14156596Y5934994D01*
X14152036Y6070655D01*
X14143857Y6202402D01*
X14131457Y6336727D01*
X14114238Y6480127D01*
X14091600Y6639094D01*
X14062943Y6820123D01*
X14055604Y6864860D01*
X14039978Y6959404D01*
X14027874Y7029508D01*
X14018362Y7078380D01*
X14010516Y7109231D01*
X14003408Y7125269D01*
X13996111Y7129702D01*
X13987696Y7125741D01*
X13977236Y7116593D01*
X13975949Y7115458D01*
X13938153Y7097237D01*
X13895381Y7095570D01*
X13861731Y7111125D01*
X13856341Y7117086D01*
X13846086Y7139868D01*
X13850790Y7168062D01*
X13872278Y7205085D01*
X13909509Y7250831D01*
X14143661Y7250831D01*
X14144333Y7214143D01*
X14152913Y7160043D01*
X14163006Y7112177D01*
X14173747Y7077472D01*
X14182659Y7064224D01*
X14182750Y7064225D01*
X14199017Y7075935D01*
X14225144Y7106105D01*
X14256151Y7148009D01*
X14287058Y7194917D01*
X14312882Y7240104D01*
X14339239Y7291402D01*
X14291844Y7346160D01*
X14244450Y7400917D01*
X14200921Y7346160D01*
X14177482Y7316328D01*
X14153757Y7281196D01*
X14143661Y7250831D01*
X13909509Y7250831D01*
X13912374Y7254351D01*
X13972902Y7319278D01*
X13989975Y7337190D01*
X14099986Y7466335D01*
X14192959Y7603168D01*
X14270815Y7751822D01*
X14335471Y7916431D01*
X14388846Y8101126D01*
X14432859Y8310041D01*
X14443583Y8380557D01*
X14456382Y8504291D01*
X14465596Y8646581D01*
X14471108Y8801148D01*
X14472797Y8961715D01*
X14470546Y9122001D01*
X14464236Y9275729D01*
X14453749Y9416619D01*
X14449357Y9459889D01*
X14436812Y9568677D01*
X14420285Y9698701D01*
X14400530Y9844927D01*
X14378304Y10002322D01*
X14354362Y10165854D01*
X14329459Y10330490D01*
X14304351Y10491195D01*
X14279793Y10642938D01*
X14256541Y10780686D01*
X14235350Y10899404D01*
X14216975Y10994061D01*
X14218810Y11027536D01*
X14239428Y11059280D01*
X14272021Y11078587D01*
X14308229Y11080862D01*
X14339694Y11061510D01*
X14344464Y11050229D01*
X14354743Y11010857D01*
X14368607Y10946303D01*
X14385646Y10858826D01*
X14405449Y10750690D01*
X14427605Y10624155D01*
X14451703Y10481484D01*
X14477331Y10324939D01*
X14504080Y10156780D01*
X14545565Y9872384D01*
X14583512Y9552286D01*
X14608223Y9255486D01*
X14619634Y8980390D01*
X14617680Y8725405D01*
X14602297Y8488937D01*
X14573422Y8269392D01*
X14530990Y8065177D01*
X14474938Y7874697D01*
X14405201Y7696361D01*
X14385904Y7652607D01*
X14363807Y7600221D01*
X14351666Y7565145D01*
X14348158Y7541583D01*
X14351963Y7523741D01*
X14361759Y7505824D01*
X14362234Y7505067D01*
X14384433Y7480112D01*
X14404389Y7473134D01*
X14461310Y7484772D01*
X14504786Y7477631D01*
X14527846Y7449925D01*
X14529972Y7401950D01*
X14528284Y7387901D01*
X14531340Y7366072D01*
X14549267Y7351307D01*
X14588745Y7336127D01*
X14632124Y7323339D01*
X14662142Y7322872D01*
X14676130Y7340022D01*
X14679573Y7377276D01*
X14685785Y7420521D01*
X14709915Y7450439D01*
X14753993Y7459954D01*
X14773736Y7458493D01*
X14807006Y7442314D01*
X14821708Y7406279D01*
X14819265Y7347946D01*
X14810786Y7291402D01*
X14809022Y7279641D01*
X14899440Y7289091D01*
X14941945Y7294289D01*
X14982464Y7301020D01*
X15003267Y7306830D01*
X15005539Y7309043D01*
X15013471Y7332895D01*
X15016676Y7371084D01*
X15016889Y7379200D01*
X15023903Y7419193D01*
X15037775Y7444562D01*
X15051086Y7452661D01*
X15090698Y7458342D01*
X15129977Y7446408D01*
X15155726Y7419648D01*
X15167330Y7398425D01*
X15179905Y7386671D01*
X15181078Y7387000D01*
X15197759Y7400344D01*
X15227383Y7429302D01*
X15264406Y7468503D01*
X15326021Y7547219D01*
X15396763Y7673837D01*
X15454775Y7824768D01*
X15499532Y7998580D01*
X15530506Y8193840D01*
X15533300Y8221114D01*
X15539390Y8319563D01*
X15542255Y8438784D01*
X15542071Y8572535D01*
X15539008Y8714573D01*
X15533242Y8858656D01*
X15524945Y8998539D01*
X15514291Y9127981D01*
X15501452Y9240739D01*
X15491816Y9309847D01*
X15437989Y9645361D01*
X15371783Y9989850D01*
X15294776Y10336956D01*
X15208544Y10680323D01*
X15114664Y11013593D01*
X15014712Y11330410D01*
X14910266Y11624415D01*
X14862364Y11750965D01*
X14779066Y11708845D01*
X14754143Y11696539D01*
X14605222Y11632582D01*
X14433562Y11572721D01*
X14244630Y11518551D01*
X14043891Y11471669D01*
X13836815Y11433672D01*
X13703934Y11414358D01*
X13482818Y11388230D01*
X13428044Y11383161D01*
X13242296Y11365971D01*
X12988201Y11347821D01*
X12726370Y11334016D01*
X12462638Y11324796D01*
X12202842Y11320399D01*
X11952815Y11321062D01*
X11718395Y11327024D01*
X11505416Y11338523D01*
X11387173Y11346992D01*
X11382931Y11248527D01*
X11381360Y11212060D01*
X11369587Y10938758D01*
X11365676Y10852918D01*
X11359177Y10724678D01*
X11351974Y10595959D01*
X11344511Y10474205D01*
X11337230Y10366858D01*
X11330571Y10281362D01*
X11327872Y10248356D01*
X11320471Y10139841D01*
X11314459Y10025159D01*
X11310396Y9916084D01*
X11308841Y9824388D01*
X11308826Y9816353D01*
X11308028Y9732578D01*
X11305768Y9673066D01*
X11301575Y9633160D01*
X11294979Y9608205D01*
X11285508Y9593546D01*
X11264888Y9578556D01*
X11223724Y9572521D01*
X11185006Y9593546D01*
X11182467Y9596776D01*
X11172274Y9629106D01*
X11165548Y9686898D01*
X11162293Y9767132D01*
X11162512Y9866785D01*
X11166212Y9982836D01*
X11173395Y10112265D01*
X11184066Y10252049D01*
X11185178Y10264869D01*
X11194433Y10367927D01*
X11201093Y10445709D01*
X11204087Y10501828D01*
X11202345Y10539896D01*
X11194795Y10563526D01*
X11180367Y10576331D01*
X11157991Y10581922D01*
X11126594Y10583914D01*
X11085107Y10585917D01*
X11066040Y10587143D01*
X11012980Y10589615D01*
X10974611Y10589984D01*
X10958195Y10588124D01*
X10956008Y10580631D01*
X10951385Y10547497D01*
X10945636Y10492046D01*
X10939086Y10418540D01*
X10932059Y10331244D01*
X10924879Y10234422D01*
X10917869Y10132338D01*
X10911356Y10029257D01*
X10905661Y9929442D01*
X10901111Y9837158D01*
X10900090Y9814435D01*
X10895454Y9722926D01*
X10890326Y9656048D01*
X10883549Y9609942D01*
X10873966Y9580750D01*
X10860420Y9564615D01*
X10841753Y9557678D01*
X10816809Y9556081D01*
X10797859Y9558743D01*
X10769175Y9573445D01*
X10766567Y9576890D01*
X10757639Y9609917D01*
X10753157Y9671538D01*
X10753121Y9761444D01*
X10757535Y9879325D01*
X10766399Y10024870D01*
X10772042Y10106497D01*
X10778657Y10203315D01*
X10784866Y10295251D01*
X10789842Y10370127D01*
X10799507Y10517518D01*
X10566690Y10535843D01*
X10539312Y10538047D01*
X10442521Y10546485D01*
X10344909Y10555841D01*
X10256497Y10565124D01*
X10187305Y10573345D01*
X10172304Y10575261D01*
X10098609Y10582754D01*
X10051275Y10583673D01*
X10031395Y10577983D01*
X10030818Y10576810D01*
X10025666Y10553611D01*
X10018914Y10508094D01*
X10011374Y10446259D01*
X10003854Y10374104D01*
X9997359Y10304587D01*
X9993023Y10248156D01*
X9992178Y10211154D01*
X9995045Y10188401D01*
X10001847Y10174714D01*
X10012805Y10164912D01*
X10024202Y10154128D01*
X10033414Y10133062D01*
X10036787Y10097722D01*
X10035692Y10040671D01*
X10034077Y10003210D01*
X10027139Y9877499D01*
X10018910Y9775791D01*
X10009543Y9699412D01*
X9999190Y9649687D01*
X9988004Y9627943D01*
X9959585Y9617072D01*
X9919073Y9617515D01*
X9888862Y9634037D01*
X9887934Y9635402D01*
X9881842Y9661826D01*
X9878135Y9712608D01*
X9876644Y9783440D01*
X9877203Y9870014D01*
X9879646Y9968022D01*
X9883805Y10073155D01*
X9889514Y10181106D01*
X9896605Y10287565D01*
X9904913Y10388224D01*
X9914270Y10478776D01*
X9924510Y10554912D01*
X9932964Y10608612D01*
X9847613Y10625540D01*
X9830179Y10629142D01*
X9758106Y10645910D01*
X9672965Y10667811D01*
X9583086Y10692508D01*
X9496795Y10717666D01*
X9422421Y10740948D01*
X9368291Y10760017D01*
X9340635Y10770350D01*
X9307009Y10781058D01*
X9291836Y10783161D01*
X9289273Y10774179D01*
X9283546Y10739600D01*
X9275790Y10683302D01*
X9266508Y10609640D01*
X9256202Y10522968D01*
X9245374Y10427640D01*
X9234527Y10328010D01*
X9224163Y10228433D01*
X9214784Y10133264D01*
X9206893Y10046855D01*
X9201185Y9983631D01*
X9193500Y9906058D01*
X9186332Y9841597D01*
X9180288Y9795617D01*
X9175974Y9773487D01*
X9171634Y9765033D01*
X9144069Y9744449D01*
X9106786Y9740227D01*
X9070949Y9751891D01*
X9047719Y9778964D01*
X9046668Y9785716D01*
X9046761Y9819895D01*
X9049812Y9877834D01*
X9055475Y9955875D01*
X9063410Y10050359D01*
X9073272Y10157628D01*
X9084719Y10274024D01*
X9097408Y10395887D01*
X9110995Y10519561D01*
X9125137Y10641386D01*
X9139492Y10757704D01*
X9159824Y10913102D01*
X9306164Y10913102D01*
X9310860Y10900811D01*
X9326654Y10888744D01*
X9357778Y10874696D01*
X9408462Y10856461D01*
X9482940Y10831833D01*
X9555820Y10808880D01*
X9643573Y10782788D01*
X9725792Y10759794D01*
X9791376Y10743093D01*
X9816375Y10737316D01*
X9870262Y10725244D01*
X9910056Y10716868D01*
X9928543Y10713734D01*
X9929635Y10714776D01*
X9930414Y10717297D01*
X10055434Y10717297D01*
X10057337Y10699591D01*
X10062874Y10697198D01*
X10093353Y10690521D01*
X10144968Y10682227D01*
X10212293Y10673142D01*
X10289902Y10664095D01*
X10303893Y10662595D01*
X10398759Y10652983D01*
X10496935Y10643842D01*
X10587613Y10636142D01*
X10659983Y10630855D01*
X10810214Y10621387D01*
X10810777Y10656568D01*
X10811211Y10666632D01*
X10813849Y10705529D01*
X10815124Y10721883D01*
X10973303Y10721883D01*
X10974902Y10705383D01*
X10976030Y10704633D01*
X10997821Y10699405D01*
X11039699Y10693716D01*
X11093804Y10688670D01*
X11116105Y10686786D01*
X11151768Y10683955D01*
X11177945Y10685280D01*
X11196276Y10694345D01*
X11208400Y10714734D01*
X11215957Y10750031D01*
X11220586Y10803821D01*
X11223928Y10879689D01*
X11227620Y10981218D01*
X11236439Y11212060D01*
X11158901Y11212260D01*
X11130827Y11212829D01*
X11082576Y11215980D01*
X11049797Y11220929D01*
X11025719Y11222010D01*
X11010275Y11202408D01*
X11008281Y11193354D01*
X11003201Y11156734D01*
X11001045Y11136067D01*
X10997479Y11101884D01*
X10991538Y11034733D01*
X10985800Y10961206D01*
X10980685Y10887231D01*
X10976616Y10818734D01*
X10974015Y10761643D01*
X10973303Y10721883D01*
X10815124Y10721883D01*
X10818450Y10764549D01*
X10824535Y10837664D01*
X10831624Y10918843D01*
X10835569Y10964517D01*
X10841239Y11037205D01*
X10845053Y11096098D01*
X10846698Y11136067D01*
X10845860Y11151986D01*
X10838890Y11153979D01*
X10807209Y11159356D01*
X10754688Y11166907D01*
X10686417Y11176015D01*
X10607486Y11186057D01*
X10522985Y11196416D01*
X10438002Y11206470D01*
X10357628Y11215600D01*
X10286953Y11223187D01*
X10231065Y11228609D01*
X10195054Y11231248D01*
X10129519Y11234045D01*
X10087070Y10972681D01*
X10075466Y10897623D01*
X10064999Y10820909D01*
X10058155Y10759268D01*
X10055434Y10717297D01*
X9930414Y10717297D01*
X9935969Y10735269D01*
X9945227Y10777783D01*
X9956507Y10836799D01*
X9968905Y10906801D01*
X9981516Y10982271D01*
X9993437Y11057691D01*
X10003765Y11127544D01*
X10011595Y11186313D01*
X10016024Y11228480D01*
X10016147Y11248527D01*
X10006665Y11254365D01*
X9972731Y11266880D01*
X9918739Y11283667D01*
X9849442Y11303269D01*
X9769590Y11324225D01*
X9714098Y11338449D01*
X9631204Y11360333D01*
X9557556Y11380511D01*
X9499561Y11397214D01*
X9463622Y11408676D01*
X9443498Y11415890D01*
X9410253Y11427378D01*
X9395217Y11431910D01*
X9393391Y11430106D01*
X9386013Y11406976D01*
X9375955Y11360550D01*
X9364016Y11295092D01*
X9350991Y11214861D01*
X9337678Y11124120D01*
X9328939Y11062575D01*
X9319597Y10999224D01*
X9312016Y10950412D01*
X9307293Y10923391D01*
X9306164Y10913102D01*
X9159824Y10913102D01*
X9162147Y10930859D01*
X9183840Y11086445D01*
X9204214Y11220370D01*
X9223921Y11336480D01*
X9243618Y11438621D01*
X9263958Y11530639D01*
X9269650Y11553195D01*
X9424779Y11553195D01*
X9427695Y11533990D01*
X9431452Y11531394D01*
X9460402Y11519118D01*
X9511562Y11501794D01*
X9580161Y11480842D01*
X9661427Y11457682D01*
X9750588Y11433735D01*
X9842874Y11410421D01*
X9892710Y11398281D01*
X9952293Y11383845D01*
X9997628Y11372954D01*
X10021602Y11367322D01*
X10024889Y11366751D01*
X10043876Y11374874D01*
X10046863Y11383222D01*
X10156908Y11383222D01*
X10157778Y11352959D01*
X10168811Y11343773D01*
X10170222Y11343710D01*
X10194331Y11341334D01*
X10242004Y11335931D01*
X10308522Y11328058D01*
X10389165Y11318273D01*
X10479213Y11307131D01*
X10489495Y11305852D01*
X10581538Y11294723D01*
X10665973Y11285068D01*
X10737436Y11277461D01*
X10790560Y11272476D01*
X10819980Y11270687D01*
X10830160Y11270752D01*
X10856634Y11274528D01*
X10867035Y11290383D01*
X10868840Y11326924D01*
X10868840Y11383161D01*
X10703953Y11400581D01*
X10648474Y11406929D01*
X10551270Y11419507D01*
X10449738Y11434009D01*
X10358543Y11448405D01*
X10351457Y11449594D01*
X10283455Y11460524D01*
X10227403Y11468696D01*
X10188941Y11473338D01*
X10173710Y11473681D01*
X10172281Y11470264D01*
X10166622Y11445549D01*
X10159858Y11406261D01*
X10156908Y11383222D01*
X10046863Y11383222D01*
X10055673Y11407847D01*
X10064017Y11446666D01*
X10071891Y11478779D01*
X10072067Y11491946D01*
X10055939Y11506605D01*
X10015834Y11519862D01*
X9897559Y11551876D01*
X9777513Y11587585D01*
X9669482Y11622987D01*
X9581849Y11655461D01*
X9567859Y11660968D01*
X9518096Y11678112D01*
X9480737Y11687214D01*
X9462997Y11686394D01*
X9452452Y11667683D01*
X9439658Y11630834D01*
X9429600Y11589073D01*
X9424779Y11553195D01*
X9269650Y11553195D01*
X9285596Y11616382D01*
X9300331Y11673409D01*
X9313158Y11728005D01*
X9320649Y11766277D01*
X9321515Y11782275D01*
X9319812Y11783699D01*
X9309786Y11782520D01*
X9296521Y11765034D01*
X9278563Y11728349D01*
X9254459Y11669570D01*
X9222753Y11585805D01*
X9183686Y11478201D01*
X9088603Y11197912D01*
X8999950Y10910105D01*
X8918313Y10617856D01*
X8844278Y10324245D01*
X8778431Y10032347D01*
X8721360Y9745241D01*
X8673649Y9466004D01*
X8635885Y9197712D01*
X8608655Y8943444D01*
X8592543Y8706277D01*
X8588138Y8489289D01*
X8443122Y8489289D01*
X8442535Y8595313D01*
X8453041Y8825569D01*
X8474604Y9074008D01*
X8506622Y9337388D01*
X8548489Y9612465D01*
X8599602Y9895997D01*
X8659356Y10184741D01*
X8727148Y10475453D01*
X8802372Y10764892D01*
X8884426Y11049813D01*
X8972704Y11326975D01*
X9066603Y11593133D01*
X9091199Y11659454D01*
X9118398Y11733213D01*
X9140824Y11794501D01*
X9156652Y11838321D01*
X9164055Y11859677D01*
X9164816Y11866051D01*
X9156317Y11896763D01*
X9134840Y11932960D01*
X9123316Y11948915D01*
X9095164Y11998808D01*
X9078182Y12053125D01*
X9072215Y12116464D01*
X9073586Y12138035D01*
X9217915Y12138035D01*
X9220411Y12104085D01*
X9229680Y12070035D01*
X9250179Y12030559D01*
X9301571Y11974282D01*
X9377391Y11917790D01*
X9474976Y11863328D01*
X9512417Y11845290D01*
X9565442Y11820593D01*
X9606125Y11802601D01*
X9655181Y11782088D01*
X9643626Y11845170D01*
X9640569Y11868089D01*
X9636607Y11923112D01*
X9634257Y11991715D01*
X9634095Y12030061D01*
X9733877Y12030061D01*
X9737762Y11955632D01*
X9746299Y11881547D01*
X9758403Y11817451D01*
X9770008Y11782088D01*
X9772994Y11772989D01*
X9778111Y11764862D01*
X9802693Y11743787D01*
X9845157Y11722589D01*
X9907743Y11700543D01*
X9992687Y11676924D01*
X10102228Y11651007D01*
X10238604Y11622065D01*
X10245849Y11620587D01*
X10340023Y11601303D01*
X10409095Y11587972D01*
X10456572Y11581256D01*
X10485958Y11581817D01*
X10500758Y11590318D01*
X10504480Y11607420D01*
X10500626Y11633787D01*
X10492704Y11670081D01*
X10491488Y11675974D01*
X10480801Y11739037D01*
X10470924Y11814544D01*
X10463857Y11887430D01*
X10455548Y11998136D01*
X10558111Y11998136D01*
X10568045Y11887239D01*
X10571529Y11852841D01*
X10582247Y11774052D01*
X10595704Y11699920D01*
X10610544Y11636578D01*
X10619881Y11607420D01*
X10625409Y11590158D01*
X10638943Y11566795D01*
X10650088Y11563330D01*
X10687659Y11556917D01*
X10747180Y11549043D01*
X10824447Y11540210D01*
X10915258Y11530922D01*
X11015407Y11521684D01*
X11051623Y11518519D01*
X11169989Y11508278D01*
X11262914Y11500568D01*
X11333362Y11495322D01*
X11384298Y11492473D01*
X11418688Y11491952D01*
X11439496Y11493694D01*
X11449687Y11497630D01*
X11452226Y11503693D01*
X11450078Y11511816D01*
X11449700Y11512940D01*
X11445128Y11537885D01*
X11438996Y11585031D01*
X11432059Y11648065D01*
X11425072Y11720673D01*
X11424043Y11732061D01*
X11417486Y11801302D01*
X11411595Y11858196D01*
X11406982Y11897121D01*
X11405004Y11908252D01*
X11518173Y11908252D01*
X11524130Y11805655D01*
X11527726Y11754655D01*
X11534812Y11680915D01*
X11543426Y11611022D01*
X11552664Y11551324D01*
X11561620Y11508169D01*
X11563337Y11503693D01*
X11567842Y11491946D01*
X11569392Y11487905D01*
X11575080Y11486373D01*
X11605973Y11483509D01*
X11659742Y11480691D01*
X11732200Y11477991D01*
X11819160Y11475482D01*
X11916437Y11473237D01*
X12019842Y11471330D01*
X12125189Y11469833D01*
X12228291Y11468819D01*
X12324961Y11468362D01*
X12411012Y11468535D01*
X12482258Y11469410D01*
X12534511Y11471061D01*
X12653904Y11477016D01*
X12655439Y11485676D01*
X12761485Y11485676D01*
X12766935Y11480255D01*
X12785647Y11478790D01*
X12822940Y11480745D01*
X12884132Y11485590D01*
X12885904Y11485734D01*
X12920881Y11488553D01*
X12978978Y11493208D01*
X13054586Y11499250D01*
X13142094Y11506232D01*
X13235892Y11513703D01*
X13252825Y11515066D01*
X13341140Y11522677D01*
X13418535Y11530167D01*
X13480433Y11537033D01*
X13522253Y11542776D01*
X13539416Y11546894D01*
X13546668Y11558707D01*
X13547221Y11560308D01*
X13657057Y11560308D01*
X13663031Y11550347D01*
X13684810Y11552783D01*
X13747352Y11562154D01*
X13824354Y11575982D01*
X13911010Y11593167D01*
X14002512Y11612612D01*
X14094053Y11633216D01*
X14180825Y11653881D01*
X14258021Y11673509D01*
X14320835Y11690999D01*
X14364457Y11705254D01*
X14384082Y11715174D01*
X14396065Y11734625D01*
X14407555Y11766440D01*
X14522212Y11766440D01*
X14527753Y11754635D01*
X14529690Y11754801D01*
X14557174Y11763990D01*
X14602192Y11784658D01*
X14658228Y11813267D01*
X14718764Y11846277D01*
X14777283Y11880147D01*
X14827270Y11911338D01*
X14862207Y11936310D01*
X14869958Y11942757D01*
X14923948Y11996541D01*
X14957411Y12052401D01*
X14971766Y12116134D01*
X14968432Y12193542D01*
X14948828Y12290422D01*
X14924949Y12385483D01*
X14888569Y12361646D01*
X14869629Y12350928D01*
X14825962Y12329230D01*
X14782147Y12308868D01*
X14768150Y12302363D01*
X14703590Y12273838D01*
X14554991Y12209868D01*
X14546743Y12028165D01*
X14546482Y12022418D01*
X14546287Y12018160D01*
X14542080Y11943431D01*
X14536975Y11876493D01*
X14531597Y11824513D01*
X14526573Y11794663D01*
X14522212Y11766440D01*
X14407555Y11766440D01*
X14415399Y11788160D01*
X14430946Y11859728D01*
X14441303Y11942129D01*
X14445067Y12028165D01*
X14444727Y12061790D01*
X14442562Y12114673D01*
X14438839Y12151084D01*
X14434074Y12164603D01*
X14426348Y12163224D01*
X14393958Y12155884D01*
X14341376Y12143294D01*
X14273669Y12126674D01*
X14195903Y12107244D01*
X14163446Y12099182D01*
X14072836Y12077698D01*
X13984393Y12058030D01*
X13906839Y12042075D01*
X13848897Y12031732D01*
X13833269Y12029327D01*
X13775295Y12018632D01*
X13774134Y12018177D01*
X13739715Y12004690D01*
X13729902Y11992533D01*
X13721038Y11981551D01*
X13713775Y11943268D01*
X13712433Y11883892D01*
X13711855Y11866472D01*
X13706544Y11810382D01*
X13697062Y11743065D01*
X13685106Y11674627D01*
X13672372Y11615174D01*
X13660555Y11574813D01*
X13657057Y11560308D01*
X13547221Y11560308D01*
X13559940Y11597104D01*
X13574077Y11653672D01*
X13587643Y11721679D01*
X13599202Y11794390D01*
X13607315Y11865071D01*
X13618490Y11992533D01*
X13522459Y11983309D01*
X13510710Y11982177D01*
X13453759Y11976653D01*
X13378471Y11969311D01*
X13293270Y11960972D01*
X13206578Y11952461D01*
X13177839Y11949689D01*
X13094331Y11942214D01*
X13017416Y11936114D01*
X12954615Y11931958D01*
X12913445Y11930313D01*
X12888250Y11929528D01*
X12847298Y11925394D01*
X12824130Y11919020D01*
X12822752Y11917477D01*
X12819781Y11908252D01*
X12815237Y11894145D01*
X12806742Y11848568D01*
X12798207Y11786514D01*
X12790578Y11713753D01*
X12789276Y11699489D01*
X12782109Y11626836D01*
X12775137Y11564842D01*
X12769099Y11519690D01*
X12764736Y11497568D01*
X12763977Y11495587D01*
X12761485Y11485676D01*
X12655439Y11485676D01*
X12662246Y11524082D01*
X12666009Y11547335D01*
X12674238Y11611568D01*
X12683170Y11699124D01*
X12693123Y11812983D01*
X12700990Y11908252D01*
X12109582Y11908252D01*
X11518173Y11908252D01*
X11405004Y11908252D01*
X11404256Y11912459D01*
X11391475Y11914644D01*
X11353765Y11918820D01*
X11295845Y11924419D01*
X11222427Y11930988D01*
X11138224Y11938071D01*
X11081916Y11942801D01*
X10979172Y11951987D01*
X10877976Y11961645D01*
X10787556Y11970882D01*
X10717140Y11978806D01*
X10558111Y11998136D01*
X10455548Y11998136D01*
X10454419Y12013175D01*
X10428215Y12018177D01*
X11513734Y12018177D01*
X12109313Y12018177D01*
X12704893Y12018177D01*
X12693834Y12197721D01*
X12689298Y12266293D01*
X12683643Y12341711D01*
X12678143Y12405972D01*
X12673528Y12450019D01*
X12664282Y12522773D01*
X12110369Y12523302D01*
X12047837Y12523357D01*
X11917298Y12523383D01*
X11812126Y12523144D01*
X11729535Y12522496D01*
X11666738Y12521297D01*
X11620949Y12519404D01*
X11589383Y12516673D01*
X11569254Y12512962D01*
X11557775Y12508128D01*
X11552160Y12502028D01*
X11549624Y12494518D01*
X11547614Y12483387D01*
X11542464Y12442677D01*
X11536382Y12383724D01*
X11529992Y12313894D01*
X11523919Y12240555D01*
X11518789Y12171071D01*
X11515228Y12112811D01*
X11513859Y12073139D01*
X11513734Y12018177D01*
X10428215Y12018177D01*
X10276892Y12047062D01*
X10179072Y12067227D01*
X10041276Y12099272D01*
X10002093Y12109341D01*
X10556974Y12109341D01*
X10599318Y12100724D01*
X10605655Y12099571D01*
X10642988Y12094153D01*
X10700819Y12086812D01*
X10772522Y12078362D01*
X10851473Y12069623D01*
X10945645Y12060246D01*
X11049721Y12051070D01*
X11150009Y12043258D01*
X11233849Y12037861D01*
X11406415Y12028583D01*
X11415748Y12188267D01*
X11418519Y12233089D01*
X11423988Y12311801D01*
X11429672Y12383951D01*
X11434710Y12438181D01*
X11444339Y12528410D01*
X11350790Y12536688D01*
X11315837Y12539733D01*
X12770667Y12539733D01*
X12771887Y12528410D01*
X12780212Y12451171D01*
X12783319Y12418999D01*
X12788688Y12352874D01*
X12794143Y12275494D01*
X12798881Y12197721D01*
X12808004Y12032833D01*
X12897366Y12035029D01*
X12937294Y12036357D01*
X12991600Y12039156D01*
X13030698Y12042338D01*
X13048494Y12044232D01*
X13094564Y12048798D01*
X13159749Y12055062D01*
X13238141Y12062456D01*
X13323832Y12070415D01*
X13386852Y12076390D01*
X13464865Y12084279D01*
X13529978Y12091428D01*
X13576757Y12097234D01*
X13599769Y12101093D01*
X13604384Y12102606D01*
X13615757Y12111002D01*
X13620934Y12129269D01*
X13620792Y12163816D01*
X13616209Y12221050D01*
X13615675Y12226607D01*
X13605987Y12299524D01*
X13591373Y12382228D01*
X13574779Y12457877D01*
X13543682Y12582458D01*
X13485055Y12581692D01*
X13475858Y12581458D01*
X13434126Y12579658D01*
X13370348Y12576359D01*
X13289705Y12571847D01*
X13197378Y12566408D01*
X13098548Y12560329D01*
X12770667Y12539733D01*
X11315837Y12539733D01*
X11313518Y12539935D01*
X11219543Y12547756D01*
X11120293Y12555586D01*
X11020080Y12563129D01*
X10923215Y12570087D01*
X10834010Y12576163D01*
X10756776Y12581060D01*
X10695825Y12584479D01*
X10655468Y12586125D01*
X10640017Y12585699D01*
X10633439Y12572833D01*
X10621816Y12535068D01*
X10608448Y12480287D01*
X10594769Y12415413D01*
X10582213Y12347365D01*
X10572213Y12283066D01*
X10566205Y12229437D01*
X10556974Y12109341D01*
X10002093Y12109341D01*
X9899825Y12135621D01*
X9768010Y12172982D01*
X9764556Y12173819D01*
X9751336Y12169444D01*
X9742705Y12146847D01*
X9736233Y12100484D01*
X9735726Y12095189D01*
X9733877Y12030061D01*
X9634095Y12030061D01*
X9633950Y12064173D01*
X9635829Y12220095D01*
X9567135Y12245949D01*
X9560144Y12248629D01*
X9509803Y12269388D01*
X9449869Y12295678D01*
X9755487Y12295678D01*
X9762041Y12281997D01*
X9765430Y12281394D01*
X9790844Y12274891D01*
X9834771Y12262762D01*
X9890286Y12246902D01*
X9931325Y12235502D01*
X10010312Y12215053D01*
X10097369Y12193844D01*
X10179977Y12174983D01*
X10241369Y12161730D01*
X10309680Y12147350D01*
X10365705Y12135949D01*
X10401279Y12129217D01*
X10454029Y12120275D01*
X10463313Y12248770D01*
X10463860Y12255884D01*
X10472923Y12333958D01*
X10486807Y12416010D01*
X10502737Y12485398D01*
X10505886Y12496802D01*
X10518882Y12546618D01*
X10527017Y12582545D01*
X10528643Y12597450D01*
X10524156Y12598699D01*
X10501119Y12602880D01*
X13643320Y12602880D01*
X13644837Y12597450D01*
X13670736Y12504729D01*
X13675543Y12486340D01*
X13690193Y12418631D01*
X13704028Y12339904D01*
X13714591Y12263676D01*
X13717581Y12236605D01*
X13723603Y12185625D01*
X13731795Y12151044D01*
X13746617Y12130918D01*
X13752228Y12129269D01*
X13772528Y12123303D01*
X13813989Y12126253D01*
X13875458Y12137826D01*
X13961397Y12156075D01*
X14008683Y12166223D01*
X14118190Y12191431D01*
X14216443Y12216420D01*
X14299932Y12240152D01*
X14365143Y12261592D01*
X14408567Y12279702D01*
X14426691Y12293446D01*
X14426712Y12308868D01*
X14422282Y12347789D01*
X14414170Y12403142D01*
X14403517Y12468437D01*
X14391466Y12537184D01*
X14379161Y12602895D01*
X14367742Y12659081D01*
X14358353Y12699250D01*
X14352137Y12716915D01*
X14351197Y12717342D01*
X14332174Y12715306D01*
X14298155Y12706941D01*
X14289669Y12704735D01*
X14247439Y12695758D01*
X14184584Y12683951D01*
X14107372Y12670355D01*
X14022075Y12656010D01*
X13934960Y12641954D01*
X13852299Y12629230D01*
X13780359Y12618875D01*
X13725411Y12611932D01*
X13643320Y12602880D01*
X10501119Y12602880D01*
X10496061Y12603798D01*
X10446681Y12611738D01*
X10381140Y12621708D01*
X10304559Y12632898D01*
X10284926Y12635749D01*
X10193692Y12649776D01*
X10102757Y12664853D01*
X10021706Y12679344D01*
X9960127Y12691616D01*
X9935737Y12696804D01*
X9883284Y12706938D01*
X9845610Y12712745D01*
X9829607Y12713091D01*
X9825028Y12699418D01*
X9815788Y12662388D01*
X9803460Y12608042D01*
X9789443Y12542321D01*
X9776445Y12476299D01*
X9763012Y12395904D01*
X9755919Y12334672D01*
X9755487Y12295678D01*
X9449869Y12295678D01*
X9447204Y12296847D01*
X9384244Y12325813D01*
X9362140Y12336059D01*
X9313976Y12356763D01*
X9279412Y12369285D01*
X9264785Y12371216D01*
X9263769Y12368752D01*
X9257110Y12344302D01*
X9246867Y12300702D01*
X9234803Y12245355D01*
X9234338Y12243148D01*
X9222466Y12181264D01*
X9217915Y12138035D01*
X9073586Y12138035D01*
X9077108Y12193422D01*
X9092706Y12288594D01*
X9118854Y12406578D01*
X9122820Y12423430D01*
X9138104Y12498535D01*
X9147659Y12570632D01*
X9152188Y12643992D01*
X9300508Y12643992D01*
X9300526Y12576252D01*
X9303851Y12527707D01*
X9314306Y12492977D01*
X9335711Y12466684D01*
X9371888Y12443452D01*
X9426658Y12417900D01*
X9503842Y12384651D01*
X9543189Y12367708D01*
X9594163Y12346182D01*
X9630358Y12331436D01*
X9645742Y12325967D01*
X9650070Y12335004D01*
X9652337Y12362554D01*
X9654892Y12388066D01*
X9662626Y12436586D01*
X9674295Y12499815D01*
X9688638Y12570531D01*
X9688818Y12571381D01*
X9702584Y12637849D01*
X9713353Y12692653D01*
X9720055Y12730132D01*
X9721616Y12744625D01*
X9706545Y12749665D01*
X9669293Y12760379D01*
X9616132Y12775087D01*
X9553320Y12792117D01*
X9487113Y12809797D01*
X9423770Y12826457D01*
X9369548Y12840426D01*
X9330705Y12850033D01*
X9313499Y12853607D01*
X9312959Y12853448D01*
X9308131Y12836980D01*
X9304196Y12797335D01*
X9301547Y12740069D01*
X9300577Y12670736D01*
X9300508Y12643992D01*
X9152188Y12643992D01*
X9152587Y12650460D01*
X9153992Y12748761D01*
X9154011Y12944377D01*
X9095538Y13010805D01*
X9039271Y13085985D01*
X8981742Y13202165D01*
X8948595Y13327839D01*
X8940474Y13458168D01*
X8941299Y13464289D01*
X9089257Y13464289D01*
X9096405Y13346305D01*
X9109001Y13291457D01*
X9152734Y13184196D01*
X9217697Y13096478D01*
X9302962Y13029381D01*
X9407602Y12983985D01*
X9486370Y12960760D01*
X9646843Y12916242D01*
X9803168Y12877187D01*
X9959529Y12842906D01*
X10120108Y12812706D01*
X10289087Y12785896D01*
X10470649Y12761784D01*
X10624594Y12744625D01*
X10668977Y12739678D01*
X10888253Y12718887D01*
X11132660Y12698718D01*
X11200135Y12694047D01*
X11327333Y12687311D01*
X11473619Y12681536D01*
X11633618Y12676792D01*
X11801958Y12673151D01*
X11973266Y12670681D01*
X12142168Y12669454D01*
X12303292Y12669540D01*
X12451266Y12671010D01*
X12580715Y12673932D01*
X12686267Y12678379D01*
X12915505Y12692123D01*
X13153804Y12708313D01*
X13369077Y12725406D01*
X13541374Y12741661D01*
X14461819Y12741661D01*
X14462147Y12728465D01*
X14467192Y12691940D01*
X14476195Y12637955D01*
X14488246Y12572340D01*
X14499481Y12513924D01*
X14512505Y12447201D01*
X14523245Y12393252D01*
X14530120Y12360092D01*
X14540335Y12313605D01*
X14698358Y12384332D01*
X14757946Y12411568D01*
X14814281Y12438495D01*
X14856178Y12459833D01*
X14877421Y12472519D01*
X14882789Y12478750D01*
X14890112Y12499209D01*
X14894359Y12535127D01*
X14895944Y12591102D01*
X14895277Y12671734D01*
X14895152Y12678409D01*
X14892858Y12746652D01*
X14889202Y12802306D01*
X14884661Y12839796D01*
X14879713Y12853548D01*
X14879479Y12853540D01*
X14860945Y12849632D01*
X14820887Y12839696D01*
X14765543Y12825402D01*
X14701152Y12808421D01*
X14633952Y12790423D01*
X14570180Y12773078D01*
X14516075Y12758056D01*
X14477876Y12747027D01*
X14461819Y12741661D01*
X13541374Y12741661D01*
X13564683Y12743860D01*
X13743979Y12764139D01*
X13910324Y12786701D01*
X14067078Y12812008D01*
X14217597Y12840521D01*
X14365240Y12872700D01*
X14513367Y12909007D01*
X14665334Y12949901D01*
X14737383Y12970195D01*
X14807472Y12990836D01*
X14858509Y13007844D01*
X14895665Y13023462D01*
X14924111Y13039930D01*
X14949020Y13059492D01*
X14975563Y13084389D01*
X15010900Y13121849D01*
X15068013Y13206392D01*
X15100580Y13300578D01*
X15111158Y13410560D01*
X15109448Y13466436D01*
X15090832Y13579000D01*
X15049872Y13677623D01*
X14984245Y13766973D01*
X14891628Y13851718D01*
X14800970Y13922962D01*
X14790789Y14132110D01*
X14778138Y14346753D01*
X14752846Y14635658D01*
X14718856Y14899917D01*
X14675635Y15141668D01*
X14622649Y15363048D01*
X14559364Y15566195D01*
X14485246Y15753247D01*
X14399761Y15926342D01*
X14302376Y16087617D01*
X14266844Y16152194D01*
X14255907Y16202503D01*
X14269915Y16238801D01*
X14308894Y16261828D01*
X14317713Y16264897D01*
X14358328Y16285720D01*
X14399826Y16319834D01*
X14446606Y16371377D01*
X14503070Y16444489D01*
X14532989Y16486100D01*
X14644261Y16663598D01*
X14726448Y16837603D01*
X14779559Y17008156D01*
X14803606Y17175299D01*
X14798599Y17339074D01*
X14764548Y17499523D01*
X14737879Y17574786D01*
X14680630Y17684191D01*
X14607684Y17769393D01*
X14517569Y17831583D01*
X14408812Y17871954D01*
X14279940Y17891698D01*
X14273706Y17892111D01*
X14137398Y17887073D01*
X14010241Y17854273D01*
X13891354Y17793490D01*
X13824130Y17743332D01*
X13743546Y17669509D01*
X13661608Y17582127D01*
X13581716Y17485812D01*
X13507272Y17385196D01*
X13441677Y17284906D01*
X13388334Y17189571D01*
X13350642Y17103821D01*
X13332004Y17032285D01*
X13328395Y17007863D01*
X13319321Y16975773D01*
X13303215Y16956649D01*
X13275984Y16949931D01*
X13233535Y16955055D01*
X13171774Y16971460D01*
X13086609Y16998584D01*
X12962897Y17037852D01*
X12818111Y17078737D01*
X12683748Y17109417D01*
X12551914Y17131135D01*
X12414719Y17145133D01*
X12264269Y17152650D01*
X12092672Y17154930D01*
X11938740Y17152834D01*
X11747518Y17142356D01*
X11570172Y17121884D01*
X11398394Y17090094D01*
X11223876Y17045667D01*
X11038307Y16987281D01*
X10993852Y16972301D01*
X10939237Y16955006D01*
X10902996Y16946444D01*
X10879346Y16946005D01*
X10862506Y16953079D01*
X10846694Y16967056D01*
X10830310Y16996084D01*
X10831661Y17040374D01*
X10832201Y17043462D01*
X10832889Y17080687D01*
X10822530Y17125243D01*
X10799489Y17181160D01*
X10762131Y17252468D01*
X10708822Y17343197D01*
X10708236Y17344162D01*
X10595994Y17511693D01*
X10480579Y17650388D01*
X10362082Y17760187D01*
X10240591Y17841030D01*
X10116197Y17892859D01*
X9988989Y17915611D01*
X9859058Y17909229D01*
X9845558Y17906971D01*
X9731246Y17877409D01*
X9638473Y17831759D01*
X9563481Y17768226D01*
X9562647Y17767319D01*
X9489415Y17666932D01*
X9434149Y17547564D01*
X9397777Y17414047D01*
X9381229Y17271213D01*
X9385434Y17123892D01*
X9411321Y16976917D01*
X9431737Y16909743D01*
X9467073Y16819654D01*
X9511184Y16725631D01*
X9561580Y16631553D01*
X9615769Y16541301D01*
X9671263Y16458757D01*
X9725570Y16387801D01*
X9776199Y16332313D01*
X9820661Y16296175D01*
X9856466Y16283266D01*
X9883657Y16279955D01*
X9918249Y16259043D01*
X9930814Y16222165D01*
X9930373Y16218443D01*
X9919470Y16189901D01*
X9896919Y16146774D01*
X9866703Y16096851D01*
X9795108Y15978247D01*
X9713145Y15817695D01*
X9643060Y15647333D01*
X9584228Y15464514D01*
X9536027Y15266593D01*
X9497836Y15050923D01*
X9469030Y14814859D01*
X9448988Y14555754D01*
X9437087Y14270963D01*
X9428090Y13936848D01*
X9349497Y13884681D01*
X9326542Y13868782D01*
X9230048Y13783538D01*
X9157433Y13685787D01*
X9110051Y13578410D01*
X9089257Y13464289D01*
X8941299Y13464289D01*
X8958024Y13588312D01*
X9001891Y13713433D01*
X9007211Y13724059D01*
X9042829Y13781310D01*
X9090827Y13844529D01*
X9144449Y13905876D01*
X9196941Y13957510D01*
X9241546Y13991591D01*
X9281529Y14015209D01*
X9290360Y14317472D01*
X9296139Y14472575D01*
X9313488Y14746978D01*
X9339362Y14995741D01*
X9373993Y15220510D01*
X9417609Y15422931D01*
X9470443Y15604650D01*
X9505933Y15703496D01*
X9550479Y15814167D01*
X9597885Y15920780D01*
X9644556Y16015281D01*
X9686896Y16089613D01*
X9726680Y16152452D01*
X9654447Y16236180D01*
X9577157Y16333319D01*
X9482999Y16472420D01*
X9398321Y16620525D01*
X9327960Y16769016D01*
X9276751Y16909277D01*
X9265053Y16950005D01*
X9251338Y17008542D01*
X9242952Y17066674D01*
X9238638Y17134294D01*
X9237141Y17221293D01*
X9238552Y17315629D01*
X9247293Y17421167D01*
X9265709Y17514783D01*
X9295817Y17605981D01*
X9339633Y17704261D01*
X9362944Y17748073D01*
X9435456Y17851201D01*
X9521328Y17934301D01*
X9616305Y17992932D01*
X9657501Y18009519D01*
X9746993Y18035756D01*
X9844668Y18054814D01*
X9939072Y18064688D01*
X10018754Y18063374D01*
X10024440Y18062723D01*
X10169591Y18030883D01*
X10310258Y17970598D01*
X10445764Y17882471D01*
X10575428Y17767102D01*
X10698570Y17625092D01*
X10814512Y17457044D01*
X10922573Y17263558D01*
X10928410Y17252039D01*
X10959384Y17193857D01*
X10982042Y17158390D01*
X10999108Y17141956D01*
X11013305Y17140875D01*
X11041182Y17150269D01*
X11098184Y17166454D01*
X11172392Y17185624D01*
X11257259Y17206237D01*
X11346238Y17226754D01*
X11432779Y17245636D01*
X11510336Y17261343D01*
X11572360Y17272335D01*
X11635620Y17280904D01*
X11757714Y17292574D01*
X11894039Y17300907D01*
X12035956Y17305660D01*
X12174829Y17306587D01*
X12302020Y17303446D01*
X12408892Y17295990D01*
X12419786Y17294840D01*
X12548281Y17278165D01*
X12684664Y17255541D01*
X12819642Y17228798D01*
X12943923Y17199761D01*
X13048215Y17170259D01*
X13064231Y17165190D01*
X13117106Y17149125D01*
X13157559Y17137847D01*
X13177876Y17133540D01*
X13190180Y17143760D01*
X13210735Y17174129D01*
X13234093Y17217629D01*
X13289499Y17320923D01*
X13364653Y17440197D01*
X13449593Y17558294D01*
X13540103Y17670039D01*
X13631965Y17770259D01*
X13720961Y17853780D01*
X13802874Y17915426D01*
X13841691Y17939618D01*
X13914215Y17980076D01*
X13979813Y18007220D01*
X14047501Y18023583D01*
X14126297Y18031699D01*
X14225217Y18034101D01*
X14304223Y18032736D01*
X14414699Y18022622D01*
X14507719Y18001217D01*
X14589859Y17966791D01*
X14667695Y17917612D01*
X14704759Y17886833D01*
X14777549Y17804426D01*
X14841815Y17702162D01*
X14893936Y17586308D01*
X14930291Y17463128D01*
X14935690Y17434437D01*
X14945648Y17339772D01*
X14948467Y17231100D01*
X14944413Y17118950D01*
X14933751Y17013850D01*
X14916747Y16926331D01*
X14894880Y16856394D01*
X14844140Y16732448D01*
X14777764Y16600820D01*
X14699765Y16468629D01*
X14614153Y16342992D01*
X14524939Y16231027D01*
X14447370Y16142146D01*
X14506852Y16040490D01*
X14515451Y16025626D01*
X14595937Y15870132D01*
X14671036Y15696540D01*
X14736692Y15514985D01*
X14788851Y15335603D01*
X14811709Y15235456D01*
X14840926Y15078163D01*
X14867900Y14898656D01*
X14892095Y14700992D01*
X14912976Y14489227D01*
X14930007Y14267415D01*
X14946968Y14011218D01*
X15052564Y13905090D01*
X15129155Y13819836D01*
X15190756Y13727398D01*
X15231716Y13629958D01*
X15255875Y13520245D01*
X15258521Y13499913D01*
X15260013Y13410560D01*
X15260847Y13360641D01*
G37*
M02*
