M48
; DRILL file {KiCad 9.0.2} date 2025-06-18T11:42:02+0900
; FORMAT={3:3/ absolute / metric / suppress leading zeros}
; #@! TF.CreationDate,2025-06-18T11:42:02+09:00
; #@! TF.GenerationSoftware,Kicad,Pcbnew,9.0.2
; #@! TF.FileFunction,MixedPlating,1,2
FMAT,2
METRIC,TZ
; #@! TA.AperFunction,Plated,PTH,ViaDrill
T1C0.300
; #@! TA.AperFunction,Plated,PTH,ComponentDrill
T2C0.700
; #@! TA.AperFunction,Plated,PTH,ComponentDrill
T3C0.737
; #@! TA.AperFunction,Plated,PTH,ComponentDrill
T4C3.000
; #@! TA.AperFunction,NonPlated,NPTH,ComponentDrill
T5C0.750
%
G90
G05
T1
X2200Y36900
X2200Y35300
X3100Y21500
X3100Y19500
X3100Y17500
X3600Y36900
X4500Y21500
X4500Y19500
X4500Y17500
X6100Y33800
X7000Y21500
X7000Y19500
X7000Y17500
X7600Y9100
X8445Y40100
X8500Y21100
X8800Y4800
X9300Y9100
X9500Y41000
X9500Y22500
X9500Y18500
X9500Y17000
X9700Y27100
X10900Y36200
X10985Y37400
X11000Y22500
X11300Y27100
X12200Y22600
X12500Y18500
X12700Y28600
X12800Y9100
X13000Y41000
X13100Y35000
X13200Y32300
X13400Y11900
X13600Y25800
X13600Y4800
X13700Y22600
X14000Y16500
X14400Y32300
X14400Y19200
X14800Y40100
X14800Y25800
X15500Y17500
X15600Y28600
X16000Y41000
X16100Y37200
X17000Y40500
X17000Y17500
X17100Y30500
X17200Y36200
X17200Y6900
X17200Y5200
X17400Y15300
X17900Y41200
X18100Y22500
X18500Y32600
X18500Y31600
X18600Y37200
X18700Y5200
X19200Y30900
X19300Y22500
X19500Y9500
X19600Y13200
X19800Y30000
X19900Y37200
X20400Y12100
X20400Y6700
X20500Y22500
X20900Y42100
X21100Y37250
X21100Y32600
X21100Y30100
X21400Y9500
X21600Y13200
X22400Y37250
X22400Y30100
X22500Y22500
X23000Y13200
X23100Y15900
X23200Y19900
X23700Y37200
X24100Y15500
X24400Y18300
X24500Y22500
X24800Y19400
X25000Y41200
X25000Y37200
X25100Y14300
X25100Y13200
X25600Y18300
X26200Y41200
X26500Y22500
X26600Y2000
X27000Y37200
X27000Y35600
X28200Y36100
X28200Y35100
X28500Y39400
X28500Y22400
X29000Y4000
X29100Y40200
X29100Y34700
X29100Y33300
X29400Y30800
X30200Y22800
X30200Y6700
X30600Y1900
X30800Y4300
X31300Y14600
X31500Y22800
X31600Y6700
X32300Y40300
X32625Y21200
X32800Y1900
X32900Y14600
X33100Y37000
X33100Y35700
X33500Y19700
X33700Y16300
X34100Y40300
X34100Y38700
X34200Y25900
X34200Y20400
X34200Y18900
X34400Y9300
X34500Y14000
X34500Y12000
X35100Y1900
X35900Y38700
X35900Y37200
X36000Y9300
X36300Y40700
X36500Y14000
X36500Y12000
X37000Y18000
X37200Y27300
X37400Y25900
X37400Y10200
X37400Y1900
X37600Y15025
X37600Y4300
X38200Y11000
X38400Y31900
X38400Y26700
X38500Y34100
X38600Y23800
X38600Y18000
X39200Y17000
X39200Y16200
X39500Y30500
X39500Y28500
X39500Y25000
X39600Y6000
X39900Y39505
X39900Y38235
X40100Y34100
X40200Y6800
X40500Y10500
X40500Y8500
X41000Y40100
X41000Y30500
X41000Y28500
X41000Y25000
X41800Y34100
X42000Y9500
X42000Y2000
X42200Y32600
X43000Y30500
X43000Y28500
X43500Y10500
X43500Y8500
X44500Y3500
X44500Y2000
X44800Y39600
X45200Y23900
X45300Y10500
X45400Y40300
X46200Y18000
X46361Y29164
X46400Y27300
X46400Y4500
X46900Y14500
X46900Y12300
X47000Y3500
X47000Y2000
X47300Y24400
X47600Y18000
X48100Y25620
X50500Y23100
X50500Y21800
X50700Y19300
X51500Y20500
X53000Y8800
X54100Y8800
X54200Y14300
X55400Y8900
X56600Y14300
X56600Y8900
X57400Y12500
X57400Y9600
X58900Y14300
X58900Y12500
X61200Y14300
X63100Y14300
X63600Y32900
X64200Y20500
X64900Y21800
X64900Y14300
X65300Y32000
X66500Y13000
X66800Y14600
X68200Y30700
X68800Y10900
X68900Y29400
X69000Y34500
X69600Y19300
X69600Y16400
X69600Y13700
X69900Y23400
X69900Y22200
X69900Y21000
X70500Y34500
X70500Y31500
X70500Y29500
X70500Y27500
X70600Y25600
X70600Y24300
X71900Y33200
T2
X4393Y33194
X4412Y30959
X9788Y33241
X9807Y31006
T3
X50000Y5487
X51500Y5487
X53000Y5487
X54500Y5487
X56000Y5487
X60500Y5500
X62000Y5500
X63500Y5500
X65000Y5500
X66500Y5500
T4
X56500Y26790
T5
X28500Y29700
X30300Y29700
X32100Y29700
X33900Y29700
X42950Y22600
X42950Y20800
X42950Y18900
X42950Y17100
X50200Y12200
X50200Y10400
M30
