G04 #@! TF.GenerationSoftware,KiCad,Pcbnew,9.0.2*
G04 #@! TF.CreationDate,2025-06-18T11:41:47+09:00*
G04 #@! TF.ProjectId,Work,576f726b-2e6b-4696-9361-645f70636258,rev?*
G04 #@! TF.SameCoordinates,PX4cc5520PY8e93060*
G04 #@! TF.FileFunction,Legend,Top*
G04 #@! TF.FilePolarity,Positive*
%FSLAX46Y46*%
G04 Gerber Fmt 4.6, Leading zero omitted, Abs format (unit mm)*
G04 Created by KiCad (PCBNEW 9.0.2) date 2025-06-18 11:41:47*
%MOMM*%
%LPD*%
G01*
G04 APERTURE LIST*
%ADD10C,0.120000*%
%ADD11C,0.200000*%
%ADD12C,0.150000*%
%ADD13C,0.100000*%
%ADD14C,0.010000*%
%ADD15C,0.152400*%
%ADD16C,0.400000*%
%ADD17C,0.127000*%
%ADD18C,0.300000*%
G04 APERTURE END LIST*
D10*
X10300000Y14400000D02*
X11900000Y12800000D01*
X10300000Y13400000D02*
X10700000Y13000000D01*
X9700000Y13400000D02*
X10300000Y13400000D01*
X11900000Y12800000D02*
X11900000Y12600000D01*
X10700000Y13000000D02*
X10700000Y12600000D01*
X9700000Y14400000D02*
X10300000Y14400000D01*
X62290476Y7436145D02*
X62290476Y8236145D01*
X62290476Y8236145D02*
X62480952Y8236145D01*
X62480952Y8236145D02*
X62595238Y8198050D01*
X62595238Y8198050D02*
X62671428Y8121860D01*
X62671428Y8121860D02*
X62709523Y8045669D01*
X62709523Y8045669D02*
X62747619Y7893288D01*
X62747619Y7893288D02*
X62747619Y7779002D01*
X62747619Y7779002D02*
X62709523Y7626621D01*
X62709523Y7626621D02*
X62671428Y7550431D01*
X62671428Y7550431D02*
X62595238Y7474240D01*
X62595238Y7474240D02*
X62480952Y7436145D01*
X62480952Y7436145D02*
X62290476Y7436145D01*
X62976190Y8236145D02*
X63433333Y8236145D01*
X63204761Y7436145D02*
X63204761Y8236145D01*
X63700000Y7740907D02*
X64309524Y7740907D01*
X64004762Y7436145D02*
X64004762Y8045669D01*
X39142857Y39736145D02*
X39142857Y39088526D01*
X39142857Y39088526D02*
X39180952Y39012336D01*
X39180952Y39012336D02*
X39219047Y38974240D01*
X39219047Y38974240D02*
X39295238Y38936145D01*
X39295238Y38936145D02*
X39447619Y38936145D01*
X39447619Y38936145D02*
X39523809Y38974240D01*
X39523809Y38974240D02*
X39561904Y39012336D01*
X39561904Y39012336D02*
X39600000Y39088526D01*
X39600000Y39088526D02*
X39600000Y39736145D01*
X39942856Y39164717D02*
X40323809Y39164717D01*
X39866666Y38936145D02*
X40133333Y39736145D01*
X40133333Y39736145D02*
X40399999Y38936145D01*
X41123809Y38936145D02*
X40857142Y39317098D01*
X40666666Y38936145D02*
X40666666Y39736145D01*
X40666666Y39736145D02*
X40971428Y39736145D01*
X40971428Y39736145D02*
X41047618Y39698050D01*
X41047618Y39698050D02*
X41085713Y39659955D01*
X41085713Y39659955D02*
X41123809Y39583764D01*
X41123809Y39583764D02*
X41123809Y39469479D01*
X41123809Y39469479D02*
X41085713Y39393288D01*
X41085713Y39393288D02*
X41047618Y39355193D01*
X41047618Y39355193D02*
X40971428Y39317098D01*
X40971428Y39317098D02*
X40666666Y39317098D01*
X41352380Y39736145D02*
X41809523Y39736145D01*
X41580951Y38936145D02*
X41580951Y39736145D01*
X42495237Y38936145D02*
X42038094Y38936145D01*
X42266666Y38936145D02*
X42266666Y39736145D01*
X42266666Y39736145D02*
X42190475Y39621860D01*
X42190475Y39621860D02*
X42114285Y39545669D01*
X42114285Y39545669D02*
X42038094Y39507574D01*
X46033333Y33636145D02*
X46300000Y32836145D01*
X46300000Y32836145D02*
X46566666Y33636145D01*
X46833333Y32836145D02*
X46833333Y33636145D01*
X46833333Y33636145D02*
X47023809Y33636145D01*
X47023809Y33636145D02*
X47138095Y33598050D01*
X47138095Y33598050D02*
X47214285Y33521860D01*
X47214285Y33521860D02*
X47252380Y33445669D01*
X47252380Y33445669D02*
X47290476Y33293288D01*
X47290476Y33293288D02*
X47290476Y33179002D01*
X47290476Y33179002D02*
X47252380Y33026621D01*
X47252380Y33026621D02*
X47214285Y32950431D01*
X47214285Y32950431D02*
X47138095Y32874240D01*
X47138095Y32874240D02*
X47023809Y32836145D01*
X47023809Y32836145D02*
X46833333Y32836145D01*
X47633333Y32836145D02*
X47633333Y33636145D01*
X47633333Y33636145D02*
X47823809Y33636145D01*
X47823809Y33636145D02*
X47938095Y33598050D01*
X47938095Y33598050D02*
X48014285Y33521860D01*
X48014285Y33521860D02*
X48052380Y33445669D01*
X48052380Y33445669D02*
X48090476Y33293288D01*
X48090476Y33293288D02*
X48090476Y33179002D01*
X48090476Y33179002D02*
X48052380Y33026621D01*
X48052380Y33026621D02*
X48014285Y32950431D01*
X48014285Y32950431D02*
X47938095Y32874240D01*
X47938095Y32874240D02*
X47823809Y32836145D01*
X47823809Y32836145D02*
X47633333Y32836145D01*
X39242857Y37236145D02*
X39242857Y36588526D01*
X39242857Y36588526D02*
X39280952Y36512336D01*
X39280952Y36512336D02*
X39319047Y36474240D01*
X39319047Y36474240D02*
X39395238Y36436145D01*
X39395238Y36436145D02*
X39547619Y36436145D01*
X39547619Y36436145D02*
X39623809Y36474240D01*
X39623809Y36474240D02*
X39661904Y36512336D01*
X39661904Y36512336D02*
X39700000Y36588526D01*
X39700000Y36588526D02*
X39700000Y37236145D01*
X40042856Y36664717D02*
X40423809Y36664717D01*
X39966666Y36436145D02*
X40233333Y37236145D01*
X40233333Y37236145D02*
X40499999Y36436145D01*
X41223809Y36436145D02*
X40957142Y36817098D01*
X40766666Y36436145D02*
X40766666Y37236145D01*
X40766666Y37236145D02*
X41071428Y37236145D01*
X41071428Y37236145D02*
X41147618Y37198050D01*
X41147618Y37198050D02*
X41185713Y37159955D01*
X41185713Y37159955D02*
X41223809Y37083764D01*
X41223809Y37083764D02*
X41223809Y36969479D01*
X41223809Y36969479D02*
X41185713Y36893288D01*
X41185713Y36893288D02*
X41147618Y36855193D01*
X41147618Y36855193D02*
X41071428Y36817098D01*
X41071428Y36817098D02*
X40766666Y36817098D01*
X41452380Y37236145D02*
X41909523Y37236145D01*
X41680951Y36436145D02*
X41680951Y37236145D01*
X42138094Y37159955D02*
X42176190Y37198050D01*
X42176190Y37198050D02*
X42252380Y37236145D01*
X42252380Y37236145D02*
X42442856Y37236145D01*
X42442856Y37236145D02*
X42519047Y37198050D01*
X42519047Y37198050D02*
X42557142Y37159955D01*
X42557142Y37159955D02*
X42595237Y37083764D01*
X42595237Y37083764D02*
X42595237Y37007574D01*
X42595237Y37007574D02*
X42557142Y36893288D01*
X42557142Y36893288D02*
X42099999Y36436145D01*
X42099999Y36436145D02*
X42595237Y36436145D01*
X69726566Y28936145D02*
X69459899Y29317098D01*
X69269423Y28936145D02*
X69269423Y29736145D01*
X69269423Y29736145D02*
X69574185Y29736145D01*
X69574185Y29736145D02*
X69650375Y29698050D01*
X69650375Y29698050D02*
X69688470Y29659955D01*
X69688470Y29659955D02*
X69726566Y29583764D01*
X69726566Y29583764D02*
X69726566Y29469479D01*
X69726566Y29469479D02*
X69688470Y29393288D01*
X69688470Y29393288D02*
X69650375Y29355193D01*
X69650375Y29355193D02*
X69574185Y29317098D01*
X69574185Y29317098D02*
X69269423Y29317098D01*
X69993232Y28936145D02*
X70412280Y29469479D01*
X69993232Y29469479D02*
X70412280Y28936145D01*
X30733333Y33536145D02*
X31266667Y32736145D01*
X31266667Y33536145D02*
X30733333Y32736145D01*
X31571429Y32736145D02*
X31571429Y33536145D01*
X31571429Y33536145D02*
X31838095Y32964717D01*
X31838095Y32964717D02*
X32104762Y33536145D01*
X32104762Y33536145D02*
X32104762Y32736145D01*
X32752381Y33155193D02*
X32866667Y33117098D01*
X32866667Y33117098D02*
X32904762Y33079002D01*
X32904762Y33079002D02*
X32942858Y33002812D01*
X32942858Y33002812D02*
X32942858Y32888526D01*
X32942858Y32888526D02*
X32904762Y32812336D01*
X32904762Y32812336D02*
X32866667Y32774240D01*
X32866667Y32774240D02*
X32790477Y32736145D01*
X32790477Y32736145D02*
X32485715Y32736145D01*
X32485715Y32736145D02*
X32485715Y33536145D01*
X32485715Y33536145D02*
X32752381Y33536145D01*
X32752381Y33536145D02*
X32828572Y33498050D01*
X32828572Y33498050D02*
X32866667Y33459955D01*
X32866667Y33459955D02*
X32904762Y33383764D01*
X32904762Y33383764D02*
X32904762Y33307574D01*
X32904762Y33307574D02*
X32866667Y33231383D01*
X32866667Y33231383D02*
X32828572Y33193288D01*
X32828572Y33193288D02*
X32752381Y33155193D01*
X32752381Y33155193D02*
X32485715Y33155193D01*
X33438096Y33536145D02*
X33590477Y33536145D01*
X33590477Y33536145D02*
X33666667Y33498050D01*
X33666667Y33498050D02*
X33742858Y33421860D01*
X33742858Y33421860D02*
X33780953Y33269479D01*
X33780953Y33269479D02*
X33780953Y33002812D01*
X33780953Y33002812D02*
X33742858Y32850431D01*
X33742858Y32850431D02*
X33666667Y32774240D01*
X33666667Y32774240D02*
X33590477Y32736145D01*
X33590477Y32736145D02*
X33438096Y32736145D01*
X33438096Y32736145D02*
X33361905Y32774240D01*
X33361905Y32774240D02*
X33285715Y32850431D01*
X33285715Y32850431D02*
X33247619Y33002812D01*
X33247619Y33002812D02*
X33247619Y33269479D01*
X33247619Y33269479D02*
X33285715Y33421860D01*
X33285715Y33421860D02*
X33361905Y33498050D01*
X33361905Y33498050D02*
X33438096Y33536145D01*
X34276191Y33536145D02*
X34428572Y33536145D01*
X34428572Y33536145D02*
X34504762Y33498050D01*
X34504762Y33498050D02*
X34580953Y33421860D01*
X34580953Y33421860D02*
X34619048Y33269479D01*
X34619048Y33269479D02*
X34619048Y33002812D01*
X34619048Y33002812D02*
X34580953Y32850431D01*
X34580953Y32850431D02*
X34504762Y32774240D01*
X34504762Y32774240D02*
X34428572Y32736145D01*
X34428572Y32736145D02*
X34276191Y32736145D01*
X34276191Y32736145D02*
X34200000Y32774240D01*
X34200000Y32774240D02*
X34123810Y32850431D01*
X34123810Y32850431D02*
X34085714Y33002812D01*
X34085714Y33002812D02*
X34085714Y33269479D01*
X34085714Y33269479D02*
X34123810Y33421860D01*
X34123810Y33421860D02*
X34200000Y33498050D01*
X34200000Y33498050D02*
X34276191Y33536145D01*
X34847619Y33536145D02*
X35304762Y33536145D01*
X35076190Y32736145D02*
X35076190Y33536145D01*
X68514285Y18055193D02*
X68628571Y18017098D01*
X68628571Y18017098D02*
X68666666Y17979002D01*
X68666666Y17979002D02*
X68704762Y17902812D01*
X68704762Y17902812D02*
X68704762Y17788526D01*
X68704762Y17788526D02*
X68666666Y17712336D01*
X68666666Y17712336D02*
X68628571Y17674240D01*
X68628571Y17674240D02*
X68552381Y17636145D01*
X68552381Y17636145D02*
X68247619Y17636145D01*
X68247619Y17636145D02*
X68247619Y18436145D01*
X68247619Y18436145D02*
X68514285Y18436145D01*
X68514285Y18436145D02*
X68590476Y18398050D01*
X68590476Y18398050D02*
X68628571Y18359955D01*
X68628571Y18359955D02*
X68666666Y18283764D01*
X68666666Y18283764D02*
X68666666Y18207574D01*
X68666666Y18207574D02*
X68628571Y18131383D01*
X68628571Y18131383D02*
X68590476Y18093288D01*
X68590476Y18093288D02*
X68514285Y18055193D01*
X68514285Y18055193D02*
X68247619Y18055193D01*
X69200000Y18436145D02*
X69352381Y18436145D01*
X69352381Y18436145D02*
X69428571Y18398050D01*
X69428571Y18398050D02*
X69504762Y18321860D01*
X69504762Y18321860D02*
X69542857Y18169479D01*
X69542857Y18169479D02*
X69542857Y17902812D01*
X69542857Y17902812D02*
X69504762Y17750431D01*
X69504762Y17750431D02*
X69428571Y17674240D01*
X69428571Y17674240D02*
X69352381Y17636145D01*
X69352381Y17636145D02*
X69200000Y17636145D01*
X69200000Y17636145D02*
X69123809Y17674240D01*
X69123809Y17674240D02*
X69047619Y17750431D01*
X69047619Y17750431D02*
X69009523Y17902812D01*
X69009523Y17902812D02*
X69009523Y18169479D01*
X69009523Y18169479D02*
X69047619Y18321860D01*
X69047619Y18321860D02*
X69123809Y18398050D01*
X69123809Y18398050D02*
X69200000Y18436145D01*
X70038095Y18436145D02*
X70190476Y18436145D01*
X70190476Y18436145D02*
X70266666Y18398050D01*
X70266666Y18398050D02*
X70342857Y18321860D01*
X70342857Y18321860D02*
X70380952Y18169479D01*
X70380952Y18169479D02*
X70380952Y17902812D01*
X70380952Y17902812D02*
X70342857Y17750431D01*
X70342857Y17750431D02*
X70266666Y17674240D01*
X70266666Y17674240D02*
X70190476Y17636145D01*
X70190476Y17636145D02*
X70038095Y17636145D01*
X70038095Y17636145D02*
X69961904Y17674240D01*
X69961904Y17674240D02*
X69885714Y17750431D01*
X69885714Y17750431D02*
X69847618Y17902812D01*
X69847618Y17902812D02*
X69847618Y18169479D01*
X69847618Y18169479D02*
X69885714Y18321860D01*
X69885714Y18321860D02*
X69961904Y18398050D01*
X69961904Y18398050D02*
X70038095Y18436145D01*
X70609523Y18436145D02*
X71066666Y18436145D01*
X70838094Y17636145D02*
X70838094Y18436145D01*
X26623810Y37136145D02*
X26623810Y36488526D01*
X26623810Y36488526D02*
X26661905Y36412336D01*
X26661905Y36412336D02*
X26700000Y36374240D01*
X26700000Y36374240D02*
X26776191Y36336145D01*
X26776191Y36336145D02*
X26928572Y36336145D01*
X26928572Y36336145D02*
X27004762Y36374240D01*
X27004762Y36374240D02*
X27042857Y36412336D01*
X27042857Y36412336D02*
X27080953Y36488526D01*
X27080953Y36488526D02*
X27080953Y37136145D01*
X27423809Y36564717D02*
X27804762Y36564717D01*
X27347619Y36336145D02*
X27614286Y37136145D01*
X27614286Y37136145D02*
X27880952Y36336145D01*
X28604762Y36336145D02*
X28338095Y36717098D01*
X28147619Y36336145D02*
X28147619Y37136145D01*
X28147619Y37136145D02*
X28452381Y37136145D01*
X28452381Y37136145D02*
X28528571Y37098050D01*
X28528571Y37098050D02*
X28566666Y37059955D01*
X28566666Y37059955D02*
X28604762Y36983764D01*
X28604762Y36983764D02*
X28604762Y36869479D01*
X28604762Y36869479D02*
X28566666Y36793288D01*
X28566666Y36793288D02*
X28528571Y36755193D01*
X28528571Y36755193D02*
X28452381Y36717098D01*
X28452381Y36717098D02*
X28147619Y36717098D01*
X28833333Y37136145D02*
X29290476Y37136145D01*
X29061904Y36336145D02*
X29061904Y37136145D01*
X68128571Y27874240D02*
X68242857Y27836145D01*
X68242857Y27836145D02*
X68433333Y27836145D01*
X68433333Y27836145D02*
X68509524Y27874240D01*
X68509524Y27874240D02*
X68547619Y27912336D01*
X68547619Y27912336D02*
X68585714Y27988526D01*
X68585714Y27988526D02*
X68585714Y28064717D01*
X68585714Y28064717D02*
X68547619Y28140907D01*
X68547619Y28140907D02*
X68509524Y28179002D01*
X68509524Y28179002D02*
X68433333Y28217098D01*
X68433333Y28217098D02*
X68280952Y28255193D01*
X68280952Y28255193D02*
X68204762Y28293288D01*
X68204762Y28293288D02*
X68166667Y28331383D01*
X68166667Y28331383D02*
X68128571Y28407574D01*
X68128571Y28407574D02*
X68128571Y28483764D01*
X68128571Y28483764D02*
X68166667Y28559955D01*
X68166667Y28559955D02*
X68204762Y28598050D01*
X68204762Y28598050D02*
X68280952Y28636145D01*
X68280952Y28636145D02*
X68471429Y28636145D01*
X68471429Y28636145D02*
X68585714Y28598050D01*
X68928572Y27836145D02*
X68928572Y28636145D01*
X68928572Y28636145D02*
X69119048Y28636145D01*
X69119048Y28636145D02*
X69233334Y28598050D01*
X69233334Y28598050D02*
X69309524Y28521860D01*
X69309524Y28521860D02*
X69347619Y28445669D01*
X69347619Y28445669D02*
X69385715Y28293288D01*
X69385715Y28293288D02*
X69385715Y28179002D01*
X69385715Y28179002D02*
X69347619Y28026621D01*
X69347619Y28026621D02*
X69309524Y27950431D01*
X69309524Y27950431D02*
X69233334Y27874240D01*
X69233334Y27874240D02*
X69119048Y27836145D01*
X69119048Y27836145D02*
X68928572Y27836145D01*
X69690476Y28064717D02*
X70071429Y28064717D01*
X69614286Y27836145D02*
X69880953Y28636145D01*
X69880953Y28636145D02*
X70147619Y27836145D01*
X68726566Y20104145D02*
X68459899Y20485098D01*
X68269423Y20104145D02*
X68269423Y20904145D01*
X68269423Y20904145D02*
X68574185Y20904145D01*
X68574185Y20904145D02*
X68650375Y20866050D01*
X68650375Y20866050D02*
X68688470Y20827955D01*
X68688470Y20827955D02*
X68726566Y20751764D01*
X68726566Y20751764D02*
X68726566Y20637479D01*
X68726566Y20637479D02*
X68688470Y20561288D01*
X68688470Y20561288D02*
X68650375Y20523193D01*
X68650375Y20523193D02*
X68574185Y20485098D01*
X68574185Y20485098D02*
X68269423Y20485098D01*
X68993232Y20104145D02*
X69412280Y20637479D01*
X68993232Y20637479D02*
X69412280Y20104145D01*
X69678946Y20827955D02*
X69717042Y20866050D01*
X69717042Y20866050D02*
X69793232Y20904145D01*
X69793232Y20904145D02*
X69983708Y20904145D01*
X69983708Y20904145D02*
X70059899Y20866050D01*
X70059899Y20866050D02*
X70097994Y20827955D01*
X70097994Y20827955D02*
X70136089Y20751764D01*
X70136089Y20751764D02*
X70136089Y20675574D01*
X70136089Y20675574D02*
X70097994Y20561288D01*
X70097994Y20561288D02*
X69640851Y20104145D01*
X69640851Y20104145D02*
X70136089Y20104145D01*
X39644807Y20614286D02*
X39682902Y20728572D01*
X39682902Y20728572D02*
X39720998Y20766667D01*
X39720998Y20766667D02*
X39797188Y20804763D01*
X39797188Y20804763D02*
X39911474Y20804763D01*
X39911474Y20804763D02*
X39987664Y20766667D01*
X39987664Y20766667D02*
X40025760Y20728572D01*
X40025760Y20728572D02*
X40063855Y20652382D01*
X40063855Y20652382D02*
X40063855Y20347620D01*
X40063855Y20347620D02*
X39263855Y20347620D01*
X39263855Y20347620D02*
X39263855Y20614286D01*
X39263855Y20614286D02*
X39301950Y20690477D01*
X39301950Y20690477D02*
X39340045Y20728572D01*
X39340045Y20728572D02*
X39416236Y20766667D01*
X39416236Y20766667D02*
X39492426Y20766667D01*
X39492426Y20766667D02*
X39568617Y20728572D01*
X39568617Y20728572D02*
X39606712Y20690477D01*
X39606712Y20690477D02*
X39644807Y20614286D01*
X39644807Y20614286D02*
X39644807Y20347620D01*
X39263855Y21300001D02*
X39263855Y21452382D01*
X39263855Y21452382D02*
X39301950Y21528572D01*
X39301950Y21528572D02*
X39378140Y21604763D01*
X39378140Y21604763D02*
X39530521Y21642858D01*
X39530521Y21642858D02*
X39797188Y21642858D01*
X39797188Y21642858D02*
X39949569Y21604763D01*
X39949569Y21604763D02*
X40025760Y21528572D01*
X40025760Y21528572D02*
X40063855Y21452382D01*
X40063855Y21452382D02*
X40063855Y21300001D01*
X40063855Y21300001D02*
X40025760Y21223810D01*
X40025760Y21223810D02*
X39949569Y21147620D01*
X39949569Y21147620D02*
X39797188Y21109524D01*
X39797188Y21109524D02*
X39530521Y21109524D01*
X39530521Y21109524D02*
X39378140Y21147620D01*
X39378140Y21147620D02*
X39301950Y21223810D01*
X39301950Y21223810D02*
X39263855Y21300001D01*
X39263855Y22138096D02*
X39263855Y22290477D01*
X39263855Y22290477D02*
X39301950Y22366667D01*
X39301950Y22366667D02*
X39378140Y22442858D01*
X39378140Y22442858D02*
X39530521Y22480953D01*
X39530521Y22480953D02*
X39797188Y22480953D01*
X39797188Y22480953D02*
X39949569Y22442858D01*
X39949569Y22442858D02*
X40025760Y22366667D01*
X40025760Y22366667D02*
X40063855Y22290477D01*
X40063855Y22290477D02*
X40063855Y22138096D01*
X40063855Y22138096D02*
X40025760Y22061905D01*
X40025760Y22061905D02*
X39949569Y21985715D01*
X39949569Y21985715D02*
X39797188Y21947619D01*
X39797188Y21947619D02*
X39530521Y21947619D01*
X39530521Y21947619D02*
X39378140Y21985715D01*
X39378140Y21985715D02*
X39301950Y22061905D01*
X39301950Y22061905D02*
X39263855Y22138096D01*
X39263855Y22709524D02*
X39263855Y23166667D01*
X40063855Y22938095D02*
X39263855Y22938095D01*
X26690476Y39036145D02*
X26690476Y39836145D01*
X26690476Y39836145D02*
X26880952Y39836145D01*
X26880952Y39836145D02*
X26995238Y39798050D01*
X26995238Y39798050D02*
X27071428Y39721860D01*
X27071428Y39721860D02*
X27109523Y39645669D01*
X27109523Y39645669D02*
X27147619Y39493288D01*
X27147619Y39493288D02*
X27147619Y39379002D01*
X27147619Y39379002D02*
X27109523Y39226621D01*
X27109523Y39226621D02*
X27071428Y39150431D01*
X27071428Y39150431D02*
X26995238Y39074240D01*
X26995238Y39074240D02*
X26880952Y39036145D01*
X26880952Y39036145D02*
X26690476Y39036145D01*
X27757142Y39455193D02*
X27871428Y39417098D01*
X27871428Y39417098D02*
X27909523Y39379002D01*
X27909523Y39379002D02*
X27947619Y39302812D01*
X27947619Y39302812D02*
X27947619Y39188526D01*
X27947619Y39188526D02*
X27909523Y39112336D01*
X27909523Y39112336D02*
X27871428Y39074240D01*
X27871428Y39074240D02*
X27795238Y39036145D01*
X27795238Y39036145D02*
X27490476Y39036145D01*
X27490476Y39036145D02*
X27490476Y39836145D01*
X27490476Y39836145D02*
X27757142Y39836145D01*
X27757142Y39836145D02*
X27833333Y39798050D01*
X27833333Y39798050D02*
X27871428Y39759955D01*
X27871428Y39759955D02*
X27909523Y39683764D01*
X27909523Y39683764D02*
X27909523Y39607574D01*
X27909523Y39607574D02*
X27871428Y39531383D01*
X27871428Y39531383D02*
X27833333Y39493288D01*
X27833333Y39493288D02*
X27757142Y39455193D01*
X27757142Y39455193D02*
X27490476Y39455193D01*
X28709523Y39798050D02*
X28633333Y39836145D01*
X28633333Y39836145D02*
X28519047Y39836145D01*
X28519047Y39836145D02*
X28404761Y39798050D01*
X28404761Y39798050D02*
X28328571Y39721860D01*
X28328571Y39721860D02*
X28290476Y39645669D01*
X28290476Y39645669D02*
X28252380Y39493288D01*
X28252380Y39493288D02*
X28252380Y39379002D01*
X28252380Y39379002D02*
X28290476Y39226621D01*
X28290476Y39226621D02*
X28328571Y39150431D01*
X28328571Y39150431D02*
X28404761Y39074240D01*
X28404761Y39074240D02*
X28519047Y39036145D01*
X28519047Y39036145D02*
X28595238Y39036145D01*
X28595238Y39036145D02*
X28709523Y39074240D01*
X28709523Y39074240D02*
X28747619Y39112336D01*
X28747619Y39112336D02*
X28747619Y39379002D01*
X28747619Y39379002D02*
X28595238Y39379002D01*
X50314286Y8236145D02*
X50847620Y7436145D01*
X50847620Y8236145D02*
X50314286Y7436145D01*
X51152382Y7436145D02*
X51152382Y8236145D01*
X51152382Y8236145D02*
X51419048Y7664717D01*
X51419048Y7664717D02*
X51685715Y8236145D01*
X51685715Y8236145D02*
X51685715Y7436145D01*
X52066668Y7740907D02*
X52676192Y7740907D01*
X53057144Y8236145D02*
X53057144Y7588526D01*
X53057144Y7588526D02*
X53095239Y7512336D01*
X53095239Y7512336D02*
X53133334Y7474240D01*
X53133334Y7474240D02*
X53209525Y7436145D01*
X53209525Y7436145D02*
X53361906Y7436145D01*
X53361906Y7436145D02*
X53438096Y7474240D01*
X53438096Y7474240D02*
X53476191Y7512336D01*
X53476191Y7512336D02*
X53514287Y7588526D01*
X53514287Y7588526D02*
X53514287Y8236145D01*
X53857143Y7664717D02*
X54238096Y7664717D01*
X53780953Y7436145D02*
X54047620Y8236145D01*
X54047620Y8236145D02*
X54314286Y7436145D01*
X55038096Y7436145D02*
X54771429Y7817098D01*
X54580953Y7436145D02*
X54580953Y8236145D01*
X54580953Y8236145D02*
X54885715Y8236145D01*
X54885715Y8236145D02*
X54961905Y8198050D01*
X54961905Y8198050D02*
X55000000Y8159955D01*
X55000000Y8159955D02*
X55038096Y8083764D01*
X55038096Y8083764D02*
X55038096Y7969479D01*
X55038096Y7969479D02*
X55000000Y7893288D01*
X55000000Y7893288D02*
X54961905Y7855193D01*
X54961905Y7855193D02*
X54885715Y7817098D01*
X54885715Y7817098D02*
X54580953Y7817098D01*
X55266667Y8236145D02*
X55723810Y8236145D01*
X55495238Y7436145D02*
X55495238Y8236145D01*
X68047618Y31574240D02*
X68161904Y31536145D01*
X68161904Y31536145D02*
X68352380Y31536145D01*
X68352380Y31536145D02*
X68428571Y31574240D01*
X68428571Y31574240D02*
X68466666Y31612336D01*
X68466666Y31612336D02*
X68504761Y31688526D01*
X68504761Y31688526D02*
X68504761Y31764717D01*
X68504761Y31764717D02*
X68466666Y31840907D01*
X68466666Y31840907D02*
X68428571Y31879002D01*
X68428571Y31879002D02*
X68352380Y31917098D01*
X68352380Y31917098D02*
X68199999Y31955193D01*
X68199999Y31955193D02*
X68123809Y31993288D01*
X68123809Y31993288D02*
X68085714Y32031383D01*
X68085714Y32031383D02*
X68047618Y32107574D01*
X68047618Y32107574D02*
X68047618Y32183764D01*
X68047618Y32183764D02*
X68085714Y32259955D01*
X68085714Y32259955D02*
X68123809Y32298050D01*
X68123809Y32298050D02*
X68199999Y32336145D01*
X68199999Y32336145D02*
X68390476Y32336145D01*
X68390476Y32336145D02*
X68504761Y32298050D01*
X69304762Y31612336D02*
X69266666Y31574240D01*
X69266666Y31574240D02*
X69152381Y31536145D01*
X69152381Y31536145D02*
X69076190Y31536145D01*
X69076190Y31536145D02*
X68961904Y31574240D01*
X68961904Y31574240D02*
X68885714Y31650431D01*
X68885714Y31650431D02*
X68847619Y31726621D01*
X68847619Y31726621D02*
X68809523Y31879002D01*
X68809523Y31879002D02*
X68809523Y31993288D01*
X68809523Y31993288D02*
X68847619Y32145669D01*
X68847619Y32145669D02*
X68885714Y32221860D01*
X68885714Y32221860D02*
X68961904Y32298050D01*
X68961904Y32298050D02*
X69076190Y32336145D01*
X69076190Y32336145D02*
X69152381Y32336145D01*
X69152381Y32336145D02*
X69266666Y32298050D01*
X69266666Y32298050D02*
X69304762Y32259955D01*
X70028571Y31536145D02*
X69647619Y31536145D01*
X69647619Y31536145D02*
X69647619Y32336145D01*
X46809524Y31955193D02*
X47076190Y31955193D01*
X47190476Y31536145D02*
X46809524Y31536145D01*
X46809524Y31536145D02*
X46809524Y32336145D01*
X46809524Y32336145D02*
X47190476Y32336145D01*
X47533334Y31536145D02*
X47533334Y32336145D01*
X47533334Y32336145D02*
X47990477Y31536145D01*
X47990477Y31536145D02*
X47990477Y32336145D01*
X39644807Y17409525D02*
X39644807Y17676191D01*
X40063855Y17790477D02*
X40063855Y17409525D01*
X40063855Y17409525D02*
X39263855Y17409525D01*
X39263855Y17409525D02*
X39263855Y17790477D01*
X40063855Y18133335D02*
X39263855Y18133335D01*
X39263855Y18133335D02*
X40063855Y18590478D01*
X40063855Y18590478D02*
X39263855Y18590478D01*
D11*
X1447780Y28780952D02*
X2447780Y28780952D01*
X2447780Y28780952D02*
X2447780Y28400000D01*
X2447780Y28400000D02*
X2400161Y28304762D01*
X2400161Y28304762D02*
X2352542Y28257143D01*
X2352542Y28257143D02*
X2257304Y28209524D01*
X2257304Y28209524D02*
X2114447Y28209524D01*
X2114447Y28209524D02*
X2019209Y28257143D01*
X2019209Y28257143D02*
X1971590Y28304762D01*
X1971590Y28304762D02*
X1923971Y28400000D01*
X1923971Y28400000D02*
X1923971Y28780952D01*
X2447780Y27876190D02*
X2447780Y27209524D01*
X2447780Y27209524D02*
X1447780Y27876190D01*
X1447780Y27876190D02*
X1447780Y27209524D01*
X1828733Y26828571D02*
X1828733Y26066666D01*
X1447780Y25590476D02*
X2447780Y25590476D01*
X1971590Y25590476D02*
X1971590Y25019048D01*
X1447780Y25019048D02*
X2447780Y25019048D01*
X2447780Y24352381D02*
X2447780Y24257143D01*
X2447780Y24257143D02*
X2400161Y24161905D01*
X2400161Y24161905D02*
X2352542Y24114286D01*
X2352542Y24114286D02*
X2257304Y24066667D01*
X2257304Y24066667D02*
X2066828Y24019048D01*
X2066828Y24019048D02*
X1828733Y24019048D01*
X1828733Y24019048D02*
X1638257Y24066667D01*
X1638257Y24066667D02*
X1543019Y24114286D01*
X1543019Y24114286D02*
X1495400Y24161905D01*
X1495400Y24161905D02*
X1447780Y24257143D01*
X1447780Y24257143D02*
X1447780Y24352381D01*
X1447780Y24352381D02*
X1495400Y24447619D01*
X1495400Y24447619D02*
X1543019Y24495238D01*
X1543019Y24495238D02*
X1638257Y24542857D01*
X1638257Y24542857D02*
X1828733Y24590476D01*
X1828733Y24590476D02*
X2066828Y24590476D01*
X2066828Y24590476D02*
X2257304Y24542857D01*
X2257304Y24542857D02*
X2352542Y24495238D01*
X2352542Y24495238D02*
X2400161Y24447619D01*
X2400161Y24447619D02*
X2447780Y24352381D01*
X2447780Y23685714D02*
X2447780Y23066667D01*
X2447780Y23066667D02*
X2066828Y23400000D01*
X2066828Y23400000D02*
X2066828Y23257143D01*
X2066828Y23257143D02*
X2019209Y23161905D01*
X2019209Y23161905D02*
X1971590Y23114286D01*
X1971590Y23114286D02*
X1876352Y23066667D01*
X1876352Y23066667D02*
X1638257Y23066667D01*
X1638257Y23066667D02*
X1543019Y23114286D01*
X1543019Y23114286D02*
X1495400Y23161905D01*
X1495400Y23161905D02*
X1447780Y23257143D01*
X1447780Y23257143D02*
X1447780Y23542857D01*
X1447780Y23542857D02*
X1495400Y23638095D01*
X1495400Y23638095D02*
X1543019Y23685714D01*
X2447780Y22209524D02*
X2447780Y22400000D01*
X2447780Y22400000D02*
X2400161Y22495238D01*
X2400161Y22495238D02*
X2352542Y22542857D01*
X2352542Y22542857D02*
X2209685Y22638095D01*
X2209685Y22638095D02*
X2019209Y22685714D01*
X2019209Y22685714D02*
X1638257Y22685714D01*
X1638257Y22685714D02*
X1543019Y22638095D01*
X1543019Y22638095D02*
X1495400Y22590476D01*
X1495400Y22590476D02*
X1447780Y22495238D01*
X1447780Y22495238D02*
X1447780Y22304762D01*
X1447780Y22304762D02*
X1495400Y22209524D01*
X1495400Y22209524D02*
X1543019Y22161905D01*
X1543019Y22161905D02*
X1638257Y22114286D01*
X1638257Y22114286D02*
X1876352Y22114286D01*
X1876352Y22114286D02*
X1971590Y22161905D01*
X1971590Y22161905D02*
X2019209Y22209524D01*
X2019209Y22209524D02*
X2066828Y22304762D01*
X2066828Y22304762D02*
X2066828Y22495238D01*
X2066828Y22495238D02*
X2019209Y22590476D01*
X2019209Y22590476D02*
X1971590Y22638095D01*
X1971590Y22638095D02*
X1876352Y22685714D01*
X2447780Y21780952D02*
X2447780Y21114286D01*
X2447780Y21114286D02*
X1447780Y21780952D01*
X1447780Y21780952D02*
X1447780Y21114286D01*
X1828733Y20733333D02*
X1828733Y19971428D01*
X1447780Y18923810D02*
X1923971Y19257143D01*
X1447780Y19495238D02*
X2447780Y19495238D01*
X2447780Y19495238D02*
X2447780Y19114286D01*
X2447780Y19114286D02*
X2400161Y19019048D01*
X2400161Y19019048D02*
X2352542Y18971429D01*
X2352542Y18971429D02*
X2257304Y18923810D01*
X2257304Y18923810D02*
X2114447Y18923810D01*
X2114447Y18923810D02*
X2019209Y18971429D01*
X2019209Y18971429D02*
X1971590Y19019048D01*
X1971590Y19019048D02*
X1923971Y19114286D01*
X1923971Y19114286D02*
X1923971Y19495238D01*
X1447780Y17971429D02*
X1447780Y18542857D01*
X1447780Y18257143D02*
X2447780Y18257143D01*
X2447780Y18257143D02*
X2304923Y18352381D01*
X2304923Y18352381D02*
X2209685Y18447619D01*
X2209685Y18447619D02*
X2162066Y18542857D01*
D12*
X39084398Y40983229D02*
X39484398Y40983229D01*
X39655826Y40354658D02*
X39084398Y40354658D01*
X39084398Y40354658D02*
X39084398Y41554658D01*
X39084398Y41554658D02*
X39655826Y41554658D01*
X40112969Y40411800D02*
X40284398Y40354658D01*
X40284398Y40354658D02*
X40570112Y40354658D01*
X40570112Y40354658D02*
X40684398Y40411800D01*
X40684398Y40411800D02*
X40741540Y40468943D01*
X40741540Y40468943D02*
X40798683Y40583229D01*
X40798683Y40583229D02*
X40798683Y40697515D01*
X40798683Y40697515D02*
X40741540Y40811800D01*
X40741540Y40811800D02*
X40684398Y40868943D01*
X40684398Y40868943D02*
X40570112Y40926086D01*
X40570112Y40926086D02*
X40341540Y40983229D01*
X40341540Y40983229D02*
X40227255Y41040372D01*
X40227255Y41040372D02*
X40170112Y41097515D01*
X40170112Y41097515D02*
X40112969Y41211800D01*
X40112969Y41211800D02*
X40112969Y41326086D01*
X40112969Y41326086D02*
X40170112Y41440372D01*
X40170112Y41440372D02*
X40227255Y41497515D01*
X40227255Y41497515D02*
X40341540Y41554658D01*
X40341540Y41554658D02*
X40627255Y41554658D01*
X40627255Y41554658D02*
X40798683Y41497515D01*
X41312969Y40354658D02*
X41312969Y41554658D01*
X41312969Y41554658D02*
X41770112Y41554658D01*
X41770112Y41554658D02*
X41884397Y41497515D01*
X41884397Y41497515D02*
X41941540Y41440372D01*
X41941540Y41440372D02*
X41998683Y41326086D01*
X41998683Y41326086D02*
X41998683Y41154658D01*
X41998683Y41154658D02*
X41941540Y41040372D01*
X41941540Y41040372D02*
X41884397Y40983229D01*
X41884397Y40983229D02*
X41770112Y40926086D01*
X41770112Y40926086D02*
X41312969Y40926086D01*
D10*
X68166666Y22136145D02*
X68623809Y22136145D01*
X68395237Y21336145D02*
X68395237Y22136145D01*
X68814285Y21336145D02*
X69233333Y21869479D01*
X68814285Y21869479D02*
X69233333Y21336145D01*
X69499999Y22059955D02*
X69538095Y22098050D01*
X69538095Y22098050D02*
X69614285Y22136145D01*
X69614285Y22136145D02*
X69804761Y22136145D01*
X69804761Y22136145D02*
X69880952Y22098050D01*
X69880952Y22098050D02*
X69919047Y22059955D01*
X69919047Y22059955D02*
X69957142Y21983764D01*
X69957142Y21983764D02*
X69957142Y21907574D01*
X69957142Y21907574D02*
X69919047Y21793288D01*
X69919047Y21793288D02*
X69461904Y21336145D01*
X69461904Y21336145D02*
X69957142Y21336145D01*
X27663855Y28485715D02*
X26863855Y28485715D01*
X26863855Y28485715D02*
X27663855Y28942858D01*
X27663855Y28942858D02*
X26863855Y28942858D01*
X27663855Y29780953D02*
X27282902Y29514286D01*
X27663855Y29323810D02*
X26863855Y29323810D01*
X26863855Y29323810D02*
X26863855Y29628572D01*
X26863855Y29628572D02*
X26901950Y29704762D01*
X26901950Y29704762D02*
X26940045Y29742857D01*
X26940045Y29742857D02*
X27016236Y29780953D01*
X27016236Y29780953D02*
X27130521Y29780953D01*
X27130521Y29780953D02*
X27206712Y29742857D01*
X27206712Y29742857D02*
X27244807Y29704762D01*
X27244807Y29704762D02*
X27282902Y29628572D01*
X27282902Y29628572D02*
X27282902Y29323810D01*
X27625760Y30085714D02*
X27663855Y30200000D01*
X27663855Y30200000D02*
X27663855Y30390476D01*
X27663855Y30390476D02*
X27625760Y30466667D01*
X27625760Y30466667D02*
X27587664Y30504762D01*
X27587664Y30504762D02*
X27511474Y30542857D01*
X27511474Y30542857D02*
X27435283Y30542857D01*
X27435283Y30542857D02*
X27359093Y30504762D01*
X27359093Y30504762D02*
X27320998Y30466667D01*
X27320998Y30466667D02*
X27282902Y30390476D01*
X27282902Y30390476D02*
X27244807Y30238095D01*
X27244807Y30238095D02*
X27206712Y30161905D01*
X27206712Y30161905D02*
X27168617Y30123810D01*
X27168617Y30123810D02*
X27092426Y30085714D01*
X27092426Y30085714D02*
X27016236Y30085714D01*
X27016236Y30085714D02*
X26940045Y30123810D01*
X26940045Y30123810D02*
X26901950Y30161905D01*
X26901950Y30161905D02*
X26863855Y30238095D01*
X26863855Y30238095D02*
X26863855Y30428572D01*
X26863855Y30428572D02*
X26901950Y30542857D01*
X26863855Y30771429D02*
X26863855Y31228572D01*
X27663855Y31000000D02*
X26863855Y31000000D01*
X69155137Y31136145D02*
X69612280Y31136145D01*
X69383708Y30336145D02*
X69383708Y31136145D01*
X69802756Y30336145D02*
X70221804Y30869479D01*
X69802756Y30869479D02*
X70221804Y30336145D01*
D12*
X26714285Y41452658D02*
X27514285Y40252658D01*
X27514285Y41452658D02*
X26714285Y40252658D01*
X27971428Y40252658D02*
X27971428Y41452658D01*
X27971428Y41452658D02*
X28371428Y40595515D01*
X28371428Y40595515D02*
X28771428Y41452658D01*
X28771428Y41452658D02*
X28771428Y40252658D01*
D10*
X17085714Y13112336D02*
X17047618Y13074240D01*
X17047618Y13074240D02*
X16933333Y13036145D01*
X16933333Y13036145D02*
X16857142Y13036145D01*
X16857142Y13036145D02*
X16742856Y13074240D01*
X16742856Y13074240D02*
X16666666Y13150431D01*
X16666666Y13150431D02*
X16628571Y13226621D01*
X16628571Y13226621D02*
X16590475Y13379002D01*
X16590475Y13379002D02*
X16590475Y13493288D01*
X16590475Y13493288D02*
X16628571Y13645669D01*
X16628571Y13645669D02*
X16666666Y13721860D01*
X16666666Y13721860D02*
X16742856Y13798050D01*
X16742856Y13798050D02*
X16857142Y13836145D01*
X16857142Y13836145D02*
X16933333Y13836145D01*
X16933333Y13836145D02*
X17047618Y13798050D01*
X17047618Y13798050D02*
X17085714Y13759955D01*
X17390475Y13759955D02*
X17428571Y13798050D01*
X17428571Y13798050D02*
X17504761Y13836145D01*
X17504761Y13836145D02*
X17695237Y13836145D01*
X17695237Y13836145D02*
X17771428Y13798050D01*
X17771428Y13798050D02*
X17809523Y13759955D01*
X17809523Y13759955D02*
X17847618Y13683764D01*
X17847618Y13683764D02*
X17847618Y13607574D01*
X17847618Y13607574D02*
X17809523Y13493288D01*
X17809523Y13493288D02*
X17352380Y13036145D01*
X17352380Y13036145D02*
X17847618Y13036145D01*
X18609523Y13036145D02*
X18152380Y13036145D01*
X18380952Y13036145D02*
X18380952Y13836145D01*
X18380952Y13836145D02*
X18304761Y13721860D01*
X18304761Y13721860D02*
X18228571Y13645669D01*
X18228571Y13645669D02*
X18152380Y13607574D01*
X37863855Y28085715D02*
X37482902Y27819048D01*
X37863855Y27628572D02*
X37063855Y27628572D01*
X37063855Y27628572D02*
X37063855Y27933334D01*
X37063855Y27933334D02*
X37101950Y28009524D01*
X37101950Y28009524D02*
X37140045Y28047619D01*
X37140045Y28047619D02*
X37216236Y28085715D01*
X37216236Y28085715D02*
X37330521Y28085715D01*
X37330521Y28085715D02*
X37406712Y28047619D01*
X37406712Y28047619D02*
X37444807Y28009524D01*
X37444807Y28009524D02*
X37482902Y27933334D01*
X37482902Y27933334D02*
X37482902Y27628572D01*
X37863855Y28847619D02*
X37863855Y28390476D01*
X37863855Y28619048D02*
X37063855Y28619048D01*
X37063855Y28619048D02*
X37178140Y28542857D01*
X37178140Y28542857D02*
X37254331Y28466667D01*
X37254331Y28466667D02*
X37292426Y28390476D01*
X37063855Y29342858D02*
X37063855Y29419048D01*
X37063855Y29419048D02*
X37101950Y29495239D01*
X37101950Y29495239D02*
X37140045Y29533334D01*
X37140045Y29533334D02*
X37216236Y29571429D01*
X37216236Y29571429D02*
X37368617Y29609524D01*
X37368617Y29609524D02*
X37559093Y29609524D01*
X37559093Y29609524D02*
X37711474Y29571429D01*
X37711474Y29571429D02*
X37787664Y29533334D01*
X37787664Y29533334D02*
X37825760Y29495239D01*
X37825760Y29495239D02*
X37863855Y29419048D01*
X37863855Y29419048D02*
X37863855Y29342858D01*
X37863855Y29342858D02*
X37825760Y29266667D01*
X37825760Y29266667D02*
X37787664Y29228572D01*
X37787664Y29228572D02*
X37711474Y29190477D01*
X37711474Y29190477D02*
X37559093Y29152381D01*
X37559093Y29152381D02*
X37368617Y29152381D01*
X37368617Y29152381D02*
X37216236Y29190477D01*
X37216236Y29190477D02*
X37140045Y29228572D01*
X37140045Y29228572D02*
X37101950Y29266667D01*
X37101950Y29266667D02*
X37063855Y29342858D01*
X42363855Y11866668D02*
X41982902Y11600001D01*
X42363855Y11409525D02*
X41563855Y11409525D01*
X41563855Y11409525D02*
X41563855Y11714287D01*
X41563855Y11714287D02*
X41601950Y11790477D01*
X41601950Y11790477D02*
X41640045Y11828572D01*
X41640045Y11828572D02*
X41716236Y11866668D01*
X41716236Y11866668D02*
X41830521Y11866668D01*
X41830521Y11866668D02*
X41906712Y11828572D01*
X41906712Y11828572D02*
X41944807Y11790477D01*
X41944807Y11790477D02*
X41982902Y11714287D01*
X41982902Y11714287D02*
X41982902Y11409525D01*
X42363855Y12628572D02*
X42363855Y12171429D01*
X42363855Y12400001D02*
X41563855Y12400001D01*
X41563855Y12400001D02*
X41678140Y12323810D01*
X41678140Y12323810D02*
X41754331Y12247620D01*
X41754331Y12247620D02*
X41792426Y12171429D01*
X22723809Y20659955D02*
X22647619Y20698050D01*
X22647619Y20698050D02*
X22571428Y20774240D01*
X22571428Y20774240D02*
X22457142Y20888526D01*
X22457142Y20888526D02*
X22380952Y20926621D01*
X22380952Y20926621D02*
X22304761Y20926621D01*
X22342857Y20736145D02*
X22266666Y20774240D01*
X22266666Y20774240D02*
X22190476Y20850431D01*
X22190476Y20850431D02*
X22152380Y21002812D01*
X22152380Y21002812D02*
X22152380Y21269479D01*
X22152380Y21269479D02*
X22190476Y21421860D01*
X22190476Y21421860D02*
X22266666Y21498050D01*
X22266666Y21498050D02*
X22342857Y21536145D01*
X22342857Y21536145D02*
X22495238Y21536145D01*
X22495238Y21536145D02*
X22571428Y21498050D01*
X22571428Y21498050D02*
X22647619Y21421860D01*
X22647619Y21421860D02*
X22685714Y21269479D01*
X22685714Y21269479D02*
X22685714Y21002812D01*
X22685714Y21002812D02*
X22647619Y20850431D01*
X22647619Y20850431D02*
X22571428Y20774240D01*
X22571428Y20774240D02*
X22495238Y20736145D01*
X22495238Y20736145D02*
X22342857Y20736145D01*
X23447618Y20736145D02*
X22990475Y20736145D01*
X23219047Y20736145D02*
X23219047Y21536145D01*
X23219047Y21536145D02*
X23142856Y21421860D01*
X23142856Y21421860D02*
X23066666Y21345669D01*
X23066666Y21345669D02*
X22990475Y21307574D01*
X47890475Y13274240D02*
X48004761Y13236145D01*
X48004761Y13236145D02*
X48195237Y13236145D01*
X48195237Y13236145D02*
X48271428Y13274240D01*
X48271428Y13274240D02*
X48309523Y13312336D01*
X48309523Y13312336D02*
X48347618Y13388526D01*
X48347618Y13388526D02*
X48347618Y13464717D01*
X48347618Y13464717D02*
X48309523Y13540907D01*
X48309523Y13540907D02*
X48271428Y13579002D01*
X48271428Y13579002D02*
X48195237Y13617098D01*
X48195237Y13617098D02*
X48042856Y13655193D01*
X48042856Y13655193D02*
X47966666Y13693288D01*
X47966666Y13693288D02*
X47928571Y13731383D01*
X47928571Y13731383D02*
X47890475Y13807574D01*
X47890475Y13807574D02*
X47890475Y13883764D01*
X47890475Y13883764D02*
X47928571Y13959955D01*
X47928571Y13959955D02*
X47966666Y13998050D01*
X47966666Y13998050D02*
X48042856Y14036145D01*
X48042856Y14036145D02*
X48233333Y14036145D01*
X48233333Y14036145D02*
X48347618Y13998050D01*
X49033333Y14036145D02*
X48880952Y14036145D01*
X48880952Y14036145D02*
X48804761Y13998050D01*
X48804761Y13998050D02*
X48766666Y13959955D01*
X48766666Y13959955D02*
X48690476Y13845669D01*
X48690476Y13845669D02*
X48652380Y13693288D01*
X48652380Y13693288D02*
X48652380Y13388526D01*
X48652380Y13388526D02*
X48690476Y13312336D01*
X48690476Y13312336D02*
X48728571Y13274240D01*
X48728571Y13274240D02*
X48804761Y13236145D01*
X48804761Y13236145D02*
X48957142Y13236145D01*
X48957142Y13236145D02*
X49033333Y13274240D01*
X49033333Y13274240D02*
X49071428Y13312336D01*
X49071428Y13312336D02*
X49109523Y13388526D01*
X49109523Y13388526D02*
X49109523Y13579002D01*
X49109523Y13579002D02*
X49071428Y13655193D01*
X49071428Y13655193D02*
X49033333Y13693288D01*
X49033333Y13693288D02*
X48957142Y13731383D01*
X48957142Y13731383D02*
X48804761Y13731383D01*
X48804761Y13731383D02*
X48728571Y13693288D01*
X48728571Y13693288D02*
X48690476Y13655193D01*
X48690476Y13655193D02*
X48652380Y13579002D01*
X31925760Y26190476D02*
X31963855Y26304762D01*
X31963855Y26304762D02*
X31963855Y26495238D01*
X31963855Y26495238D02*
X31925760Y26571429D01*
X31925760Y26571429D02*
X31887664Y26609524D01*
X31887664Y26609524D02*
X31811474Y26647619D01*
X31811474Y26647619D02*
X31735283Y26647619D01*
X31735283Y26647619D02*
X31659093Y26609524D01*
X31659093Y26609524D02*
X31620998Y26571429D01*
X31620998Y26571429D02*
X31582902Y26495238D01*
X31582902Y26495238D02*
X31544807Y26342857D01*
X31544807Y26342857D02*
X31506712Y26266667D01*
X31506712Y26266667D02*
X31468617Y26228572D01*
X31468617Y26228572D02*
X31392426Y26190476D01*
X31392426Y26190476D02*
X31316236Y26190476D01*
X31316236Y26190476D02*
X31240045Y26228572D01*
X31240045Y26228572D02*
X31201950Y26266667D01*
X31201950Y26266667D02*
X31163855Y26342857D01*
X31163855Y26342857D02*
X31163855Y26533334D01*
X31163855Y26533334D02*
X31201950Y26647619D01*
X31163855Y26914286D02*
X31163855Y27409524D01*
X31163855Y27409524D02*
X31468617Y27142858D01*
X31468617Y27142858D02*
X31468617Y27257143D01*
X31468617Y27257143D02*
X31506712Y27333334D01*
X31506712Y27333334D02*
X31544807Y27371429D01*
X31544807Y27371429D02*
X31620998Y27409524D01*
X31620998Y27409524D02*
X31811474Y27409524D01*
X31811474Y27409524D02*
X31887664Y27371429D01*
X31887664Y27371429D02*
X31925760Y27333334D01*
X31925760Y27333334D02*
X31963855Y27257143D01*
X31963855Y27257143D02*
X31963855Y27028572D01*
X31963855Y27028572D02*
X31925760Y26952381D01*
X31925760Y26952381D02*
X31887664Y26914286D01*
X16585714Y10112336D02*
X16547618Y10074240D01*
X16547618Y10074240D02*
X16433333Y10036145D01*
X16433333Y10036145D02*
X16357142Y10036145D01*
X16357142Y10036145D02*
X16242856Y10074240D01*
X16242856Y10074240D02*
X16166666Y10150431D01*
X16166666Y10150431D02*
X16128571Y10226621D01*
X16128571Y10226621D02*
X16090475Y10379002D01*
X16090475Y10379002D02*
X16090475Y10493288D01*
X16090475Y10493288D02*
X16128571Y10645669D01*
X16128571Y10645669D02*
X16166666Y10721860D01*
X16166666Y10721860D02*
X16242856Y10798050D01*
X16242856Y10798050D02*
X16357142Y10836145D01*
X16357142Y10836145D02*
X16433333Y10836145D01*
X16433333Y10836145D02*
X16547618Y10798050D01*
X16547618Y10798050D02*
X16585714Y10759955D01*
X16890475Y10759955D02*
X16928571Y10798050D01*
X16928571Y10798050D02*
X17004761Y10836145D01*
X17004761Y10836145D02*
X17195237Y10836145D01*
X17195237Y10836145D02*
X17271428Y10798050D01*
X17271428Y10798050D02*
X17309523Y10759955D01*
X17309523Y10759955D02*
X17347618Y10683764D01*
X17347618Y10683764D02*
X17347618Y10607574D01*
X17347618Y10607574D02*
X17309523Y10493288D01*
X17309523Y10493288D02*
X16852380Y10036145D01*
X16852380Y10036145D02*
X17347618Y10036145D01*
X18033333Y10569479D02*
X18033333Y10036145D01*
X17842857Y10874240D02*
X17652380Y10302812D01*
X17652380Y10302812D02*
X18147619Y10302812D01*
X23066667Y41536145D02*
X22800000Y41917098D01*
X22609524Y41536145D02*
X22609524Y42336145D01*
X22609524Y42336145D02*
X22914286Y42336145D01*
X22914286Y42336145D02*
X22990476Y42298050D01*
X22990476Y42298050D02*
X23028571Y42259955D01*
X23028571Y42259955D02*
X23066667Y42183764D01*
X23066667Y42183764D02*
X23066667Y42069479D01*
X23066667Y42069479D02*
X23028571Y41993288D01*
X23028571Y41993288D02*
X22990476Y41955193D01*
X22990476Y41955193D02*
X22914286Y41917098D01*
X22914286Y41917098D02*
X22609524Y41917098D01*
X23752381Y42069479D02*
X23752381Y41536145D01*
X23561905Y42374240D02*
X23371428Y41802812D01*
X23371428Y41802812D02*
X23866667Y41802812D01*
X22623809Y14159955D02*
X22547619Y14198050D01*
X22547619Y14198050D02*
X22471428Y14274240D01*
X22471428Y14274240D02*
X22357142Y14388526D01*
X22357142Y14388526D02*
X22280952Y14426621D01*
X22280952Y14426621D02*
X22204761Y14426621D01*
X22242857Y14236145D02*
X22166666Y14274240D01*
X22166666Y14274240D02*
X22090476Y14350431D01*
X22090476Y14350431D02*
X22052380Y14502812D01*
X22052380Y14502812D02*
X22052380Y14769479D01*
X22052380Y14769479D02*
X22090476Y14921860D01*
X22090476Y14921860D02*
X22166666Y14998050D01*
X22166666Y14998050D02*
X22242857Y15036145D01*
X22242857Y15036145D02*
X22395238Y15036145D01*
X22395238Y15036145D02*
X22471428Y14998050D01*
X22471428Y14998050D02*
X22547619Y14921860D01*
X22547619Y14921860D02*
X22585714Y14769479D01*
X22585714Y14769479D02*
X22585714Y14502812D01*
X22585714Y14502812D02*
X22547619Y14350431D01*
X22547619Y14350431D02*
X22471428Y14274240D01*
X22471428Y14274240D02*
X22395238Y14236145D01*
X22395238Y14236145D02*
X22242857Y14236145D01*
X22890475Y14959955D02*
X22928571Y14998050D01*
X22928571Y14998050D02*
X23004761Y15036145D01*
X23004761Y15036145D02*
X23195237Y15036145D01*
X23195237Y15036145D02*
X23271428Y14998050D01*
X23271428Y14998050D02*
X23309523Y14959955D01*
X23309523Y14959955D02*
X23347618Y14883764D01*
X23347618Y14883764D02*
X23347618Y14807574D01*
X23347618Y14807574D02*
X23309523Y14693288D01*
X23309523Y14693288D02*
X22852380Y14236145D01*
X22852380Y14236145D02*
X23347618Y14236145D01*
X28325760Y26190476D02*
X28363855Y26304762D01*
X28363855Y26304762D02*
X28363855Y26495238D01*
X28363855Y26495238D02*
X28325760Y26571429D01*
X28325760Y26571429D02*
X28287664Y26609524D01*
X28287664Y26609524D02*
X28211474Y26647619D01*
X28211474Y26647619D02*
X28135283Y26647619D01*
X28135283Y26647619D02*
X28059093Y26609524D01*
X28059093Y26609524D02*
X28020998Y26571429D01*
X28020998Y26571429D02*
X27982902Y26495238D01*
X27982902Y26495238D02*
X27944807Y26342857D01*
X27944807Y26342857D02*
X27906712Y26266667D01*
X27906712Y26266667D02*
X27868617Y26228572D01*
X27868617Y26228572D02*
X27792426Y26190476D01*
X27792426Y26190476D02*
X27716236Y26190476D01*
X27716236Y26190476D02*
X27640045Y26228572D01*
X27640045Y26228572D02*
X27601950Y26266667D01*
X27601950Y26266667D02*
X27563855Y26342857D01*
X27563855Y26342857D02*
X27563855Y26533334D01*
X27563855Y26533334D02*
X27601950Y26647619D01*
X27563855Y27371429D02*
X27563855Y26990477D01*
X27563855Y26990477D02*
X27944807Y26952381D01*
X27944807Y26952381D02*
X27906712Y26990477D01*
X27906712Y26990477D02*
X27868617Y27066667D01*
X27868617Y27066667D02*
X27868617Y27257143D01*
X27868617Y27257143D02*
X27906712Y27333334D01*
X27906712Y27333334D02*
X27944807Y27371429D01*
X27944807Y27371429D02*
X28020998Y27409524D01*
X28020998Y27409524D02*
X28211474Y27409524D01*
X28211474Y27409524D02*
X28287664Y27371429D01*
X28287664Y27371429D02*
X28325760Y27333334D01*
X28325760Y27333334D02*
X28363855Y27257143D01*
X28363855Y27257143D02*
X28363855Y27066667D01*
X28363855Y27066667D02*
X28325760Y26990477D01*
X28325760Y26990477D02*
X28287664Y26952381D01*
X57833855Y9785715D02*
X57452902Y9519048D01*
X57833855Y9328572D02*
X57033855Y9328572D01*
X57033855Y9328572D02*
X57033855Y9633334D01*
X57033855Y9633334D02*
X57071950Y9709524D01*
X57071950Y9709524D02*
X57110045Y9747619D01*
X57110045Y9747619D02*
X57186236Y9785715D01*
X57186236Y9785715D02*
X57300521Y9785715D01*
X57300521Y9785715D02*
X57376712Y9747619D01*
X57376712Y9747619D02*
X57414807Y9709524D01*
X57414807Y9709524D02*
X57452902Y9633334D01*
X57452902Y9633334D02*
X57452902Y9328572D01*
X57833855Y10547619D02*
X57833855Y10090476D01*
X57833855Y10319048D02*
X57033855Y10319048D01*
X57033855Y10319048D02*
X57148140Y10242857D01*
X57148140Y10242857D02*
X57224331Y10166667D01*
X57224331Y10166667D02*
X57262426Y10090476D01*
X57033855Y11233334D02*
X57033855Y11080953D01*
X57033855Y11080953D02*
X57071950Y11004762D01*
X57071950Y11004762D02*
X57110045Y10966667D01*
X57110045Y10966667D02*
X57224331Y10890477D01*
X57224331Y10890477D02*
X57376712Y10852381D01*
X57376712Y10852381D02*
X57681474Y10852381D01*
X57681474Y10852381D02*
X57757664Y10890477D01*
X57757664Y10890477D02*
X57795760Y10928572D01*
X57795760Y10928572D02*
X57833855Y11004762D01*
X57833855Y11004762D02*
X57833855Y11157143D01*
X57833855Y11157143D02*
X57795760Y11233334D01*
X57795760Y11233334D02*
X57757664Y11271429D01*
X57757664Y11271429D02*
X57681474Y11309524D01*
X57681474Y11309524D02*
X57490998Y11309524D01*
X57490998Y11309524D02*
X57414807Y11271429D01*
X57414807Y11271429D02*
X57376712Y11233334D01*
X57376712Y11233334D02*
X57338617Y11157143D01*
X57338617Y11157143D02*
X57338617Y11004762D01*
X57338617Y11004762D02*
X57376712Y10928572D01*
X57376712Y10928572D02*
X57414807Y10890477D01*
X57414807Y10890477D02*
X57490998Y10852381D01*
X32687664Y17985715D02*
X32725760Y17947619D01*
X32725760Y17947619D02*
X32763855Y17833334D01*
X32763855Y17833334D02*
X32763855Y17757143D01*
X32763855Y17757143D02*
X32725760Y17642857D01*
X32725760Y17642857D02*
X32649569Y17566667D01*
X32649569Y17566667D02*
X32573379Y17528572D01*
X32573379Y17528572D02*
X32420998Y17490476D01*
X32420998Y17490476D02*
X32306712Y17490476D01*
X32306712Y17490476D02*
X32154331Y17528572D01*
X32154331Y17528572D02*
X32078140Y17566667D01*
X32078140Y17566667D02*
X32001950Y17642857D01*
X32001950Y17642857D02*
X31963855Y17757143D01*
X31963855Y17757143D02*
X31963855Y17833334D01*
X31963855Y17833334D02*
X32001950Y17947619D01*
X32001950Y17947619D02*
X32040045Y17985715D01*
X32763855Y18747619D02*
X32763855Y18290476D01*
X32763855Y18519048D02*
X31963855Y18519048D01*
X31963855Y18519048D02*
X32078140Y18442857D01*
X32078140Y18442857D02*
X32154331Y18366667D01*
X32154331Y18366667D02*
X32192426Y18290476D01*
X31963855Y19433334D02*
X31963855Y19280953D01*
X31963855Y19280953D02*
X32001950Y19204762D01*
X32001950Y19204762D02*
X32040045Y19166667D01*
X32040045Y19166667D02*
X32154331Y19090477D01*
X32154331Y19090477D02*
X32306712Y19052381D01*
X32306712Y19052381D02*
X32611474Y19052381D01*
X32611474Y19052381D02*
X32687664Y19090477D01*
X32687664Y19090477D02*
X32725760Y19128572D01*
X32725760Y19128572D02*
X32763855Y19204762D01*
X32763855Y19204762D02*
X32763855Y19357143D01*
X32763855Y19357143D02*
X32725760Y19433334D01*
X32725760Y19433334D02*
X32687664Y19471429D01*
X32687664Y19471429D02*
X32611474Y19509524D01*
X32611474Y19509524D02*
X32420998Y19509524D01*
X32420998Y19509524D02*
X32344807Y19471429D01*
X32344807Y19471429D02*
X32306712Y19433334D01*
X32306712Y19433334D02*
X32268617Y19357143D01*
X32268617Y19357143D02*
X32268617Y19204762D01*
X32268617Y19204762D02*
X32306712Y19128572D01*
X32306712Y19128572D02*
X32344807Y19090477D01*
X32344807Y19090477D02*
X32420998Y19052381D01*
X37431327Y33974240D02*
X37545613Y33936145D01*
X37545613Y33936145D02*
X37736089Y33936145D01*
X37736089Y33936145D02*
X37812280Y33974240D01*
X37812280Y33974240D02*
X37850375Y34012336D01*
X37850375Y34012336D02*
X37888470Y34088526D01*
X37888470Y34088526D02*
X37888470Y34164717D01*
X37888470Y34164717D02*
X37850375Y34240907D01*
X37850375Y34240907D02*
X37812280Y34279002D01*
X37812280Y34279002D02*
X37736089Y34317098D01*
X37736089Y34317098D02*
X37583708Y34355193D01*
X37583708Y34355193D02*
X37507518Y34393288D01*
X37507518Y34393288D02*
X37469423Y34431383D01*
X37469423Y34431383D02*
X37431327Y34507574D01*
X37431327Y34507574D02*
X37431327Y34583764D01*
X37431327Y34583764D02*
X37469423Y34659955D01*
X37469423Y34659955D02*
X37507518Y34698050D01*
X37507518Y34698050D02*
X37583708Y34736145D01*
X37583708Y34736145D02*
X37774185Y34736145D01*
X37774185Y34736145D02*
X37888470Y34698050D01*
X38574185Y34469479D02*
X38574185Y33936145D01*
X38383709Y34774240D02*
X38193232Y34202812D01*
X38193232Y34202812D02*
X38688471Y34202812D01*
X43266667Y5312336D02*
X43228571Y5274240D01*
X43228571Y5274240D02*
X43114286Y5236145D01*
X43114286Y5236145D02*
X43038095Y5236145D01*
X43038095Y5236145D02*
X42923809Y5274240D01*
X42923809Y5274240D02*
X42847619Y5350431D01*
X42847619Y5350431D02*
X42809524Y5426621D01*
X42809524Y5426621D02*
X42771428Y5579002D01*
X42771428Y5579002D02*
X42771428Y5693288D01*
X42771428Y5693288D02*
X42809524Y5845669D01*
X42809524Y5845669D02*
X42847619Y5921860D01*
X42847619Y5921860D02*
X42923809Y5998050D01*
X42923809Y5998050D02*
X43038095Y6036145D01*
X43038095Y6036145D02*
X43114286Y6036145D01*
X43114286Y6036145D02*
X43228571Y5998050D01*
X43228571Y5998050D02*
X43266667Y5959955D01*
X43723809Y5693288D02*
X43647619Y5731383D01*
X43647619Y5731383D02*
X43609524Y5769479D01*
X43609524Y5769479D02*
X43571428Y5845669D01*
X43571428Y5845669D02*
X43571428Y5883764D01*
X43571428Y5883764D02*
X43609524Y5959955D01*
X43609524Y5959955D02*
X43647619Y5998050D01*
X43647619Y5998050D02*
X43723809Y6036145D01*
X43723809Y6036145D02*
X43876190Y6036145D01*
X43876190Y6036145D02*
X43952381Y5998050D01*
X43952381Y5998050D02*
X43990476Y5959955D01*
X43990476Y5959955D02*
X44028571Y5883764D01*
X44028571Y5883764D02*
X44028571Y5845669D01*
X44028571Y5845669D02*
X43990476Y5769479D01*
X43990476Y5769479D02*
X43952381Y5731383D01*
X43952381Y5731383D02*
X43876190Y5693288D01*
X43876190Y5693288D02*
X43723809Y5693288D01*
X43723809Y5693288D02*
X43647619Y5655193D01*
X43647619Y5655193D02*
X43609524Y5617098D01*
X43609524Y5617098D02*
X43571428Y5540907D01*
X43571428Y5540907D02*
X43571428Y5388526D01*
X43571428Y5388526D02*
X43609524Y5312336D01*
X43609524Y5312336D02*
X43647619Y5274240D01*
X43647619Y5274240D02*
X43723809Y5236145D01*
X43723809Y5236145D02*
X43876190Y5236145D01*
X43876190Y5236145D02*
X43952381Y5274240D01*
X43952381Y5274240D02*
X43990476Y5312336D01*
X43990476Y5312336D02*
X44028571Y5388526D01*
X44028571Y5388526D02*
X44028571Y5540907D01*
X44028571Y5540907D02*
X43990476Y5617098D01*
X43990476Y5617098D02*
X43952381Y5655193D01*
X43952381Y5655193D02*
X43876190Y5693288D01*
X4387664Y23066668D02*
X4425760Y23028572D01*
X4425760Y23028572D02*
X4463855Y22914287D01*
X4463855Y22914287D02*
X4463855Y22838096D01*
X4463855Y22838096D02*
X4425760Y22723810D01*
X4425760Y22723810D02*
X4349569Y22647620D01*
X4349569Y22647620D02*
X4273379Y22609525D01*
X4273379Y22609525D02*
X4120998Y22571429D01*
X4120998Y22571429D02*
X4006712Y22571429D01*
X4006712Y22571429D02*
X3854331Y22609525D01*
X3854331Y22609525D02*
X3778140Y22647620D01*
X3778140Y22647620D02*
X3701950Y22723810D01*
X3701950Y22723810D02*
X3663855Y22838096D01*
X3663855Y22838096D02*
X3663855Y22914287D01*
X3663855Y22914287D02*
X3701950Y23028572D01*
X3701950Y23028572D02*
X3740045Y23066668D01*
X3663855Y23333334D02*
X3663855Y23866668D01*
X3663855Y23866668D02*
X4463855Y23523810D01*
X13085714Y22312336D02*
X13047618Y22274240D01*
X13047618Y22274240D02*
X12933333Y22236145D01*
X12933333Y22236145D02*
X12857142Y22236145D01*
X12857142Y22236145D02*
X12742856Y22274240D01*
X12742856Y22274240D02*
X12666666Y22350431D01*
X12666666Y22350431D02*
X12628571Y22426621D01*
X12628571Y22426621D02*
X12590475Y22579002D01*
X12590475Y22579002D02*
X12590475Y22693288D01*
X12590475Y22693288D02*
X12628571Y22845669D01*
X12628571Y22845669D02*
X12666666Y22921860D01*
X12666666Y22921860D02*
X12742856Y22998050D01*
X12742856Y22998050D02*
X12857142Y23036145D01*
X12857142Y23036145D02*
X12933333Y23036145D01*
X12933333Y23036145D02*
X13047618Y22998050D01*
X13047618Y22998050D02*
X13085714Y22959955D01*
X13390475Y22959955D02*
X13428571Y22998050D01*
X13428571Y22998050D02*
X13504761Y23036145D01*
X13504761Y23036145D02*
X13695237Y23036145D01*
X13695237Y23036145D02*
X13771428Y22998050D01*
X13771428Y22998050D02*
X13809523Y22959955D01*
X13809523Y22959955D02*
X13847618Y22883764D01*
X13847618Y22883764D02*
X13847618Y22807574D01*
X13847618Y22807574D02*
X13809523Y22693288D01*
X13809523Y22693288D02*
X13352380Y22236145D01*
X13352380Y22236145D02*
X13847618Y22236145D01*
X14571428Y23036145D02*
X14190476Y23036145D01*
X14190476Y23036145D02*
X14152380Y22655193D01*
X14152380Y22655193D02*
X14190476Y22693288D01*
X14190476Y22693288D02*
X14266666Y22731383D01*
X14266666Y22731383D02*
X14457142Y22731383D01*
X14457142Y22731383D02*
X14533333Y22693288D01*
X14533333Y22693288D02*
X14571428Y22655193D01*
X14571428Y22655193D02*
X14609523Y22579002D01*
X14609523Y22579002D02*
X14609523Y22388526D01*
X14609523Y22388526D02*
X14571428Y22312336D01*
X14571428Y22312336D02*
X14533333Y22274240D01*
X14533333Y22274240D02*
X14457142Y22236145D01*
X14457142Y22236145D02*
X14266666Y22236145D01*
X14266666Y22236145D02*
X14190476Y22274240D01*
X14190476Y22274240D02*
X14152380Y22312336D01*
X25587664Y8985715D02*
X25625760Y8947619D01*
X25625760Y8947619D02*
X25663855Y8833334D01*
X25663855Y8833334D02*
X25663855Y8757143D01*
X25663855Y8757143D02*
X25625760Y8642857D01*
X25625760Y8642857D02*
X25549569Y8566667D01*
X25549569Y8566667D02*
X25473379Y8528572D01*
X25473379Y8528572D02*
X25320998Y8490476D01*
X25320998Y8490476D02*
X25206712Y8490476D01*
X25206712Y8490476D02*
X25054331Y8528572D01*
X25054331Y8528572D02*
X24978140Y8566667D01*
X24978140Y8566667D02*
X24901950Y8642857D01*
X24901950Y8642857D02*
X24863855Y8757143D01*
X24863855Y8757143D02*
X24863855Y8833334D01*
X24863855Y8833334D02*
X24901950Y8947619D01*
X24901950Y8947619D02*
X24940045Y8985715D01*
X24940045Y9290476D02*
X24901950Y9328572D01*
X24901950Y9328572D02*
X24863855Y9404762D01*
X24863855Y9404762D02*
X24863855Y9595238D01*
X24863855Y9595238D02*
X24901950Y9671429D01*
X24901950Y9671429D02*
X24940045Y9709524D01*
X24940045Y9709524D02*
X25016236Y9747619D01*
X25016236Y9747619D02*
X25092426Y9747619D01*
X25092426Y9747619D02*
X25206712Y9709524D01*
X25206712Y9709524D02*
X25663855Y9252381D01*
X25663855Y9252381D02*
X25663855Y9747619D01*
X24863855Y10242858D02*
X24863855Y10319048D01*
X24863855Y10319048D02*
X24901950Y10395239D01*
X24901950Y10395239D02*
X24940045Y10433334D01*
X24940045Y10433334D02*
X25016236Y10471429D01*
X25016236Y10471429D02*
X25168617Y10509524D01*
X25168617Y10509524D02*
X25359093Y10509524D01*
X25359093Y10509524D02*
X25511474Y10471429D01*
X25511474Y10471429D02*
X25587664Y10433334D01*
X25587664Y10433334D02*
X25625760Y10395239D01*
X25625760Y10395239D02*
X25663855Y10319048D01*
X25663855Y10319048D02*
X25663855Y10242858D01*
X25663855Y10242858D02*
X25625760Y10166667D01*
X25625760Y10166667D02*
X25587664Y10128572D01*
X25587664Y10128572D02*
X25511474Y10090477D01*
X25511474Y10090477D02*
X25359093Y10052381D01*
X25359093Y10052381D02*
X25168617Y10052381D01*
X25168617Y10052381D02*
X25016236Y10090477D01*
X25016236Y10090477D02*
X24940045Y10128572D01*
X24940045Y10128572D02*
X24901950Y10166667D01*
X24901950Y10166667D02*
X24863855Y10242858D01*
X45587664Y11966668D02*
X45625760Y11928572D01*
X45625760Y11928572D02*
X45663855Y11814287D01*
X45663855Y11814287D02*
X45663855Y11738096D01*
X45663855Y11738096D02*
X45625760Y11623810D01*
X45625760Y11623810D02*
X45549569Y11547620D01*
X45549569Y11547620D02*
X45473379Y11509525D01*
X45473379Y11509525D02*
X45320998Y11471429D01*
X45320998Y11471429D02*
X45206712Y11471429D01*
X45206712Y11471429D02*
X45054331Y11509525D01*
X45054331Y11509525D02*
X44978140Y11547620D01*
X44978140Y11547620D02*
X44901950Y11623810D01*
X44901950Y11623810D02*
X44863855Y11738096D01*
X44863855Y11738096D02*
X44863855Y11814287D01*
X44863855Y11814287D02*
X44901950Y11928572D01*
X44901950Y11928572D02*
X44940045Y11966668D01*
X45663855Y12728572D02*
X45663855Y12271429D01*
X45663855Y12500001D02*
X44863855Y12500001D01*
X44863855Y12500001D02*
X44978140Y12423810D01*
X44978140Y12423810D02*
X45054331Y12347620D01*
X45054331Y12347620D02*
X45092426Y12271429D01*
X65363855Y12266668D02*
X64982902Y12000001D01*
X65363855Y11809525D02*
X64563855Y11809525D01*
X64563855Y11809525D02*
X64563855Y12114287D01*
X64563855Y12114287D02*
X64601950Y12190477D01*
X64601950Y12190477D02*
X64640045Y12228572D01*
X64640045Y12228572D02*
X64716236Y12266668D01*
X64716236Y12266668D02*
X64830521Y12266668D01*
X64830521Y12266668D02*
X64906712Y12228572D01*
X64906712Y12228572D02*
X64944807Y12190477D01*
X64944807Y12190477D02*
X64982902Y12114287D01*
X64982902Y12114287D02*
X64982902Y11809525D01*
X65363855Y12647620D02*
X65363855Y12800001D01*
X65363855Y12800001D02*
X65325760Y12876191D01*
X65325760Y12876191D02*
X65287664Y12914287D01*
X65287664Y12914287D02*
X65173379Y12990477D01*
X65173379Y12990477D02*
X65020998Y13028572D01*
X65020998Y13028572D02*
X64716236Y13028572D01*
X64716236Y13028572D02*
X64640045Y12990477D01*
X64640045Y12990477D02*
X64601950Y12952382D01*
X64601950Y12952382D02*
X64563855Y12876191D01*
X64563855Y12876191D02*
X64563855Y12723810D01*
X64563855Y12723810D02*
X64601950Y12647620D01*
X64601950Y12647620D02*
X64640045Y12609525D01*
X64640045Y12609525D02*
X64716236Y12571429D01*
X64716236Y12571429D02*
X64906712Y12571429D01*
X64906712Y12571429D02*
X64982902Y12609525D01*
X64982902Y12609525D02*
X65020998Y12647620D01*
X65020998Y12647620D02*
X65059093Y12723810D01*
X65059093Y12723810D02*
X65059093Y12876191D01*
X65059093Y12876191D02*
X65020998Y12952382D01*
X65020998Y12952382D02*
X64982902Y12990477D01*
X64982902Y12990477D02*
X64906712Y13028572D01*
X46287664Y37466668D02*
X46325760Y37428572D01*
X46325760Y37428572D02*
X46363855Y37314287D01*
X46363855Y37314287D02*
X46363855Y37238096D01*
X46363855Y37238096D02*
X46325760Y37123810D01*
X46325760Y37123810D02*
X46249569Y37047620D01*
X46249569Y37047620D02*
X46173379Y37009525D01*
X46173379Y37009525D02*
X46020998Y36971429D01*
X46020998Y36971429D02*
X45906712Y36971429D01*
X45906712Y36971429D02*
X45754331Y37009525D01*
X45754331Y37009525D02*
X45678140Y37047620D01*
X45678140Y37047620D02*
X45601950Y37123810D01*
X45601950Y37123810D02*
X45563855Y37238096D01*
X45563855Y37238096D02*
X45563855Y37314287D01*
X45563855Y37314287D02*
X45601950Y37428572D01*
X45601950Y37428572D02*
X45640045Y37466668D01*
X45830521Y38152382D02*
X46363855Y38152382D01*
X45525760Y37961906D02*
X46097188Y37771429D01*
X46097188Y37771429D02*
X46097188Y38266668D01*
X19966667Y41536145D02*
X19700000Y41917098D01*
X19509524Y41536145D02*
X19509524Y42336145D01*
X19509524Y42336145D02*
X19814286Y42336145D01*
X19814286Y42336145D02*
X19890476Y42298050D01*
X19890476Y42298050D02*
X19928571Y42259955D01*
X19928571Y42259955D02*
X19966667Y42183764D01*
X19966667Y42183764D02*
X19966667Y42069479D01*
X19966667Y42069479D02*
X19928571Y41993288D01*
X19928571Y41993288D02*
X19890476Y41955193D01*
X19890476Y41955193D02*
X19814286Y41917098D01*
X19814286Y41917098D02*
X19509524Y41917098D01*
X20233333Y42336145D02*
X20728571Y42336145D01*
X20728571Y42336145D02*
X20461905Y42031383D01*
X20461905Y42031383D02*
X20576190Y42031383D01*
X20576190Y42031383D02*
X20652381Y41993288D01*
X20652381Y41993288D02*
X20690476Y41955193D01*
X20690476Y41955193D02*
X20728571Y41879002D01*
X20728571Y41879002D02*
X20728571Y41688526D01*
X20728571Y41688526D02*
X20690476Y41612336D01*
X20690476Y41612336D02*
X20652381Y41574240D01*
X20652381Y41574240D02*
X20576190Y41536145D01*
X20576190Y41536145D02*
X20347619Y41536145D01*
X20347619Y41536145D02*
X20271428Y41574240D01*
X20271428Y41574240D02*
X20233333Y41612336D01*
X45240475Y22774240D02*
X45354761Y22736145D01*
X45354761Y22736145D02*
X45545237Y22736145D01*
X45545237Y22736145D02*
X45621428Y22774240D01*
X45621428Y22774240D02*
X45659523Y22812336D01*
X45659523Y22812336D02*
X45697618Y22888526D01*
X45697618Y22888526D02*
X45697618Y22964717D01*
X45697618Y22964717D02*
X45659523Y23040907D01*
X45659523Y23040907D02*
X45621428Y23079002D01*
X45621428Y23079002D02*
X45545237Y23117098D01*
X45545237Y23117098D02*
X45392856Y23155193D01*
X45392856Y23155193D02*
X45316666Y23193288D01*
X45316666Y23193288D02*
X45278571Y23231383D01*
X45278571Y23231383D02*
X45240475Y23307574D01*
X45240475Y23307574D02*
X45240475Y23383764D01*
X45240475Y23383764D02*
X45278571Y23459955D01*
X45278571Y23459955D02*
X45316666Y23498050D01*
X45316666Y23498050D02*
X45392856Y23536145D01*
X45392856Y23536145D02*
X45583333Y23536145D01*
X45583333Y23536145D02*
X45697618Y23498050D01*
X46002380Y23459955D02*
X46040476Y23498050D01*
X46040476Y23498050D02*
X46116666Y23536145D01*
X46116666Y23536145D02*
X46307142Y23536145D01*
X46307142Y23536145D02*
X46383333Y23498050D01*
X46383333Y23498050D02*
X46421428Y23459955D01*
X46421428Y23459955D02*
X46459523Y23383764D01*
X46459523Y23383764D02*
X46459523Y23307574D01*
X46459523Y23307574D02*
X46421428Y23193288D01*
X46421428Y23193288D02*
X45964285Y22736145D01*
X45964285Y22736145D02*
X46459523Y22736145D01*
X30485714Y1712336D02*
X30447618Y1674240D01*
X30447618Y1674240D02*
X30333333Y1636145D01*
X30333333Y1636145D02*
X30257142Y1636145D01*
X30257142Y1636145D02*
X30142856Y1674240D01*
X30142856Y1674240D02*
X30066666Y1750431D01*
X30066666Y1750431D02*
X30028571Y1826621D01*
X30028571Y1826621D02*
X29990475Y1979002D01*
X29990475Y1979002D02*
X29990475Y2093288D01*
X29990475Y2093288D02*
X30028571Y2245669D01*
X30028571Y2245669D02*
X30066666Y2321860D01*
X30066666Y2321860D02*
X30142856Y2398050D01*
X30142856Y2398050D02*
X30257142Y2436145D01*
X30257142Y2436145D02*
X30333333Y2436145D01*
X30333333Y2436145D02*
X30447618Y2398050D01*
X30447618Y2398050D02*
X30485714Y2359955D01*
X31247618Y1636145D02*
X30790475Y1636145D01*
X31019047Y1636145D02*
X31019047Y2436145D01*
X31019047Y2436145D02*
X30942856Y2321860D01*
X30942856Y2321860D02*
X30866666Y2245669D01*
X30866666Y2245669D02*
X30790475Y2207574D01*
X31552380Y2359955D02*
X31590476Y2398050D01*
X31590476Y2398050D02*
X31666666Y2436145D01*
X31666666Y2436145D02*
X31857142Y2436145D01*
X31857142Y2436145D02*
X31933333Y2398050D01*
X31933333Y2398050D02*
X31971428Y2359955D01*
X31971428Y2359955D02*
X32009523Y2283764D01*
X32009523Y2283764D02*
X32009523Y2207574D01*
X32009523Y2207574D02*
X31971428Y2093288D01*
X31971428Y2093288D02*
X31514285Y1636145D01*
X31514285Y1636145D02*
X32009523Y1636145D01*
D13*
X6064895Y30990477D02*
X6712514Y30990477D01*
X6712514Y30990477D02*
X6788704Y31028572D01*
X6788704Y31028572D02*
X6826800Y31066667D01*
X6826800Y31066667D02*
X6864895Y31142858D01*
X6864895Y31142858D02*
X6864895Y31295239D01*
X6864895Y31295239D02*
X6826800Y31371429D01*
X6826800Y31371429D02*
X6788704Y31409524D01*
X6788704Y31409524D02*
X6712514Y31447620D01*
X6712514Y31447620D02*
X6064895Y31447620D01*
X6141085Y31790476D02*
X6102990Y31828572D01*
X6102990Y31828572D02*
X6064895Y31904762D01*
X6064895Y31904762D02*
X6064895Y32095238D01*
X6064895Y32095238D02*
X6102990Y32171429D01*
X6102990Y32171429D02*
X6141085Y32209524D01*
X6141085Y32209524D02*
X6217276Y32247619D01*
X6217276Y32247619D02*
X6293466Y32247619D01*
X6293466Y32247619D02*
X6407752Y32209524D01*
X6407752Y32209524D02*
X6864895Y31752381D01*
X6864895Y31752381D02*
X6864895Y32247619D01*
D10*
X41966667Y24812336D02*
X41928571Y24774240D01*
X41928571Y24774240D02*
X41814286Y24736145D01*
X41814286Y24736145D02*
X41738095Y24736145D01*
X41738095Y24736145D02*
X41623809Y24774240D01*
X41623809Y24774240D02*
X41547619Y24850431D01*
X41547619Y24850431D02*
X41509524Y24926621D01*
X41509524Y24926621D02*
X41471428Y25079002D01*
X41471428Y25079002D02*
X41471428Y25193288D01*
X41471428Y25193288D02*
X41509524Y25345669D01*
X41509524Y25345669D02*
X41547619Y25421860D01*
X41547619Y25421860D02*
X41623809Y25498050D01*
X41623809Y25498050D02*
X41738095Y25536145D01*
X41738095Y25536145D02*
X41814286Y25536145D01*
X41814286Y25536145D02*
X41928571Y25498050D01*
X41928571Y25498050D02*
X41966667Y25459955D01*
X42271428Y25459955D02*
X42309524Y25498050D01*
X42309524Y25498050D02*
X42385714Y25536145D01*
X42385714Y25536145D02*
X42576190Y25536145D01*
X42576190Y25536145D02*
X42652381Y25498050D01*
X42652381Y25498050D02*
X42690476Y25459955D01*
X42690476Y25459955D02*
X42728571Y25383764D01*
X42728571Y25383764D02*
X42728571Y25307574D01*
X42728571Y25307574D02*
X42690476Y25193288D01*
X42690476Y25193288D02*
X42233333Y24736145D01*
X42233333Y24736145D02*
X42728571Y24736145D01*
X7785714Y13036145D02*
X7519047Y13417098D01*
X7328571Y13036145D02*
X7328571Y13836145D01*
X7328571Y13836145D02*
X7633333Y13836145D01*
X7633333Y13836145D02*
X7709523Y13798050D01*
X7709523Y13798050D02*
X7747618Y13759955D01*
X7747618Y13759955D02*
X7785714Y13683764D01*
X7785714Y13683764D02*
X7785714Y13569479D01*
X7785714Y13569479D02*
X7747618Y13493288D01*
X7747618Y13493288D02*
X7709523Y13455193D01*
X7709523Y13455193D02*
X7633333Y13417098D01*
X7633333Y13417098D02*
X7328571Y13417098D01*
X8547618Y13036145D02*
X8090475Y13036145D01*
X8319047Y13036145D02*
X8319047Y13836145D01*
X8319047Y13836145D02*
X8242856Y13721860D01*
X8242856Y13721860D02*
X8166666Y13645669D01*
X8166666Y13645669D02*
X8090475Y13607574D01*
X8814285Y13836145D02*
X9309523Y13836145D01*
X9309523Y13836145D02*
X9042857Y13531383D01*
X9042857Y13531383D02*
X9157142Y13531383D01*
X9157142Y13531383D02*
X9233333Y13493288D01*
X9233333Y13493288D02*
X9271428Y13455193D01*
X9271428Y13455193D02*
X9309523Y13379002D01*
X9309523Y13379002D02*
X9309523Y13188526D01*
X9309523Y13188526D02*
X9271428Y13112336D01*
X9271428Y13112336D02*
X9233333Y13074240D01*
X9233333Y13074240D02*
X9157142Y13036145D01*
X9157142Y13036145D02*
X8928571Y13036145D01*
X8928571Y13036145D02*
X8852380Y13074240D01*
X8852380Y13074240D02*
X8814285Y13112336D01*
X43987664Y11866668D02*
X44025760Y11828572D01*
X44025760Y11828572D02*
X44063855Y11714287D01*
X44063855Y11714287D02*
X44063855Y11638096D01*
X44063855Y11638096D02*
X44025760Y11523810D01*
X44025760Y11523810D02*
X43949569Y11447620D01*
X43949569Y11447620D02*
X43873379Y11409525D01*
X43873379Y11409525D02*
X43720998Y11371429D01*
X43720998Y11371429D02*
X43606712Y11371429D01*
X43606712Y11371429D02*
X43454331Y11409525D01*
X43454331Y11409525D02*
X43378140Y11447620D01*
X43378140Y11447620D02*
X43301950Y11523810D01*
X43301950Y11523810D02*
X43263855Y11638096D01*
X43263855Y11638096D02*
X43263855Y11714287D01*
X43263855Y11714287D02*
X43301950Y11828572D01*
X43301950Y11828572D02*
X43340045Y11866668D01*
X43263855Y12133334D02*
X43263855Y12628572D01*
X43263855Y12628572D02*
X43568617Y12361906D01*
X43568617Y12361906D02*
X43568617Y12476191D01*
X43568617Y12476191D02*
X43606712Y12552382D01*
X43606712Y12552382D02*
X43644807Y12590477D01*
X43644807Y12590477D02*
X43720998Y12628572D01*
X43720998Y12628572D02*
X43911474Y12628572D01*
X43911474Y12628572D02*
X43987664Y12590477D01*
X43987664Y12590477D02*
X44025760Y12552382D01*
X44025760Y12552382D02*
X44063855Y12476191D01*
X44063855Y12476191D02*
X44063855Y12247620D01*
X44063855Y12247620D02*
X44025760Y12171429D01*
X44025760Y12171429D02*
X43987664Y12133334D01*
X62363855Y12266668D02*
X61982902Y12000001D01*
X62363855Y11809525D02*
X61563855Y11809525D01*
X61563855Y11809525D02*
X61563855Y12114287D01*
X61563855Y12114287D02*
X61601950Y12190477D01*
X61601950Y12190477D02*
X61640045Y12228572D01*
X61640045Y12228572D02*
X61716236Y12266668D01*
X61716236Y12266668D02*
X61830521Y12266668D01*
X61830521Y12266668D02*
X61906712Y12228572D01*
X61906712Y12228572D02*
X61944807Y12190477D01*
X61944807Y12190477D02*
X61982902Y12114287D01*
X61982902Y12114287D02*
X61982902Y11809525D01*
X61563855Y12533334D02*
X61563855Y13066668D01*
X61563855Y13066668D02*
X62363855Y12723810D01*
X17525814Y20264717D02*
X17906767Y20264717D01*
X17449624Y20036145D02*
X17716291Y20836145D01*
X17716291Y20836145D02*
X17982957Y20036145D01*
X18173433Y20836145D02*
X18668671Y20836145D01*
X18668671Y20836145D02*
X18402005Y20531383D01*
X18402005Y20531383D02*
X18516290Y20531383D01*
X18516290Y20531383D02*
X18592481Y20493288D01*
X18592481Y20493288D02*
X18630576Y20455193D01*
X18630576Y20455193D02*
X18668671Y20379002D01*
X18668671Y20379002D02*
X18668671Y20188526D01*
X18668671Y20188526D02*
X18630576Y20112336D01*
X18630576Y20112336D02*
X18592481Y20074240D01*
X18592481Y20074240D02*
X18516290Y20036145D01*
X18516290Y20036145D02*
X18287719Y20036145D01*
X18287719Y20036145D02*
X18211528Y20074240D01*
X18211528Y20074240D02*
X18173433Y20112336D01*
X41109524Y2436145D02*
X41109524Y3236145D01*
X41109524Y3236145D02*
X41300000Y3236145D01*
X41300000Y3236145D02*
X41414286Y3198050D01*
X41414286Y3198050D02*
X41490476Y3121860D01*
X41490476Y3121860D02*
X41528571Y3045669D01*
X41528571Y3045669D02*
X41566667Y2893288D01*
X41566667Y2893288D02*
X41566667Y2779002D01*
X41566667Y2779002D02*
X41528571Y2626621D01*
X41528571Y2626621D02*
X41490476Y2550431D01*
X41490476Y2550431D02*
X41414286Y2474240D01*
X41414286Y2474240D02*
X41300000Y2436145D01*
X41300000Y2436145D02*
X41109524Y2436145D01*
X41833333Y3236145D02*
X42328571Y3236145D01*
X42328571Y3236145D02*
X42061905Y2931383D01*
X42061905Y2931383D02*
X42176190Y2931383D01*
X42176190Y2931383D02*
X42252381Y2893288D01*
X42252381Y2893288D02*
X42290476Y2855193D01*
X42290476Y2855193D02*
X42328571Y2779002D01*
X42328571Y2779002D02*
X42328571Y2588526D01*
X42328571Y2588526D02*
X42290476Y2512336D01*
X42290476Y2512336D02*
X42252381Y2474240D01*
X42252381Y2474240D02*
X42176190Y2436145D01*
X42176190Y2436145D02*
X41947619Y2436145D01*
X41947619Y2436145D02*
X41871428Y2474240D01*
X41871428Y2474240D02*
X41833333Y2512336D01*
X63863855Y12266668D02*
X63482902Y12000001D01*
X63863855Y11809525D02*
X63063855Y11809525D01*
X63063855Y11809525D02*
X63063855Y12114287D01*
X63063855Y12114287D02*
X63101950Y12190477D01*
X63101950Y12190477D02*
X63140045Y12228572D01*
X63140045Y12228572D02*
X63216236Y12266668D01*
X63216236Y12266668D02*
X63330521Y12266668D01*
X63330521Y12266668D02*
X63406712Y12228572D01*
X63406712Y12228572D02*
X63444807Y12190477D01*
X63444807Y12190477D02*
X63482902Y12114287D01*
X63482902Y12114287D02*
X63482902Y11809525D01*
X63406712Y12723810D02*
X63368617Y12647620D01*
X63368617Y12647620D02*
X63330521Y12609525D01*
X63330521Y12609525D02*
X63254331Y12571429D01*
X63254331Y12571429D02*
X63216236Y12571429D01*
X63216236Y12571429D02*
X63140045Y12609525D01*
X63140045Y12609525D02*
X63101950Y12647620D01*
X63101950Y12647620D02*
X63063855Y12723810D01*
X63063855Y12723810D02*
X63063855Y12876191D01*
X63063855Y12876191D02*
X63101950Y12952382D01*
X63101950Y12952382D02*
X63140045Y12990477D01*
X63140045Y12990477D02*
X63216236Y13028572D01*
X63216236Y13028572D02*
X63254331Y13028572D01*
X63254331Y13028572D02*
X63330521Y12990477D01*
X63330521Y12990477D02*
X63368617Y12952382D01*
X63368617Y12952382D02*
X63406712Y12876191D01*
X63406712Y12876191D02*
X63406712Y12723810D01*
X63406712Y12723810D02*
X63444807Y12647620D01*
X63444807Y12647620D02*
X63482902Y12609525D01*
X63482902Y12609525D02*
X63559093Y12571429D01*
X63559093Y12571429D02*
X63711474Y12571429D01*
X63711474Y12571429D02*
X63787664Y12609525D01*
X63787664Y12609525D02*
X63825760Y12647620D01*
X63825760Y12647620D02*
X63863855Y12723810D01*
X63863855Y12723810D02*
X63863855Y12876191D01*
X63863855Y12876191D02*
X63825760Y12952382D01*
X63825760Y12952382D02*
X63787664Y12990477D01*
X63787664Y12990477D02*
X63711474Y13028572D01*
X63711474Y13028572D02*
X63559093Y13028572D01*
X63559093Y13028572D02*
X63482902Y12990477D01*
X63482902Y12990477D02*
X63444807Y12952382D01*
X63444807Y12952382D02*
X63406712Y12876191D01*
X41485714Y3936145D02*
X41219047Y4317098D01*
X41028571Y3936145D02*
X41028571Y4736145D01*
X41028571Y4736145D02*
X41333333Y4736145D01*
X41333333Y4736145D02*
X41409523Y4698050D01*
X41409523Y4698050D02*
X41447618Y4659955D01*
X41447618Y4659955D02*
X41485714Y4583764D01*
X41485714Y4583764D02*
X41485714Y4469479D01*
X41485714Y4469479D02*
X41447618Y4393288D01*
X41447618Y4393288D02*
X41409523Y4355193D01*
X41409523Y4355193D02*
X41333333Y4317098D01*
X41333333Y4317098D02*
X41028571Y4317098D01*
X42247618Y3936145D02*
X41790475Y3936145D01*
X42019047Y3936145D02*
X42019047Y4736145D01*
X42019047Y4736145D02*
X41942856Y4621860D01*
X41942856Y4621860D02*
X41866666Y4545669D01*
X41866666Y4545669D02*
X41790475Y4507574D01*
X42933333Y4469479D02*
X42933333Y3936145D01*
X42742857Y4774240D02*
X42552380Y4202812D01*
X42552380Y4202812D02*
X43047619Y4202812D01*
X44687664Y37466668D02*
X44725760Y37428572D01*
X44725760Y37428572D02*
X44763855Y37314287D01*
X44763855Y37314287D02*
X44763855Y37238096D01*
X44763855Y37238096D02*
X44725760Y37123810D01*
X44725760Y37123810D02*
X44649569Y37047620D01*
X44649569Y37047620D02*
X44573379Y37009525D01*
X44573379Y37009525D02*
X44420998Y36971429D01*
X44420998Y36971429D02*
X44306712Y36971429D01*
X44306712Y36971429D02*
X44154331Y37009525D01*
X44154331Y37009525D02*
X44078140Y37047620D01*
X44078140Y37047620D02*
X44001950Y37123810D01*
X44001950Y37123810D02*
X43963855Y37238096D01*
X43963855Y37238096D02*
X43963855Y37314287D01*
X43963855Y37314287D02*
X44001950Y37428572D01*
X44001950Y37428572D02*
X44040045Y37466668D01*
X43963855Y38190477D02*
X43963855Y37809525D01*
X43963855Y37809525D02*
X44344807Y37771429D01*
X44344807Y37771429D02*
X44306712Y37809525D01*
X44306712Y37809525D02*
X44268617Y37885715D01*
X44268617Y37885715D02*
X44268617Y38076191D01*
X44268617Y38076191D02*
X44306712Y38152382D01*
X44306712Y38152382D02*
X44344807Y38190477D01*
X44344807Y38190477D02*
X44420998Y38228572D01*
X44420998Y38228572D02*
X44611474Y38228572D01*
X44611474Y38228572D02*
X44687664Y38190477D01*
X44687664Y38190477D02*
X44725760Y38152382D01*
X44725760Y38152382D02*
X44763855Y38076191D01*
X44763855Y38076191D02*
X44763855Y37885715D01*
X44763855Y37885715D02*
X44725760Y37809525D01*
X44725760Y37809525D02*
X44687664Y37771429D01*
X36287664Y6985715D02*
X36325760Y6947619D01*
X36325760Y6947619D02*
X36363855Y6833334D01*
X36363855Y6833334D02*
X36363855Y6757143D01*
X36363855Y6757143D02*
X36325760Y6642857D01*
X36325760Y6642857D02*
X36249569Y6566667D01*
X36249569Y6566667D02*
X36173379Y6528572D01*
X36173379Y6528572D02*
X36020998Y6490476D01*
X36020998Y6490476D02*
X35906712Y6490476D01*
X35906712Y6490476D02*
X35754331Y6528572D01*
X35754331Y6528572D02*
X35678140Y6566667D01*
X35678140Y6566667D02*
X35601950Y6642857D01*
X35601950Y6642857D02*
X35563855Y6757143D01*
X35563855Y6757143D02*
X35563855Y6833334D01*
X35563855Y6833334D02*
X35601950Y6947619D01*
X35601950Y6947619D02*
X35640045Y6985715D01*
X36363855Y7747619D02*
X36363855Y7290476D01*
X36363855Y7519048D02*
X35563855Y7519048D01*
X35563855Y7519048D02*
X35678140Y7442857D01*
X35678140Y7442857D02*
X35754331Y7366667D01*
X35754331Y7366667D02*
X35792426Y7290476D01*
X35563855Y8014286D02*
X35563855Y8509524D01*
X35563855Y8509524D02*
X35868617Y8242858D01*
X35868617Y8242858D02*
X35868617Y8357143D01*
X35868617Y8357143D02*
X35906712Y8433334D01*
X35906712Y8433334D02*
X35944807Y8471429D01*
X35944807Y8471429D02*
X36020998Y8509524D01*
X36020998Y8509524D02*
X36211474Y8509524D01*
X36211474Y8509524D02*
X36287664Y8471429D01*
X36287664Y8471429D02*
X36325760Y8433334D01*
X36325760Y8433334D02*
X36363855Y8357143D01*
X36363855Y8357143D02*
X36363855Y8128572D01*
X36363855Y8128572D02*
X36325760Y8052381D01*
X36325760Y8052381D02*
X36287664Y8014286D01*
X33685714Y24036145D02*
X33419047Y24417098D01*
X33228571Y24036145D02*
X33228571Y24836145D01*
X33228571Y24836145D02*
X33533333Y24836145D01*
X33533333Y24836145D02*
X33609523Y24798050D01*
X33609523Y24798050D02*
X33647618Y24759955D01*
X33647618Y24759955D02*
X33685714Y24683764D01*
X33685714Y24683764D02*
X33685714Y24569479D01*
X33685714Y24569479D02*
X33647618Y24493288D01*
X33647618Y24493288D02*
X33609523Y24455193D01*
X33609523Y24455193D02*
X33533333Y24417098D01*
X33533333Y24417098D02*
X33228571Y24417098D01*
X34447618Y24036145D02*
X33990475Y24036145D01*
X34219047Y24036145D02*
X34219047Y24836145D01*
X34219047Y24836145D02*
X34142856Y24721860D01*
X34142856Y24721860D02*
X34066666Y24645669D01*
X34066666Y24645669D02*
X33990475Y24607574D01*
X35209523Y24036145D02*
X34752380Y24036145D01*
X34980952Y24036145D02*
X34980952Y24836145D01*
X34980952Y24836145D02*
X34904761Y24721860D01*
X34904761Y24721860D02*
X34828571Y24645669D01*
X34828571Y24645669D02*
X34752380Y24607574D01*
X15963855Y6633334D02*
X16535283Y6633334D01*
X16535283Y6633334D02*
X16649569Y6595239D01*
X16649569Y6595239D02*
X16725760Y6519048D01*
X16725760Y6519048D02*
X16763855Y6404763D01*
X16763855Y6404763D02*
X16763855Y6328572D01*
X15963855Y6938096D02*
X15963855Y7433334D01*
X15963855Y7433334D02*
X16268617Y7166668D01*
X16268617Y7166668D02*
X16268617Y7280953D01*
X16268617Y7280953D02*
X16306712Y7357144D01*
X16306712Y7357144D02*
X16344807Y7395239D01*
X16344807Y7395239D02*
X16420998Y7433334D01*
X16420998Y7433334D02*
X16611474Y7433334D01*
X16611474Y7433334D02*
X16687664Y7395239D01*
X16687664Y7395239D02*
X16725760Y7357144D01*
X16725760Y7357144D02*
X16763855Y7280953D01*
X16763855Y7280953D02*
X16763855Y7052382D01*
X16763855Y7052382D02*
X16725760Y6976191D01*
X16725760Y6976191D02*
X16687664Y6938096D01*
X44763855Y29466668D02*
X44382902Y29200001D01*
X44763855Y29009525D02*
X43963855Y29009525D01*
X43963855Y29009525D02*
X43963855Y29314287D01*
X43963855Y29314287D02*
X44001950Y29390477D01*
X44001950Y29390477D02*
X44040045Y29428572D01*
X44040045Y29428572D02*
X44116236Y29466668D01*
X44116236Y29466668D02*
X44230521Y29466668D01*
X44230521Y29466668D02*
X44306712Y29428572D01*
X44306712Y29428572D02*
X44344807Y29390477D01*
X44344807Y29390477D02*
X44382902Y29314287D01*
X44382902Y29314287D02*
X44382902Y29009525D01*
X43963855Y30190477D02*
X43963855Y29809525D01*
X43963855Y29809525D02*
X44344807Y29771429D01*
X44344807Y29771429D02*
X44306712Y29809525D01*
X44306712Y29809525D02*
X44268617Y29885715D01*
X44268617Y29885715D02*
X44268617Y30076191D01*
X44268617Y30076191D02*
X44306712Y30152382D01*
X44306712Y30152382D02*
X44344807Y30190477D01*
X44344807Y30190477D02*
X44420998Y30228572D01*
X44420998Y30228572D02*
X44611474Y30228572D01*
X44611474Y30228572D02*
X44687664Y30190477D01*
X44687664Y30190477D02*
X44725760Y30152382D01*
X44725760Y30152382D02*
X44763855Y30076191D01*
X44763855Y30076191D02*
X44763855Y29885715D01*
X44763855Y29885715D02*
X44725760Y29809525D01*
X44725760Y29809525D02*
X44687664Y29771429D01*
D12*
X15754216Y36524295D02*
X16231175Y36524295D01*
X15658824Y36238120D02*
X15992696Y37239734D01*
X15992696Y37239734D02*
X16326567Y36238120D01*
X17089701Y36905862D02*
X17089701Y36238120D01*
X16851222Y37287429D02*
X16612742Y36571991D01*
X16612742Y36571991D02*
X17232789Y36571991D01*
D10*
X8535283Y28928572D02*
X8535283Y29309525D01*
X8763855Y28852382D02*
X7963855Y29119049D01*
X7963855Y29119049D02*
X8763855Y29385715D01*
X7963855Y30033334D02*
X7963855Y29652382D01*
X7963855Y29652382D02*
X8344807Y29614286D01*
X8344807Y29614286D02*
X8306712Y29652382D01*
X8306712Y29652382D02*
X8268617Y29728572D01*
X8268617Y29728572D02*
X8268617Y29919048D01*
X8268617Y29919048D02*
X8306712Y29995239D01*
X8306712Y29995239D02*
X8344807Y30033334D01*
X8344807Y30033334D02*
X8420998Y30071429D01*
X8420998Y30071429D02*
X8611474Y30071429D01*
X8611474Y30071429D02*
X8687664Y30033334D01*
X8687664Y30033334D02*
X8725760Y29995239D01*
X8725760Y29995239D02*
X8763855Y29919048D01*
X8763855Y29919048D02*
X8763855Y29728572D01*
X8763855Y29728572D02*
X8725760Y29652382D01*
X8725760Y29652382D02*
X8687664Y29614286D01*
X45240475Y18974240D02*
X45354761Y18936145D01*
X45354761Y18936145D02*
X45545237Y18936145D01*
X45545237Y18936145D02*
X45621428Y18974240D01*
X45621428Y18974240D02*
X45659523Y19012336D01*
X45659523Y19012336D02*
X45697618Y19088526D01*
X45697618Y19088526D02*
X45697618Y19164717D01*
X45697618Y19164717D02*
X45659523Y19240907D01*
X45659523Y19240907D02*
X45621428Y19279002D01*
X45621428Y19279002D02*
X45545237Y19317098D01*
X45545237Y19317098D02*
X45392856Y19355193D01*
X45392856Y19355193D02*
X45316666Y19393288D01*
X45316666Y19393288D02*
X45278571Y19431383D01*
X45278571Y19431383D02*
X45240475Y19507574D01*
X45240475Y19507574D02*
X45240475Y19583764D01*
X45240475Y19583764D02*
X45278571Y19659955D01*
X45278571Y19659955D02*
X45316666Y19698050D01*
X45316666Y19698050D02*
X45392856Y19736145D01*
X45392856Y19736145D02*
X45583333Y19736145D01*
X45583333Y19736145D02*
X45697618Y19698050D01*
X46459523Y18936145D02*
X46002380Y18936145D01*
X46230952Y18936145D02*
X46230952Y19736145D01*
X46230952Y19736145D02*
X46154761Y19621860D01*
X46154761Y19621860D02*
X46078571Y19545669D01*
X46078571Y19545669D02*
X46002380Y19507574D01*
D12*
X25869104Y11385715D02*
X25869104Y11861905D01*
X26154819Y11290477D02*
X25154819Y11623810D01*
X25154819Y11623810D02*
X26154819Y11957143D01*
X26154819Y12814286D02*
X26154819Y12242858D01*
X26154819Y12528572D02*
X25154819Y12528572D01*
X25154819Y12528572D02*
X25297676Y12433334D01*
X25297676Y12433334D02*
X25392914Y12338096D01*
X25392914Y12338096D02*
X25440533Y12242858D01*
D10*
X17085714Y11612336D02*
X17047618Y11574240D01*
X17047618Y11574240D02*
X16933333Y11536145D01*
X16933333Y11536145D02*
X16857142Y11536145D01*
X16857142Y11536145D02*
X16742856Y11574240D01*
X16742856Y11574240D02*
X16666666Y11650431D01*
X16666666Y11650431D02*
X16628571Y11726621D01*
X16628571Y11726621D02*
X16590475Y11879002D01*
X16590475Y11879002D02*
X16590475Y11993288D01*
X16590475Y11993288D02*
X16628571Y12145669D01*
X16628571Y12145669D02*
X16666666Y12221860D01*
X16666666Y12221860D02*
X16742856Y12298050D01*
X16742856Y12298050D02*
X16857142Y12336145D01*
X16857142Y12336145D02*
X16933333Y12336145D01*
X16933333Y12336145D02*
X17047618Y12298050D01*
X17047618Y12298050D02*
X17085714Y12259955D01*
X17390475Y12259955D02*
X17428571Y12298050D01*
X17428571Y12298050D02*
X17504761Y12336145D01*
X17504761Y12336145D02*
X17695237Y12336145D01*
X17695237Y12336145D02*
X17771428Y12298050D01*
X17771428Y12298050D02*
X17809523Y12259955D01*
X17809523Y12259955D02*
X17847618Y12183764D01*
X17847618Y12183764D02*
X17847618Y12107574D01*
X17847618Y12107574D02*
X17809523Y11993288D01*
X17809523Y11993288D02*
X17352380Y11536145D01*
X17352380Y11536145D02*
X17847618Y11536145D01*
X18152380Y12259955D02*
X18190476Y12298050D01*
X18190476Y12298050D02*
X18266666Y12336145D01*
X18266666Y12336145D02*
X18457142Y12336145D01*
X18457142Y12336145D02*
X18533333Y12298050D01*
X18533333Y12298050D02*
X18571428Y12259955D01*
X18571428Y12259955D02*
X18609523Y12183764D01*
X18609523Y12183764D02*
X18609523Y12107574D01*
X18609523Y12107574D02*
X18571428Y11993288D01*
X18571428Y11993288D02*
X18114285Y11536145D01*
X18114285Y11536145D02*
X18609523Y11536145D01*
X41966667Y26336145D02*
X41700000Y26717098D01*
X41509524Y26336145D02*
X41509524Y27136145D01*
X41509524Y27136145D02*
X41814286Y27136145D01*
X41814286Y27136145D02*
X41890476Y27098050D01*
X41890476Y27098050D02*
X41928571Y27059955D01*
X41928571Y27059955D02*
X41966667Y26983764D01*
X41966667Y26983764D02*
X41966667Y26869479D01*
X41966667Y26869479D02*
X41928571Y26793288D01*
X41928571Y26793288D02*
X41890476Y26755193D01*
X41890476Y26755193D02*
X41814286Y26717098D01*
X41814286Y26717098D02*
X41509524Y26717098D01*
X42271428Y27059955D02*
X42309524Y27098050D01*
X42309524Y27098050D02*
X42385714Y27136145D01*
X42385714Y27136145D02*
X42576190Y27136145D01*
X42576190Y27136145D02*
X42652381Y27098050D01*
X42652381Y27098050D02*
X42690476Y27059955D01*
X42690476Y27059955D02*
X42728571Y26983764D01*
X42728571Y26983764D02*
X42728571Y26907574D01*
X42728571Y26907574D02*
X42690476Y26793288D01*
X42690476Y26793288D02*
X42233333Y26336145D01*
X42233333Y26336145D02*
X42728571Y26336145D01*
X24287664Y16385715D02*
X24325760Y16347619D01*
X24325760Y16347619D02*
X24363855Y16233334D01*
X24363855Y16233334D02*
X24363855Y16157143D01*
X24363855Y16157143D02*
X24325760Y16042857D01*
X24325760Y16042857D02*
X24249569Y15966667D01*
X24249569Y15966667D02*
X24173379Y15928572D01*
X24173379Y15928572D02*
X24020998Y15890476D01*
X24020998Y15890476D02*
X23906712Y15890476D01*
X23906712Y15890476D02*
X23754331Y15928572D01*
X23754331Y15928572D02*
X23678140Y15966667D01*
X23678140Y15966667D02*
X23601950Y16042857D01*
X23601950Y16042857D02*
X23563855Y16157143D01*
X23563855Y16157143D02*
X23563855Y16233334D01*
X23563855Y16233334D02*
X23601950Y16347619D01*
X23601950Y16347619D02*
X23640045Y16385715D01*
X24363855Y17147619D02*
X24363855Y16690476D01*
X24363855Y16919048D02*
X23563855Y16919048D01*
X23563855Y16919048D02*
X23678140Y16842857D01*
X23678140Y16842857D02*
X23754331Y16766667D01*
X23754331Y16766667D02*
X23792426Y16690476D01*
X23563855Y17871429D02*
X23563855Y17490477D01*
X23563855Y17490477D02*
X23944807Y17452381D01*
X23944807Y17452381D02*
X23906712Y17490477D01*
X23906712Y17490477D02*
X23868617Y17566667D01*
X23868617Y17566667D02*
X23868617Y17757143D01*
X23868617Y17757143D02*
X23906712Y17833334D01*
X23906712Y17833334D02*
X23944807Y17871429D01*
X23944807Y17871429D02*
X24020998Y17909524D01*
X24020998Y17909524D02*
X24211474Y17909524D01*
X24211474Y17909524D02*
X24287664Y17871429D01*
X24287664Y17871429D02*
X24325760Y17833334D01*
X24325760Y17833334D02*
X24363855Y17757143D01*
X24363855Y17757143D02*
X24363855Y17566667D01*
X24363855Y17566667D02*
X24325760Y17490477D01*
X24325760Y17490477D02*
X24287664Y17452381D01*
X37787664Y30985715D02*
X37825760Y30947619D01*
X37825760Y30947619D02*
X37863855Y30833334D01*
X37863855Y30833334D02*
X37863855Y30757143D01*
X37863855Y30757143D02*
X37825760Y30642857D01*
X37825760Y30642857D02*
X37749569Y30566667D01*
X37749569Y30566667D02*
X37673379Y30528572D01*
X37673379Y30528572D02*
X37520998Y30490476D01*
X37520998Y30490476D02*
X37406712Y30490476D01*
X37406712Y30490476D02*
X37254331Y30528572D01*
X37254331Y30528572D02*
X37178140Y30566667D01*
X37178140Y30566667D02*
X37101950Y30642857D01*
X37101950Y30642857D02*
X37063855Y30757143D01*
X37063855Y30757143D02*
X37063855Y30833334D01*
X37063855Y30833334D02*
X37101950Y30947619D01*
X37101950Y30947619D02*
X37140045Y30985715D01*
X37863855Y31747619D02*
X37863855Y31290476D01*
X37863855Y31519048D02*
X37063855Y31519048D01*
X37063855Y31519048D02*
X37178140Y31442857D01*
X37178140Y31442857D02*
X37254331Y31366667D01*
X37254331Y31366667D02*
X37292426Y31290476D01*
X37063855Y32242858D02*
X37063855Y32319048D01*
X37063855Y32319048D02*
X37101950Y32395239D01*
X37101950Y32395239D02*
X37140045Y32433334D01*
X37140045Y32433334D02*
X37216236Y32471429D01*
X37216236Y32471429D02*
X37368617Y32509524D01*
X37368617Y32509524D02*
X37559093Y32509524D01*
X37559093Y32509524D02*
X37711474Y32471429D01*
X37711474Y32471429D02*
X37787664Y32433334D01*
X37787664Y32433334D02*
X37825760Y32395239D01*
X37825760Y32395239D02*
X37863855Y32319048D01*
X37863855Y32319048D02*
X37863855Y32242858D01*
X37863855Y32242858D02*
X37825760Y32166667D01*
X37825760Y32166667D02*
X37787664Y32128572D01*
X37787664Y32128572D02*
X37711474Y32090477D01*
X37711474Y32090477D02*
X37559093Y32052381D01*
X37559093Y32052381D02*
X37368617Y32052381D01*
X37368617Y32052381D02*
X37216236Y32090477D01*
X37216236Y32090477D02*
X37140045Y32128572D01*
X37140045Y32128572D02*
X37101950Y32166667D01*
X37101950Y32166667D02*
X37063855Y32242858D01*
X54585714Y9736145D02*
X54319047Y10117098D01*
X54128571Y9736145D02*
X54128571Y10536145D01*
X54128571Y10536145D02*
X54433333Y10536145D01*
X54433333Y10536145D02*
X54509523Y10498050D01*
X54509523Y10498050D02*
X54547618Y10459955D01*
X54547618Y10459955D02*
X54585714Y10383764D01*
X54585714Y10383764D02*
X54585714Y10269479D01*
X54585714Y10269479D02*
X54547618Y10193288D01*
X54547618Y10193288D02*
X54509523Y10155193D01*
X54509523Y10155193D02*
X54433333Y10117098D01*
X54433333Y10117098D02*
X54128571Y10117098D01*
X55347618Y9736145D02*
X54890475Y9736145D01*
X55119047Y9736145D02*
X55119047Y10536145D01*
X55119047Y10536145D02*
X55042856Y10421860D01*
X55042856Y10421860D02*
X54966666Y10345669D01*
X54966666Y10345669D02*
X54890475Y10307574D01*
X56071428Y10536145D02*
X55690476Y10536145D01*
X55690476Y10536145D02*
X55652380Y10155193D01*
X55652380Y10155193D02*
X55690476Y10193288D01*
X55690476Y10193288D02*
X55766666Y10231383D01*
X55766666Y10231383D02*
X55957142Y10231383D01*
X55957142Y10231383D02*
X56033333Y10193288D01*
X56033333Y10193288D02*
X56071428Y10155193D01*
X56071428Y10155193D02*
X56109523Y10079002D01*
X56109523Y10079002D02*
X56109523Y9888526D01*
X56109523Y9888526D02*
X56071428Y9812336D01*
X56071428Y9812336D02*
X56033333Y9774240D01*
X56033333Y9774240D02*
X55957142Y9736145D01*
X55957142Y9736145D02*
X55766666Y9736145D01*
X55766666Y9736145D02*
X55690476Y9774240D01*
X55690476Y9774240D02*
X55652380Y9812336D01*
X5987664Y23166668D02*
X6025760Y23128572D01*
X6025760Y23128572D02*
X6063855Y23014287D01*
X6063855Y23014287D02*
X6063855Y22938096D01*
X6063855Y22938096D02*
X6025760Y22823810D01*
X6025760Y22823810D02*
X5949569Y22747620D01*
X5949569Y22747620D02*
X5873379Y22709525D01*
X5873379Y22709525D02*
X5720998Y22671429D01*
X5720998Y22671429D02*
X5606712Y22671429D01*
X5606712Y22671429D02*
X5454331Y22709525D01*
X5454331Y22709525D02*
X5378140Y22747620D01*
X5378140Y22747620D02*
X5301950Y22823810D01*
X5301950Y22823810D02*
X5263855Y22938096D01*
X5263855Y22938096D02*
X5263855Y23014287D01*
X5263855Y23014287D02*
X5301950Y23128572D01*
X5301950Y23128572D02*
X5340045Y23166668D01*
X5263855Y23852382D02*
X5263855Y23700001D01*
X5263855Y23700001D02*
X5301950Y23623810D01*
X5301950Y23623810D02*
X5340045Y23585715D01*
X5340045Y23585715D02*
X5454331Y23509525D01*
X5454331Y23509525D02*
X5606712Y23471429D01*
X5606712Y23471429D02*
X5911474Y23471429D01*
X5911474Y23471429D02*
X5987664Y23509525D01*
X5987664Y23509525D02*
X6025760Y23547620D01*
X6025760Y23547620D02*
X6063855Y23623810D01*
X6063855Y23623810D02*
X6063855Y23776191D01*
X6063855Y23776191D02*
X6025760Y23852382D01*
X6025760Y23852382D02*
X5987664Y23890477D01*
X5987664Y23890477D02*
X5911474Y23928572D01*
X5911474Y23928572D02*
X5720998Y23928572D01*
X5720998Y23928572D02*
X5644807Y23890477D01*
X5644807Y23890477D02*
X5606712Y23852382D01*
X5606712Y23852382D02*
X5568617Y23776191D01*
X5568617Y23776191D02*
X5568617Y23623810D01*
X5568617Y23623810D02*
X5606712Y23547620D01*
X5606712Y23547620D02*
X5644807Y23509525D01*
X5644807Y23509525D02*
X5720998Y23471429D01*
X7785714Y14136145D02*
X7519047Y14517098D01*
X7328571Y14136145D02*
X7328571Y14936145D01*
X7328571Y14936145D02*
X7633333Y14936145D01*
X7633333Y14936145D02*
X7709523Y14898050D01*
X7709523Y14898050D02*
X7747618Y14859955D01*
X7747618Y14859955D02*
X7785714Y14783764D01*
X7785714Y14783764D02*
X7785714Y14669479D01*
X7785714Y14669479D02*
X7747618Y14593288D01*
X7747618Y14593288D02*
X7709523Y14555193D01*
X7709523Y14555193D02*
X7633333Y14517098D01*
X7633333Y14517098D02*
X7328571Y14517098D01*
X8547618Y14136145D02*
X8090475Y14136145D01*
X8319047Y14136145D02*
X8319047Y14936145D01*
X8319047Y14936145D02*
X8242856Y14821860D01*
X8242856Y14821860D02*
X8166666Y14745669D01*
X8166666Y14745669D02*
X8090475Y14707574D01*
X8852380Y14859955D02*
X8890476Y14898050D01*
X8890476Y14898050D02*
X8966666Y14936145D01*
X8966666Y14936145D02*
X9157142Y14936145D01*
X9157142Y14936145D02*
X9233333Y14898050D01*
X9233333Y14898050D02*
X9271428Y14859955D01*
X9271428Y14859955D02*
X9309523Y14783764D01*
X9309523Y14783764D02*
X9309523Y14707574D01*
X9309523Y14707574D02*
X9271428Y14593288D01*
X9271428Y14593288D02*
X8814285Y14136145D01*
X8814285Y14136145D02*
X9309523Y14136145D01*
X7885714Y11212336D02*
X7847618Y11174240D01*
X7847618Y11174240D02*
X7733333Y11136145D01*
X7733333Y11136145D02*
X7657142Y11136145D01*
X7657142Y11136145D02*
X7542856Y11174240D01*
X7542856Y11174240D02*
X7466666Y11250431D01*
X7466666Y11250431D02*
X7428571Y11326621D01*
X7428571Y11326621D02*
X7390475Y11479002D01*
X7390475Y11479002D02*
X7390475Y11593288D01*
X7390475Y11593288D02*
X7428571Y11745669D01*
X7428571Y11745669D02*
X7466666Y11821860D01*
X7466666Y11821860D02*
X7542856Y11898050D01*
X7542856Y11898050D02*
X7657142Y11936145D01*
X7657142Y11936145D02*
X7733333Y11936145D01*
X7733333Y11936145D02*
X7847618Y11898050D01*
X7847618Y11898050D02*
X7885714Y11859955D01*
X8190475Y11859955D02*
X8228571Y11898050D01*
X8228571Y11898050D02*
X8304761Y11936145D01*
X8304761Y11936145D02*
X8495237Y11936145D01*
X8495237Y11936145D02*
X8571428Y11898050D01*
X8571428Y11898050D02*
X8609523Y11859955D01*
X8609523Y11859955D02*
X8647618Y11783764D01*
X8647618Y11783764D02*
X8647618Y11707574D01*
X8647618Y11707574D02*
X8609523Y11593288D01*
X8609523Y11593288D02*
X8152380Y11136145D01*
X8152380Y11136145D02*
X8647618Y11136145D01*
X8914285Y11936145D02*
X9409523Y11936145D01*
X9409523Y11936145D02*
X9142857Y11631383D01*
X9142857Y11631383D02*
X9257142Y11631383D01*
X9257142Y11631383D02*
X9333333Y11593288D01*
X9333333Y11593288D02*
X9371428Y11555193D01*
X9371428Y11555193D02*
X9409523Y11479002D01*
X9409523Y11479002D02*
X9409523Y11288526D01*
X9409523Y11288526D02*
X9371428Y11212336D01*
X9371428Y11212336D02*
X9333333Y11174240D01*
X9333333Y11174240D02*
X9257142Y11136145D01*
X9257142Y11136145D02*
X9028571Y11136145D01*
X9028571Y11136145D02*
X8952380Y11174240D01*
X8952380Y11174240D02*
X8914285Y11212336D01*
X60863855Y12266668D02*
X60482902Y12000001D01*
X60863855Y11809525D02*
X60063855Y11809525D01*
X60063855Y11809525D02*
X60063855Y12114287D01*
X60063855Y12114287D02*
X60101950Y12190477D01*
X60101950Y12190477D02*
X60140045Y12228572D01*
X60140045Y12228572D02*
X60216236Y12266668D01*
X60216236Y12266668D02*
X60330521Y12266668D01*
X60330521Y12266668D02*
X60406712Y12228572D01*
X60406712Y12228572D02*
X60444807Y12190477D01*
X60444807Y12190477D02*
X60482902Y12114287D01*
X60482902Y12114287D02*
X60482902Y11809525D01*
X60063855Y12952382D02*
X60063855Y12800001D01*
X60063855Y12800001D02*
X60101950Y12723810D01*
X60101950Y12723810D02*
X60140045Y12685715D01*
X60140045Y12685715D02*
X60254331Y12609525D01*
X60254331Y12609525D02*
X60406712Y12571429D01*
X60406712Y12571429D02*
X60711474Y12571429D01*
X60711474Y12571429D02*
X60787664Y12609525D01*
X60787664Y12609525D02*
X60825760Y12647620D01*
X60825760Y12647620D02*
X60863855Y12723810D01*
X60863855Y12723810D02*
X60863855Y12876191D01*
X60863855Y12876191D02*
X60825760Y12952382D01*
X60825760Y12952382D02*
X60787664Y12990477D01*
X60787664Y12990477D02*
X60711474Y13028572D01*
X60711474Y13028572D02*
X60520998Y13028572D01*
X60520998Y13028572D02*
X60444807Y12990477D01*
X60444807Y12990477D02*
X60406712Y12952382D01*
X60406712Y12952382D02*
X60368617Y12876191D01*
X60368617Y12876191D02*
X60368617Y12723810D01*
X60368617Y12723810D02*
X60406712Y12647620D01*
X60406712Y12647620D02*
X60444807Y12609525D01*
X60444807Y12609525D02*
X60520998Y12571429D01*
X28185714Y22912336D02*
X28147618Y22874240D01*
X28147618Y22874240D02*
X28033333Y22836145D01*
X28033333Y22836145D02*
X27957142Y22836145D01*
X27957142Y22836145D02*
X27842856Y22874240D01*
X27842856Y22874240D02*
X27766666Y22950431D01*
X27766666Y22950431D02*
X27728571Y23026621D01*
X27728571Y23026621D02*
X27690475Y23179002D01*
X27690475Y23179002D02*
X27690475Y23293288D01*
X27690475Y23293288D02*
X27728571Y23445669D01*
X27728571Y23445669D02*
X27766666Y23521860D01*
X27766666Y23521860D02*
X27842856Y23598050D01*
X27842856Y23598050D02*
X27957142Y23636145D01*
X27957142Y23636145D02*
X28033333Y23636145D01*
X28033333Y23636145D02*
X28147618Y23598050D01*
X28147618Y23598050D02*
X28185714Y23559955D01*
X28947618Y22836145D02*
X28490475Y22836145D01*
X28719047Y22836145D02*
X28719047Y23636145D01*
X28719047Y23636145D02*
X28642856Y23521860D01*
X28642856Y23521860D02*
X28566666Y23445669D01*
X28566666Y23445669D02*
X28490475Y23407574D01*
X29709523Y22836145D02*
X29252380Y22836145D01*
X29480952Y22836145D02*
X29480952Y23636145D01*
X29480952Y23636145D02*
X29404761Y23521860D01*
X29404761Y23521860D02*
X29328571Y23445669D01*
X29328571Y23445669D02*
X29252380Y23407574D01*
X26087664Y19685715D02*
X26125760Y19647619D01*
X26125760Y19647619D02*
X26163855Y19533334D01*
X26163855Y19533334D02*
X26163855Y19457143D01*
X26163855Y19457143D02*
X26125760Y19342857D01*
X26125760Y19342857D02*
X26049569Y19266667D01*
X26049569Y19266667D02*
X25973379Y19228572D01*
X25973379Y19228572D02*
X25820998Y19190476D01*
X25820998Y19190476D02*
X25706712Y19190476D01*
X25706712Y19190476D02*
X25554331Y19228572D01*
X25554331Y19228572D02*
X25478140Y19266667D01*
X25478140Y19266667D02*
X25401950Y19342857D01*
X25401950Y19342857D02*
X25363855Y19457143D01*
X25363855Y19457143D02*
X25363855Y19533334D01*
X25363855Y19533334D02*
X25401950Y19647619D01*
X25401950Y19647619D02*
X25440045Y19685715D01*
X26163855Y20447619D02*
X26163855Y19990476D01*
X26163855Y20219048D02*
X25363855Y20219048D01*
X25363855Y20219048D02*
X25478140Y20142857D01*
X25478140Y20142857D02*
X25554331Y20066667D01*
X25554331Y20066667D02*
X25592426Y19990476D01*
X25706712Y20904762D02*
X25668617Y20828572D01*
X25668617Y20828572D02*
X25630521Y20790477D01*
X25630521Y20790477D02*
X25554331Y20752381D01*
X25554331Y20752381D02*
X25516236Y20752381D01*
X25516236Y20752381D02*
X25440045Y20790477D01*
X25440045Y20790477D02*
X25401950Y20828572D01*
X25401950Y20828572D02*
X25363855Y20904762D01*
X25363855Y20904762D02*
X25363855Y21057143D01*
X25363855Y21057143D02*
X25401950Y21133334D01*
X25401950Y21133334D02*
X25440045Y21171429D01*
X25440045Y21171429D02*
X25516236Y21209524D01*
X25516236Y21209524D02*
X25554331Y21209524D01*
X25554331Y21209524D02*
X25630521Y21171429D01*
X25630521Y21171429D02*
X25668617Y21133334D01*
X25668617Y21133334D02*
X25706712Y21057143D01*
X25706712Y21057143D02*
X25706712Y20904762D01*
X25706712Y20904762D02*
X25744807Y20828572D01*
X25744807Y20828572D02*
X25782902Y20790477D01*
X25782902Y20790477D02*
X25859093Y20752381D01*
X25859093Y20752381D02*
X26011474Y20752381D01*
X26011474Y20752381D02*
X26087664Y20790477D01*
X26087664Y20790477D02*
X26125760Y20828572D01*
X26125760Y20828572D02*
X26163855Y20904762D01*
X26163855Y20904762D02*
X26163855Y21057143D01*
X26163855Y21057143D02*
X26125760Y21133334D01*
X26125760Y21133334D02*
X26087664Y21171429D01*
X26087664Y21171429D02*
X26011474Y21209524D01*
X26011474Y21209524D02*
X25859093Y21209524D01*
X25859093Y21209524D02*
X25782902Y21171429D01*
X25782902Y21171429D02*
X25744807Y21133334D01*
X25744807Y21133334D02*
X25706712Y21057143D01*
X67233333Y8036145D02*
X67233333Y7464717D01*
X67233333Y7464717D02*
X67195238Y7350431D01*
X67195238Y7350431D02*
X67119047Y7274240D01*
X67119047Y7274240D02*
X67004762Y7236145D01*
X67004762Y7236145D02*
X66928571Y7236145D01*
X68033333Y7236145D02*
X67576190Y7236145D01*
X67804762Y7236145D02*
X67804762Y8036145D01*
X67804762Y8036145D02*
X67728571Y7921860D01*
X67728571Y7921860D02*
X67652381Y7845669D01*
X67652381Y7845669D02*
X67576190Y7807574D01*
X56709524Y12536145D02*
X56709524Y13336145D01*
X56709524Y13336145D02*
X56900000Y13336145D01*
X56900000Y13336145D02*
X57014286Y13298050D01*
X57014286Y13298050D02*
X57090476Y13221860D01*
X57090476Y13221860D02*
X57128571Y13145669D01*
X57128571Y13145669D02*
X57166667Y12993288D01*
X57166667Y12993288D02*
X57166667Y12879002D01*
X57166667Y12879002D02*
X57128571Y12726621D01*
X57128571Y12726621D02*
X57090476Y12650431D01*
X57090476Y12650431D02*
X57014286Y12574240D01*
X57014286Y12574240D02*
X56900000Y12536145D01*
X56900000Y12536145D02*
X56709524Y12536145D01*
X57928571Y12536145D02*
X57471428Y12536145D01*
X57700000Y12536145D02*
X57700000Y13336145D01*
X57700000Y13336145D02*
X57623809Y13221860D01*
X57623809Y13221860D02*
X57547619Y13145669D01*
X57547619Y13145669D02*
X57471428Y13107574D01*
X29828571Y15764717D02*
X30209524Y15764717D01*
X29752381Y15536145D02*
X30019048Y16336145D01*
X30019048Y16336145D02*
X30285714Y15536145D01*
X30514285Y16259955D02*
X30552381Y16298050D01*
X30552381Y16298050D02*
X30628571Y16336145D01*
X30628571Y16336145D02*
X30819047Y16336145D01*
X30819047Y16336145D02*
X30895238Y16298050D01*
X30895238Y16298050D02*
X30933333Y16259955D01*
X30933333Y16259955D02*
X30971428Y16183764D01*
X30971428Y16183764D02*
X30971428Y16107574D01*
X30971428Y16107574D02*
X30933333Y15993288D01*
X30933333Y15993288D02*
X30476190Y15536145D01*
X30476190Y15536145D02*
X30971428Y15536145D01*
X21937664Y7485715D02*
X21975760Y7447619D01*
X21975760Y7447619D02*
X22013855Y7333334D01*
X22013855Y7333334D02*
X22013855Y7257143D01*
X22013855Y7257143D02*
X21975760Y7142857D01*
X21975760Y7142857D02*
X21899569Y7066667D01*
X21899569Y7066667D02*
X21823379Y7028572D01*
X21823379Y7028572D02*
X21670998Y6990476D01*
X21670998Y6990476D02*
X21556712Y6990476D01*
X21556712Y6990476D02*
X21404331Y7028572D01*
X21404331Y7028572D02*
X21328140Y7066667D01*
X21328140Y7066667D02*
X21251950Y7142857D01*
X21251950Y7142857D02*
X21213855Y7257143D01*
X21213855Y7257143D02*
X21213855Y7333334D01*
X21213855Y7333334D02*
X21251950Y7447619D01*
X21251950Y7447619D02*
X21290045Y7485715D01*
X22013855Y8247619D02*
X22013855Y7790476D01*
X22013855Y8019048D02*
X21213855Y8019048D01*
X21213855Y8019048D02*
X21328140Y7942857D01*
X21328140Y7942857D02*
X21404331Y7866667D01*
X21404331Y7866667D02*
X21442426Y7790476D01*
X22013855Y8628572D02*
X22013855Y8780953D01*
X22013855Y8780953D02*
X21975760Y8857143D01*
X21975760Y8857143D02*
X21937664Y8895239D01*
X21937664Y8895239D02*
X21823379Y8971429D01*
X21823379Y8971429D02*
X21670998Y9009524D01*
X21670998Y9009524D02*
X21366236Y9009524D01*
X21366236Y9009524D02*
X21290045Y8971429D01*
X21290045Y8971429D02*
X21251950Y8933334D01*
X21251950Y8933334D02*
X21213855Y8857143D01*
X21213855Y8857143D02*
X21213855Y8704762D01*
X21213855Y8704762D02*
X21251950Y8628572D01*
X21251950Y8628572D02*
X21290045Y8590477D01*
X21290045Y8590477D02*
X21366236Y8552381D01*
X21366236Y8552381D02*
X21556712Y8552381D01*
X21556712Y8552381D02*
X21632902Y8590477D01*
X21632902Y8590477D02*
X21670998Y8628572D01*
X21670998Y8628572D02*
X21709093Y8704762D01*
X21709093Y8704762D02*
X21709093Y8857143D01*
X21709093Y8857143D02*
X21670998Y8933334D01*
X21670998Y8933334D02*
X21632902Y8971429D01*
X21632902Y8971429D02*
X21556712Y9009524D01*
X34587664Y6985715D02*
X34625760Y6947619D01*
X34625760Y6947619D02*
X34663855Y6833334D01*
X34663855Y6833334D02*
X34663855Y6757143D01*
X34663855Y6757143D02*
X34625760Y6642857D01*
X34625760Y6642857D02*
X34549569Y6566667D01*
X34549569Y6566667D02*
X34473379Y6528572D01*
X34473379Y6528572D02*
X34320998Y6490476D01*
X34320998Y6490476D02*
X34206712Y6490476D01*
X34206712Y6490476D02*
X34054331Y6528572D01*
X34054331Y6528572D02*
X33978140Y6566667D01*
X33978140Y6566667D02*
X33901950Y6642857D01*
X33901950Y6642857D02*
X33863855Y6757143D01*
X33863855Y6757143D02*
X33863855Y6833334D01*
X33863855Y6833334D02*
X33901950Y6947619D01*
X33901950Y6947619D02*
X33940045Y6985715D01*
X34663855Y7747619D02*
X34663855Y7290476D01*
X34663855Y7519048D02*
X33863855Y7519048D01*
X33863855Y7519048D02*
X33978140Y7442857D01*
X33978140Y7442857D02*
X34054331Y7366667D01*
X34054331Y7366667D02*
X34092426Y7290476D01*
X34130521Y8433334D02*
X34663855Y8433334D01*
X33825760Y8242858D02*
X34397188Y8052381D01*
X34397188Y8052381D02*
X34397188Y8547620D01*
X29987664Y19685715D02*
X30025760Y19647619D01*
X30025760Y19647619D02*
X30063855Y19533334D01*
X30063855Y19533334D02*
X30063855Y19457143D01*
X30063855Y19457143D02*
X30025760Y19342857D01*
X30025760Y19342857D02*
X29949569Y19266667D01*
X29949569Y19266667D02*
X29873379Y19228572D01*
X29873379Y19228572D02*
X29720998Y19190476D01*
X29720998Y19190476D02*
X29606712Y19190476D01*
X29606712Y19190476D02*
X29454331Y19228572D01*
X29454331Y19228572D02*
X29378140Y19266667D01*
X29378140Y19266667D02*
X29301950Y19342857D01*
X29301950Y19342857D02*
X29263855Y19457143D01*
X29263855Y19457143D02*
X29263855Y19533334D01*
X29263855Y19533334D02*
X29301950Y19647619D01*
X29301950Y19647619D02*
X29340045Y19685715D01*
X30063855Y20447619D02*
X30063855Y19990476D01*
X30063855Y20219048D02*
X29263855Y20219048D01*
X29263855Y20219048D02*
X29378140Y20142857D01*
X29378140Y20142857D02*
X29454331Y20066667D01*
X29454331Y20066667D02*
X29492426Y19990476D01*
X29263855Y20714286D02*
X29263855Y21247620D01*
X29263855Y21247620D02*
X30063855Y20904762D01*
X56733333Y8136145D02*
X56733333Y7564717D01*
X56733333Y7564717D02*
X56695238Y7450431D01*
X56695238Y7450431D02*
X56619047Y7374240D01*
X56619047Y7374240D02*
X56504762Y7336145D01*
X56504762Y7336145D02*
X56428571Y7336145D01*
X57076190Y8059955D02*
X57114286Y8098050D01*
X57114286Y8098050D02*
X57190476Y8136145D01*
X57190476Y8136145D02*
X57380952Y8136145D01*
X57380952Y8136145D02*
X57457143Y8098050D01*
X57457143Y8098050D02*
X57495238Y8059955D01*
X57495238Y8059955D02*
X57533333Y7983764D01*
X57533333Y7983764D02*
X57533333Y7907574D01*
X57533333Y7907574D02*
X57495238Y7793288D01*
X57495238Y7793288D02*
X57038095Y7336145D01*
X57038095Y7336145D02*
X57533333Y7336145D01*
X47363855Y35690477D02*
X48011474Y35690477D01*
X48011474Y35690477D02*
X48087664Y35728572D01*
X48087664Y35728572D02*
X48125760Y35766667D01*
X48125760Y35766667D02*
X48163855Y35842858D01*
X48163855Y35842858D02*
X48163855Y35995239D01*
X48163855Y35995239D02*
X48125760Y36071429D01*
X48125760Y36071429D02*
X48087664Y36109524D01*
X48087664Y36109524D02*
X48011474Y36147620D01*
X48011474Y36147620D02*
X47363855Y36147620D01*
X48163855Y36947619D02*
X48163855Y36490476D01*
X48163855Y36719048D02*
X47363855Y36719048D01*
X47363855Y36719048D02*
X47478140Y36642857D01*
X47478140Y36642857D02*
X47554331Y36566667D01*
X47554331Y36566667D02*
X47592426Y36490476D01*
X43266667Y7012336D02*
X43228571Y6974240D01*
X43228571Y6974240D02*
X43114286Y6936145D01*
X43114286Y6936145D02*
X43038095Y6936145D01*
X43038095Y6936145D02*
X42923809Y6974240D01*
X42923809Y6974240D02*
X42847619Y7050431D01*
X42847619Y7050431D02*
X42809524Y7126621D01*
X42809524Y7126621D02*
X42771428Y7279002D01*
X42771428Y7279002D02*
X42771428Y7393288D01*
X42771428Y7393288D02*
X42809524Y7545669D01*
X42809524Y7545669D02*
X42847619Y7621860D01*
X42847619Y7621860D02*
X42923809Y7698050D01*
X42923809Y7698050D02*
X43038095Y7736145D01*
X43038095Y7736145D02*
X43114286Y7736145D01*
X43114286Y7736145D02*
X43228571Y7698050D01*
X43228571Y7698050D02*
X43266667Y7659955D01*
X43647619Y6936145D02*
X43800000Y6936145D01*
X43800000Y6936145D02*
X43876190Y6974240D01*
X43876190Y6974240D02*
X43914286Y7012336D01*
X43914286Y7012336D02*
X43990476Y7126621D01*
X43990476Y7126621D02*
X44028571Y7279002D01*
X44028571Y7279002D02*
X44028571Y7583764D01*
X44028571Y7583764D02*
X43990476Y7659955D01*
X43990476Y7659955D02*
X43952381Y7698050D01*
X43952381Y7698050D02*
X43876190Y7736145D01*
X43876190Y7736145D02*
X43723809Y7736145D01*
X43723809Y7736145D02*
X43647619Y7698050D01*
X43647619Y7698050D02*
X43609524Y7659955D01*
X43609524Y7659955D02*
X43571428Y7583764D01*
X43571428Y7583764D02*
X43571428Y7393288D01*
X43571428Y7393288D02*
X43609524Y7317098D01*
X43609524Y7317098D02*
X43647619Y7279002D01*
X43647619Y7279002D02*
X43723809Y7240907D01*
X43723809Y7240907D02*
X43876190Y7240907D01*
X43876190Y7240907D02*
X43952381Y7279002D01*
X43952381Y7279002D02*
X43990476Y7317098D01*
X43990476Y7317098D02*
X44028571Y7393288D01*
X15059420Y13910000D02*
X15340580Y13910000D01*
X15059420Y12890000D02*
X15340580Y12890000D01*
X35677500Y27862742D02*
X35677500Y28337258D01*
X36722500Y27862742D02*
X36722500Y28337258D01*
X41477500Y13962742D02*
X41477500Y14437258D01*
X42522500Y13962742D02*
X42522500Y14437258D01*
X19990000Y21550000D02*
X21850000Y21550000D01*
X20050000Y18250000D02*
X21850000Y18250000D01*
X21850000Y21550000D02*
X21850000Y20500000D01*
X21850000Y18250000D02*
X21850000Y19300000D01*
X19540000Y21511676D02*
X19300000Y21841676D01*
X19780000Y21841676D01*
X19540000Y21511676D01*
G36*
X19540000Y21511676D02*
G01*
X19300000Y21841676D01*
X19780000Y21841676D01*
X19540000Y21511676D01*
G37*
D11*
X46900000Y11300000D02*
X46900000Y11300000D01*
X46900000Y11300000D02*
X46900000Y11300000D01*
X47000000Y11300000D02*
X47000000Y11300000D01*
X48250000Y12750000D02*
X49400000Y12750000D01*
X48250000Y12500000D02*
X48250000Y12750000D01*
X48250000Y10100000D02*
X48250000Y9850000D01*
X48250000Y9850000D02*
X49400000Y9850000D01*
X51000000Y12750000D02*
X52150000Y12750000D01*
X52150000Y12750000D02*
X52150000Y12500000D01*
X52150000Y10100000D02*
X52150000Y9850000D01*
X52150000Y9850000D02*
X51000000Y9850000D01*
X46900000Y11300000D02*
G75*
G02*
X47000000Y11300000I50000J0D01*
G01*
X47000000Y11300000D02*
G75*
G02*
X46900000Y11300000I-50000J0D01*
G01*
X47000000Y11300000D02*
G75*
G02*
X46900000Y11300000I-50000J0D01*
G01*
X31550000Y31650000D02*
X31800000Y31650000D01*
X31550000Y30500000D02*
X31550000Y31650000D01*
X31550000Y27750000D02*
X31550000Y28900000D01*
X31800000Y27750000D02*
X31550000Y27750000D01*
X33000000Y26500000D02*
X33000000Y26500000D01*
X33000000Y26400000D02*
X33000000Y26400000D01*
X33000000Y26400000D02*
X33000000Y26400000D01*
X34200000Y31650000D02*
X34450000Y31650000D01*
X34200000Y27750000D02*
X34450000Y27750000D01*
X34450000Y31650000D02*
X34450000Y30500000D01*
X34450000Y27750000D02*
X34450000Y28900000D01*
X33000000Y26500000D02*
G75*
G02*
X33000000Y26400000I0J-50000D01*
G01*
X33000000Y26500000D02*
G75*
G02*
X33000000Y26400000I0J-50000D01*
G01*
X33000000Y26400000D02*
G75*
G02*
X33000000Y26500000I0J50000D01*
G01*
D10*
X14359420Y10910000D02*
X14640580Y10910000D01*
X14359420Y9890000D02*
X14640580Y9890000D01*
X23437258Y41322500D02*
X22962742Y41322500D01*
X23437258Y40277500D02*
X22962742Y40277500D01*
X19990000Y17550000D02*
X21850000Y17550000D01*
X20050000Y14250000D02*
X21850000Y14250000D01*
X21850000Y17550000D02*
X21850000Y16500000D01*
X21850000Y14250000D02*
X21850000Y15300000D01*
X19540000Y17511676D02*
X19300000Y17841676D01*
X19780000Y17841676D01*
X19540000Y17511676D01*
G36*
X19540000Y17511676D02*
G01*
X19300000Y17841676D01*
X19780000Y17841676D01*
X19540000Y17511676D01*
G37*
D11*
X27950000Y31650000D02*
X28200000Y31650000D01*
X27950000Y30500000D02*
X27950000Y31650000D01*
X27950000Y27750000D02*
X27950000Y28900000D01*
X28200000Y27750000D02*
X27950000Y27750000D01*
X29400000Y26500000D02*
X29400000Y26500000D01*
X29400000Y26400000D02*
X29400000Y26400000D01*
X29400000Y26400000D02*
X29400000Y26400000D01*
X30600000Y31650000D02*
X30850000Y31650000D01*
X30600000Y27750000D02*
X30850000Y27750000D01*
X30850000Y31650000D02*
X30850000Y30500000D01*
X30850000Y27750000D02*
X30850000Y28900000D01*
X29400000Y26500000D02*
G75*
G02*
X29400000Y26400000I0J-50000D01*
G01*
X29400000Y26500000D02*
G75*
G02*
X29400000Y26400000I0J-50000D01*
G01*
X29400000Y26400000D02*
G75*
G02*
X29400000Y26500000I0J50000D01*
G01*
D10*
X58377500Y10062742D02*
X58377500Y10537258D01*
X59422500Y10062742D02*
X59422500Y10537258D01*
X30690000Y18640580D02*
X30690000Y18359420D01*
X31710000Y18640580D02*
X31710000Y18359420D01*
D11*
X31450000Y41205000D02*
X36950000Y41205000D01*
X31450000Y34995000D02*
X31450000Y41205000D01*
X36950000Y41205000D02*
X36950000Y34995000D01*
X36950000Y34995000D02*
X31450000Y34995000D01*
X38725000Y35470000D02*
X37300000Y35470000D01*
D10*
X45459420Y6110000D02*
X45740580Y6110000D01*
X45459420Y5090000D02*
X45740580Y5090000D01*
X3590000Y25259420D02*
X3590000Y25540580D01*
X4610000Y25259420D02*
X4610000Y25540580D01*
X15959420Y23110000D02*
X16240580Y23110000D01*
X15959420Y22090000D02*
X16240580Y22090000D01*
X24790000Y6859420D02*
X24790000Y7140580D01*
X25810000Y6859420D02*
X25810000Y7140580D01*
D14*
X72197873Y28815551D02*
X72254300Y28769225D01*
X72289788Y28704886D01*
X72300393Y28633064D01*
X72282175Y28564288D01*
X72242728Y28517369D01*
X72166181Y28479902D01*
X72087968Y28478465D01*
X72017721Y28508406D01*
X71965071Y28565072D01*
X71939649Y28643811D01*
X71938666Y28664236D01*
X71956702Y28718271D01*
X72001947Y28772519D01*
X72061107Y28814881D01*
X72120889Y28833257D01*
X72124447Y28833333D01*
X72197873Y28815551D01*
G36*
X72197873Y28815551D02*
G01*
X72254300Y28769225D01*
X72289788Y28704886D01*
X72300393Y28633064D01*
X72282175Y28564288D01*
X72242728Y28517369D01*
X72166181Y28479902D01*
X72087968Y28478465D01*
X72017721Y28508406D01*
X71965071Y28565072D01*
X71939649Y28643811D01*
X71938666Y28664236D01*
X71956702Y28718271D01*
X72001947Y28772519D01*
X72061107Y28814881D01*
X72120889Y28833257D01*
X72124447Y28833333D01*
X72197873Y28815551D01*
G37*
X70933843Y21528049D02*
X70995832Y21520270D01*
X71087143Y21508356D01*
X71201474Y21493168D01*
X71332521Y21475565D01*
X71473983Y21456408D01*
X71619557Y21436556D01*
X71762942Y21416871D01*
X71897834Y21398211D01*
X72017931Y21381437D01*
X72116931Y21367409D01*
X72188531Y21356987D01*
X72226430Y21351031D01*
X72229708Y21350386D01*
X72254779Y21341096D01*
X72269088Y21320966D01*
X72275607Y21280096D01*
X72277309Y21208589D01*
X72277333Y21191763D01*
X72274563Y21106280D01*
X72265759Y21058670D01*
X72250875Y21044767D01*
X72220823Y21047860D01*
X72157718Y21055759D01*
X72070417Y21067314D01*
X71967778Y21081377D01*
X71953820Y21083322D01*
X71683224Y21121110D01*
X71689237Y20919462D01*
X71695250Y20717813D01*
X71959833Y20680719D01*
X72062651Y20666518D01*
X72151248Y20654679D01*
X72216642Y20646376D01*
X72249850Y20642780D01*
X72250875Y20642729D01*
X72266005Y20626452D01*
X72274597Y20576207D01*
X72277333Y20487984D01*
X72277333Y20332649D01*
X71689958Y20412497D01*
X71533372Y20434596D01*
X71387428Y20456728D01*
X71258316Y20477834D01*
X71152231Y20496854D01*
X71075365Y20512729D01*
X71033910Y20524399D01*
X71032621Y20524971D01*
X70967238Y20577064D01*
X70921344Y20657076D01*
X70901758Y20752535D01*
X70901500Y20764827D01*
X70901500Y20825681D01*
X71097291Y20798002D01*
X71213504Y20781137D01*
X71294021Y20771559D01*
X71345333Y20773019D01*
X71373930Y20789265D01*
X71386303Y20824047D01*
X71388940Y20881117D01*
X71388333Y20964224D01*
X71388333Y21163504D01*
X71216319Y21186214D01*
X71092115Y21210979D01*
X71003849Y21250019D01*
X70946366Y21307450D01*
X70914508Y21387387D01*
X70907020Y21433008D01*
X70902747Y21490496D01*
X70904387Y21525671D01*
X70907478Y21530833D01*
X70933843Y21528049D01*
G36*
X70933843Y21528049D02*
G01*
X70995832Y21520270D01*
X71087143Y21508356D01*
X71201474Y21493168D01*
X71332521Y21475565D01*
X71473983Y21456408D01*
X71619557Y21436556D01*
X71762942Y21416871D01*
X71897834Y21398211D01*
X72017931Y21381437D01*
X72116931Y21367409D01*
X72188531Y21356987D01*
X72226430Y21351031D01*
X72229708Y21350386D01*
X72254779Y21341096D01*
X72269088Y21320966D01*
X72275607Y21280096D01*
X72277309Y21208589D01*
X72277333Y21191763D01*
X72274563Y21106280D01*
X72265759Y21058670D01*
X72250875Y21044767D01*
X72220823Y21047860D01*
X72157718Y21055759D01*
X72070417Y21067314D01*
X71967778Y21081377D01*
X71953820Y21083322D01*
X71683224Y21121110D01*
X71689237Y20919462D01*
X71695250Y20717813D01*
X71959833Y20680719D01*
X72062651Y20666518D01*
X72151248Y20654679D01*
X72216642Y20646376D01*
X72249850Y20642780D01*
X72250875Y20642729D01*
X72266005Y20626452D01*
X72274597Y20576207D01*
X72277333Y20487984D01*
X72277333Y20332649D01*
X71689958Y20412497D01*
X71533372Y20434596D01*
X71387428Y20456728D01*
X71258316Y20477834D01*
X71152231Y20496854D01*
X71075365Y20512729D01*
X71033910Y20524399D01*
X71032621Y20524971D01*
X70967238Y20577064D01*
X70921344Y20657076D01*
X70901758Y20752535D01*
X70901500Y20764827D01*
X70901500Y20825681D01*
X71097291Y20798002D01*
X71213504Y20781137D01*
X71294021Y20771559D01*
X71345333Y20773019D01*
X71373930Y20789265D01*
X71386303Y20824047D01*
X71388940Y20881117D01*
X71388333Y20964224D01*
X71388333Y21163504D01*
X71216319Y21186214D01*
X71092115Y21210979D01*
X71003849Y21250019D01*
X70946366Y21307450D01*
X70914508Y21387387D01*
X70907020Y21433008D01*
X70902747Y21490496D01*
X70904387Y21525671D01*
X70907478Y21530833D01*
X70933843Y21528049D01*
G37*
X71660663Y30175654D02*
X71735679Y30168910D01*
X71796983Y30154618D01*
X71858846Y30130316D01*
X71876132Y30122359D01*
X72017666Y30039996D01*
X72125363Y29939409D01*
X72206035Y29814199D01*
X72207693Y29810843D01*
X72229201Y29765149D01*
X72244914Y29723636D01*
X72255909Y29678362D01*
X72263263Y29621384D01*
X72268053Y29544761D01*
X72271358Y29440551D01*
X72273821Y29323385D01*
X72280893Y28956187D01*
X72220905Y28968301D01*
X72184422Y28974224D01*
X72112125Y28984753D01*
X72010179Y28999033D01*
X71955159Y29006568D01*
X71884748Y29016213D01*
X71741999Y29035438D01*
X71589416Y29055683D01*
X71435542Y29076098D01*
X71292836Y29095316D01*
X71167472Y29112481D01*
X71065625Y29126741D01*
X70993466Y29137241D01*
X70957321Y29143098D01*
X70896726Y29155245D01*
X70907339Y29433497D01*
X70912296Y29524062D01*
X71197833Y29524062D01*
X71200781Y29462789D01*
X71213249Y29431370D01*
X71240669Y29417524D01*
X71245458Y29416408D01*
X71283382Y29409844D01*
X71352537Y29399395D01*
X71443906Y29386284D01*
X71548470Y29371735D01*
X71657213Y29356969D01*
X71761116Y29343210D01*
X71851162Y29331681D01*
X71918333Y29323604D01*
X71953613Y29320202D01*
X71955159Y29320166D01*
X71970416Y29339105D01*
X71978968Y29388119D01*
X71980936Y29455503D01*
X71976438Y29529552D01*
X71965595Y29598561D01*
X71951856Y29643638D01*
X71898911Y29727341D01*
X71822366Y29801141D01*
X71741497Y29847986D01*
X71651897Y29867209D01*
X71545497Y29869147D01*
X71442131Y29854745D01*
X71371448Y29830351D01*
X71289404Y29766112D01*
X71230234Y29674062D01*
X71200259Y29565353D01*
X71197833Y29524062D01*
X70912296Y29524062D01*
X70913490Y29545878D01*
X70922555Y29650221D01*
X70933351Y29735374D01*
X70944691Y29790184D01*
X70945524Y29792744D01*
X70993868Y29886433D01*
X71070966Y29981851D01*
X71165584Y30066841D01*
X71248139Y30120108D01*
X71305674Y30147771D01*
X71358872Y30164823D01*
X71421161Y30173746D01*
X71505970Y30177020D01*
X71557666Y30177314D01*
X71660663Y30175654D01*
G36*
X71660663Y30175654D02*
G01*
X71735679Y30168910D01*
X71796983Y30154618D01*
X71858846Y30130316D01*
X71876132Y30122359D01*
X72017666Y30039996D01*
X72125363Y29939409D01*
X72206035Y29814199D01*
X72207693Y29810843D01*
X72229201Y29765149D01*
X72244914Y29723636D01*
X72255909Y29678362D01*
X72263263Y29621384D01*
X72268053Y29544761D01*
X72271358Y29440551D01*
X72273821Y29323385D01*
X72280893Y28956187D01*
X72220905Y28968301D01*
X72184422Y28974224D01*
X72112125Y28984753D01*
X72010179Y28999033D01*
X71955159Y29006568D01*
X71884748Y29016213D01*
X71741999Y29035438D01*
X71589416Y29055683D01*
X71435542Y29076098D01*
X71292836Y29095316D01*
X71167472Y29112481D01*
X71065625Y29126741D01*
X70993466Y29137241D01*
X70957321Y29143098D01*
X70896726Y29155245D01*
X70907339Y29433497D01*
X70912296Y29524062D01*
X71197833Y29524062D01*
X71200781Y29462789D01*
X71213249Y29431370D01*
X71240669Y29417524D01*
X71245458Y29416408D01*
X71283382Y29409844D01*
X71352537Y29399395D01*
X71443906Y29386284D01*
X71548470Y29371735D01*
X71657213Y29356969D01*
X71761116Y29343210D01*
X71851162Y29331681D01*
X71918333Y29323604D01*
X71953613Y29320202D01*
X71955159Y29320166D01*
X71970416Y29339105D01*
X71978968Y29388119D01*
X71980936Y29455503D01*
X71976438Y29529552D01*
X71965595Y29598561D01*
X71951856Y29643638D01*
X71898911Y29727341D01*
X71822366Y29801141D01*
X71741497Y29847986D01*
X71651897Y29867209D01*
X71545497Y29869147D01*
X71442131Y29854745D01*
X71371448Y29830351D01*
X71289404Y29766112D01*
X71230234Y29674062D01*
X71200259Y29565353D01*
X71197833Y29524062D01*
X70912296Y29524062D01*
X70913490Y29545878D01*
X70922555Y29650221D01*
X70933351Y29735374D01*
X70944691Y29790184D01*
X70945524Y29792744D01*
X70993868Y29886433D01*
X71070966Y29981851D01*
X71165584Y30066841D01*
X71248139Y30120108D01*
X71305674Y30147771D01*
X71358872Y30164823D01*
X71421161Y30173746D01*
X71505970Y30177020D01*
X71557666Y30177314D01*
X71660663Y30175654D01*
G37*
X70953849Y20060739D02*
X71010903Y20044187D01*
X71091981Y20014306D01*
X71190032Y19973631D01*
X71264625Y19940265D01*
X71405500Y19875410D01*
X71448792Y19639496D01*
X71511046Y19269732D01*
X71565081Y18887023D01*
X71609228Y18505397D01*
X71641823Y18138882D01*
X71657819Y17879583D01*
X71663643Y17765692D01*
X71668605Y17690486D01*
X71673305Y17650341D01*
X71678347Y17641634D01*
X71684332Y17660742D01*
X71689464Y17689083D01*
X71695119Y17743262D01*
X71700511Y17831196D01*
X71705282Y17944307D01*
X71709076Y18074015D01*
X71711534Y18211743D01*
X71711647Y18221469D01*
X71716416Y18648022D01*
X71811666Y18708279D01*
X71911701Y18783197D01*
X72015483Y18880307D01*
X72110569Y18986569D01*
X72184515Y19088942D01*
X72199549Y19114787D01*
X72259314Y19224595D01*
X72124059Y19150250D01*
X72042055Y19108739D01*
X71950128Y19067730D01*
X71859451Y19031601D01*
X71781195Y19004731D01*
X71726529Y18991499D01*
X71717373Y18990833D01*
X71704225Y19011541D01*
X71690522Y19071856D01*
X71676779Y19169067D01*
X71668130Y19250125D01*
X71655911Y19365465D01*
X71643116Y19451108D01*
X71626553Y19519611D01*
X71603028Y19583528D01*
X71569348Y19655416D01*
X71560632Y19672808D01*
X71522269Y19750577D01*
X71502447Y19796823D01*
X71499628Y19817291D01*
X71512276Y19817728D01*
X71523231Y19812592D01*
X71578782Y19779719D01*
X71659223Y19727352D01*
X71755775Y19661657D01*
X71859658Y19588802D01*
X71962092Y19514953D01*
X72054300Y19446278D01*
X72127501Y19388944D01*
X72134458Y19383229D01*
X72277333Y19265068D01*
X72274292Y18699326D01*
X72272759Y18530943D01*
X72270078Y18360449D01*
X72266481Y18197328D01*
X72262197Y18051063D01*
X72257459Y17931139D01*
X72254064Y17869000D01*
X72242368Y17703203D01*
X72228433Y17528970D01*
X72212887Y17352278D01*
X72196358Y17179104D01*
X72179474Y17015425D01*
X72162864Y16867218D01*
X72147157Y16740460D01*
X72132979Y16641129D01*
X72120961Y16575201D01*
X72116188Y16557310D01*
X72101571Y16555866D01*
X72072385Y16591670D01*
X72029758Y16662654D01*
X71974814Y16766750D01*
X71908681Y16901890D01*
X71832483Y17066004D01*
X71799684Y17138750D01*
X71556565Y17728040D01*
X71340101Y18349506D01*
X71150632Y19002162D01*
X71123397Y19107250D01*
X71090269Y19241094D01*
X71057066Y19382348D01*
X71025051Y19524858D01*
X70995483Y19662472D01*
X70969624Y19789038D01*
X70948733Y19898401D01*
X70934073Y19984411D01*
X70926904Y20040914D01*
X70927870Y20061425D01*
X70953849Y20060739D01*
G36*
X70953849Y20060739D02*
G01*
X71010903Y20044187D01*
X71091981Y20014306D01*
X71190032Y19973631D01*
X71264625Y19940265D01*
X71405500Y19875410D01*
X71448792Y19639496D01*
X71511046Y19269732D01*
X71565081Y18887023D01*
X71609228Y18505397D01*
X71641823Y18138882D01*
X71657819Y17879583D01*
X71663643Y17765692D01*
X71668605Y17690486D01*
X71673305Y17650341D01*
X71678347Y17641634D01*
X71684332Y17660742D01*
X71689464Y17689083D01*
X71695119Y17743262D01*
X71700511Y17831196D01*
X71705282Y17944307D01*
X71709076Y18074015D01*
X71711534Y18211743D01*
X71711647Y18221469D01*
X71716416Y18648022D01*
X71811666Y18708279D01*
X71911701Y18783197D01*
X72015483Y18880307D01*
X72110569Y18986569D01*
X72184515Y19088942D01*
X72199549Y19114787D01*
X72259314Y19224595D01*
X72124059Y19150250D01*
X72042055Y19108739D01*
X71950128Y19067730D01*
X71859451Y19031601D01*
X71781195Y19004731D01*
X71726529Y18991499D01*
X71717373Y18990833D01*
X71704225Y19011541D01*
X71690522Y19071856D01*
X71676779Y19169067D01*
X71668130Y19250125D01*
X71655911Y19365465D01*
X71643116Y19451108D01*
X71626553Y19519611D01*
X71603028Y19583528D01*
X71569348Y19655416D01*
X71560632Y19672808D01*
X71522269Y19750577D01*
X71502447Y19796823D01*
X71499628Y19817291D01*
X71512276Y19817728D01*
X71523231Y19812592D01*
X71578782Y19779719D01*
X71659223Y19727352D01*
X71755775Y19661657D01*
X71859658Y19588802D01*
X71962092Y19514953D01*
X72054300Y19446278D01*
X72127501Y19388944D01*
X72134458Y19383229D01*
X72277333Y19265068D01*
X72274292Y18699326D01*
X72272759Y18530943D01*
X72270078Y18360449D01*
X72266481Y18197328D01*
X72262197Y18051063D01*
X72257459Y17931139D01*
X72254064Y17869000D01*
X72242368Y17703203D01*
X72228433Y17528970D01*
X72212887Y17352278D01*
X72196358Y17179104D01*
X72179474Y17015425D01*
X72162864Y16867218D01*
X72147157Y16740460D01*
X72132979Y16641129D01*
X72120961Y16575201D01*
X72116188Y16557310D01*
X72101571Y16555866D01*
X72072385Y16591670D01*
X72029758Y16662654D01*
X71974814Y16766750D01*
X71908681Y16901890D01*
X71832483Y17066004D01*
X71799684Y17138750D01*
X71556565Y17728040D01*
X71340101Y18349506D01*
X71150632Y19002162D01*
X71123397Y19107250D01*
X71090269Y19241094D01*
X71057066Y19382348D01*
X71025051Y19524858D01*
X70995483Y19662472D01*
X70969624Y19789038D01*
X70948733Y19898401D01*
X70934073Y19984411D01*
X70926904Y20040914D01*
X70927870Y20061425D01*
X70953849Y20060739D01*
G37*
X72272019Y32645195D02*
X72275935Y32594717D01*
X72277333Y32527911D01*
X72277333Y32391323D01*
X72197958Y32369279D01*
X72139741Y32354872D01*
X72097189Y32347403D01*
X72092125Y32347118D01*
X72078219Y32333139D01*
X72069731Y32288238D01*
X72065987Y32207743D01*
X72065666Y32163822D01*
X72065666Y31980644D01*
X72149855Y31908582D01*
X72228293Y31816562D01*
X72269666Y31709383D01*
X72273791Y31613305D01*
X72266750Y31546361D01*
X72080167Y31649659D01*
X71983262Y31702883D01*
X71865287Y31767046D01*
X71773219Y31816749D01*
X71742588Y31833286D01*
X71651542Y31882066D01*
X71409500Y32011175D01*
X71409500Y31593551D01*
X71811333Y31539227D01*
X71938752Y31520876D01*
X72052946Y31502306D01*
X72146782Y31484849D01*
X72213126Y31469835D01*
X72244842Y31458595D01*
X72245249Y31458276D01*
X72258157Y31440009D01*
X72267221Y31405940D01*
X72273038Y31349750D01*
X72276201Y31265122D01*
X72277306Y31145737D01*
X72277333Y31117736D01*
X72277333Y30803823D01*
X72197958Y30781779D01*
X72139741Y30767372D01*
X72097189Y30759903D01*
X72092125Y30759618D01*
X72078422Y30745880D01*
X72069964Y30701666D01*
X72066091Y30622254D01*
X72065666Y30570441D01*
X72066206Y30480213D01*
X72069734Y30422076D01*
X72079113Y30385791D01*
X72097204Y30361114D01*
X72126870Y30337807D01*
X72131633Y30334410D01*
X72197879Y30265346D01*
X72248159Y30170985D01*
X72274659Y30067572D01*
X72276868Y30032530D01*
X72277333Y29951144D01*
X72187375Y30002774D01*
X72141044Y30028683D01*
X72064747Y30070571D01*
X71965840Y30124435D01*
X71851675Y30186271D01*
X71773219Y30228566D01*
X71729608Y30252077D01*
X71712715Y30261158D01*
X71591585Y30327695D01*
X71479160Y30392122D01*
X71382386Y30450248D01*
X71308214Y30497883D01*
X71263592Y30530835D01*
X71259796Y30534331D01*
X71202524Y30603087D01*
X71186401Y30631222D01*
X71634960Y30631222D01*
X71646996Y30609980D01*
X71677364Y30587814D01*
X71737519Y30554791D01*
X71773219Y30553739D01*
X71788844Y30585633D01*
X71790500Y30613015D01*
X71787417Y30656651D01*
X71769582Y30670484D01*
X71724115Y30663957D01*
X71721708Y30663442D01*
X71658850Y30647313D01*
X71634960Y30631222D01*
X71186401Y30631222D01*
X71158361Y30680154D01*
X71135691Y30749995D01*
X71134333Y30766869D01*
X71148865Y30781361D01*
X71194157Y30800909D01*
X71272750Y30826316D01*
X71387184Y30858389D01*
X71540002Y30897932D01*
X71578833Y30907666D01*
X72023333Y31018567D01*
X72023333Y31120185D01*
X72021170Y31182092D01*
X72010413Y31214190D01*
X71984659Y31228951D01*
X71965125Y31233531D01*
X71927416Y31239874D01*
X71860728Y31249962D01*
X71775191Y31262379D01*
X71680934Y31275709D01*
X71588089Y31288535D01*
X71506784Y31299442D01*
X71447149Y31307014D01*
X71419355Y31309833D01*
X71414001Y31290664D01*
X71410422Y31241133D01*
X71409500Y31191152D01*
X71407684Y31123658D01*
X71400514Y31090234D01*
X71385404Y31082706D01*
X71376018Y31085318D01*
X71328418Y31095580D01*
X71290390Y31098166D01*
X71239638Y31112765D01*
X71188346Y31148101D01*
X71186287Y31150121D01*
X71134333Y31202075D01*
X71134333Y32218722D01*
X71634960Y32218722D01*
X71646996Y32197480D01*
X71677364Y32175314D01*
X71737519Y32142291D01*
X71773219Y32141239D01*
X71788844Y32173133D01*
X71790500Y32200515D01*
X71787417Y32244151D01*
X71769582Y32257984D01*
X71724115Y32251457D01*
X71721708Y32250942D01*
X71658850Y32234813D01*
X71634960Y32218722D01*
X71134333Y32218722D01*
X71134333Y32384058D01*
X71694968Y32524279D01*
X71842565Y32561099D01*
X71976401Y32594303D01*
X72091081Y32622567D01*
X72181209Y32644568D01*
X72241388Y32658980D01*
X72266223Y32664482D01*
X72266468Y32664500D01*
X72272019Y32645195D01*
G36*
X72272019Y32645195D02*
G01*
X72275935Y32594717D01*
X72277333Y32527911D01*
X72277333Y32391323D01*
X72197958Y32369279D01*
X72139741Y32354872D01*
X72097189Y32347403D01*
X72092125Y32347118D01*
X72078219Y32333139D01*
X72069731Y32288238D01*
X72065987Y32207743D01*
X72065666Y32163822D01*
X72065666Y31980644D01*
X72149855Y31908582D01*
X72228293Y31816562D01*
X72269666Y31709383D01*
X72273791Y31613305D01*
X72266750Y31546361D01*
X72080167Y31649659D01*
X71983262Y31702883D01*
X71865287Y31767046D01*
X71773219Y31816749D01*
X71742588Y31833286D01*
X71651542Y31882066D01*
X71409500Y32011175D01*
X71409500Y31593551D01*
X71811333Y31539227D01*
X71938752Y31520876D01*
X72052946Y31502306D01*
X72146782Y31484849D01*
X72213126Y31469835D01*
X72244842Y31458595D01*
X72245249Y31458276D01*
X72258157Y31440009D01*
X72267221Y31405940D01*
X72273038Y31349750D01*
X72276201Y31265122D01*
X72277306Y31145737D01*
X72277333Y31117736D01*
X72277333Y30803823D01*
X72197958Y30781779D01*
X72139741Y30767372D01*
X72097189Y30759903D01*
X72092125Y30759618D01*
X72078422Y30745880D01*
X72069964Y30701666D01*
X72066091Y30622254D01*
X72065666Y30570441D01*
X72066206Y30480213D01*
X72069734Y30422076D01*
X72079113Y30385791D01*
X72097204Y30361114D01*
X72126870Y30337807D01*
X72131633Y30334410D01*
X72197879Y30265346D01*
X72248159Y30170985D01*
X72274659Y30067572D01*
X72276868Y30032530D01*
X72277333Y29951144D01*
X72187375Y30002774D01*
X72141044Y30028683D01*
X72064747Y30070571D01*
X71965840Y30124435D01*
X71851675Y30186271D01*
X71773219Y30228566D01*
X71729608Y30252077D01*
X71712715Y30261158D01*
X71591585Y30327695D01*
X71479160Y30392122D01*
X71382386Y30450248D01*
X71308214Y30497883D01*
X71263592Y30530835D01*
X71259796Y30534331D01*
X71202524Y30603087D01*
X71186401Y30631222D01*
X71634960Y30631222D01*
X71646996Y30609980D01*
X71677364Y30587814D01*
X71737519Y30554791D01*
X71773219Y30553739D01*
X71788844Y30585633D01*
X71790500Y30613015D01*
X71787417Y30656651D01*
X71769582Y30670484D01*
X71724115Y30663957D01*
X71721708Y30663442D01*
X71658850Y30647313D01*
X71634960Y30631222D01*
X71186401Y30631222D01*
X71158361Y30680154D01*
X71135691Y30749995D01*
X71134333Y30766869D01*
X71148865Y30781361D01*
X71194157Y30800909D01*
X71272750Y30826316D01*
X71387184Y30858389D01*
X71540002Y30897932D01*
X71578833Y30907666D01*
X72023333Y31018567D01*
X72023333Y31120185D01*
X72021170Y31182092D01*
X72010413Y31214190D01*
X71984659Y31228951D01*
X71965125Y31233531D01*
X71927416Y31239874D01*
X71860728Y31249962D01*
X71775191Y31262379D01*
X71680934Y31275709D01*
X71588089Y31288535D01*
X71506784Y31299442D01*
X71447149Y31307014D01*
X71419355Y31309833D01*
X71414001Y31290664D01*
X71410422Y31241133D01*
X71409500Y31191152D01*
X71407684Y31123658D01*
X71400514Y31090234D01*
X71385404Y31082706D01*
X71376018Y31085318D01*
X71328418Y31095580D01*
X71290390Y31098166D01*
X71239638Y31112765D01*
X71188346Y31148101D01*
X71186287Y31150121D01*
X71134333Y31202075D01*
X71134333Y32218722D01*
X71634960Y32218722D01*
X71646996Y32197480D01*
X71677364Y32175314D01*
X71737519Y32142291D01*
X71773219Y32141239D01*
X71788844Y32173133D01*
X71790500Y32200515D01*
X71787417Y32244151D01*
X71769582Y32257984D01*
X71724115Y32251457D01*
X71721708Y32250942D01*
X71658850Y32234813D01*
X71634960Y32218722D01*
X71134333Y32218722D01*
X71134333Y32384058D01*
X71694968Y32524279D01*
X71842565Y32561099D01*
X71976401Y32594303D01*
X72091081Y32622567D01*
X72181209Y32644568D01*
X72241388Y32658980D01*
X72266223Y32664482D01*
X72266468Y32664500D01*
X72272019Y32645195D01*
G37*
X71785527Y28470297D02*
X71858669Y28457520D01*
X71931480Y28430418D01*
X71977914Y28408200D01*
X72078351Y28348945D01*
X72154936Y28280347D01*
X72210379Y28196355D01*
X72247393Y28090916D01*
X72268687Y27957979D01*
X72276974Y27791492D01*
X72277333Y27739885D01*
X72276891Y27630757D01*
X72274855Y27557067D01*
X72270154Y27511921D01*
X72261722Y27488427D01*
X72248489Y27479693D01*
X72236842Y27478666D01*
X72203550Y27481463D01*
X72135840Y27489230D01*
X72041213Y27501035D01*
X71953423Y27512511D01*
X71927170Y27515944D01*
X71811666Y27531583D01*
X71689135Y27548376D01*
X71581765Y27562972D01*
X71496311Y27574463D01*
X71439526Y27581940D01*
X71418241Y27584500D01*
X71411964Y27566146D01*
X71409499Y27524463D01*
X71409499Y27464426D01*
X71764041Y27417187D01*
X71888225Y27400566D01*
X72003453Y27385006D01*
X72100694Y27371738D01*
X72170918Y27361991D01*
X72197958Y27358102D01*
X72277333Y27346256D01*
X72277149Y27108250D01*
X72007366Y26966474D01*
X71878963Y26899062D01*
X71785947Y26848956D01*
X71726586Y26813111D01*
X71699145Y26788480D01*
X71701892Y26772018D01*
X71733093Y26760679D01*
X71791016Y26751417D01*
X71873926Y26741186D01*
X71878824Y26740579D01*
X72016861Y26719947D01*
X72118262Y26695969D01*
X72188710Y26666485D01*
X72233886Y26629335D01*
X72253233Y26598233D01*
X72264747Y26553308D01*
X72272655Y26483684D01*
X72277007Y26399308D01*
X72277848Y26310128D01*
X72275226Y26226092D01*
X72269188Y26157147D01*
X72259783Y26113240D01*
X72250875Y26102715D01*
X72214285Y26097269D01*
X72157675Y26083974D01*
X72145041Y26080553D01*
X72065666Y26058510D01*
X72065727Y25874296D01*
X72066338Y25785431D01*
X72070042Y25728667D01*
X72079753Y25693772D01*
X72098383Y25670513D01*
X72128846Y25648659D01*
X72130230Y25647750D01*
X72184544Y25607489D01*
X72223787Y25563988D01*
X72250321Y25509718D01*
X72266507Y25437154D01*
X72274707Y25338769D01*
X72277284Y25207036D01*
X72277333Y25179002D01*
X72276203Y25041849D01*
X72271059Y24941346D01*
X72259273Y24871835D01*
X72238214Y24827654D01*
X72205255Y24803146D01*
X72157766Y24792648D01*
X72096857Y24790500D01*
X72025335Y24793858D01*
X71922613Y24803112D01*
X71799218Y24817023D01*
X71665677Y24834357D01*
X71532519Y24853878D01*
X71467708Y24864351D01*
X71435439Y24868052D01*
X71418050Y24859179D01*
X71410941Y24828506D01*
X71409509Y24766808D01*
X71409500Y24747637D01*
X71411914Y24680752D01*
X71418188Y24634801D01*
X71425375Y24620882D01*
X71459722Y24617555D01*
X71526141Y24608978D01*
X71616162Y24596425D01*
X71721319Y24581172D01*
X71833143Y24564493D01*
X71943168Y24547663D01*
X72042926Y24531956D01*
X72123949Y24518649D01*
X72177770Y24509014D01*
X72195091Y24505004D01*
X72226118Y24483898D01*
X72248742Y24444419D01*
X72264041Y24381195D01*
X72273095Y24288855D01*
X72276982Y24162025D01*
X72277333Y24095358D01*
X72277333Y23804375D01*
X72084775Y23710062D01*
X71892217Y23615750D01*
X71986287Y23602092D01*
X72093407Y23578216D01*
X72172153Y23538577D01*
X72226190Y23477791D01*
X72259178Y23390477D01*
X72274780Y23271253D01*
X72277333Y23174337D01*
X72277333Y22972156D01*
X72197958Y22950112D01*
X72139741Y22935706D01*
X72097189Y22928236D01*
X72092125Y22927951D01*
X72078386Y22914171D01*
X72069922Y22869835D01*
X72066071Y22790231D01*
X72065666Y22739845D01*
X72065666Y22551857D01*
X72139772Y22495334D01*
X72187223Y22456139D01*
X72222364Y22416596D01*
X72247021Y22369712D01*
X72263020Y22308496D01*
X72272187Y22225956D01*
X72276350Y22115099D01*
X72277333Y21968935D01*
X72277333Y21968655D01*
X72276944Y21838375D01*
X72275264Y21743353D01*
X72271524Y21676518D01*
X72264955Y21630797D01*
X72254786Y21599120D01*
X72240249Y21574413D01*
X72233463Y21565437D01*
X72199582Y21531124D01*
X72158200Y21514508D01*
X72093248Y21509725D01*
X72080623Y21509666D01*
X72008568Y21512993D01*
X71909917Y21522076D01*
X71793973Y21535574D01*
X71670037Y21552142D01*
X71547410Y21570437D01*
X71435395Y21589117D01*
X71343294Y21606837D01*
X71280408Y21622254D01*
X71265863Y21627330D01*
X71214517Y21658077D01*
X71177654Y21705012D01*
X71153327Y21774220D01*
X71139588Y21871785D01*
X71134489Y22003790D01*
X71134333Y22038153D01*
X71134216Y22143267D01*
X71137346Y22212583D01*
X71148940Y22252591D01*
X71174218Y22269780D01*
X71218399Y22270640D01*
X71286700Y22261660D01*
X71311295Y22258206D01*
X71409500Y22244745D01*
X71409500Y22057122D01*
X71410925Y21963887D01*
X71415929Y21906092D01*
X71425603Y21876920D01*
X71439518Y21869500D01*
X71486064Y21862074D01*
X71503018Y21856652D01*
X71518925Y21855607D01*
X71528897Y21872021D01*
X71534250Y21912979D01*
X71536301Y21985564D01*
X71536500Y22036818D01*
X71536500Y22229833D01*
X71626458Y22217667D01*
X71712957Y22206130D01*
X71767375Y22194037D01*
X71797090Y22172560D01*
X71809480Y22132874D01*
X71811924Y22066151D01*
X71811666Y21996096D01*
X71811666Y21806000D01*
X71869875Y21805710D01*
X71933356Y21800662D01*
X71975708Y21792658D01*
X71996222Y21788495D01*
X72009793Y21793690D01*
X72017855Y21815105D01*
X72021843Y21859601D01*
X72023191Y21934040D01*
X72023332Y22020489D01*
X72023331Y22261083D01*
X71773219Y22395569D01*
X71711123Y22428959D01*
X71560486Y22510732D01*
X71442893Y22576829D01*
X71353581Y22630621D01*
X71287789Y22675480D01*
X71240754Y22714779D01*
X71207715Y22751890D01*
X71183911Y22790184D01*
X71179371Y22799555D01*
X71634960Y22799555D01*
X71646996Y22778313D01*
X71677364Y22756147D01*
X71737519Y22723124D01*
X71773219Y22722072D01*
X71788844Y22753967D01*
X71790500Y22781348D01*
X71787417Y22824984D01*
X71769582Y22838818D01*
X71724115Y22832290D01*
X71721708Y22831775D01*
X71658850Y22815646D01*
X71634960Y22799555D01*
X71179371Y22799555D01*
X71174978Y22808623D01*
X71153326Y22856557D01*
X71140398Y22893881D01*
X71140435Y22923403D01*
X71157675Y22947931D01*
X71196359Y22970271D01*
X71260728Y22993231D01*
X71355021Y23019617D01*
X71483479Y23052238D01*
X71578833Y23076000D01*
X72023333Y23186900D01*
X72023333Y23247463D01*
X72023299Y23270782D01*
X72019616Y23288628D01*
X72006907Y23302580D01*
X71979798Y23314217D01*
X71932915Y23325116D01*
X71860882Y23336855D01*
X71817629Y23342826D01*
X71758325Y23351014D01*
X71619869Y23369170D01*
X71600000Y23371769D01*
X71488875Y23386464D01*
X71481117Y23387490D01*
X71372025Y23402208D01*
X71281961Y23414655D01*
X71220163Y23423565D01*
X71203125Y23426233D01*
X71134333Y23437751D01*
X71134333Y23622140D01*
X71136743Y23716411D01*
X71138038Y23733978D01*
X71413721Y23733978D01*
X71426598Y23694213D01*
X71461610Y23676449D01*
X71488875Y23672617D01*
X71536418Y23673132D01*
X71555761Y23692484D01*
X71551832Y23739073D01*
X71544708Y23767744D01*
X71517754Y23814279D01*
X71479161Y23829125D01*
X71441285Y23815466D01*
X71416483Y23776486D01*
X71413721Y23733978D01*
X71138038Y23733978D01*
X71143145Y23803288D01*
X71152296Y23867430D01*
X71155146Y23879100D01*
X71182377Y23938255D01*
X71226352Y24000161D01*
X71276941Y24053434D01*
X71324017Y24086689D01*
X71344860Y24092324D01*
X71366661Y24095553D01*
X71350928Y24109947D01*
X71346000Y24113166D01*
X71299088Y24130220D01*
X71266624Y24134009D01*
X71216200Y24148811D01*
X71176666Y24176666D01*
X71163081Y24192498D01*
X71152755Y24212972D01*
X71148587Y24229986D01*
X71409500Y24229986D01*
X71410539Y24163289D01*
X71417466Y24128521D01*
X71435996Y24115282D01*
X71471845Y24113167D01*
X71473679Y24113166D01*
X71583343Y24094573D01*
X71678652Y24037869D01*
X71761720Y23941666D01*
X71780587Y23911678D01*
X71795911Y23892618D01*
X71817629Y23889298D01*
X71856457Y23903272D01*
X71912879Y23930908D01*
X72023333Y23986879D01*
X72023333Y24124106D01*
X72020458Y24194066D01*
X72012938Y24243503D01*
X72002894Y24261333D01*
X71971058Y24264186D01*
X71907803Y24271788D01*
X71823590Y24282705D01*
X71728881Y24295504D01*
X71634135Y24308751D01*
X71549814Y24321012D01*
X71486379Y24330852D01*
X71457125Y24336145D01*
X71429936Y24339177D01*
X71415723Y24326367D01*
X71410307Y24288400D01*
X71409500Y24229986D01*
X71148587Y24229986D01*
X71145242Y24243641D01*
X71140099Y24290057D01*
X71136881Y24357773D01*
X71135144Y24452340D01*
X71134444Y24579313D01*
X71134333Y24705833D01*
X71134991Y24844240D01*
X71136836Y24967276D01*
X71139676Y25069045D01*
X71143318Y25143654D01*
X71147570Y25185206D01*
X71150208Y25191838D01*
X71175126Y25188767D01*
X71235374Y25180683D01*
X71324367Y25168489D01*
X71435516Y25153090D01*
X71562235Y25135389D01*
X71586204Y25132026D01*
X71740321Y25111144D01*
X71856409Y25097264D01*
X71938136Y25090094D01*
X71989175Y25089342D01*
X72013196Y25094718D01*
X72015869Y25097912D01*
X72019837Y25130619D01*
X72020954Y25192055D01*
X72019081Y25266018D01*
X72012750Y25409252D01*
X71772869Y25539548D01*
X71663500Y25598954D01*
X71547763Y25663330D01*
X71440495Y25725795D01*
X71349129Y25781803D01*
X71281097Y25826811D01*
X71245857Y25854260D01*
X71195367Y25915503D01*
X71177073Y25948974D01*
X71597998Y25948974D01*
X71678374Y25899564D01*
X71739193Y25864216D01*
X71772869Y25853483D01*
X71787328Y25868269D01*
X71790495Y25909475D01*
X71790500Y25912333D01*
X71781766Y25961084D01*
X71761395Y25975833D01*
X71720877Y25971855D01*
X71665144Y25962403D01*
X71597998Y25948974D01*
X71177073Y25948974D01*
X71157203Y25985330D01*
X71137775Y26049769D01*
X71139401Y26086287D01*
X71161598Y26098757D01*
X71218810Y26119133D01*
X71304861Y26145549D01*
X71413576Y26176139D01*
X71538779Y26209038D01*
X71580312Y26219498D01*
X71724026Y26255503D01*
X71831881Y26283368D01*
X71909128Y26305059D01*
X71961019Y26322537D01*
X71992806Y26337767D01*
X72009739Y26352711D01*
X72017070Y26369334D01*
X72019376Y26383656D01*
X72021910Y26405164D01*
X72020291Y26421725D01*
X72009317Y26434806D01*
X71983787Y26445874D01*
X71938498Y26456395D01*
X71868249Y26467835D01*
X71767837Y26481662D01*
X71632062Y26499341D01*
X71589416Y26504868D01*
X71439196Y26524107D01*
X71325780Y26538998D01*
X71244127Y26551596D01*
X71189195Y26563955D01*
X71155943Y26578130D01*
X71139329Y26596176D01*
X71134311Y26620147D01*
X71135848Y26652098D01*
X71138625Y26688575D01*
X71144916Y26804848D01*
X71445985Y26965924D01*
X71546834Y27020404D01*
X71632591Y27067737D01*
X71697170Y27104481D01*
X71734485Y27127195D01*
X71741203Y27132852D01*
X71719163Y27138236D01*
X71664332Y27148122D01*
X71585817Y27160935D01*
X71521696Y27170794D01*
X71398397Y27190531D01*
X71309978Y27208805D01*
X71249227Y27228708D01*
X71208936Y27253332D01*
X71181896Y27285768D01*
X71162694Y27324762D01*
X71149745Y27364262D01*
X71141177Y27414537D01*
X71136561Y27482981D01*
X71135470Y27576987D01*
X71137473Y27703949D01*
X71138439Y27742938D01*
X71143395Y27870709D01*
X71420083Y27870709D01*
X71674083Y27834850D01*
X71801575Y27816652D01*
X71892769Y27804596D01*
X71953423Y27799989D01*
X71989297Y27804137D01*
X72006148Y27818347D01*
X72009736Y27843926D01*
X72005818Y27882181D01*
X72002518Y27909388D01*
X71988632Y27985344D01*
X71967231Y28051980D01*
X71954657Y28076635D01*
X71913353Y28116990D01*
X71850857Y28155237D01*
X71823300Y28167306D01*
X71712244Y28193168D01*
X71610405Y28186346D01*
X71524392Y28150222D01*
X71460814Y28088177D01*
X71426280Y28003594D01*
X71422023Y27961971D01*
X71420083Y27870709D01*
X71143395Y27870709D01*
X71144610Y27902048D01*
X71155193Y28026090D01*
X71172299Y28122267D01*
X71198038Y28197782D01*
X71234519Y28259838D01*
X71283853Y28315637D01*
X71314471Y28343856D01*
X71401916Y28409944D01*
X71490150Y28450218D01*
X71593583Y28469637D01*
X71691189Y28473499D01*
X71785527Y28470297D01*
G36*
X71785527Y28470297D02*
G01*
X71858669Y28457520D01*
X71931480Y28430418D01*
X71977914Y28408200D01*
X72078351Y28348945D01*
X72154936Y28280347D01*
X72210379Y28196355D01*
X72247393Y28090916D01*
X72268687Y27957979D01*
X72276974Y27791492D01*
X72277333Y27739885D01*
X72276891Y27630757D01*
X72274855Y27557067D01*
X72270154Y27511921D01*
X72261722Y27488427D01*
X72248489Y27479693D01*
X72236842Y27478666D01*
X72203550Y27481463D01*
X72135840Y27489230D01*
X72041213Y27501035D01*
X71953423Y27512511D01*
X71927170Y27515944D01*
X71811666Y27531583D01*
X71689135Y27548376D01*
X71581765Y27562972D01*
X71496311Y27574463D01*
X71439526Y27581940D01*
X71418241Y27584500D01*
X71411964Y27566146D01*
X71409499Y27524463D01*
X71409499Y27464426D01*
X71764041Y27417187D01*
X71888225Y27400566D01*
X72003453Y27385006D01*
X72100694Y27371738D01*
X72170918Y27361991D01*
X72197958Y27358102D01*
X72277333Y27346256D01*
X72277149Y27108250D01*
X72007366Y26966474D01*
X71878963Y26899062D01*
X71785947Y26848956D01*
X71726586Y26813111D01*
X71699145Y26788480D01*
X71701892Y26772018D01*
X71733093Y26760679D01*
X71791016Y26751417D01*
X71873926Y26741186D01*
X71878824Y26740579D01*
X72016861Y26719947D01*
X72118262Y26695969D01*
X72188710Y26666485D01*
X72233886Y26629335D01*
X72253233Y26598233D01*
X72264747Y26553308D01*
X72272655Y26483684D01*
X72277007Y26399308D01*
X72277848Y26310128D01*
X72275226Y26226092D01*
X72269188Y26157147D01*
X72259783Y26113240D01*
X72250875Y26102715D01*
X72214285Y26097269D01*
X72157675Y26083974D01*
X72145041Y26080553D01*
X72065666Y26058510D01*
X72065727Y25874296D01*
X72066338Y25785431D01*
X72070042Y25728667D01*
X72079753Y25693772D01*
X72098383Y25670513D01*
X72128846Y25648659D01*
X72130230Y25647750D01*
X72184544Y25607489D01*
X72223787Y25563988D01*
X72250321Y25509718D01*
X72266507Y25437154D01*
X72274707Y25338769D01*
X72277284Y25207036D01*
X72277333Y25179002D01*
X72276203Y25041849D01*
X72271059Y24941346D01*
X72259273Y24871835D01*
X72238214Y24827654D01*
X72205255Y24803146D01*
X72157766Y24792648D01*
X72096857Y24790500D01*
X72025335Y24793858D01*
X71922613Y24803112D01*
X71799218Y24817023D01*
X71665677Y24834357D01*
X71532519Y24853878D01*
X71467708Y24864351D01*
X71435439Y24868052D01*
X71418050Y24859179D01*
X71410941Y24828506D01*
X71409509Y24766808D01*
X71409500Y24747637D01*
X71411914Y24680752D01*
X71418188Y24634801D01*
X71425375Y24620882D01*
X71459722Y24617555D01*
X71526141Y24608978D01*
X71616162Y24596425D01*
X71721319Y24581172D01*
X71833143Y24564493D01*
X71943168Y24547663D01*
X72042926Y24531956D01*
X72123949Y24518649D01*
X72177770Y24509014D01*
X72195091Y24505004D01*
X72226118Y24483898D01*
X72248742Y24444419D01*
X72264041Y24381195D01*
X72273095Y24288855D01*
X72276982Y24162025D01*
X72277333Y24095358D01*
X72277333Y23804375D01*
X72084775Y23710062D01*
X71892217Y23615750D01*
X71986287Y23602092D01*
X72093407Y23578216D01*
X72172153Y23538577D01*
X72226190Y23477791D01*
X72259178Y23390477D01*
X72274780Y23271253D01*
X72277333Y23174337D01*
X72277333Y22972156D01*
X72197958Y22950112D01*
X72139741Y22935706D01*
X72097189Y22928236D01*
X72092125Y22927951D01*
X72078386Y22914171D01*
X72069922Y22869835D01*
X72066071Y22790231D01*
X72065666Y22739845D01*
X72065666Y22551857D01*
X72139772Y22495334D01*
X72187223Y22456139D01*
X72222364Y22416596D01*
X72247021Y22369712D01*
X72263020Y22308496D01*
X72272187Y22225956D01*
X72276350Y22115099D01*
X72277333Y21968935D01*
X72277333Y21968655D01*
X72276944Y21838375D01*
X72275264Y21743353D01*
X72271524Y21676518D01*
X72264955Y21630797D01*
X72254786Y21599120D01*
X72240249Y21574413D01*
X72233463Y21565437D01*
X72199582Y21531124D01*
X72158200Y21514508D01*
X72093248Y21509725D01*
X72080623Y21509666D01*
X72008568Y21512993D01*
X71909917Y21522076D01*
X71793973Y21535574D01*
X71670037Y21552142D01*
X71547410Y21570437D01*
X71435395Y21589117D01*
X71343294Y21606837D01*
X71280408Y21622254D01*
X71265863Y21627330D01*
X71214517Y21658077D01*
X71177654Y21705012D01*
X71153327Y21774220D01*
X71139588Y21871785D01*
X71134489Y22003790D01*
X71134333Y22038153D01*
X71134216Y22143267D01*
X71137346Y22212583D01*
X71148940Y22252591D01*
X71174218Y22269780D01*
X71218399Y22270640D01*
X71286700Y22261660D01*
X71311295Y22258206D01*
X71409500Y22244745D01*
X71409500Y22057122D01*
X71410925Y21963887D01*
X71415929Y21906092D01*
X71425603Y21876920D01*
X71439518Y21869500D01*
X71486064Y21862074D01*
X71503018Y21856652D01*
X71518925Y21855607D01*
X71528897Y21872021D01*
X71534250Y21912979D01*
X71536301Y21985564D01*
X71536500Y22036818D01*
X71536500Y22229833D01*
X71626458Y22217667D01*
X71712957Y22206130D01*
X71767375Y22194037D01*
X71797090Y22172560D01*
X71809480Y22132874D01*
X71811924Y22066151D01*
X71811666Y21996096D01*
X71811666Y21806000D01*
X71869875Y21805710D01*
X71933356Y21800662D01*
X71975708Y21792658D01*
X71996222Y21788495D01*
X72009793Y21793690D01*
X72017855Y21815105D01*
X72021843Y21859601D01*
X72023191Y21934040D01*
X72023332Y22020489D01*
X72023331Y22261083D01*
X71773219Y22395569D01*
X71711123Y22428959D01*
X71560486Y22510732D01*
X71442893Y22576829D01*
X71353581Y22630621D01*
X71287789Y22675480D01*
X71240754Y22714779D01*
X71207715Y22751890D01*
X71183911Y22790184D01*
X71179371Y22799555D01*
X71634960Y22799555D01*
X71646996Y22778313D01*
X71677364Y22756147D01*
X71737519Y22723124D01*
X71773219Y22722072D01*
X71788844Y22753967D01*
X71790500Y22781348D01*
X71787417Y22824984D01*
X71769582Y22838818D01*
X71724115Y22832290D01*
X71721708Y22831775D01*
X71658850Y22815646D01*
X71634960Y22799555D01*
X71179371Y22799555D01*
X71174978Y22808623D01*
X71153326Y22856557D01*
X71140398Y22893881D01*
X71140435Y22923403D01*
X71157675Y22947931D01*
X71196359Y22970271D01*
X71260728Y22993231D01*
X71355021Y23019617D01*
X71483479Y23052238D01*
X71578833Y23076000D01*
X72023333Y23186900D01*
X72023333Y23247463D01*
X72023299Y23270782D01*
X72019616Y23288628D01*
X72006907Y23302580D01*
X71979798Y23314217D01*
X71932915Y23325116D01*
X71860882Y23336855D01*
X71817629Y23342826D01*
X71758325Y23351014D01*
X71619869Y23369170D01*
X71600000Y23371769D01*
X71488875Y23386464D01*
X71481117Y23387490D01*
X71372025Y23402208D01*
X71281961Y23414655D01*
X71220163Y23423565D01*
X71203125Y23426233D01*
X71134333Y23437751D01*
X71134333Y23622140D01*
X71136743Y23716411D01*
X71138038Y23733978D01*
X71413721Y23733978D01*
X71426598Y23694213D01*
X71461610Y23676449D01*
X71488875Y23672617D01*
X71536418Y23673132D01*
X71555761Y23692484D01*
X71551832Y23739073D01*
X71544708Y23767744D01*
X71517754Y23814279D01*
X71479161Y23829125D01*
X71441285Y23815466D01*
X71416483Y23776486D01*
X71413721Y23733978D01*
X71138038Y23733978D01*
X71143145Y23803288D01*
X71152296Y23867430D01*
X71155146Y23879100D01*
X71182377Y23938255D01*
X71226352Y24000161D01*
X71276941Y24053434D01*
X71324017Y24086689D01*
X71344860Y24092324D01*
X71366661Y24095553D01*
X71350928Y24109947D01*
X71346000Y24113166D01*
X71299088Y24130220D01*
X71266624Y24134009D01*
X71216200Y24148811D01*
X71176666Y24176666D01*
X71163081Y24192498D01*
X71152755Y24212972D01*
X71148587Y24229986D01*
X71409500Y24229986D01*
X71410539Y24163289D01*
X71417466Y24128521D01*
X71435996Y24115282D01*
X71471845Y24113167D01*
X71473679Y24113166D01*
X71583343Y24094573D01*
X71678652Y24037869D01*
X71761720Y23941666D01*
X71780587Y23911678D01*
X71795911Y23892618D01*
X71817629Y23889298D01*
X71856457Y23903272D01*
X71912879Y23930908D01*
X72023333Y23986879D01*
X72023333Y24124106D01*
X72020458Y24194066D01*
X72012938Y24243503D01*
X72002894Y24261333D01*
X71971058Y24264186D01*
X71907803Y24271788D01*
X71823590Y24282705D01*
X71728881Y24295504D01*
X71634135Y24308751D01*
X71549814Y24321012D01*
X71486379Y24330852D01*
X71457125Y24336145D01*
X71429936Y24339177D01*
X71415723Y24326367D01*
X71410307Y24288400D01*
X71409500Y24229986D01*
X71148587Y24229986D01*
X71145242Y24243641D01*
X71140099Y24290057D01*
X71136881Y24357773D01*
X71135144Y24452340D01*
X71134444Y24579313D01*
X71134333Y24705833D01*
X71134991Y24844240D01*
X71136836Y24967276D01*
X71139676Y25069045D01*
X71143318Y25143654D01*
X71147570Y25185206D01*
X71150208Y25191838D01*
X71175126Y25188767D01*
X71235374Y25180683D01*
X71324367Y25168489D01*
X71435516Y25153090D01*
X71562235Y25135389D01*
X71586204Y25132026D01*
X71740321Y25111144D01*
X71856409Y25097264D01*
X71938136Y25090094D01*
X71989175Y25089342D01*
X72013196Y25094718D01*
X72015869Y25097912D01*
X72019837Y25130619D01*
X72020954Y25192055D01*
X72019081Y25266018D01*
X72012750Y25409252D01*
X71772869Y25539548D01*
X71663500Y25598954D01*
X71547763Y25663330D01*
X71440495Y25725795D01*
X71349129Y25781803D01*
X71281097Y25826811D01*
X71245857Y25854260D01*
X71195367Y25915503D01*
X71177073Y25948974D01*
X71597998Y25948974D01*
X71678374Y25899564D01*
X71739193Y25864216D01*
X71772869Y25853483D01*
X71787328Y25868269D01*
X71790495Y25909475D01*
X71790500Y25912333D01*
X71781766Y25961084D01*
X71761395Y25975833D01*
X71720877Y25971855D01*
X71665144Y25962403D01*
X71597998Y25948974D01*
X71177073Y25948974D01*
X71157203Y25985330D01*
X71137775Y26049769D01*
X71139401Y26086287D01*
X71161598Y26098757D01*
X71218810Y26119133D01*
X71304861Y26145549D01*
X71413576Y26176139D01*
X71538779Y26209038D01*
X71580312Y26219498D01*
X71724026Y26255503D01*
X71831881Y26283368D01*
X71909128Y26305059D01*
X71961019Y26322537D01*
X71992806Y26337767D01*
X72009739Y26352711D01*
X72017070Y26369334D01*
X72019376Y26383656D01*
X72021910Y26405164D01*
X72020291Y26421725D01*
X72009317Y26434806D01*
X71983787Y26445874D01*
X71938498Y26456395D01*
X71868249Y26467835D01*
X71767837Y26481662D01*
X71632062Y26499341D01*
X71589416Y26504868D01*
X71439196Y26524107D01*
X71325780Y26538998D01*
X71244127Y26551596D01*
X71189195Y26563955D01*
X71155943Y26578130D01*
X71139329Y26596176D01*
X71134311Y26620147D01*
X71135848Y26652098D01*
X71138625Y26688575D01*
X71144916Y26804848D01*
X71445985Y26965924D01*
X71546834Y27020404D01*
X71632591Y27067737D01*
X71697170Y27104481D01*
X71734485Y27127195D01*
X71741203Y27132852D01*
X71719163Y27138236D01*
X71664332Y27148122D01*
X71585817Y27160935D01*
X71521696Y27170794D01*
X71398397Y27190531D01*
X71309978Y27208805D01*
X71249227Y27228708D01*
X71208936Y27253332D01*
X71181896Y27285768D01*
X71162694Y27324762D01*
X71149745Y27364262D01*
X71141177Y27414537D01*
X71136561Y27482981D01*
X71135470Y27576987D01*
X71137473Y27703949D01*
X71138439Y27742938D01*
X71143395Y27870709D01*
X71420083Y27870709D01*
X71674083Y27834850D01*
X71801575Y27816652D01*
X71892769Y27804596D01*
X71953423Y27799989D01*
X71989297Y27804137D01*
X72006148Y27818347D01*
X72009736Y27843926D01*
X72005818Y27882181D01*
X72002518Y27909388D01*
X71988632Y27985344D01*
X71967231Y28051980D01*
X71954657Y28076635D01*
X71913353Y28116990D01*
X71850857Y28155237D01*
X71823300Y28167306D01*
X71712244Y28193168D01*
X71610405Y28186346D01*
X71524392Y28150222D01*
X71460814Y28088177D01*
X71426280Y28003594D01*
X71422023Y27961971D01*
X71420083Y27870709D01*
X71143395Y27870709D01*
X71144610Y27902048D01*
X71155193Y28026090D01*
X71172299Y28122267D01*
X71198038Y28197782D01*
X71234519Y28259838D01*
X71283853Y28315637D01*
X71314471Y28343856D01*
X71401916Y28409944D01*
X71490150Y28450218D01*
X71593583Y28469637D01*
X71691189Y28473499D01*
X71785527Y28470297D01*
G37*
D10*
X44790000Y14059420D02*
X44790000Y14340580D01*
X45810000Y14059420D02*
X45810000Y14340580D01*
X64477500Y10537258D02*
X64477500Y10062742D01*
X65522500Y10537258D02*
X65522500Y10062742D01*
X45490000Y35590580D02*
X45490000Y35309420D01*
X46510000Y35590580D02*
X46510000Y35309420D01*
X19862742Y41322500D02*
X20337258Y41322500D01*
X19862742Y40277500D02*
X20337258Y40277500D01*
D11*
X41000000Y23150000D02*
X42150000Y23150000D01*
X41000000Y22900000D02*
X41000000Y23150000D01*
X41000000Y20250000D02*
X41000000Y20500000D01*
X42150000Y20250000D02*
X41000000Y20250000D01*
X44900000Y23150000D02*
X43750000Y23150000D01*
X44900000Y22900000D02*
X44900000Y23150000D01*
X44900000Y20500000D02*
X44900000Y20250000D01*
X44900000Y20250000D02*
X43750000Y20250000D01*
X46150000Y21700000D02*
X46150000Y21700000D01*
X46250000Y21700000D02*
X46250000Y21700000D01*
X46250000Y21700000D02*
X46250000Y21700000D01*
X46150000Y21700000D02*
G75*
G02*
X46250000Y21700000I50000J0D01*
G01*
X46150000Y21700000D02*
G75*
G02*
X46250000Y21700000I50000J0D01*
G01*
X46250000Y21700000D02*
G75*
G02*
X46150000Y21700000I-50000J0D01*
G01*
D10*
X28540580Y2510000D02*
X28259420Y2510000D01*
X28540580Y1490000D02*
X28259420Y1490000D01*
D15*
X7276600Y39232700D02*
X7276600Y23967300D01*
X7276600Y23967300D02*
X7693160Y23967300D01*
X7693160Y39232700D02*
X7276600Y39232700D01*
X25706840Y23967300D02*
X26123400Y23967300D01*
X26123400Y39232700D02*
X25706840Y39232700D01*
X26123400Y23967300D02*
X26123400Y39232700D01*
X8546600Y22468700D02*
G75*
G02*
X8343400Y22468700I-101600J0D01*
G01*
X8343400Y22468700D02*
G75*
G02*
X8546600Y22468700I101600J0D01*
G01*
D10*
X44259420Y25610000D02*
X44540580Y25610000D01*
X44259420Y24590000D02*
X44540580Y24590000D01*
X10177500Y11437258D02*
X10177500Y10962742D01*
X11222500Y11437258D02*
X11222500Y10962742D01*
X43190000Y14340580D02*
X43190000Y14059420D01*
X44210000Y14340580D02*
X44210000Y14059420D01*
X61477500Y10537258D02*
X61477500Y10062742D01*
X62522500Y10537258D02*
X62522500Y10062742D01*
D11*
X9376000Y19600000D02*
X18024000Y19600000D01*
X9376000Y16400000D02*
X9376000Y19600000D01*
X17125000Y21475000D02*
X17125000Y19950000D01*
X18024000Y19600000D02*
X18024000Y16400000D01*
X18024000Y16400000D02*
X9376000Y16400000D01*
D10*
X38150000Y3370000D02*
X38150000Y2230000D01*
X38150000Y3370000D02*
X40250000Y3370000D01*
X38150000Y2230000D02*
X40250000Y2230000D01*
X62977500Y10537258D02*
X62977500Y10062742D01*
X64022500Y10537258D02*
X64022500Y10062742D01*
X39262742Y4822500D02*
X39737258Y4822500D01*
X39262742Y3777500D02*
X39737258Y3777500D01*
X43890000Y35590580D02*
X43890000Y35309420D01*
X44910000Y35590580D02*
X44910000Y35309420D01*
X35490000Y5140580D02*
X35490000Y4859420D01*
X36510000Y5140580D02*
X36510000Y4859420D01*
X32037258Y24922500D02*
X31562742Y24922500D01*
X32037258Y23877500D02*
X31562742Y23877500D01*
D11*
X12934000Y8300000D02*
G75*
G02*
X12866000Y8300000I-34000J0D01*
G01*
X12866000Y8300000D02*
G75*
G02*
X12934000Y8300000I34000J0D01*
G01*
D10*
X43877500Y32037258D02*
X43877500Y31562742D01*
X44922500Y32037258D02*
X44922500Y31562742D01*
D16*
X13150000Y27250000D02*
G75*
G02*
X12750000Y27250000I-200000J0D01*
G01*
X12750000Y27250000D02*
G75*
G02*
X13150000Y27250000I200000J0D01*
G01*
D17*
X1716721Y32453039D02*
X1723694Y31653065D01*
X1723694Y31653065D02*
X2470172Y31659585D01*
X2463186Y32459552D02*
X1716721Y32453039D01*
X2463186Y32459552D02*
G75*
G02*
X7059428Y36749819I4636698J-360227D01*
G01*
X7059429Y36749820D02*
G75*
G02*
X11749821Y32140571I40571J-4649821D01*
G01*
X7140571Y27450180D02*
G75*
G02*
X2470186Y31659587I-40382J4650822D01*
G01*
X11749820Y32140571D02*
G75*
G02*
X7140571Y27450180I-4649820J-40571D01*
G01*
D11*
X3362084Y28473652D02*
G75*
G02*
X3162084Y28473652I-100000J0D01*
G01*
X3162084Y28473652D02*
G75*
G02*
X3362084Y28473652I100000J0D01*
G01*
X41000000Y19450000D02*
X42150000Y19450000D01*
X41000000Y19200000D02*
X41000000Y19450000D01*
X41000000Y16550000D02*
X41000000Y16800000D01*
X42150000Y16550000D02*
X41000000Y16550000D01*
X44900000Y19450000D02*
X43750000Y19450000D01*
X44900000Y19200000D02*
X44900000Y19450000D01*
X44900000Y16800000D02*
X44900000Y16550000D01*
X44900000Y16550000D02*
X43750000Y16550000D01*
X46150000Y18000000D02*
X46150000Y18000000D01*
X46250000Y18000000D02*
X46250000Y18000000D01*
X46250000Y18000000D02*
X46250000Y18000000D01*
X46150000Y18000000D02*
G75*
G02*
X46250000Y18000000I50000J0D01*
G01*
X46150000Y18000000D02*
G75*
G02*
X46250000Y18000000I50000J0D01*
G01*
X46250000Y18000000D02*
G75*
G02*
X46150000Y18000000I-50000J0D01*
G01*
D10*
X26422500Y12450000D02*
X26422500Y6030000D01*
X26422500Y6030000D02*
X26692500Y6030000D01*
X33322500Y12450000D02*
X33322500Y6030000D01*
X33322500Y6030000D02*
X33052500Y6030000D01*
X26732500Y4300000D02*
X26262500Y3960000D01*
X26262500Y4640000D01*
X26732500Y4300000D01*
G36*
X26732500Y4300000D02*
G01*
X26262500Y3960000D01*
X26262500Y4640000D01*
X26732500Y4300000D01*
G37*
X15059420Y12410000D02*
X15340580Y12410000D01*
X15059420Y11390000D02*
X15340580Y11390000D01*
X44112742Y27222500D02*
X44587258Y27222500D01*
X44112742Y26177500D02*
X44587258Y26177500D01*
X24690000Y16440580D02*
X24690000Y16159420D01*
X25710000Y16440580D02*
X25710000Y16159420D01*
X35690000Y31290580D02*
X35690000Y31009420D01*
X36710000Y31290580D02*
X36710000Y31009420D01*
X55337258Y11822500D02*
X54862742Y11822500D01*
X55337258Y10777500D02*
X54862742Y10777500D01*
X5190000Y25259420D02*
X5190000Y25540580D01*
X6210000Y25259420D02*
X6210000Y25540580D01*
X11677500Y11437258D02*
X11677500Y10962742D01*
X12722500Y11437258D02*
X12722500Y10962742D01*
X8540580Y10910000D02*
X8259420Y10910000D01*
X8540580Y9890000D02*
X8259420Y9890000D01*
X59977500Y10537258D02*
X59977500Y10062742D01*
X61022500Y10537258D02*
X61022500Y10062742D01*
X28840580Y24910000D02*
X28559420Y24910000D01*
X28840580Y23890000D02*
X28559420Y23890000D01*
X26490000Y20340580D02*
X26490000Y20059420D01*
X27510000Y20340580D02*
X27510000Y20059420D01*
D15*
X58877201Y7027000D02*
X58877201Y778600D01*
X58877201Y778600D02*
X68122801Y778600D01*
X68122801Y7027000D02*
X58877201Y7027000D01*
X68122801Y778600D02*
X68122801Y7027000D01*
D18*
X59900002Y7700000D02*
G75*
G02*
X59500002Y7700000I-200000J0D01*
G01*
X59500002Y7700000D02*
G75*
G02*
X59900002Y7700000I200000J0D01*
G01*
D10*
X53800000Y13470000D02*
X53800000Y12330000D01*
X53800000Y13470000D02*
X55900000Y13470000D01*
X53800000Y12330000D02*
X55900000Y12330000D01*
X26440000Y16600000D02*
X26440000Y17400000D01*
X26440000Y16600000D02*
X26440000Y15800000D01*
X29560000Y16600000D02*
X29560000Y17400000D01*
X29560000Y16600000D02*
X29560000Y15800000D01*
X26490000Y15300000D02*
X26160000Y15060000D01*
X26160000Y15540000D01*
X26490000Y15300000D01*
G36*
X26490000Y15300000D02*
G01*
X26160000Y15060000D01*
X26160000Y15540000D01*
X26490000Y15300000D01*
G37*
D12*
X21900000Y6000000D02*
X22408000Y6000000D01*
X22154000Y5746000D02*
X22154000Y6254000D01*
D11*
X22425000Y9600000D02*
X22425000Y6400000D01*
X23975000Y6400000D02*
X23975000Y9600000D01*
D10*
X33790000Y5140580D02*
X33790000Y4859420D01*
X34810000Y5140580D02*
X34810000Y4859420D01*
X27990000Y20340580D02*
X27990000Y20059420D01*
X29010000Y20340580D02*
X29010000Y20059420D01*
D15*
X48377201Y7014300D02*
X48377201Y765900D01*
X48377201Y765900D02*
X57622801Y765900D01*
X57622801Y7014300D02*
X48377201Y7014300D01*
X57622801Y765900D02*
X57622801Y7014300D01*
D18*
X49400002Y7687300D02*
G75*
G02*
X49000002Y7687300I-200000J0D01*
G01*
X49000002Y7687300D02*
G75*
G02*
X49400002Y7687300I200000J0D01*
G01*
D11*
X48000000Y34710000D02*
X48000000Y34710000D01*
X48000000Y34510000D02*
X48000000Y34510000D01*
X48000000Y34710000D02*
G75*
G02*
X48000000Y34510000I0J-100000D01*
G01*
X48000000Y34510000D02*
G75*
G02*
X48000000Y34710000I0J100000D01*
G01*
D10*
X45459420Y7810000D02*
X45740580Y7810000D01*
X45459420Y6790000D02*
X45740580Y6790000D01*
M02*
