G04 #@! TF.GenerationSoftware,KiCad,Pcbnew,9.0.2*
G04 #@! TF.CreationDate,2025-06-18T11:41:48+09:00*
G04 #@! TF.ProjectId,Work,576f726b-2e6b-4696-9361-645f70636258,rev?*
G04 #@! TF.SameCoordinates,PX4cc5520PY8e93060*
G04 #@! TF.FileFunction,Profile,NP*
%FSLAX46Y46*%
G04 Gerber Fmt 4.6, Leading zero omitted, Abs format (unit mm)*
G04 Created by KiCad (PCBNEW 9.0.2) date 2025-06-18 11:41:48*
%MOMM*%
%LPD*%
G01*
G04 APERTURE LIST*
G04 #@! TA.AperFunction,Profile*
%ADD10C,0.100000*%
G04 #@! TD*
G04 #@! TA.AperFunction,Profile*
%ADD11C,0.050000*%
G04 #@! TD*
G04 APERTURE END LIST*
D10*
X7000000Y3000000D02*
X15300000Y3000000D01*
X70900000Y38300000D02*
X73100000Y38300000D01*
X700000Y15900000D02*
X6600000Y15900000D01*
X68500000Y2700000D02*
G75*
G02*
X70900000Y5100000I2400000J0D01*
G01*
X68500000Y40700000D02*
X68500000Y42900000D01*
X5500000Y2700000D02*
X5500000Y8700000D01*
X73100000Y38300000D02*
X73100000Y5100000D01*
X7000000Y2700000D02*
X5500000Y2700000D01*
D11*
X48800000Y41800000D02*
X67300000Y41800000D01*
X67300000Y35500000D01*
X48800000Y35500000D01*
X48800000Y41800000D01*
D10*
X68500000Y42900000D02*
X5500000Y42900000D01*
X38400000Y21700000D02*
G75*
G02*
X35400000Y21700000I-1500000J0D01*
G01*
X35400000Y21700000D02*
G75*
G02*
X38400000Y21700000I1500000J0D01*
G01*
X68500000Y2700000D02*
X68500000Y500000D01*
X15300000Y3000000D02*
X15300000Y2700000D01*
X70900000Y38300000D02*
G75*
G02*
X68500000Y40700000I0J2400000D01*
G01*
X70900000Y5100000D02*
X73100000Y5100000D01*
X700000Y38100000D02*
X700000Y15900000D01*
X68500000Y500000D02*
X25300000Y500000D01*
X6600000Y8700000D02*
X5500000Y8700000D01*
X5500000Y40700000D02*
G75*
G02*
X2900000Y38100000I-2600000J0D01*
G01*
X25300000Y2700000D02*
X25300000Y500000D01*
X7000000Y2700000D02*
X7000000Y3000000D01*
X5500000Y40700000D02*
X5500000Y42900000D01*
X22900000Y5100000D02*
G75*
G02*
X25300000Y2700000I0J-2400000D01*
G01*
X20500000Y4400000D02*
G75*
G02*
X21200000Y5100000I700000J0D01*
G01*
X20500000Y2700000D02*
X20500000Y4400000D01*
X20500000Y2700000D02*
X15300000Y2700000D01*
X2900000Y38100000D02*
X700000Y38100000D01*
X6600000Y15900000D02*
X6600000Y8700000D01*
X22900000Y5100000D02*
X21200000Y5100000D01*
M02*
